<svg xmlns="http://www.w3.org/2000/svg" viewBox="0 0 164 192"><style>:root {
      --text-white-color: #ffffff;
      --text-yellow-color: #e8b820;
      --title-grey-color: #a8b0b8;
      --lab-coat-color: #e8eaef;
      --skin-light-color: #e6c0a3;      /* @ws mix=skin-mid-color:0.48 */
      --skin-mid-color: #c08a6a;
      --skin-shadow-color: #8e5a40;      /* @ws mix=skin-mid-color:-0.33 */
      --hair-dark-color: #3a2a20;
      --bg-blue-color: #3a5a78;
      --bg-green-color: #3a6e5e;
      --bg-color: #1a2a3a;      /* @ws mix=bg-blue-color:-0.53 */

      /* Real-text overlay vs traced text shapes. Default overlay on. */
      --text-overlay: inline;             /* @ws select options=inline,none */
      --traced-text: none;                /* @ws select options=inline,none */
      --title-font: serif;
      --logo-font: Impact;
    }
    .background { fill: var(--bg-color); }
    .lab-coat       { fill: var(--lab-coat-color); }
    .skin-light     { fill: var(--skin-light-color); }
    .skin-mid       { fill: var(--skin-mid-color); }
    .skin-shadow    { fill: var(--skin-shadow-color); }
    .hair-dark      { fill: var(--hair-dark-color); }
    .bg-blue        { fill: var(--bg-blue-color); }
    .bg-green       { fill: var(--bg-green-color); }
    .text-white     { fill: var(--text-white-color);  display: var(--traced-text); }
    .text-red       { fill: var(--text-red-color);    display: var(--traced-text); }
    .text-yellow    { fill: var(--text-yellow-color); display: var(--traced-text); }
    .title-grey     { fill: var(--title-grey-color);  display: var(--traced-text); }
    .text-noise     { display: var(--traced-text); }</style><path d="M0 0h164v192H0z" class="background"/><path d="M0 0h164v192H0z" class="bg-blue"/><path d="M160 0h4v192c-23 0-23 0-28-3l-2-4-1.6-1.3c-2.2-2.7-1.6-5.4-1.4-8.7l-8-3 1-4q4 .7 8 2c-1.1-2-1.1-2-3-4-3-.4-3-.4-6 0-2 2-2 2-2.2 4.5.2 2.5.2 2.5 2.2 4.5l6 1-1 4-1.8-.3c-6.6-1-6.6-1-9.8.7L115 182c-1-1-1-1-1.1-4v-7.2l.1-2.8h4v-3h-12l1 3 3 1v11l-1-4h-2l-2 4v-15h-3v14l-5 1c-1-1-1-1-1.1-4.2V168l.1-3h-4v14h-2l-1.5-5.3-.8-3C87 168 87 168 87 165h-4l-.4 3-1.5 8.8-.5 2.3C80 181 80 181 78 183v-18h-4v10a27 27 0 0 1-5-10h-4v16h-1l-.1-2.8-.3-3.6-.2-3.6c-.4-3-.4-3-2.4-5-3.5-.4-5.4-.4-8.4 1.5L51 169v-4h-4v10c-3-1.5-3.6-4.2-4.9-7.2C41 166 41 166 38 165v18h-1v-18H24v13l-5-2c.5-4 .9-7.5 3-11h-3l-2 4-2-4h-3l1.6 3.2c1.4 3.4 1.7 5.3.4 8.8l-3 6h3l-1 2.3-2 5.7H1V1h93c-3 4-3 4-6.5 4.5H72.8L53 5.8l-23.2.1H14.5C11.5 5.9 9 6 6 7l.8 60.3v3.6q.3 4 1.2 8.1l3-1-2-1v-2l5.8.9 3.2.5c3 .6 5.7 1.3 8 3.6l4.6.4q4.9.4 9.8 1.7c3.6.9 3.6.9 7.6.9l.1-2c.7-9.2.7-9.2 3.9-13h2l-.2-2.9c0-4 1.1-7.4 2.4-11.2 1-3.4 1.4-6.9 2-10.4a32 32 0 0 1 11.7-19.2c5.7-3.6 13.7-2.8 20.1-2.3 5.3 1.3 10.4 2.7 14 7a31 31 0 0 1 2 16l-1 1-.6 4-.4 4a36 36 0 0 1-8 1l1 7-2-1-1-7-2.4.6-2.6.4-1-1h-9v-2l-7 1-.1 2.4c-.4 5.6-1 10.3-2.9 15.6l-.2 5.2c-.3 2.6-.3 2.6-.8 4.8-2.8 2-4.5 3-8 3l-.8 2.1c-3.4 8.2-3.4 8.2-6.5 10.9-3.6 1.3-5.2.4-8.7-1-6.6-1.2-6.6-1.2-9 0l7 3v2l-6 1-1-1c-6.4-.5-6.4-.5-8.9 1.4-2.3 3.3-2.3 5.6-2.1 9.6l.6 2.3.4 1.7-2 2 3 5-3-1 1 3.3c1 3.7 1 3.7 1 6.7l-3-4 1 9-3-1 4 6h-3q.6 5.5 2 11h29v-5c3.5-1 6.8-1.1 10.4-1.1h3.4q4.2 0 8.2 1.1l-1.5-2.9C71 142 71 142 71 140l-1.8.2q-10 1.2-20.2.8v-4c4.8-1 9.2-1 14-1l-.6-3.4-.4-3.6c1-1 1-1 3.6-1H68l.6 2.8c1.3 4.7 3.7 8.6 6.2 12.7C76 146 76 146 76 149l4 1 1 4 26-1-3-1 1-4 1 3c4.3-1 6.3-1.9 8.7-5.7q3.5-7 6.3-14.3h-4v5h-2l-1-5h-3l-4 15h-1a93 93 0 0 1 4.3-21l1.7-6h1l-.3 2-.3 2.4-.3 2.5-.1 2.1 1 1 .3-2.4c.7-2.6.7-2.6 3.7-4.6 1.4 2.4 2 3.5 1.6 6.3l-.6 1.7h4l.7-2.7c1.5-3.8 3-5.1 6.3-7.3h2c-1 2.6-1.6 3.8-4.1 5.3-.3 0-.3 0-1.9.7v4h-2l-1 7h5l1 3h6v3l3 1-.5 1.9c-.5 2.1-.5 2.1-.5 4.1v3h10v-7l5 1v7h5v-30h-5v16h3l-1 5c-2.9 1.4-5 .6-8 0v-3h2v-23h9V97l-41 1 3 3v2c-6.5-.6-6.5-.6-8.9-2.4C108 99 108 99 107 96l-5-2-4-4v61c-12.2 0-12.2 0-15-2a46 46 0 0 1-2.5-7.6l-.6-2.3-4.4-17-.6-2.3q-2.5-9-6-18C68 99.2 68 97 68 94l1.7 1A28 28 0 0 0 91 99c1.9-2.5 1.9-2.5 3-5h-2v-2l-4 1v-3l-5 1-1.2-1.4A41 41 0 0 0 73 81l1-4 1.6 1 2.2 1.4 2.2 1.4c3.3 2 6 2.3 9.7 2.3H92l2-.1a72 72 0 0 0 9-27c3 1 3 1 4.7 4.3C109 64 109 64 109 69h47V20L8 21V8l4-1 1 7h1l-1-3 1-2c4.8 1.9 4.8 1.9 7 3v4h3l1-8h-2v2h-3V8l-4-1h14l1 3-4 1v4h2l2-2 1 2 2-7 5-1-.7 1.8L38 11c1.4 1.7 1.4 1.7 3 3l-4 1 3.1-.6c4-.4 6.2 0 9.9 1.6V9h1l1 6c2 0 2 0 4.1-2l1.9-2 1 4h3l1-7-2-1 4 1-1 7h8v-5l-2 3v-3h-5c2-3 2-3 3.8-3.4h4.9l2.8-.1h3l16.3-.3 42.6-.3h13.5C155 6 155 6 158 7z" class="bg-blue"/><path fill="#B0CCD9" d="m66 84 .2 3.6C67 93.7 69 99.3 71 105q7.4 21.7 13 44l14 2-1-62 6 5 2.7 1c2.3 1 2.3 1 3.7 3.5 1.6 2.5 1.6 2.5 5.3 3.8l3.3.7-5-6h43v22h-9v23h-2v3h7l2-5h-3v-16h5v30h-5v-7l-5-1 1 8h-13l2-3-2-2 3-5-4-1 1-3h-6l-1-2h-6q.7-4 2-8h2v-4c2.4-2.1 2.4-2.1 5-4l1-2c-4.7 2.7-7 5-9 10h-4v-6h-3l-2 5-2-1v-2l-4 16 3-11 4-1c1 1 1 1 1 3.6v2.4h2v-5h4c-2 7.7-4.1 15.4-11 20h-4l-1-2-1 3 23 1v1H81l-2-4-3-1c-1.3-2.1-1.3-2.1-2.6-4.8l-1.2-2.7L71 139l-1.1-2.1c-1.2-2.6-1.5-5.1-1.9-7.9h-5v7l-14 1v4l2.3-.2 9.7-.8 3-.2q3.5-.3 7 .2c2.6 2.8 3 4.2 3 8H52l1 6H22l-1-5-1-2v-6h3l-4-5 1-2 2 2-1-9 4 3-1.6-2.8C22 124 22 124 23 121c0-1 0-1-1-4l2-1-.3-2c-1-7.3-1-7.3.6-11 1.7-2 1.7-2 3.7-3q5.6-.3 11 1h3v-2l-8-2c1-1.6 1-1.6 3-3 3.7.2 6.7.9 10.1 2.2 2.9.8 2.9.8 5.6.3 3.1-2 3.3-4 4.3-7.5 2.6-3.2 4.8-5 9-5"/><path fill="#7E8890" d="M10 20h146v49h-47l-3-12h-2l-.7 3.8C99.2 79 99.2 79 94 84c-6.3 1.8-11.5-.8-17-3.8-2-1.2-2-1.2-3-2.2.5 3.9 2 5.2 5 7.6l4 3.4v2l5-1v3l4-1v2h2c-1.9 4.9-1.9 4.9-3 6-8.8 1-15.6 0-23-5-3-3-2.6-5.8-3-10l-4 1-1-2c5.8-3 5.8-3 8-3v-2c-.2-5.2.2-9 2-14l.8-7.8C71 55 71 55 72 53l7-1v2l4.4-.4 2.4-.3C88 53 88 53 90 52l1 2h3l2 6v-5l7-1 .4-4c.5-3.9.5-3.9 1.6-5 .6-6.3.3-11.5-3-17-7-5.7-16.3-5.7-25-5a25 25 0 0 0-15 11c-1.5 3-2 5.9-2.5 9.2L59 45l-2 1a122 122 0 0 1-12-5.6l-2.4-1.2-8.1-3.7-2.8-1.2-5.4-2.3-2.4-1.1-2.2-1C20 29 20 29 19 27l1-2 25-1-6.9-.1-17.8-.4h-2c-4.4-.1-5.1-.3-8.3-3.5"/><path d="M160 0h4v192c-23 0-23 0-28-3l-2-4-1.6-1.3c-2.2-2.7-1.6-5.4-1.4-8.7l-8-3 1-4q4 .7 8 2c-1.1-2-1.1-2-3-4-3-.4-3-.4-6 0-2 2-2 2-2.2 4.5.2 2.5.2 2.5 2.2 4.5l6 1-1 4-1.8-.3c-6.6-1-6.6-1-9.8.7L115 182c-1-1-1-1-1.1-4v-7.2l.1-2.8h4v-3h-12l1 3 3 1v11l-1-4h-2l-2 4v-15h-3v14l-5 1c-1-1-1-1-1.1-4.2V168l.1-3h-4v14h-2l-1.5-5.3-.8-3C87 168 87 168 87 165h-4l-.4 3-1.5 8.8-.5 2.3C80 181 80 181 78 183v-18h-4v10a27 27 0 0 1-5-10h-4v16h-1l-.1-2.8-.3-3.6-.2-3.6c-.4-3-.4-3-2.4-5-3.5-.4-5.4-.4-8.4 1.5L51 169v-4h-4v10c-3-1.5-3.6-4.2-4.9-7.2C41 166 41 166 38 165v18h-1v-18H24v13l-5-2c.5-4 .9-7.5 3-11h-3l-2 4-2-4h-3l1.6 3.2c1.4 3.4 1.7 5.3.4 8.8l-3 6h3l-1 2.3-2 5.7H1V90h3l2-4v2.6L7 154c3.5 2.3 4.8 2.2 8.9 2.2h136.6c2.5-.2 2.5-.2 4.5-1.2v-2.3l.7-133.4C157.7 6 157.7 6 160 0" class="hair-dark"/><path fill="#ABC9D6" d="m97 89 6 5 2.7 1c2.3 1 2.3 1 3.7 3.5 1.6 2.5 1.6 2.5 5.3 3.8l3.3.7-5-6h43v22h-9v23h-2v3h7l2-5h-3v-16h5v30h-5v-7l-5-1 1 8h-13l2-3-2-2 3-5-4-1 1-3h-6l-1-2h-6q.7-4 2-8h2v-4c2.4-2.1 2.4-2.1 5-4l1-2c-4.7 2.7-7 5-9 10h-4v-6h-3l-2 5-2-1v-2l-4 16 3-11 4-1c1 1 1 1 1 3.6v2.4h2v-5h4c-2 7.7-4.1 15.4-11 20h-4l-1-2-1 3 3 1-4.2.1-2.4.1c-2.6-.2-4.2-1-6.4-2.2h4z"/><path d="M101 26c3.1 2.7 4 5 5 9q.4 5 0 10l-1 1-.6 4-.4 4a36 36 0 0 1-8 1l1 7-2-1-1-7-2.4.6-2.6.4-1-1h-9v-2l-7 1-.1 2.4c-.4 5.6-1 10.3-2.9 15.6l-.2 5.2c-.3 2.6-.3 2.6-.8 4.8-2.8 2-4.5 3-8 3l-.8 2.1c-3.4 8.2-3.4 8.2-6.5 10.9-3.6 1.3-5.2.4-8.7-1-6.6-1.2-6.6-1.2-9 0l7 3v2c-3.9 1-5.6 1.2-9.4-.4L30 99v-9l-3-1v-1c4.8-.2 8.5.2 13 2l2-2c2.6.4 2.6.4 5 1v-3l-1.6.5q-4 .7-8.3.6H26.7L18 87l5 1c-.9 3.9-.9 3.9-2 5h-7v8H9V85h10l1-4H9v-2l2-1-2-1v-2l9 1.4c3 .6 5.7 1.3 8 3.6l4.6.4q4.9.4 9.8 1.7c3.6.9 3.6.9 7.6.9l.1-2c.7-9.2.7-9.2 3.9-13h2l-.2-2.9c0-4 1.1-7.4 2.4-11.2 1-3.4 1.4-6.9 2-10.4a32 32 0 0 1 11.7-19.2c8.8-5.5 22.5-2.8 31.1 1.7m59-26h4v192c-23 0-23 0-28-3l-2-4-1.6-1.3c-2.2-2.7-1.6-5.4-1.4-8.7l-8-3 1-4q4 .7 8 2c-1.1-2-1.1-2-3-4-3-.4-3-.4-6 0-2 2-2 2-2.2 4.5.2 2.5.2 2.5 2.2 4.5l6 1-1 4-1.8-.3c-6.6-1-6.6-1-9.8.7L115 182c-1-1-1-1-1.1-4v-7.2l.1-2.8h4v-3h-12l1 3 3 1v11l-1-4h-2l-2 4v-15h-3v14l-5 1c-1-1-1-1-1.1-4.2V168l.1-3h-4v14h-2l-1.5-5.3-.8-3C87 168 87 168 87 165h-4l-.4 3-1.5 8.8-.5 2.3C80 181 80 181 78 183v-18h-4v10c-5-6.7-5-6.7-5-11l2.8-1.3c3.2-1.7 3.2-1.7 4.5-3.3 2.5-2 4.3-1.7 7.4-1.6h3l2.3.2-3 4 2.4-1c2.6-1 2.6-1 4.6-1l4-2c0 3 0 3-1 5l5-2 1 2q3.7-1.8 7-4l1 3-1 1c4.6.3 6.4-.2 10-3l3 1 1.2-1.5c2.3-1.9 3.3-1.9 6.2-1.8h2.6l2.7.1h2.7l6.6.2 1 2-4 4 2 2 1-1c6.2-.5 6.2-.5 9 1.2 1.3 2.4 1.2 4.1 1 6.8q3.1-.6 6-2l-1 4h3v15l1 1-1-112-2 1-1 74h-1l-.2-134.8c-.1-13.1-.1-13.1 2.2-19.2m-58 159 1 2-2-1z" class="hair-dark"/><path fill="#868F98" d="M10 20h146v27c-11.5 1.3-11.5 1.3-14 0v-3l-1.6-.2c-3.3-1.1-5.8-3.1-8.6-5.2l-1.6-1.3c-4-3-4-3-5.2-5.3l-1 1 2 3-9.9.1h-2.8l-2.7.1H108c-2-.2-2-.2-4-2.2l-.8-3c-1.5-3.7-2.5-4.4-6.2-6a36 36 0 0 0-26 0c-5 3.3-9 7.6-10.7 13.4l-.8 4.8L59 45l-2 1a122 122 0 0 1-12-5.6l-2.4-1.2-8.1-3.7-2.8-1.2-5.4-2.3-2.4-1.1-2.2-1C20 29 20 29 19 27l1-2 25-1-6.9-.1-17.8-.4h-2c-4.4-.1-5.1-.3-8.3-3.5"/><path fill="#79838A" d="m8 33 7.1 2.9L27 40.5C39.2 45 39.2 45 43.4 47.2q6 3 12.6 4.8l-1.4 12.9C54 68 53.6 69 51 71c-1.2 2.4-1.3 4.4-1.6 7.1l-.2 2.8L49 83a18 18 0 0 1-11-.4c-9.6-2.8-9.6-2.8-14-.6v-3L8 75z"/><path d="M103 56c3 1 3 1 4.2 2.8 1 2.6.9 4.1.5 6.8l-.3 2.7-.4 2.7-1 8c0 2 0 2 2 4l-4-1 1 2c1.3 3.9 1.1 7 1 11-4.2-.6-4.6-1.6-8-5v61c-12.2 0-12.2 0-15-2a46 46 0 0 1-2.5-7.6l-.6-2.3-4.4-17-.6-2.3q-2.5-9-6-18C68 99.2 68 97 68 94l1.7 1A28 28 0 0 0 91 99c1.9-2.5 1.9-2.5 3-5h-2v-2l-4 1v-3l-5 1-1.2-1.4A41 41 0 0 0 73 81l1-4 1.6 1 2.2 1.4 2.2 1.4c3.3 2 6 2.3 9.7 2.3H92l2-.1a72 72 0 0 0 9-27" class="hair-dark"/><path fill="#838C92" d="M47 86v3c-7.8 2.6-7.8 2.6-11 1l-2-1h-6l2 1 1 6 2 2v2l-3.4.8c-3.6 1.2-3.6 1.2-5 3-1 3.6-1 6.8 0 10.5l.4 1.7-2 2 3 5-3-1 1 3.3c1 3.7 1 3.7 1 6.7l-3-4 1 9-3-1 4 6h-3q.6 5.5 2 11h29v-5c3.5-1 6.8-1.1 10.4-1.1h3.4q4.2 0 8.2 1.1l-1.5-2.9C71 142 71 142 71 140l-1.8.2q-10 1.2-20.2.8v-4c4.8-1 9.2-1 14-1l-.6-3.4-.4-3.6c1-1 1-1 3.6-1H68l.8 3a61 61 0 0 0 5.8 12.8A20 20 0 0 1 77 155l-60.6.2h-3.6C10 155 10 155 8 153c-.2-2.4-.2-2.4-.2-5.6V126l.1-10.5L8 95h1v6h5v-8l3.4-.2c3.6-.8 3.6-.8 5-2.9L23 88l-5 1v-2l12.3-.5 3.5-.1 3.3-.2 3.2-.1z"/><path fill="#B3CEDB" d="m66 84 .2 3.6C67 93.7 69 99.3 71 105q7.4 21.7 13 44a126 126 0 0 0 33.4 3.8l9.6.2v1H81l-2-4-3-1c-1.3-2.1-1.3-2.1-2.6-4.8l-1.2-2.7L71 139l-1.1-2.1c-1.2-2.6-1.5-5.1-1.9-7.9h-5v7h-8v-1l5-1-1-5h2v-3l-5-1 1 6q-4.6-.1-9-1l-.8-2.7-1-3.5-1-3.5c-1.1-3-2.5-5.5-4.2-8.3v-3h-2l-1-5 4-1 4 7-1-2.7c-1-3.3-1-3.3-1-7.3l-10-3 3-3c3.7.2 6.7.9 10.1 2.2 2.9.8 2.9.8 5.6.3 3.1-2 3.3-4 4.3-7.5 2.6-3.2 4.8-5 9-5"/><path d="M15 4.8h138.5C156 5 156 5 158 6l-1 2-2-1-9.2-.1h-9.9q-23.4 0-46.8.5l-3.3.1-9.4.2h-2.8C67 8 67 8 66 9c4.8 1.1 4.8 1.1 7 0v7l-3-1-3 1-3-1V8h-1v8c-2-.3-2-.3-4-1l-1-3-2 4-2.2-.6c-3-.4-4.9 0-7.8.6l-4-1-3 1-2-1 1-2h2l-3-2 1-3-4 1-2 7c-3 0-3 0-6-1l1-5 3-1V7L20 8v2h3V8h2v8l-2 1-4-2v-4l-5-2v4h4v2c-1.9.6-1.9.6-4 1-2-2-2-2-2.1-5.6L12 7 9 8v12l5 1v1h2.7l20.8.7h3.9q5.3.4 10.6 1.3v1H20v3l29 13.3 3.1 1.4L55 44c2.1 1 2.1 1 3.1 2l-.7 7.8L57 56l-1-4-2.2-.4C46 50 38.4 46.4 31.1 43.3l-6.2-2.6-3.1-1.3-2.8-1L8 33l1 44 6 1v1l-7 1c-1.7-4.4-2.3-8-2.3-12.8V9.7L6 7c3.5-2.3 4.8-2.2 9-2.2M12 165h3l2 3 2-3h3l-1 3.3c-1 3.7-1 3.7-1 7.7l4 2v-13h17l5 9 1-9h4l1 3 1.1-1.5C55 165 55 165 58 164.6c3 .4 3 .4 4.9 1.9L64 168l1-3h4l3.1 6c.9 2 .9 2 .9 5h2v-10h2v17l-1 1 2 1-1 3c-3.3.8-5.8 1.3-9 0l-1-2c-7.6.9-7.6.9-10.6 1.6-3 .5-5.4-.1-8.4-.6-2.9.4-2.9.4-5 1l-1-2-3.2.5c-3.8.5-3.8.5-7.8.5-2.9.4-4.6.6-6.8 2.5-2.8 2-4.6 1.8-8 1.7h-3L11 191c.5-3.4 1-5 3-8h-3l1-2.7c2.3-7.5 2.3-7.5 1-10.4l-1-1.9z" class="bg-blue"/><path d="M9 7h3l1 7h1l-1-3 1-2c4.8 1.9 4.8 1.9 7 3v4h3l1-8h-2v2h-3V8l-4-1h14l1 3-4 1v4h2l2-2 1 2 2-7 5-1-.7 1.8L38 11c1.4 1.8 1.4 1.8 3 3l-4 1 3.1-.6c4-.4 6.2 0 9.9 1.6V9h1l1 6c2 0 2 0 4.1-2l1.9-2 1 4h3l1-7-2-1 4 1-1 7h8v-5l-2 3v-3h-5l2-3c2.3-.4 2.3-.4 5.2-.5H83l7.8-.1q6 0 11.8-.2c13.7 0 24.9 0 36.5 7.8l3 2c3-2 3-2 4-5h-2l1-2 2 1c0 3 0 5-1 8-3 1.2-6.2 1.1-9.5 1.2h-7l-111 .6h-6.2C10 20 10 20 8 21l-.1-10C8 8 8 8 9 7m51 54 2.3 2c2.7 2 2.7 2 5.7 3v15c-6 3-6 3-8 3l-.8 2.1c-3.4 8.2-3.4 8.2-6.5 10.9-3.6 1.3-5.2.4-8.7-1-6.6-1.2-6.6-1.2-9 0l7 3v2c-3.9 1-5.6 1.2-9.4-.4L30 99v-9l-3-1v-1c4.8-.2 8.5.2 13 2l2-2c2.6.4 2.6.4 5 1v-3l-1.6.5q-4 .7-8.3.6H26.7L18 87l5 1c-.9 3.9-.9 3.9-2 5h-7v8H9V85h10l1-4H9v-2l2-1-2-1v-2l9 1.4c3 .6 5.7 1.3 8 3.6l4.6.4q5 .4 9.7 1.7c3.6.9 5.4 1.2 8.7-.1a30 30 0 0 0 5-8v2h2l.5-3.8.3-2.2c.2-2 .2-2 .2-5l1-3z" class="hair-dark"/><path fill="#88939C" d="M109 74h47v21h-2v-3h-2l-1-4v2h-2v-2h-2v2h-2v5h-9v-4l-5-2-2 6h-11v-7h-2v-2l-5-1v-2l-6-2v-5l3 1z"/><path d="M160 0h4v192c-23 0-23 0-28-3l-2-4c-1.6-1.8-1.6-1.8-3-3 .7-2 .7-2 2-4 2.6-.7 2.6-.7 5-1v3a9 9 0 0 0 3 4q3 .6 6 .7c2 .3 2 .3 5 2.3l2-1 2 2-2 2 9 1-1-112-2 1-1 74h-1l-.2-134.8c-.1-13.1-.1-13.1 2.2-19.2M1 1h93c-3 4-3 4-6.5 4.5H72.8L53 5.8l-23.2.1H14.5C11.5 5.9 9 6 6 7v3l.2 68.2v2.2c0 4-.3 7-2.2 10.6l-2 1C.4 88.7.9 85.2.9 81.6V45.4z" class="bg-blue"/><path fill="#8F9CA7" d="M113 97h43v22h-9v23h-2l-1 2-1-3.1-1.4-4.2-.6-2a51 51 0 0 0-3.1-7.9c-1.1-2.2-1.1-4-1.2-6.5A21 21 0 0 0 130 106h-5l-3.6-4.5c-2.4-2.5-5-2.8-8.4-3.5z"/><path d="M35.6 157.4h3.7l19.4.3q9.7 0 19.3.3c-5.7 5.8-5.7 5.8-9 7h-4v16h-1l-.1-2.8-.3-3.6-.2-3.6c-.4-3-.4-3-2.4-5-3.5-.4-5.4-.4-8.4 1.5L51 169v-4h-4v10c-3-1.5-3.6-4.2-4.9-7.2C41 166 41 166 38 165v18h-1v-18H24v13l-5-2c.5-4 .9-7.5 3-11h-3l-2 4-2-4h-3l1.6 3.2c1.4 3.4 1.7 5.3.4 8.8l-3 6h3l-1 2.3-2 5.7H1c-.7-7-.7-7 1.3-9.8l3.4-2.9C7 177 7 177 7 174l1.4-2.4c1.6-2.6 1.6-2.6 2-5.3.6-2.3.6-2.3 2.7-3.6l1.9-.7 2 2 2.2-3c4.7-4.6 10.2-3.7 16.4-3.6" class="hair-dark"/><path d="m150 53 6 2v14h-47l-3-12h-2v-2a92 92 0 0 1 18.8-1H150z" class="bg-blue"/><path fill="#7B868E" d="m10 20 22.4-.6c13-.5 22 .7 32.6 8.6-.8 3.8-.8 3.8-2.4 5.7-2 3-2.5 5.8-3 9.4L59 45l-2 1a122 122 0 0 1-12-5.6l-2.4-1.2-8.1-3.7-2.8-1.2-5.4-2.3-2.4-1.1-2.2-1C20 29 20 29 19 27l1-2 25-1-6.9-.1-17.8-.4h-2c-3-.1-4.9-.2-7.3-2z"/><path d="M83 165h4l3 14h2v-14h4l1 14h4l1-14h3l1 10 3 1 1-7-4-1v-3h12v3h-4l1 13 4-3c2.4 0 2.4 0 4.8.3l2.4.4 1.8.3 1-3-2.8.2c-3.2-.2-3.2-.2-5-1.4-1.6-2.5-1.6-4-1.2-6.8 1.1-1.8 1.1-1.8 3-3 3.3-.4 5.2-.6 7.9 1.4 1.1 1.6 1.1 1.6 1.1 3.6l-8-1v3l3.4 1c3.6 1 3.6 1 4.6 2 .3 3.6.1 6-2 9-3 2-5 3-8.6 2.8-2.4-.8-2.4-.8-4.5-2l-1.9-.8-1.8 1c-2.2 1-2.2 1-6-.4L104 183l-2.1 2c-3.2 2.2-5 2.8-8.9 3l-3-2-5 1h-5l-1-2 9-2-1-2-4-1-1 3h-3z" class="hair-dark"/><path fill="#887D6B" d="M71 55h1c2.7 12.7 2.7 12.7 0 18l2.3.8c2.6 1.2 4.4 2.5 6.7 4.2 2.7 1.4 4.3 2.1 7.3 1.6L90 79l-1-3-2-1 4-2-8 1v-2l12-2v-2l-6-1v-3h8c3 9 3 9 2 11.4q-.6 1.4-1.4 2.7-.6 1.4-1.4 2.7C95 83 95 83 94 84c-7.6.7-12.5-1-19-5l-1-1c.5 3.9 2 5.2 5 7.6l4 3.4v2l5-1v3l4-1v2h2c-1.9 4.9-1.9 4.9-3 6-8.8 1-15.6 0-23-5-3-3-2.6-5.8-3-10l-4 1-1-2c5.8-3 5.8-3 8-3v-2c-.2-5.2.2-9 2-14q.7-5 1-10"/><path d="M132 111c3 1 3 1 5 4l.3 4.4c.4 5.5 2.3 9.9 4.5 14.8a61 61 0 0 1 3.2 9.8l7 1 2-5h-3v-16h5v30h-5v-7l-5-1 1 8h-13l2-3-2-2 3-5-4-1 1-3h-6l-1-2h-6q.7-4 2-8h2v-4l2.4-1.7c3-2.6 3-3.2 3.3-7l.2-2.3c.1-2 .1-2 1.1-4" class="lab-coat"/><path fill="#929BA4" d="M51 20h105v3h-39l3 5v2l6 5v1l-9.9.1h-2.8l-2.7.1H108c-2-.2-2-.2-4-2.2l-.8-3c-1.5-3.7-2.5-4.4-6.2-6-8.1-3.2-18-3.4-26 0l-6 4-14-8z"/><path fill="#919BA0" d="m32 49 5 2v2l2.1-.6c3.5-.5 5.4.1 8.6 1.4l3 1C53 56 53 56 54 59a41 41 0 0 1 .3 6.8C54 68.5 53 69.3 51 71c-1.2 2.4-1.3 4.4-1.6 7.1l-.2 2.8L49 83c-5.2 1.8-9-.2-14-2V71l-3-1z"/><path fill="#8E807C" d="M112 119h1l-.3 2-.3 2.4q0 1.3-.3 2.5l-.1 2.1 1 1 .3-2.4c.7-2.6.7-2.6 3.7-4.6 1.4 2.4 2 3.5 1.6 6.3l-.6 1.7h4l.7-2.7c1.5-3.8 3-5.1 6.3-7.3h2c-1 2.6-1.6 3.8-4.1 5.3-.3 0-.3 0-1.9.7v4h-2l-1 7h5l1 3h6v3l3 1-.5 1.9c-.5 2.1-.5 2.1-.5 4.1v3h10v-5l1 3h3v3c-2.8 1.4-5.2 1.1-8.4 1.1h-36.8L81 155v-1l26-1-3-1 1-4 1 3c4.3-1 6.3-1.9 8.7-5.7q3.5-7 6.3-14.3h-4v5h-2l-1-5h-3l-4 15h-1a93 93 0 0 1 4.3-21z"/><path d="M0 0h160v6l-2 1-2-1-6.2-.2h-4l-20-.3-11.8-.2L91 5l1-3L1 1v98H0z" class="bg-blue"/><path d="M6 74h1l2 6 11 1-1 4h7v1h-6.2l-3.6.1c-2.6 0-4.7-.4-7.2-1.1l-.1 65.3C9 153 9 153 10 154l6.3.2h2l22.8.3 12.1.2 23.8.3-1-5h4l1 5h66v1q-10.9 1.3-21.7 1.2H85l-66.6.2h-6c-3-.5-4.4-1.3-6.5-3.4q-.6-3.8-.5-7.7V144l.1-13 .1-14.2.1-14.4z" class="hair-dark"/><path fill="#8E989D" d="M9 40c7.8 2.3 14.6 4.8 22 8v21l-11-2v10h-3V65l-8-2z"/><path d="M79 52v2l4.4-.4 2.4-.3C88 53 88 53 90 52l1 2h3v9l-4 1v2l2.4.8L95 68l1 3-13 1 1 1 3.4-.6C91 72 91 72 94 74l-5 1c1 3 1 3 3 5-6.1 2-10.5-.5-16-3v-2l-4-2c-.1-4.7-.1-4.7 1-7l-.4-2.1c-.8-3.7-.7-7.1-.6-10.9a24 24 0 0 1 7-1" class="skin-mid"/><path d="M144 165c6.4-.4 6.4-.4 9 1.2 1.3 2.4 1.2 4.1 1 6.8q3.1-.6 6-2l-1 4h3v15c-1 1-1 1-2.8 1.1l-6.2-.1 2-3h-3l-3.4-1.5c-3.6-1.5-3.6-1.5-6.3-1.4-2.3-.1-2.3-.1-4.6-2.6L136 180l1-2-5 1-.6-2.4c-1.4-2.6-1.4-2.6-5-4l-3.4-.6 1-4 5 1v2l7.5.1c2.5-.1 2.5-.1 5.5-1.1l8 2v-4l-8 1z" class="hair-dark"/><path d="M37 94q8 .4 15 4l-1 4h5l-4 1v2l8 1-3.1 5c-.9 2-.9 2-.9 6 1.4 2.3 1.4 2.3 3.3 4.6l1.9 2.4c1.8 2 1.8 2 4.8 4l-3 1v7h-8v-1l5-1-1-5h2v-3l-5-1 1 6q-4.6-.1-9-1l-.8-2.7-1-3.5-1-3.5c-1.1-3-2.5-5.5-4.2-8.3v-3h-2l-1-5 4-1 4 7-1-2.7c-1-3.3-1-3.3-1-7.3l-10-3z" class="lab-coat"/><path d="M10 6h106v1h-1.9l-36.3.7h-6.2l-2.6.1C67 8 67 8 66 9c4.8 1.1 4.8 1.1 7 0v7l-3-1-3 1-3-1V8h-1v8c-2-.3-2-.3-4-1l-1-3-2 4-2.2-.6c-3-.4-4.9 0-7.8.6l-4-1-3 1-2-1 1-2h2l-3-2 1-3-4 1-2 7c-3 0-3 0-6-1l1-5 3-1V7L20 8v2h3V8h2v8l-2 1-4-2v-4l-5-2v4h4v2c-1.9.6-1.9.6-4 1-2-2-2-2-2.1-5.6L12 7z" class="bg-blue"/><path d="M87 22v5h3l-1 3-5-1v2h7l-2 4-7-3v2l-12 4v3l-3 2v2l5-2-1 4-4.4 1-2.5.6C62 49 62 49 61 49l-.1 2.4-.3 3-.2 3.1L60 60l-2 1-2 4c-2-4 0-9.4.8-13.7l.5-3.3C59 37.8 62.4 31 70 24c5.1-3 11.1-2.2 16.9-2.1M5 86h1v2.6l.6 59v3.6L7 154l3 2a10 10 0 0 1-4 5.4c-2.7 2.2-3.1 4.3-4 7.6H1V90h3zM9 7h3l1 7h1l-1-3 1-2c4.8 1.9 4.8 1.9 7 3v4h3l1-8h-2v2h-3V8l-4-1h14l1 3-4 1v4h2l2-2 1 2 2-7 5-1-.7 1.8L38 11c1.4 1.8 1.4 1.8 3 3l-4 1 3.1-.6c4-.4 6.2 0 9.9 1.6V9h1l1 6c2 0 2 0 4.1-2l1.9-2 1 4h3l1-7-2-1 4 1-1 7h3v2l3 1c-2.6 1.3-4.6 1.2-7.5 1.2h-7.3l-5.9.2-12.4.1-17.9.3h-6.5C10 20 10 20 8 21l-.1-10C8 8 8 8 9 7m150 7h4l.4 61.3-.4 2.7-3 2c-.4 3-.4 3-.4 7v2.2l-.2 12.2v13l-.2 13.4-.2 26.2h-1l-.1-117v-3.5q0-9.8 1.1-19.5" class="hair-dark"/><path d="M65.6 128H68l.8 3a61 61 0 0 0 5.8 12.8c2.3 4.3 2.4 6 2.4 11.2H10v-1l42-1v-5c3.5-1 6.8-1.1 10.4-1.1h3.4q4.2 0 8.2 1.1l-1.5-2.9C71 142 71 142 71 140l-1.8.2q-10 1.2-20.2.8v-4c4.8-1 9.2-1 14-1l-.6-3.4-.4-3.6c1-1 1-1 3.6-1m64.4 53c2.6 1.8 4 3.1 6 5.5l5 5.5H78l1-4 1.7.6c4.1.7 7-1.4 10.3-3.6l3 2c4.5-.2 7.4-2.4 11-5v2c6.4 1.3 6.4 1.3 9.6-.1l2.4-.9 5 3c3 0 4-1 6.3-3zM47 86v3c-7.8 2.6-7.8 2.6-11 1l-2-1h-6l2 1 1 6 2 2v2l-3.3.7c-3.7 1.3-3.7 1.3-5.6 4L23 107l-1-2h-2v3l2 1v3h-3l2 2c-.4 2.1-.4 2.1-1 4h-5l1-8-1.8-.9C12 108 12 108 9 106c-.2-2.6-.2-2.6 0-5h5v-8l3.4-.2c3.6-.8 3.6-.8 5-2.9L23 88l-5 1v-2l12.3-.5 3.5-.1 3.3-.2 3.2-.1z" class="bg-blue"/><path d="M115 98c3.8 1 5.6 1.5 8 4.6l2 2.4h2.5c2.5 0 2.5 0 4.8 2 2.3 4 2 7.4 1.7 12h-1l-1-6-.6 3.2c-1.2 4.3-4 6-7.4 8.8-1.4 2.8-1.4 2.8-2 5h-4q0-1.5.3-2.8l-.3-3.2-2-1.3-2-1.7c-.1-3.2-.1-3.2.4-7 1-7.5 1-7.5-1.4-11h5z" class="lab-coat"/><path fill="#858F98" d="m122 31 5 1v2l5.5 4 5.5 4v2l3 3h-35V36l19-1z"/><path d="m60 61 2.3 2c2.7 2 2.7 2 5.7 3v15c-6 3-6 3-8 3l-.8 2.2A54 54 0 0 1 55 94l-3-1 1-6h-2v5l-3-1 .6-1.9C49 87 49 87 48 85c1-3 1.8-4.8 4-7l2-4v2h2l.5-3.8.3-2.2c.2-2 .2-2 .2-5l1-3z" class="hair-dark"/><path d="M9 24a49 49 0 0 1 10.5 3.6l2.5 1 2.6 1.2Q34.5 34 44 39l7.8 3.9 3.6 1.8L58 46l-1 10h-1v-5l-3.5-1q-7.4-2.7-14.7-6Q23.5 37.8 9 32v-3l1.9.7 2.5.8 2.4.8c2.2.7 2.2.7 4.2.7L9 27z" class="bg-blue"/><path d="m92 36 3.8.2c3.2.8 3.2.8 5.1 3 1.6 4 1.3 6.7 1.1 10.8l-2.2-.2C96.5 50 95.4 51 93 53l-2-1 1-3-19 2c1-4 1.9-5.5 4.3-8.6l1.8-2.4c4-4.3 7.2-4.3 13-4" class="skin-light"/><path fill="#75818A" d="m150 53 6 2v7l-24.6.2h-4c-3.1-.2-4.8-.5-7.4-2.2v2l-5.3-.4-3-.2C109 61 109 61 106 59v-2h-2v-2a92 92 0 0 1 18.8-1H150z"/><path d="M24 .8h30l13.5.1L94 1c-1 2-1 2-3 4-3 .5-3 .5-7 .5H70.3l-23-.1-21.4-.1H22C19 5 19 5 17 3 19.4.6 20.7.8 24 .8M106 165h12v3h-4l1 13 4-3c2.4 0 2.4 0 4.8.3l2.4.4 1.8.3 1-3-2.8.2c-3.2-.2-3.2-.2-5-1.4-1.6-2.5-1.6-4-1.2-6.8 1.1-1.8 1.1-1.8 3-3 3.3-.4 5.2-.6 7.9 1.4 1.1 1.6 1.1 1.6 1.1 3.6l-8-1v3l3.4 1c3.6 1 3.6 1 4.6 2 .3 3.6.1 6-2 9-3 2-5 3-8.6 2.8-2.4-.8-2.4-.8-4.5-2l-1.9-.8-2 1c-2 1-2 1-4.7.1L106 184l1.5-1.1c2.1-2.6 2-4.7 2.2-8l.2-3.4.1-2.5-4-1z" class="bg-blue"/><path d="M12 165h3l2 3 2-3h3l-1 3.3c-1 3.7-1 3.7-1 7.7l4 2v-13h1v18h9l2 2q-3.6 1.7-7.6 2.4c-2.4.6-2.4.6-4.2 2.1-2.8 2-4.6 1.8-8 1.7h-3L11 191c.5-3.4 1-5 3-8h-3l1-2.7c2.3-7.5 2.3-7.5 1-10.4l-1-1.9z" class="hair-dark"/><path d="M23 158v3l.5 1.8c.7 3 .6 5.9.6 9v3.5L24 178l-5-2c.5-4 .9-7.5 3-11h-3l-2 4-2-4h-3l1.6 3.2c1.4 3.4 1.7 5.3.4 8.8l-3 6h3l-1 2.3-2 5.7H1c-.7-7-.7-7 1.3-9.8l3.4-2.9C7 177 7 177 7 174l1.4-2.4c1.6-2.6 1.6-2.6 2-5.3.6-2.3.6-2.3 2.7-3.6l1.9-.7 2 2zm80-102c3 1 3 1 4.2 2.8 1 2.6.9 4.1.5 6.8l-.3 2.7-.4 2.7-1 8c0 2 0 2 2 4l-4-1 1 2c1.3 3.9 1.1 7 1 11-2.4-.4-3.9-.9-5.8-2.3C99 91 99 91 99.3 88.8l.7-1.8-3 1-2-1 1 2v6h-1l-.8-2.9C93 89 93 89 90 87v-2l2.3-1c6.5-4.7 8.7-15.6 10.1-23.2z" class="hair-dark"/><path fill="#ACB2B6" d="M9 125h10v14.3q-.3 7.4 1 14.7H9v-11h2v-2H9z"/><path d="M83.7 157.8h3l2.3.2-3 4 2.4-1c2.6-1 2.6-1 4.6-1l4-2c0 3 0 3-1.4 4.7C94 164 94 164 92 164v15h-2l-1.5-5.3-.8-3C87 168 87 168 87 165h-4l-.4 3a153 153 0 0 1-2 11c-.6 2-.6 2-2.6 4v-18h-4v10c-5-6.7-5-6.7-5-11l2.8-1.3c3.2-1.7 3.2-1.7 4.5-3.3 2.5-2 4.3-1.7 7.4-1.6" class="hair-dark"/><path d="M6 74h1l2 6 11 1-1 4h7v1h-6.2l-3.6.1C13 86 13 86 9 85l-1 70-2-1z" class="bg-blue"/><path fill="#7D8891" d="M109 74h47v4l-6.8.6q-1.9 0-3.8.3c-3.4.1-3.4.1-6.4-.9v8h-1l-1-7h-24l-1 2h-7v-5l3 1z"/><path fill="#99B5C3" d="m25 115 5 5 1.8 1.4c1.8 2.4 1.4 4.7 1.2 7.6-2 0-2 0-4-2l-2-2-2-1 1.5 2.8C28 130 28 130 28 133h2l-2 6h-2c-.6 2.3-.6 2.3-1 5l2 3-1 3c.4 2.2.4 2.2 1 4h-5l-.4-2.4C21 149 21 149 20 147v-6h3l-4-5 1-2 2 2-1-9 4 3-1.6-2.8C22 124 22 124 23 121c0-1 0-1-1-4z"/><path fill="#7C848B" d="M132 84c3.1 2 3.4 2.8 5 6h4l-3-2 3-4h2v3h3v-2l4 2-3 1v2h-2v5h-9v-4l-5-2-2 6h-11v-8c3.3-2 5.4-2.1 9.3-1.6l2.7.3 2 .3z"/><path d="M159 78h4l.4 38.8v8.9c-.4 2.3-.4 2.3-4.4 5.3z" class="hair-dark"/><path d="m116 6 30.3-.2h2.5l6.2.2 2 2-3.3 1.7A14 14 0 0 0 147 17l-2-1 2-6c-1 1-1 1-1.3 3-.7 2-.7 2-2.8 3.3l-1.9.7-1-1.3A41 41 0 0 0 116 7z" class="bg-blue"/><path d="M132 111c3 1 3 1 5 4 .6 9.6-2.7 16.2-8 24l-7-1c-1.2-3.6-.5-4.6 1-8h2v-4l2.4-1.7c3-2.6 3-3.2 3.3-7l.2-2.3c.1-2 .1-2 1.1-4" class="lab-coat"/><path d="M75 83c3.3 1.6 5.6 3.2 8 6v2l5-1v3l4-1v2h2c-1.9 4.9-1.9 4.9-3 6-8.6.9-15 .1-22-5v-1h6c1.3-2.5 1-3.9.6-6.6l-.3-2.5z" class="skin-shadow"/><path d="M61 165a8 8 0 0 1 3 3c.4 2.8.4 2.8.4 6v3.2c-.4 2.8-.4 2.8-1.7 4.7-2.8 1.9-5.4 1.5-8.7 1.1-2.3-3.4-2.3-5-2.3-9v-3.2c.3-2.8.3-2.8 1.6-4.7 2.6-1.7 4.6-1.5 7.7-1.1" class="text-white text-noise"/><path d="m73 77 2.3 1.3c6 3.1 10.9 5.4 17.7 5.7l-3 1 5 5v-3h5l-1 3h-1v22h-1l-1-14-2 4-14-1v-1h2.3q4.4-.2 8.7-1c2.2-2.6 2.2-2.6 3-5h-2v-2l-4 1v-3l-5 1-1.2-1.4c-4.4-5.3-4.4-5.3-7.2-7.3L73 81z" class="skin-shadow"/><path fill="#959CA3" d="M97 20h59v3h-39l3 5q-4.6-2.3-9-5v1l-13-1z"/><path fill="#879095" d="M31 54h1v16l5 1-2 1v9h-4.4c-4.4-.1-4.4-.1-6.6 1v-3l-4-2V67l-2-1 4.8 1 2.7.5C28 68 28 68 31 69z"/><path d="m102 159 1 2-2-1zm6 0 2 3-1 1 9 1v1h-12l1 3 3 1v11l-1-4h-2l-2 4v-15h-3v14l-5 1c-1-1-1-1-1.1-4.2V168l.1-3-4-1 3.4-1c3.6-1 3.6-1 5.6-2l1 2c2.5-1.2 4-2 6-4" class="hair-dark"/><path fill="#8E9AA2" d="M139 78h17v17h-2v-3h-2l-1-4v2h-2l-.4-2-.6-2-2-1v2h-3v-3l-4 4h2v2h-6l-1-4 4-1z"/><path d="M69 70c3 1.5 3.6 4 5 7l1 5 .6 2.8.6 2.9.6 2.9.2 2.4c-2 2-2 2-4 2.2l-6-.2-2-10-4 1-1-2c5.8-3 5.8-3 8-3v-4.9l-.1-2.8C68 71 68 71 69 70" class="skin-shadow"/><path d="M114.6 88h3.4v7h11l1-7 6 3v4h9v-5h2v-2h2v2h2v-2l2 1-1 3h2v3l2 1h-46c0-8 0-8 4.6-8" class="bg-blue"/><path d="M62 51c4.9 2.6 4.9 2.6 6 6q-.3 4-1 8c-3-.6-4.4-1.3-7-3h-2l.6 2.1c.5 3.5-.3 5.6-1.6 8.9l-1 4h-3l-1 3h-2l-1 2c-.6-9.7-.6-9.7 3-14h2l-.1-3.3C54 61 54 61 56 58v6l.3-1.8c1-5 1.6-8 5.7-11.2" class="hair-dark"/><path d="M0 99h1v92c21-1 21-1 25-4a31 31 0 0 1 9-1l7-1c-1.7 3.9-1.7 3.9-4 5l-3-1-8 3H0zM160 0h4v108h-1l-1-93-3-1 1 3-1 7h-1l-.2-10.3c0-5 .6-9 2.2-13.7" class="bg-blue"/><path fill="#7D8993" d="M103 81c2.7 0 4.5 0 7 1l1 3 5 1-1 3h-4l-1 7h46v1l-41 1 3 3v2c-6.5-.6-6.5-.6-8.8-2.3a25 25 0 0 1-4.3-10.7q-.7-4.5-1.9-9"/><path d="M108 64h1v5h47v2h-48v2h48v1h-47l-1 4-1-2-2-1z" class="bg-blue"/><path d="M94 54v9l-4 1-.9 2C88 68 88 68 85 69.2l-3 .8-3-4.2-1.8-2.4C76 61 76 61 76.3 58.7L77 57l3.6.2c5.1 0 8.5-3.2 13.4-3.2" class="skin-light"/><path fill="#7F8E9B" d="M65.6 128H68l.8 3a60 60 0 0 0 5.8 13.4L77 149l-2 1c-2.4-2.4-2.4-3.7-3-7l-1-3-1.8.2q-10 1.2-20.2.8v-4c4.8-1 9.2-1 14-1 0-.6 0-.6-.6-3.4L62 129c1-1 1-1 3.6-1"/><path d="M55.5 6.9h3C61 7 61 7 63 8v8c-2-.3-2-.3-4-1l-1-3-2 4-2.2-.6c-3-.4-4.9 0-7.8.6l-4-1-3 1-2-1 1-2h2l-3-2 1-3h4l-1 2-2-1v2l9-1V8c2.6-1.3 4.6-1.1 7.5-1.1" class="bg-blue"/><path fill="#AAC5D3" d="M63.9 139.8a31 31 0 0 1 7.1.2c2.6 2.8 3 4.2 3 8H62.8q-5.9-.3-11.8 1l-1-8q6.9-.7 13.9-1.2"/><path fill="#AECFDA" d="M103 95c2.3.2 2.3.2 5 1a30 30 0 0 1 3 5l4 4c1.5 3 .8 5.6.6 9-.6 6.8-.6 6.8-.6 10l-2 5-2-1 1-7h-1v-8l-2-2.5c-2-2.5-2-2.5-2-4.5l-2-2.8c-2-3.2-2.4-4.5-2-8.2"/><path d="m9 85 34 1v1H18l5 1c-.9 3.9-.9 3.9-2 5h-7v8H9z" class="bg-blue"/><path fill="#88A7AC" d="M112 119h1l-.3 2-.3 2.4q0 1.3-.3 2.5l-.1 2.1 1 1 .3-2.4c.7-2.6.7-2.6 3.7-4.6 1.4 2.4 2 3.5 1.6 6.3l-.6 1.7h4l.7-2.7c1.5-3.8 3-5.1 6.3-7.3h2c-1 2.6-1.6 3.8-4.1 5.3l-1.9.7v4h-2l-1 7h5q-4 2.7-8 5l.4-4.4.3-2.4c.3-2.2.3-2.2 1.3-4.2h-4v5h-2l-1-5h-3l-4 15h-1a93 93 0 0 1 4.3-21z"/><path d="M61.9 157.7h2.8l3 .1h3l7.3.2c-5.7 5.8-5.7 5.8-9 7h-4v16h-1l-.1-2.8-.3-3.6-.2-3.6c-.4-3-.4-3-2.4-5l-3-1-3-1-1-3c2.5-3 4-3.4 7.9-3.3" class="hair-dark"/><path d="m48 186 3.6.6c3.4.4 3.4.4 5.4-.6l1.2 1.4c2.3 2 3.8 2.3 6.8 2.6l3-1 2 2c-1 1-1 1-5 1.1H42l-15-.1c2.7-2.7 5.3-3.2 9-4l3 1 1.3-1.5c2.5-2.2 4.5-1.5 7.7-1.5" class="bg-blue"/><path d="M38 165c4 1 4 1 5.3 2.8L46 174l1-9h3v18c-4-1-4-1-5.3-2.8L42 174l-1 9h-3z" class="text-white text-noise"/><path d="M129 0h31v6l-2 1-2-1-5.7-.3-3.4-.1-3.5-.2h-3.6L131 5l1-3zm-10 137 1 4 4-1-2 2 5-1-1.3 1.4-1.6 2-1.7 1.8C121 148 121 148 120 151c2.9-1.3 4.9-2.7 7-5l2 1-4 4 7-1-1 3h-15.2l-3.3.1h-3c-2.5-.1-2.5-.1-5.5-1.1l1-4 1 3c4.3-1.1 6.3-2 8.8-5.6z" class="bg-blue"/><path fill="#919CA3" d="M151 124h5v30h-5v-7h-6v-2h7l2-5h-3z"/><path d="M1 1h18v4l-2 .2-2.8.2-2.7.3C9 6 9 6 6 7v11H4l-1 2H1z" class="bg-blue"/><path d="m161 158 1 3 1 2 .1 6.3v7.8L163 191l-2-1v-14l-2 1-1-3h-1l-3-1c-.7-1.8-.7-1.8-1.2-4l-.5-2.3q0-.8-.3-1.7l1.7-.7c3-1.7 5-3.9 7.3-6.3M72 35l3 1-5 2v3l-3 2v2l5-2-1 4-4.4 1-2.5.6C62 49 62 49 61 49l-.1 2.4-.3 3-.2 3.1L60 60l-2 1-2 4c-1.7-3.4-.3-7.2.3-10.8l.4-2.5c.7-4.1 1.5-7.9 3.3-11.7l2.6.3c3.6-.3 4-.6 6.6-2.9zm31 12h1v7a36 36 0 0 1-8 1l1 7-2-1-1-7-2.4.6-2.6.4-1-1h-9v-2l-3-1c3.5-2.1 6.2-2.2 10.3-2.1h3.2l2.5.1 1 3 1.7-1.4A16 16 0 0 1 102 48z" class="hair-dark"/><path fill="#808B93" d="M32 44a30 30 0 0 1 12.9 4q5.3 2.4 11.1 4l-1 9-2-2v-3l-2.5-.3Q44.7 54.4 39 52v-2l-3-.7-3-1.3c-.9-2.1-.9-2.1-1-4"/><path d="M144 165h7c2 2 2 2 2.3 5-.3 3-.3 3-2.3 6-3.6.2-3.6.2-7 0v4h10v3h-13c-.3-6-.3-6 0-8 3-2 4.6-2.5 8-3l1-4-8 1z" class="text-yellow"/><path d="M25.9 98.8 28 100l-5 7-1-2h-2v3l2 1v3h-3l2 2c-.4 2.1-.4 2.1-1 4h-5l1-8-2-1 1-10 2 2 2.7-1.6C23 98 23 98 25.9 98.8" class="bg-blue"/><path d="M9 29a175 175 0 0 1 27.2 11.1q5.5 2.7 11.4 4.9l2.6 1 2.6 1c2.3 1 3.6 2 5.2 4-.3 2.7-.3 2.7-1 5h-1v-5l-3.5-1q-7.4-2.7-14.7-6Q23.5 37.8 9 32z" class="hair-dark"/><path d="M83 165h4l4 18h-3l-1-2-4-1-1 3h-3z" class="text-white text-noise"/><path d="M71 46c1.1 3.8 1.1 3.8 0 6l6-1-1 2h-4l-.1 2.4C71 66 71 66 69 71h-1v-5l-3-1h2c.6-8.2.6-8.2-2-11.6L63 52l-3 1 1-5 3.3-.4C68 47 68 47 71 46" class="hair-dark"/><path d="M129 165a9 9 0 0 1 3 3v2l-8-1v3l3.4 1c3.6 1 3.6 1 4.6 2 .3 2.8.4 4.4-1.1 6.8-2.8 1.8-4.7 1.6-7.9 1.2-1.9-1.4-1.9-1.4-3-3v-2l8 1 1-3-2.8.2c-3.2-.2-3.2-.2-5-1.4-1.6-2.5-1.6-4-1.2-6.8 2.3-3.6 5-3.5 9-3m-36 0h3l1 14h4l1-14h3l.3 9.4c0 5 0 5-1.6 7.6-2.9 1.7-5.4 1.4-8.7 1-2.5-3.7-2.2-6.4-2.1-10.7v-2.1z" class="text-white text-noise"/><path d="M49 6h67v1h-1.9l-36.3.7h-6.2l-2.6.1C67 8 67 8 66 9c4.8 1.1 4.8 1.1 7 0v7l-3-1-3 1-3-1V8L49 7z" class="bg-blue"/><path d="M5 86h1l.3 12.3.1 3.5v3.3l.2 3.2C6 111 6 111 1 115V90h3zm129 91c2.1.4 2.1.4 4 1v3c1 1.6 1 1.6 3 3q3 .6 6 .7c2 .3 2 .3 5 2.3l2-1 2 2c-1 1.5-1 1.5-3 3-6.4.8-9.7-.4-15-4l-3-3-3-1c0-4 0-4 2-6" class="hair-dark"/><path fill="#9EAAB4" d="M51 20h23l1 3-5.2 3-4.8 3-14-8z"/><path d="M66 165h3l3.1 6c.9 2 .9 2 .9 5h2v-10h2v17h-3l-5-10-1 10h-2z" class="text-white text-noise"/><path fill="#9FBAC7" d="M45 121c2.1 2.4 3 3.5 3.2 6.8L48 130h2.9c3.1 0 3.1 0 5.1 1v-6l5 1-.6 1.8c-.4 2.4 0 3.8.6 6.2-1 1-1 1-3.6 1H55v2h-6l-1 2-1.5-7.3-.4-2.1c-.6-3-1.1-5.6-1.1-8.6"/><path d="M129 105c4.8 3.7 4.8 3.7 5.3 7.3q0 3.4-.3 6.7h-1l-1-6-.6 3.2c-1.2 4.3-4 6-7.4 8.8-1.4 2.8-1.4 2.8-2 5l-3-1 1-7 2 1 2-4.3 1.1-2.4c.9-2.3.9-2.3.9-5.3.4-2.6.4-2.6 1-5z" class="lab-coat"/><path d="m10 20 29.4-.3h2.5c5.7 0 5.7 0 7.8 1.8L51 23l-29.4.3h-2.5c-5.7 0-5.7 0-7.8-1.8z" class="title-grey text-noise"/><path d="M12 165h3l2 3 2-3h3l-1 3.1c-1.4 5.7-.3 9.6 2 14.9h-4l-1-5h-2l-2 5h-3l1-2.7c2.3-7.5 2.3-7.5 1-10.4l-1-1.9z" class="text-white text-noise"/><path fill="#AED0D8" d="M140 141c3 1 3 1 4.6 3.1 1.6 3.3 2 6.3 2.4 9.9h-13l2-3-2-2 1.4-1.8c1.6-2.2 1.6-2.2 2.6-5.2z"/><path d="M83 38c8.4 0 8.4 0 12 2h-3v7h-2v2H80z" class="skin-light"/><path d="M118 165h1l.4 1.9c1.7 6.6 1.7 6.6 4.4 8.1 1.9.6 1.9.6 5.2 1l-1 4-1.8-.3c-6.6-1-6.6-1-9.8.7L115 182c-1-1-1-1-1.1-4v-7.2l.1-2.8h4z" class="hair-dark text-noise"/><path d="M9 125h10c-.7 8.8-.7 8.8-3 11l-2 .5-2 .5-1 2H9z" class="lab-coat"/><path d="M109 74h47v1h-36v3l-3.4.4-3.6.6-1 2h-7v-5l3 1z" class="bg-blue"/><path d="M148 121h8v3h-5v16h3l-1 5c-2.9 1.4-5 .6-8 0v-3h3z" class="hair-dark"/><path d="M41 36h17l1 9-2 1c-1.8-.6-1.8-.6-4-1.7l-2.2-1-2.4-1.2-2.5-1.2L40 38z" class="bg-blue"/><path d="m124 168 5 1v2l7.5.1c2.5-.1 2.5-.1 5.5-1.1l7 2v1c-6.7 2.1-6.7 2.1-9 1l-1 5-2.4-.6c-2.6-.4-2.6-.4-4.6.6l-.6-2.4c-1.4-2.6-1.4-2.6-5-4l-3.4-.6z" class="hair-dark"/><path d="M25 165h12v3H27v5h5v2l-4 1-1 4h9v3H25z" class="text-white text-noise"/><path fill="#86A0AA" d="M20 124h3l3 6-1 2-3-4 1 9-3-1 4 6h-3c1 7.4 1 7.4 2 11h-4c-1.2-4.8-1.2-9.6-1.2-14.5v-2.6c0-4.4.1-7.9 2.2-11.9"/><path fill="#8C776F" d="M53 149h12.1l2.5-.1H70c2 .1 2 .1 4 1.1v4H61.3l-2.7.1H56c-2-.1-2-.1-4-1.1z"/><path d="m9 75 5.8.9 3.2.5c3 .6 5.7 1.3 8 3.6a256 256 0 0 0 14 4v1l-19-1-1-2c-2.5-.4-2.5-.4-5.6-.6l-3-.3L9 81v-2l2-1-2-1z" class="bg-blue"/><path d="M50 165c1.9 3.8 2.3 5.5 2.6 9.6.2 3 .4 5.4 1.4 8.4 6.6-.7 6.6-.7 10-3v3c-3.8 1.9-8.7 1-12.9 1-5.9-.1-5.9-.1-8.1 1l-5-1 3-1v-10c3 3 3 3 4.5 6.1C47 182 47 182 50 183z" class="hair-dark text-noise"/><path d="M159 14h4l.3 10.8-.3 6.2-3 2c-.4 2.4-.4 2.4-.5 5.4l-.1 3.3v3.4l-.2 3.5-.2 8.4h-1V38.9q-.3-12.5 1-24.9M9 20l5 1v1h2.7l20.8.7h3.9q5.3.4 10.6 1.3v1H20l-1 3-11-4z" class="bg-blue"/><path fill="#AFCFDA" d="m111 130 4 1v5h2v-5h4c-.7 2.9-.7 2.9-2 6l-2 1c-3.3 1.7-3.7 4.6-5 8h-2c-2.3-3.5-2-5-1.4-9q.8-3.6 2.4-7"/><path d="M159 78h4l.3 16v6.5l-.3 2.5-3 2c-1.3-2.7-1.1-4.7-1.1-7.7V86.8zm0-47h4l.3 22.5-.3 2.5-3 2c-1.3-2.7-1.1-4.7-1.1-7.7V39.8z" class="hair-dark"/><path fill="#7F8890" d="M79.2 19.9H89l8.1.1 1 2c2.6.4 2.6.4 5.9.6l3.2.3 5.9.1a59 59 0 0 1 5 5l-1.6-1c-3.3-1.4-6-1-9.6-1-5.3.2-9.4-.3-14.3-2.3-4.7-1.3-9.5-.8-14.2-.6C75 23 75 23 72 21c2.6-1.3 4.4-1.1 7.2-1.1"/><path d="M89 64h8c3 9 3 9 1.6 12.2L97 79l-7-2 1-4-8 1v-2l12-2v-2l-6-1z" class="skin-shadow"/><path d="M153 168h1v5q3.1-.6 6-2c-.3 5.4-.3 5.4-1 8-2.6 2-2.6 2-5 3v-2h-10v-4h7z" class="hair-dark"/><path d="M8 31q16.2 5.8 31.9 12.8l2 .8 5.9 2.6 3.5 1.5C54 50 54 50 56 52c-8.7-1.6-16.8-5.3-25-8.7l-6-2.6Q16.2 37.3 8 33z" class="bg-blue"/><path d="m80 29 2.3 2a12 12 0 0 0 6.7 3v1h-8l-1 3h-2v2l-6 5v-2l-6 3c.3-2 .3-2 1-4l3-1v-3c7.4-4.4 7.4-4.4 11-5zm18 2v2l5-1 .4 2 .6 2 2 1c.4 5.4.4 5.4 0 8-2 2-2 2-4 3l-1.5-6c-.9-3.4-1.4-4-4.5-6h-3l-1-4c3-1 3-1 6-1m6 127h21l-4 4-3-1-1 1.5c-3 2.2-5.5 1.7-9 1.5l1-3c-2 0-2 0-3.6 1.5L104 164l-3-1v-2h2z" class="hair-dark"/><path d="M5 66h1l.1 9.7v2.8c.1 8.7.1 8.7-2.1 12.5l-2 1C.4 88.8.9 85.4 1 81.9V74l2-1z" class="bg-blue"/><path fill="#808C95" d="m146 148 1 3h3v3c-2.8 1.4-5.2 1.1-8.4 1.1h-36.8L81 155v-1l65-1z"/><path d="m18 66 4.8.9 2.7.5C28 68 28 68 31 70l-1 8h-1v-8h-2l-.1 2.4-.3 3-.2 3.1L26 81l-2 1v-3l-4-2V67z" class="bg-blue"/><path d="m80 149 3 .6c14.5 2.9 29.2 3.1 44 3.4v1H81z" class="text-white"/><path d="m6 111 .2 10.6c0 7.1 0 7.1-2.2 10.4-1.5-1-1.5-1-3-3-.4-3.2-.4-3.2-.4-7l-.1-3.7c.4-2.9 1.7-7.3 5.5-7.3" class="hair-dark"/><path d="M103 81c2.7 0 4.5 0 7 1l1 3 5 1-1 3h-4l-1 7-4-1-.4-2-.5-2.7-.6-2.7zM6 53c.3 8 0 14.5-3 22l-2-1-.2-8.8-.2-2.5c0-6.2 0-6.2 2.4-8.8 2-.9 2-.9 3-.9" class="bg-blue"/><path d="M106 165h12v3h-4v15h-3v-15h-5z" class="text-white text-noise"/><path d="m142.8 158.3 2.2.7-2 2.2c-2 2.8-2 2.8-1.7 5.6l.7 2.2 8-1v4c-6.9.3-6.9.3-10-2-.7-2.1-.7-2.1-1-4l-4 1a13 13 0 0 1 2.8-7.4c2.2-1.6 2.2-1.6 5-1.3" class="hair-dark"/><path d="M128 86v3h-2v6h-8v-8c3.6-2.3 6-2 10-1" class="bg-blue"/><path fill="#848E92" d="m41 73 8 1v9c-3 .8-4.5 1.2-7.3 0L40 82l1-1z"/><path d="M94 56h1l1 5 2-4 5 2c-.5 4.3-1.2 8-3 12l-3-2c-.2-2.6-.2-2.6 0-5l-2.4.6-2.6.4-2-2 2-1 2 1z" class="skin-mid"/><path fill="#91A9B5" d="M119 137c-1.7 5.9-3.8 10.6-9 14h-4l-1-7 4-2 1 4h2l.8-3.4c1.2-3.7 2-5.6 6.2-5.6"/><path d="M6 181a41 41 0 0 1 8 2l-1 2.3-2 5.7H3c.8-7.7.8-7.7 3-10" class="hair-dark"/><path fill="#738089" d="M129 63h27v3h-24z"/><path d="M62 51c4.9 2.6 4.9 2.6 6 6q-.3 4-1 8c-2.9-.6-3.9-.9-6-3-.5-2-.5-2-.7-4.5l-.3-2.4c0-2.1 0-2.1 2-4.1" class="skin-mid"/><path fill="#7F9CA6" d="M112 119h1l-.3 2-.3 2.4q0 1.3-.3 2.5l-.1 2.1 1 1 .3-2.4c.7-2.6.7-2.6 3.7-4.6 1.4 2.4 2 3.5 1.6 6.3l-.6 1.7-7 1-4 15h-1a93 93 0 0 1 4.3-21z"/><path d="m150 53 6 2-1 3-1-1-8.4-.3H143l-27-.7v2l-9-1-1 2v-2h-2v-2a92 92 0 0 1 18.8-1H150z" class="bg-blue"/><path d="M27 88c7.4-.3 7.4-.3 11 2v1h-7c3.2 4.7 5.9 6.1 11 8v2c-3.9 1-5.6 1.2-9.4-.4L30 99v-9l-3-1z" class="hair-dark"/><path d="M65 165h1v18h2v-11c3.3 3.3 4.8 5 5.3 9.6L73 184l-3 2c-3.7-.9-3.7-.9-7-2l1-2 .6-8.6v-2.5z" class="bg-blue"/><path d="M69 70c3 1.5 3.6 4 5 7l-2 1-3-1v17l-2 1-2-10-4 1-1-2c5.8-3 5.8-3 8-3v-4.9l-.1-2.8C68 71 68 71 69 70" class="skin-shadow"/><path d="M92 36v1l-9 1-.4 2.1-.5 2.8-.6 2.7C81 48 81 48 80 50l-7 1c.6-3.6 2-5.8 4.3-8.6l1.8-2.4c4-4.2 7.3-4.2 12.9-4" class="skin-mid"/><path d="M29.6 182.8H32c2 .2 2 .2 4 2.2q-3.6 1.7-7.6 2.4c-2.4.6-2.4.6-4.3 2.2-2.8 1.9-4.8 1.6-8.1 1.4 4-5.2 6.7-8.3 13.6-8.2" class="hair-dark"/><path d="M74 165h4v18l4-1 1-2 5 1 1 3-5.2 1.2-3 .7c-2.8.1-2.8.1-5.2-1.3L74 183h3v-17h-2v10l-2-1z" class="bg-blue"/><path d="M80 22h7v5h3l-1 3-5-1v2h7l-2 4c-6.6-2.3-6.6-2.3-8.4-5.4q-.9-3.8-.6-7.6" class="hair-dark"/><path d="m32 185 2.3.5c2.9.5 4.8.2 7.7-.5-1.7 3.9-1.7 3.9-4 5l-3-1-5.7 2.3c-3.8 1.2-7.4 1-11.3.7l1.9-.9c2.1-1.1 2.1-1.1 4-2.7A15 15 0 0 1 31 186zm90-154 5 1v2l4 4h-24v6h-1v-8l19-1z" class="bg-blue"/><path d="M38 165c4 1 4 1 5.3 2.9.7 2.1.7 2.1-.3 5.1l-2-1v11h-3z" class="text-white text-noise"/><path d="M56 158v3l-2-1zm-3 3 3 4-5 4v-4h-4v10c-3-1.5-3.6-4-5-7v-2c3.5-2.4 7-3.8 11-5" class="hair-dark"/><path d="M151.6-.3q4.2 0 8.4.3v6l-2 1-2-1-5.1-.6-2.8-.2L146 5c1.1-3.4 2-4.9 5.6-5.3M57 188l6 1.6c2 .4 2 .4 5-.6l2 2c-1 1-1 1-3.6 1.1H51.5L42 192c2.7-3 2.7-3 5.7-3.3l3 .2 5.3.1z" class="bg-blue"/><path d="M103 56c3 1 3 1 4.2 2.8 2.3 6.4-.6 14.8-2.2 21.2h-1V66l-2-1zm-3 26 1 2 2 .5 2 .5c1.6 3.2 1 6.4 1 10-2.4-.4-3.9-.9-5.8-2.3C99 91 99 91 99.3 88.8l.7-1.8h-2zm40 92 2 1-1 8 6.4-.4 3.6-.3c3-.3 3-.3 5-1.3l1 3-6 4-2.7-1.5c-3.3-1.5-3.3-1.5-6-1.4-2.3-.1-2.3-.1-4.6-2.6L136 180l3-2c.7-2.1.7-2.1 1-4" class="hair-dark"/><path d="M27 168h10v8h-4v-3h-6z" class="hair-dark text-noise"/><path fill="#AACAD4" d="M125 126c2 3 2 3 1.6 5.7l-.6 2.3q4.6-2.1 9-5a70 70 0 0 1-6 10l-7-1c-1.2-3.6-.5-4.6 1-8h2z"/><path d="m56 168 5 1 1 5h-3v2l2 1-2 3h-3l-1-4 1-1-2-1c.9-4.9.9-4.9 2-6m45-3h1v14l-5 1c-1-1-1-1-1.3-4.9 0-2.2 0-2.2.3-4.1 2-1.8 2-1.8 4-3z" class="hair-dark text-noise"/><path d="m134 163 3 3 2-1 2 2-2 5-10-1 3-1-1-6z" class="hair-dark"/><path d="M95 87h5l-1 3h-1v22h-1l-1-14-2 4-14-1v-1h2.3c7.9-.5 7.9-.5 11.4-2.6 2-3.6 1.6-6.3 1.3-10.4" class="bg-blue"/><path d="M9 7h3l.4 3.3A27 27 0 0 0 14 17l3 1-9 3-.1-10C8 8 8 8 9 7" class="hair-dark"/><path d="M47 86v3c-7.8 2.6-7.8 2.6-11 1l-2-1h-6v1h-5v-2l-5 1v-2l12.3-.5 3.5-.1 3.3-.2 3.2-.1zm75-25h16.8a90 90 0 0 1 17.2 1v1h-28l-1 2-5-3z" class="bg-blue"/><path d="M79 52v2l4.4-.4 2.4-.3C88 53 88 53 90 52v4c-4.4 2-8.2 3-13 1.3L72 55v-2a24 24 0 0 1 7-1" class="skin-mid"/><path d="M19 88h4c-.9 3.9-.9 3.9-2 5h-7v8H9v-7h2v2h2v-4c2.4-1.7 2.4-1.7 5-3zM161 1h2v13l-2 1-2-1 1 3-1 7h-1l-.2-8.2v-2.4c-.1-4.5 0-7 3.2-10.4z" class="bg-blue"/><path d="m146 146 5 1v7h7c-1.6 1.9-2.5 2.9-4.9 3.3h-4.4l-2.4-.1H144l-5.9-.2v-1l1.9-.2 2.4-.2 2.4-.3c2.3-.3 2.3-.3 5.3-1.3v-3h-3z" class="hair-dark"/><path fill="#7E8E94" d="M154 140a15 15 0 0 1 2.1 9.3v2.7l-.1 2h-5v-7h-6v-2h7z"/><path d="M106 73h50v1h-47l-1 4-1-2-2-1z" class="bg-blue"/><path d="m65 30 4 2-3 1 1 7-2.3.3A9 9 0 0 0 59 44c.3-6.5 1.4-9.3 6-14" class="hair-dark"/><path d="M93 165h3v3l.3 3.9v3.8c.7 3.3.7 3.3 2.7 4.7l2 .6c-1 1-1 1-3.4 1.2C95 182 95 182 93 180q-.2-3.8-.1-7.6v-2.2z" class="text-white text-noise"/><path fill="#9E9A95" d="M134 144h3l-.5 1.9c-.5 2.1-.5 2.1-.5 4.1v3h-5v-2l-7 1c1.9-3.3 3-4 6.7-5.2l3.3-.8z"/><path d="m32 173 2 3h3l1 10-3 1-1-4h2v-3h-9l1-5h4z" class="bg-blue"/><path fill="#90ADB9" d="m20 141 3 1h3v6l1 6h-5l-.4-2.4C21 149 21 149 20 147z"/><path fill="#A7B7C2" d="M113 97h43v1h-14v2h-6v-2l-1.7.1-7.6.5-2.6.2-2.6.2-2.3.1C117 99 117 99 113 97"/><path fill="#7C8892" d="m115 58 3 1v-2c3.4 1.2 5.6 2.3 8 5l-6-2v2l-5.4-.4-3-.3C109 61 109 61 107 60v-3c3.7-1.2 4.6-.5 8 1"/><path d="M135 119c1 3 1 3-.2 5.4a41 41 0 0 1-5.8 6.6l5-2c-1.7 2.8-2.5 3.9-5.7 4.8l-2.3.2v-8l6-2v-2z" class="lab-coat"/><path d="m52 174 5 1-1 5c4.8-1.9 4.8-1.9 7-3-.9 4.9-.9 4.9-2 6-3.4.3-3.4.3-7 0-2.3-3.4-2.2-5-2-9" class="text-white text-noise"/><path fill="#8E9DA6" d="M20 105h2l3 11-2 2 3 5h-5l-.4-3.4C20 116 20 116 18 114l1-1-2-2c3 0 3 0 5 1v-3l-3-1z"/><path fill="#9EB8C5" d="M24 104q4 3.8 7.6 8l1.8 2a27 27 0 0 1 3.6 6l-3.1-2.3c-8-5.7-8-5.7-10.9-5.7-.1-5.7-.1-5.7 1-8"/><path d="m89 74 2 3c3.1 1.2 3.1 1.2 6 2-1 2.5-1 2.5-3 5q-7.4 1.5-14-2v-1c7.8.9 7.8.9 10 2l-1-7-2-1z" class="skin-shadow"/><path d="M103 95c2.3.2 2.3.2 5 1 2.2 2.9 3 4.3 3 8l-4 2c-2.8-3.8-4.6-6.2-4-11" class="lab-coat"/><path d="M114.6 88h3.4v7h-8v-6c1-1 1-1 4.6-1" class="bg-blue"/><path fill="#9F988C" d="M88 65c3.4 1.3 3.4 1.3 7 3l1 3-15 2 1-4 6-1z"/><path d="m82 23-2 1 1 3-2 2-2-1-6 2-2-2c2.3-4.7 2.3-4.7 5.4-5.9q3.9-.2 7.6.9" class="hair-dark"/><path d="M6 18v11l-5 2-.2-5.4v-3L1 20c3-2 3-2 5-2m127 166a38 38 0 0 1 8 8h-15v-2l2.4-.7c3-1.5 3.5-2.3 4.6-5.3" class="bg-blue"/><path d="M136 123a34 34 0 0 1 5.7 10.4l1.3 3.4c1 3 1.2 5.1 1 8.2-2-3-3-5.8-4.1-9.3-.9-1.7-.9-1.7-3.9-2.7v-1l-2 1a19 19 0 0 1 2-10" class="text-white"/><path d="M94 184c2 .2 2 .2 4.2.1l3.8-.1c-1.9 2.4-3 3-6 3.8-3 .2-3 .2-6-1.8l-5 1h-5l-1-2 5.8-1.6 3.3-1C91 182 91 182 94 184" class="bg-blue"/><path d="M30 100c2 0 2 0 4 1.6 2.3 2.7 3.7 5 5 8.4-.3 2.9-.3 2.9-1 5l-4-5-2.2-2.5c-2-2.8-2.2-4.1-1.8-7.5" class="lab-coat"/><path d="m89 35-1.7.8L85 37l-2.4 1.1A26 26 0 0 0 73 51l2 1h-4c.4-5.2 1.2-8.2 5-12h2v-2c2.6-4.2 6.6-3.2 11-3" class="skin-shadow"/><path d="m20 164 4 1v13l-5-2c.5-4 .9-7.5 3-11z" class="hair-dark text-noise"/><path d="m6 170 3 3-2 2v3q-2.8 2.8-6 5c-.6-7.3-.6-7.3 2.5-11z" class="hair-dark"/><path d="m144 146 2 1 1 7h-13c3.8-3 5.7-4.5 10-6z" class="lab-coat"/><path fill="#9EA6AC" d="M144 122h1v22a27 27 0 0 1-3-19h2z"/><path d="m5 131 .3 10.8L5 148l-3 2v-18c2-1 2-1 3-1" class="hair-dark"/><path d="M65.6 128H68c2 6.9 2 6.9 2 8h-7l-1-7c1-1 1-1 3.6-1" class="bg-blue"/><path d="m89 60-.5 1.8C88 64 88 64 88 68h-5l-3-7c5.6-2.1 5.6-2.1 9-1" class="skin-light"/><path d="M114 1c6.5-.4 11 .4 17 3v1h-17z" class="bg-blue"/><path d="M148 121h8v1l-5 1v19h-3z" class="skin-shadow"/><path fill="#AAC5D1" d="m30 100 .8 2.6c1.3 3.6 3 6.3 5.2 9.4l-1 2-1.5-1.5-1.9-2-1.9-2C28 107 28 107 26 107l-1-5c3-2 3-2 5-2"/><path fill="#79858E" d="M120 75h18v2a47 47 0 0 1-11.8 1H120z"/><path d="M68 0h31c-1 3-1 3-4 5-2.2-.4-2.2-.4-4-1l1-2-24-1z" class="bg-blue"/><path d="m141 184 3.8.4 2.2.2c2 .4 2 .4 5 2.4l2-1 2 2c-1.1 1.5-1.1 1.5-3 3-3.2.2-3.2.2-6 0l-1-3c-2.6-1.2-2.6-1.2-5-2z" class="hair-dark"/><path d="M113 131h2v5h2v-5h4c-1.5 5.7-1.5 5.7-4 7.2l-2 .8-3 3c-.1-7.4-.1-7.4 1-11" class="lab-coat"/><path d="M119 98h16v2l-11 1 4 3v2c-2.5-.4-3.7-.7-5.5-2.6z" class="bg-blue"/><path d="M50 9h1l1 6c2 0 2 0 4.1-2l1.9-2c1.1 3.7 1.1 3.7 0 6-3.7 2.7-7.6 2.1-12 2l-1-2 5-1z" class="hair-dark text-noise"/><path d="M14 8h6v2h3V8h2v8l-2 1-4-2v-4l-5-2z" class="title-grey text-noise"/><path d="M64 149c7.8-.1 7.8-.1 10 1v4H64z" class="skin-mid"/><path d="M79.3 28.8C81 31 81 31 82 34l-7 1-2-3-2-1 1-3c4.4-1.5 4.4-1.5 7.3.8" class="hair-dark"/><path d="m64 8 1 2c5.8.1 5.8.1 8-1v7l-3-1-3 1-3-1z" class="title-grey text-noise"/><path d="m9 75 5.8.9 3.2.5c2.7.5 4.6 1.2 7 2.6v1H9l2-2-2-1z" class="hair-dark"/><path d="M10 20q11-.2 22 1c-2.6 2.6-4.5 2.3-8 2.3h-4.8c-5.8 0-5.8 0-8-1.8z" class="title-grey text-noise"/><path d="m77 149 4 2-1 4c-2.7 1.3-4.7 1.1-7.7 1.1H61.8L53 156v-1h24l-1-5z" class="bg-blue"/><path d="m127 146 2 1-4 4 7-1-1 3h-19l1-3 1 2 5-3 1 2c2.9-1.3 4.9-2.7 7-5" class="skin-shadow"/><path d="M23 90h7l.4 2.9C31 96 31 96 33 98q-5.6-1-11-3z" class="bg-blue"/><path d="M52 68h2c1.2 4.4 1.2 4.4.1 7.1L53 77l-1 3h-2l-1 2c-.6-9.7-.6-9.7 3-14" class="hair-dark"/><path d="m72 55 5 1-.2 2.8c.2 3.2.2 3.2 1.7 5L80 65l-1 3h-2l-.2-2.4c-.8-2.6-.8-2.6-2.9-4L72 61z" class="skin-mid"/><path d="M97 20h13l1 4-13-1z" class="title-grey text-noise"/><path d="M128 138v2h6v2c-3.2 2.2-4.3 2.2-8 2l-1-2-4 1 1-4c2-1 2-1 6-1" class="bg-green"/><path d="M14 97h1v12c-5-2-5-2-6-3v-5h5z" class="bg-blue"/><path d="M51 87h2l-.1 2.9C53 93 53 93 55 95c-2.1 1.6-2.1 1.6-5 3-3.3-.8-3.3-.8-6-2v-2l6-2z" class="hair-dark"/><path d="M9 82h11l-1 3h7v1h-6.2l-3.6.1A25 25 0 0 1 9 85z" class="bg-blue"/><path d="M159 78h4l.2 5.4v3L163 89l-3 2c-1.3-2.6-1.1-4.7-1-7.6zM83 28l2.8.5c3.2.5 3.2.5 7.2.5v6l5-1-2 3-7-1 2-5-7 1zM5 86h1l.3 5.3v3C6 97 6 97 4 98.9L2 100c-1.6-3.2-1-6.4-1-10h3z" class="hair-dark"/><path d="M10 6h21v1L14 8v5h4v2c-1.9.6-1.9.6-4 1-2-2-2-2-2.1-5.6L12 7z" class="title-grey text-noise"/><path d="M25.9 98.8 28 100a16 16 0 0 1-9 4l-3 1-1-6 2 2 2.7-1.6C23 98 23 98 25.9 98.8" class="bg-blue"/><path d="m81 83 12 1-3 1 5 5-1 2-5-2v-4l-6 1z" class="hair-dark"/><path d="M94 73v1l-5 1c1 3 1 3 3 5l-5 1v-3l-4-2 1-3c3.7-1 6.3-1 10 0" class="skin-mid"/><path d="M69 53c1 3.9 1 3.9 1 5h1c.2 4.8-.2 8.5-2 13h-1v-5l-3-1h2l-.1-3.7c0-3.3.2-5.5 2.1-8.3" class="hair-dark"/><path d="M95 37c4.6.5 4.6.5 6.3 2.6 1 3.5.8 6.7.7 10.4h-6l1-1.5c1.4-3.6 1.1-6.6 1-10.5z" class="skin-mid"/><path d="M118 165h1l3 11c-5-1-5-1-7-2l-1-6h4z" class="hair-dark text-noise"/><path fill="#97A1A5" d="M9 107c4 1 4 1 7 3l-1 8h-1l-1-7h-2v5H9z"/><path d="m98 43 1 3c-3 5.6-3 5.6-6.2 6.9L91 53l1-4h-2v-2h2l1-3h4z" class="skin-light"/><path d="M9 29q8.2 2.6 16 6c-1.6 1.1-1.6 1.1-4 2-3-.9-3-.9-6.2-2.4l-3.3-1.4L9 32zM21.6.8h3l3 .1L30 1c-2.4 3.9-2.4 3.9-5 4.5-5.8-.3-5.8-.3-8-2.5 2-2 2-2 4.6-2.2" class="bg-blue"/><path fill="#6F610E" d="M149 172v1a39 39 0 0 1-15 2l-1-3c6-2.3 10-1.8 16 0"/><path d="m56 125 5 1-.6 1.8a11 11 0 0 0 .6 6.2l-5 1z" class="bg-green"/><path d="m125 108 3 2c.2 3.6.2 3.6 0 7h-2l-4 7h-1l1-7h2zm-84-5c2.5 2 3 3 3.7 6.2q0 1.4.3 2.8l-3 1-1-4h-2l-1-5z" class="lab-coat"/><path d="M75 83c3.4 1.4 5.6 3.2 8 6v2h-2l-1 3c-3.8-2.8-4-6.6-5-11" class="skin-shadow"/><path d="M5 66h1l.2 5.8v3.3C6 78 6 78 4.7 79.9 3 81 3 81 1 81v-7l2-1z" class="bg-blue"/><path d="M38 8h4l-1 2-2-1v2l8-1 1 2h-2l-1 2 2 1h-3l-2.6.6C39 16 39 16 37 15l1-2h2l-3-2z" class="title-grey text-noise"/><path d="M134 183c5.7 2.6 5.7 2.6 7.5 4.6 2.2 2 4.6 2.6 7.5 3.4v1c-9 .5-9 .5-13-3-1.3-3.2-1.3-3.2-2-6m-30-1 1 2 6 1c-1 2-1 2-3 2.9-.5 0-.5 0-2.6.7l-2.5.8-1.9.6-1-2z" class="bg-blue"/><path d="M161 170c2.7 4 2.2 8.1 2.1 12.8v2.4l-.1 5.8-2-1v-14l-2 1-1-3c1.4-2.2 1.4-2.2 3-4" class="hair-dark"/><path d="m59 122 1.8 1.9C63 126 63 126 66 128l-3 1v7h-8v-1l5-1-1-5h2l-1-5-3-1z" class="lab-coat"/><path d="M137 122h6l-1 11c-5-6.7-5-6.7-5-11" class="bg-blue"/><path d="m60 61 7 5-2 1v6l-1-2h-2l-2-6h2l-2-1-1 2-2-1 1-3zm14-24 1 6-3 2v-2l-6 3c.3-2 .3-2 1-4l3-1v-3c2-1 2-1 4-1" class="hair-dark"/><path d="M33 8v7c-3 1-3.9 1-7 0 .2-2.4.2-2.4 1-5 3.8-2 3.8-2 6-2" class="title-grey text-noise"/><path d="M16 7h14l1 3-4 1-1 5h-1V8h-2v2h-3V8z" class="hair-dark text-noise"/><path d="M140 0h9c-1 2.5-1 2.5-3 5-3.7.3-3.7.3-7 0z" class="bg-blue"/><path d="M90 166c2 2 2 2 2.2 4.6v3l-.1 3-.1 2.4h-2l-1.1-4.2-.7-2.4c-.2-2.8.4-4 1.8-6.4" class="hair-dark text-noise"/><path fill="#7B6A67" d="m121 140 3 1h3l-2.7 3.4-1.6 2a9 9 0 0 1-5.7 2.6c.6-3.5 2.1-6 4-9"/><path fill="#AEC9D6" d="m47 116 2 1 1 7 5 2-1 2h-6a17 17 0 0 1-1-12"/><path d="m68 94 10 5c-2 2-2 2-5.6 2.1L69 101z" class="hair-dark"/><path d="M109 74h10v1h-9l1 6h-6v-5l3 1z" class="bg-blue"/><path d="M102 72q1.6 3.2 3 6.6c1 2.4 1 2.4 3 4.4l-4-1-1 2h-2c-1.2-1.5-1.2-1.5-2-4q1.1-4.2 3-8" class="hair-dark"/><path d="M84 173h2l1 7h-4l-1 3h-3c.3-2.4.3-2.4 1-5l3-2z" class="lab-coat text-noise"/><path d="m161 165 1 3c-1.4 2.3-3.2 4-5 6l-3-1v-5l2-1v2z" class="hair-dark"/><path d="m22 91 1 3c-1.7 2-1.7 2-4 4-2.7-.2-2.7-.2-5-1v-4l3.4-.4C21 92 21 92 22 91" class="bg-blue"/><path d="M31 91h13c-2 3-2 3-3.8 3.6l-2.1.2-2.1.3c-2-.1-2-.1-5-2.1z" class="hair-dark"/><path d="M45 40c4.8 1.4 8.7 3.4 13 6l-1 4v-3l-2-.3A53 53 0 0 1 45 43z" class="bg-blue"/><path d="m42 161 1 4-2 1-3-1v18h-1l-.3-9.3-.1-2.7q-.1-3.5.4-7c2.5-2.1 2.5-2.1 5-3" class="hair-dark"/><path d="m81 164 2 2c-.3 2.8-.3 2.8-1 6l-.6 3.4-.4 2.6c-2-2-2-2-2.3-4.3v-5.4c.3-2.3.3-2.3 2.3-4.3" class="hair-dark text-noise"/><path d="m95 158 3 1-4 5h-2l-1 4-1-1-2 3c.6-5.2 1-7.2 5-10.7zm-19-57h14l1 2c-10.6 1.3-10.6 1.3-15 0z" class="hair-dark"/><path d="M42 88c2.4.1 2.4.1 5 1 1.8 2 1.8 2 3 4l-8 2-2-5z" class="bg-blue"/><path d="M86.3 48.9h3.2l2.5.1-1 3v-2l-6.2 1.4C83 52 83 52 82 54h-3v-2l-3-1c3.5-2.1 6.2-2.2 10.3-2.1" class="skin-shadow"/><path d="m105 45 1 2h20v1h-21l2 5-3 1v-8z" class="bg-blue"/><path d="M98 31v2l3-1 1 3h-2l-1 3-3-2h-3l-1-4c3-1 3-1 6-1m61 0h4c.4 6 .4 6 0 8l-4 3z" class="hair-dark"/><path fill="#7C8792" d="M60 23h12l-5 5c-5.9-2.7-5.9-2.7-7-5"/><path fill="#B2BDC5" d="M110 20h10l-1 2h-2l3 6c-4-1.7-6.8-4.2-10-7z"/><path d="m73 181 1 3c2 .7 2 .7 4 1l-1 3c-3.4.8-5.7 1.1-9 0l1-4h3z" class="bg-blue"/><path fill="#B0D4DD" d="m137 129 1 2-2 2.8c-2 3.2-2 3.2-3 6.2h-5l2.4-4 1.3-2.2 1.3-1.8h2z"/><path d="M108 97c6.5.6 6.5.6 9 2.4 1 1.6 1 1.6 1 3.6-6.5-.6-6.5-.6-9-2.4-1-1.6-1-1.6-1-3.6M23 36c6.3.4 10.6 2.7 16 6-3 1.3-4 1-7-.2L28.8 40l-3.3-1.8L23 37z" class="hair-dark"/><path d="M9 125h9v3l-3.4.4C11 129 11 129 9 131zm120-20c4.8 3.7 4.8 3.7 5.3 7.3q0 3.4-.3 6.7h-1l-1-6-1 5h-2z" class="lab-coat"/><path fill="#897B69" d="M71 78h2l1 4.8.6 2.6C75 88 75 88 75 92h-2c-2-5-2.2-8.8-2-14"/><path d="M110 75h10v3l-3.4.4c-3.6.6-3.6.6-5.6 2.6zM4 11h2v7H4l-1 2H1v-6l3-1z" class="bg-blue"/><path d="M92 165h1l.2 3.1.2 4.2.2 2A41 41 0 0 0 95 184h-3l-2-5h2z" class="hair-dark text-noise"/><path d="M161 175c1.1 3.3 1 5.7 0 9l-2 1-3-2q2-4.3 5-8" class="hair-dark"/><path d="m106 168 4 1v11l-1-4-3-1zm18 0 5 1v2l4 1-9 1-1-4z" class="hair-dark text-noise"/><path d="m83 89 7.6.6C93 90 93 90 95 92v5l-2 1 1-4h-2v-2l-4 1v-3l-5 1z" class="skin-shadow"/><path fill="#9AA5A8" d="m12 65 3 1 1 10h-4z"/><path d="M5 62c1.2 3.4.8 5.4-.4 8.8l-1 2.4L3 75l-2-1c-.2-3.4-.2-3.4 0-7l3-2z" class="bg-blue"/><path d="m37 20 8.3-.3C48 20 48 20 51 23H38z" class="title-grey text-noise"/><path d="m155 175-1 2 1 2h-10v-3l3.9-1 2.2-.7c1.9-.3 1.9-.3 3.9.7" class="hair-dark text-noise"/><path d="M63 168h1v12l-2-2-3 2v-6h3z" class="lab-coat text-noise"/><path d="M47 165v10c-3-1.5-3.6-4-5-7v-2c2-1 2-1 5-1" class="hair-dark text-noise"/><path d="m83 38 2 1v10h-5z" class="skin-light"/><path d="m146 146 5 1v7l4 1h-7l2-1v-3h-3zm-30-24 3 2-1 6h-4v-6z" class="bg-blue"/><path fill="#9DA8AC" d="M17 67h3v10h-3z"/><path d="M163 23c.3 6 .3 6 0 8l-3 2c-1.4-2.8-1.3-5-1-8 3-2 3-2 4-2M11 183h3l-1 2.3-2 5.7-5-1 3.6-5.5z" class="hair-dark"/><path d="M141 168h9v4c-5.6.3-5.6.3-9-2z" class="hair-dark text-noise"/><path d="M5 97c1.1 3.3 1 4.7 0 8l-2 2c-2.3-3.4-2.2-5-2-9h3z" class="hair-dark"/><path fill="#877F71" d="M76 77c4.8.8 9.4 2.4 14 4v2l-5.9-.7-3.3-.5C78 81 78 81 76.6 79z"/><path fill="#9CAAB0" d="m26 69 3 1v9l-3 1z"/><path fill="#99A5A9" d="m22 68 3 1v9h-3z"/><path d="M91 50v5l-2-1h-7l1-3c2.7-1.4 5-1 8-1m-1-26c6.8-.1 6.8-.1 9 1v4h-5v-3z" class="hair-dark"/><path d="m82.6 20.4 2.5.2 5.9.4 1 2-10.7.2H77c-2-.2-2-.2-5-2.2 3.3-1.7 7-.8 10.6-.6" class="title-grey text-noise"/><path d="m48 186 3.4.6c3.6.4 3.6.4 5.6-.6l-1 4H46zm67-3h3l3 3h3l-1 3-6-1-1-2-3 1zm-88-15h10v5h-3v-3l-6-1v3l4 1h-5z" class="bg-blue"/><path d="M24 158h7c-2.8 3-5 4.7-9 6q.6-3.1 2-6" class="hair-dark"/><path fill="#9BC0C9" d="m139 145 3 2v2l-5 3-3-3z"/><path d="M62.9 136H70v1a54 54 0 0 1-21 1v-1q6.9-1.3 13.9-1" class="bg-blue"/><path d="M61 55h4v2h-2l3 8c-3.9-1.9-3.9-1.9-5-3z" class="skin-light"/><path d="M146 47h10v8l-3-1h2v-5l-2.8.7-3.2.3z" class="bg-blue"/><path d="m87 22 5 1 1 5-1.8-.5C89 27 89 27 86 27z" class="hair-dark"/><path d="M1 1h7L5 4.5l-1.6 2L2 8H1zm41 184c-1.7 3.9-1.7 3.9-4 5l-3-1-3 1c.8-2 .8-2 2-4 2.8-1.1 4.9-1 8-1" class="bg-blue"/><path d="m122 175 7 1-1 4c-3.4-.5-5-1-8-3h2z" class="hair-dark text-noise"/><path d="M23 158c0 3 0 3-1 6q-3 2.7-6 5c.3-5.4 3.2-7.5 7-11m74 0h6l-5 6-4-1 2-3z" class="hair-dark"/><path fill="#72828C" d="m146 148 1 3h3v3c-2.9 1.4-5.4 1-8.6 1H135v-1l11-1z"/><path fill="#90B7BF" d="M131 120c-1 2.6-1.5 3.8-4 5-2 1-2 1-2.7 3.1l-.3 1.9-1-5c5.8-5 5.8-5 8-5"/><path fill="#ABD1DA" d="m127 106 3 1v9l-2 1-.4-2.8c-.6-3.2-.6-3.2-1.6-6.2z"/><path d="M19 88h4c-.9 3.9-.9 3.9-2 5h-6c1.8-2.5 1.8-2.5 4-5" class="hair-dark"/><path d="M77 43h1l2 7-7 1c.6-3.3 1.8-5.4 4-8" class="skin-mid"/><path fill="#A2AFB8" d="m141 38-1 6c-5.9-3.7-5.9-3.7-7-6 2.9-1.4 5-.6 8 0"/><path d="M102 28c2 1 2 1 2.6 2.8l.5 2.3.5 2.2.4 1.7c-3-1-3.9-1.8-6-4l-2-1z" class="hair-dark"/><path fill="#9DC4CD" d="M134 129c0 3.4-.5 4-2.5 6.7l-1.4 1.9-1.1 1.4-2-1c.2-2.3.2-2.3 1-5 2.5-1.7 2.5-1.7 5-3z"/><path d="M27 106a33 33 0 0 1 10 11c-3.1-1.4-5-2.9-7.2-5.5l-1.6-1.8C27 108 27 108 27 106" class="lab-coat"/><path d="M90 74h4v2l5-1-2 4-7-2z" class="skin-shadow"/><path d="m76 61 5 1 .8 3 1.2 3 3 1-4 1zm15-7h3v9h-2l1-5-4 1c.9-3.9.9-3.9 2-5" class="skin-light"/><path d="m82 23-2 1 1 3-2 2-2-2v-3h-5v-1c3.7-1 6.3-1 10 0m2 0 3 1v3h3l-1 3-6-2z" class="hair-dark"/><path d="M43 7h7l-2 1v2c-6.7 2.1-6.7 2.1-9 1V9l4 1z" class="hair-dark text-noise"/><path d="M65 185h2c-.7 2-.7 2-2 4-2.9 1-4.3 1.4-7 0l1-3h2.4c2.6 0 2.6 0 3.6-1m3-13c2.8 2.8 3.7 4.4 5 8h-3l-2 3z" class="bg-blue"/><path d="M100 165c-.3 1.9-.3 1.9-1 4l-3 2v-6l-4-1c3.4-1.2 5-.9 8 1" class="hair-dark text-noise"/><path fill="#AFCFDD" d="m81 151 6.7.6c2.3.4 2.3.4 5.3 2.4H81z"/><path fill="#9FBCCB" d="m28 121 4 1a24 24 0 0 1 1 7h-2l-4-7z"/><path d="M96 116h1v14l-4-8 2-2z" class="hair-dark"/><path fill="#A8B1B5" d="m15 118 5 1-1 5h-4z"/><path fill="#817364" d="m81 91 3 1c.8 3.3 1.1 4.7 0 8l-5-2 2-1 2 1-2-3z"/><path fill="#A5A9AE" d="M123 88c2 3 2 3 2 7h-5l1-6z"/><path d="m148 88 1 2h2v-2l2 1-1 3h2v2h-6z" class="bg-blue"/><path fill="#778086" d="m32 70 5 1-2 1v9l-3-1 1-1q0-2.2-.4-4.6l-.3-2.5z"/><path d="m98 57 4 2v3h-2l-1 4h-1c-1.1-6.7-1.1-6.7 0-9" class="skin-mid"/><path d="M70 43h2l-1 4-7 2c0-3 0-3 2-5h3z" class="hair-dark"/><path d="M48 8h2v8l-5-2c1-3 1-3 3-6" class="bg-blue"/><path d="m140 174 2 1v9l-2 1-4-5 3-2c.7-2.1.7-2.1 1-4" class="hair-dark"/><path d="M97 173h3l1 7-5-1zm-77-9 4 1v10l-3-3c.3-3.7.3-3.7 1-7z" class="hair-dark text-noise"/><path fill="#899498" d="M154 140c1.4 2.4 2 3.5 1.6 6.3l-.6 1.7v-2l-2.7.5c-3.3.5-3.3.5-7.3.5v-2h7z"/><path fill="#96B3C0" d="M24 141c2.6 2.6 2 3.3 2 7h-3l-2-5z"/><path fill="#B2D5E5" d="m55 126 2 3-1 3-8-2v-2z"/><path fill="#8BA5B2" d="m22 113 3 1-1.2 1.7-.8 2.3a24 24 0 0 0 3 5h-5c-.1-7.7-.1-7.7 1-10"/><path fill="#ABC6D1" d="M42 100h2l1.6 4.8.8 2.6c.6 2.7.5 4-.4 6.6l-.8-2.1-1-2.8-1.1-2.7C42 104 42 104 40 102h2z"/><path fill="#788185" d="M67 82v11h-1l-1-8-4 1-1-2c2.6-1.5 3.9-2 7-2"/><path d="M5 83c1 3 1 3 .2 5.6C4 91 4 91 2 92c-.7-2.2-.7-2.2-1-5 2-2.3 2-2.3 4-4m101-2c2 .3 2 .3 4 1l1 3h2v2l-6 1 1-6z" class="bg-blue"/><path d="M103 37h3c.4 5.4.4 5.4 0 8-2 2-2 2-4 3v-3l2-1-1-2.4-1-2.6z" class="hair-dark"/><path d="M14 9c2.4.7 2.4.7 5 2 .8 2.6.8 2.6 1 5h-2l-1-2-4-1z" class="hair-dark text-noise"/><path d="M140 185c3.4.8 3.4.8 7 2l1 3c-3 1-3 1-5.7-.2L140 188z" class="bg-blue"/><path fill="#758A91" d="m105 148 1 3 7-2-1 4-8-1z"/><path fill="#9FBCC8" d="M119 137c-1 3.8-2 6.5-5 9-.2-3.4-.2-3.4 0-7 3-2 3-2 5-2"/><path d="m129 127 1 2-1 2 5-2c-1.7 2.8-2.5 3.9-5.7 4.8l-2.3.2c.6-3 1.3-4.4 3-7" class="lab-coat"/><path fill="#A0BECC" d="M21 127c4.9 4.6 4.9 4.6 6 8h2v2a16 16 0 0 1-8-7z"/><path d="m86 61 2 1v6h-5c1.9-4.7 1.9-4.7 3-7" class="skin-light"/><path d="m71.7 33.4 2.3.6c-4.6 4-4.6 4-8 4v-3c3-2 3-2 5.7-1.6" class="hair-dark"/><path d="M120 178c3.9.6 6 2.5 9 5-5.5.4-5.5.4-7.9-1.4-1.1-1.6-1.1-1.6-1.1-3.6m-33-2 3 1 1 6h-3l-2-6z" class="text-white text-noise"/><path d="M118 149c3.9 1.8 3.9 1.8 5 4h-11l1-3 1 2z" class="skin-shadow"/><path fill="#829BA5" d="M19 145c2.2 2.6 3.4 4.6 4 8h-4z"/><path d="M117 131h4c-.8 3-.8 3-2 6l-3 1-1-2h2z" class="lab-coat"/><path fill="#93BFC7" d="m135 123 1 4c-4.7 4-4.7 4-7 4l2-4h2z"/><path fill="#9FA5AA" d="M142 88h4l-1 7h-3z"/><path d="M18 87h12l-2 3c-2.6.2-2.6.2-5 0v-2l-5 1z" class="bg-blue"/><path d="M67 7c2.6-.2 2.6-.2 5 0 0 3 0 3-2 6v-3h-5z" class="hair-dark text-noise"/><path d="m134 163 2 3-2 2h-3l1-4z" class="hair-dark"/><path fill="#7E7E7D" d="m132 142 2 1v3l-6 2-1-3c2.4-1.6 2.4-1.6 5-3"/><path d="M148 121h8v1l-5 1-1 8h-1z" class="skin-shadow"/><path fill="#A3C4CE" d="M113 116h1c1.6 4.2 2.3 6.2.6 10.4L113 129l-2-1 .4-4.9.3-2.7c.3-2.4.3-2.4 1.3-4.4"/><path d="m108 100 4 2-3 4h-2l-1-4h2z" class="lab-coat"/><path d="M90 92h2v2h2l-2 5h-3z" class="skin-shadow"/><path d="M5 86h1c.2 4 0 6.6-2 10l-3-3 1-3h2z" class="hair-dark"/><path fill="#A6B7C3" d="M23 90h7v3h-7z"/><path fill="#9A9FA4" d="m130 88-1 7h-3v-6c2-1 2-1 4-1"/><path fill="#464240" d="m96.1 53 2.9 1-3 1 1 7-2-1-1-7-3-1c2-1 2-1 5.1 0"/><path d="m77 27 2 2c-1.7 1.6-1.7 1.6-4 3-2.2-.3-2.2-.3-4-1l1-3c2.4-.6 2.4-.6 5-1M20 185c-1.2 2.5-2 4-4 6l-3-1c.8-2 .8-2 2-4 3-1 3-1 5-1" class="hair-dark"/><path d="M123 165c5.5-.4 5.5-.4 7.9 1.4 1.1 1.6 1.1 1.6 1.1 3.6-2-.3-2-.3-4-1l-1-3c-2-.7-2-.7-4-1" class="text-white text-noise"/><path d="m131.8 157.6 2.2.4c-2.2 3.4-2.4 3.3-6 4l-4 2c4.3-6 4.3-6 7.8-6.4" class="hair-dark"/><path fill="#838181" d="m134 147 2 1v5h-5c1.9-4.9 1.9-4.9 3-6"/><path fill="#9CB7C3" d="M107 142h3v4l2 1h-2v2h-2z"/><path d="m126 114 1 3c2 1.2 2 1.2 4 2l-5 3c-.8-3.3-1.1-4.7 0-8m-17-8 2 4h3l-1 4-6-5z" class="lab-coat"/><path d="m5 108 1 3-5 4v-6z" class="hair-dark"/><path d="M115 98c5.8 1.8 5.8 1.8 8 4l-1 3-1-2-2 1z" class="text-white"/><path fill="#9AA1A8" d="m153 88 3 1v6h-2v-3h-2z"/><path d="m9 85 6 1-5 5H9zm43-6 3 1-1 5h-2l-1-5z" class="hair-dark"/><path fill="#867E76" d="m89 74 2 3c2.1 1.2 2.1 1.2 4 2l-1 3c-2-.7-2-.7-4-2l-1-4-2-1z"/><path fill="#828F99" d="M150 49h5v5h-3z"/><path d="m26 15 3 4h-9c1.4-2.8 3.2-3 6-4" class="hair-dark text-noise"/><path d="m52 10 3 1-1 5-3-1z" class="title-grey text-noise"/><path d="M154.6 1h2.4l-1 4h-4l-1-3c1-1 1-1 3.6-1" class="bg-blue"/><path d="M155 186h4l-1 5h-5z" class="hair-dark"/><path d="M36 184c-2.5 2.5-4.7 3-8 4h-2l1-3c3.2-1 5.7-1 9-1" class="bg-blue"/><path d="M23 184c0 3 0 3-2 5.2l-2 1.8-3-1z" class="hair-dark"/><path d="m133 178 4 5-3 1-2-1c0-4 0-4 1-5" class="bg-blue"/><path d="M55 165h6c2 2 2 2 2 5-5.7-1.6-5.7-1.6-8-5" class="text-white text-noise"/><path fill="#706D6D" d="M49 138h6l1 3h-7z"/><path d="M55 138h8l-2 3c-2.6.2-2.6.2-5 0z" class="bg-green"/><path d="M74 82c2.6 4 2.7 6.3 3 11l-2 2c-1-3-1.1-5-1-8.2z" class="skin-shadow"/><path d="M116 88h2v7h-3zm6-3 6 1v3h-2v6h-1l.3-6-.3-2z" class="bg-blue"/><path d="M76 52c2.8 2.4 2.8 2.4 5 5l-2 1-7-3v-2c1.7-.8 1.7-.8 4-1" class="skin-shadow"/><path d="m82 30 3.4.5c3.6.5 3.6.5 5.6.5l-2 4-7-3z" class="hair-dark"/><path d="M111 23v1l-13-1v-1l4.3-.6 2.3-.4c2.7 0 4.1.6 6.4 2" class="title-grey text-noise"/><path d="M137 6h8v2c-3.3.8-4.7 1.1-8 0zM89 185l-1 2h-8l-1-2c3.7-1 6.3-1 10 0" class="bg-blue"/><path d="M122 166h5v2l-3 1-1 2h-2z" class="text-white text-noise"/><path d="m89 158 3 1c-4.7 4-4.7 4-7 4 1.8-3.9 1.8-3.9 4-5" class="hair-dark"/><path d="M145 142h6v3h-6z" class="bg-blue"/><path fill="#A7C5D2" d="m109 135 2 1v7h-3z"/><path d="m103 81 5 2-1 5c-2-1.8-2-1.8-4-4zM9 1h5l-1 4H9z" class="bg-blue"/><path d="M1 184h3a24 24 0 0 1-1 7H1z" class="hair-dark"/><path d="m58 175 3 2-2 3h-3l-1-4z" class="hair-dark text-noise"/><path d="M155 167c1.6 1.8 1.6 1.8 3 4l-1 3-3-1v-5z" class="hair-dark"/><path d="M144 165h7v1h-5l-1 3h-3z" class="text-yellow text-noise"/><path d="m42 161 1 4-2 1-4-2z" class="hair-dark"/><path fill="#8E8883" d="M127 138v3l-3 2-3-1 1-3c2-1 2-1 5-1"/><path fill="#999CA5" d="m62 129 1 2 4-1-1 4-2-1-1 3z"/><path d="M93 100v2l-13-1v-1l5.4-.6 3-.3C91 99 91 99 93 100" class="hair-dark"/><path d="m34 98 8 1v2l-6 1v-2zm96-10c2.2 2.2 3.5 4.4 5 7h-5zm-96 0c6-.2 6-.2 8 0l2 2c-2.7.7-2.7.7-6 1-2.4-1.4-2.4-1.4-4-3M7 75h2v2l6 1v1l-7 1z" class="bg-blue"/><path d="M56 69c1 3 1 5 0 8l-3-3c1.9-3.9 1.9-3.9 3-5" class="hair-dark"/><path d="m64 8 1 2 2 1 2 3-5 1zm-20 2 4 1-3 3 2 1c-3 0-3 0-5-1zM14 8h6v7l-.2-1.9C19 11 19 11 16.4 9.8L14 9z" class="title-grey text-noise"/><g id="text-overlay" style="display:var(--text-overlay)"><text x="10" y="16" fill="var(--title-grey-color)" font-family="var(--title-font)" font-size="10">Chief Scientist</text><text x="11" y="183" fill="var(--text-white-color)" font-family="var(--logo-font)" font-size="25" font-style="italic" font-weight="bold">XENONAUTS</text><text x="141" y="183" fill="var(--text-yellow-color)" font-family="var(--logo-font)" font-size="25" font-style="italic" font-weight="bold">-2</text></g></svg>