<svg xmlns="http://www.w3.org/2000/svg" viewBox="0 0 1024 1024">
  <style>
    :root {
      --bg-color: #ffffff;             /* white background (logo PNG has transparent bg) */
      --gold-light: #f5d97a;           /* highlight gold */
      --gold-mid: #d4a13a;             /* mid gold */
      --gold-dark: #8a6517;            /* shadow gold */
      --gold-deep: #4d3a0c;            /* deep shadow */
      --dot-color: #ffffff;            /* small dot inside the leaf curl */
      --outline: #4d3a0c;              /* same as deep shadow */
      --stroke-thin: 1.5;              /* @ws number min=0.5 max=4 step=0.5 */
    }
    .background { fill: var(--bg-color); }
    .ring       { fill: url(#gold-grad); }
    .leaf       { fill: url(#gold-grad-leaf); }
    .dot        { fill: var(--dot-color); }
    .ring-shadow { fill: var(--gold-dark); }
    .ring-shine  { fill: var(--gold-light); }
    .leaf-shadow { fill: var(--gold-dark); }
    .leaf-shine  { fill: var(--gold-light); }
  </style>

  <defs>
    <!-- Metallic gold gradient — light upper-left → mid → dark lower-right -->
    <linearGradient id="gold-grad" x1="0.15" y1="0.1" x2="0.85" y2="0.9">
      <stop offset="0"    stop-color="var(--gold-light)"/>
      <stop offset="0.40" stop-color="var(--gold-mid)"/>
      <stop offset="0.80" stop-color="var(--gold-dark)"/>
      <stop offset="1"    stop-color="var(--gold-deep)"/>
    </linearGradient>
    <!-- Slightly different angle for the leaf so it reads as a separate
         metal plane catching light differently from the ring. -->
    <!-- Leaf gradient runs from bottom-left (lighter, catches light from the dot)
         to top-right (darker, in shadow of the ring). Reverses the ring's
         gradient direction so the leaf reads as a separate metal plane. -->
    <linearGradient id="gold-grad-leaf" x1="0.1" y1="0.95" x2="0.85" y2="0.05">
      <stop offset="0"    stop-color="#fce28b"/>
      <stop offset="0.35" stop-color="#e8b94a"/>
      <stop offset="0.75" stop-color="#a37a1a"/>
      <stop offset="1"    stop-color="#5d4310"/>
    </linearGradient>
  </defs>

  <!-- Background -->
  <rect class="background" x="0" y="0" width="1024" height="1024"/>

  <!-- ============================================================ -->
  <!-- RING — outer gold circle. Drawn FIRST so the leaf can sit    -->
  <!-- on top with its points naturally extending beyond it.        -->
  <!-- ============================================================ -->
  <circle class="ring" cx="512" cy="512" r="480" stroke="var(--outline)" stroke-width="var(--stroke-thin)"/>

  <!-- Subtle inner shine arc on the upper-left of the ring -->
  <path class="ring-shine" d="
    M 200 220
    A 480 480 0 0 1 700 80
    L 690 95
    A 460 460 0 0 0 220 240
    Z" opacity="0.55"/>

  <!-- Subtle inner shadow arc on the lower-right of the ring -->
  <path class="ring-shadow" d="
    M 850 750
    A 480 480 0 0 1 350 950
    L 360 935
    A 460 460 0 0 0 830 740
    Z" opacity="0.45"/>

  <!-- ============================================================ -->
  <!-- LEAF — stylized swoosh with two pointed tips at top-right.   -->
  <!-- Outer arc sweeps down-right, then down-left to the dot,      -->
  <!-- then an inner sweep curves back up toward the start.         -->
  <!-- ============================================================ -->
  <path class="leaf" d="
    M 720 75
    L 800 80
    C 855 110 885 220 880 340
    C 870 480 800 620 660 720
    C 480 820 290 870 200 870
    L 230 840
    C 290 790 350 720 410 620
    C 480 510 540 380 600 250
    C 650 150 700 90 720 75
    Z" stroke="var(--outline)" stroke-width="3"/>

  <!-- Inner swoosh detail inside the leaf body (decorative line that
       gives the Spring leaf its characteristic "stylized" look). -->
  <path d="
    M 770 200
    C 750 280 700 380 620 480
    C 540 580 440 670 320 770"
    fill="none" stroke="var(--gold-deep)" stroke-width="2.5" opacity="0.6"
    stroke-linecap="round"/>

  <!-- (shine + shadow overlays removed — they were dominating the      -->
  <!--  body of the leaf instead of subtly modulating it. The gradient  -->
  <!--  fill on .leaf already provides the metallic look.)              -->

  <!-- ============================================================ -->
  <!-- DOT — small white circle inside the leaf curl, bottom-left.  -->
  <!-- Drawn last so it sits on top of the leaf.                    -->
  <!-- ============================================================ -->
  <circle class="dot" cx="200" cy="855" r="30" stroke="var(--outline)" stroke-width="var(--stroke-thin)"/>

  <g id="trace-ref" display="none" transform="scale(1 1)">
    <style>#trace-ref path { fill: none !important; stroke: #ff00ff; stroke-width: 0.5; vector-effect: non-scaling-stroke; opacity: 0.85; }</style>
    <path d="M0 0 C0.33 0.66 0.66 1.32 1 2 C6.94 2 12.88 2 19 2 C19 2.33 19 2.66 19 3 C12.73 3 6.46 3 0 3 C0 2.01 0 1.02 0 0 Z " fill="#000000" transform="translate(544,0)"/>
    <path d="M0 0 C1.98 0.33 1.98 0.33 12 2 C12 2.33 12 2.66 12 3 C3.09 3 -5.82 3 -15 3 C-15 2.67 -15 2.34 -15 2 C-10.05 2 -5.1 2 0 2 C0 1.34 0 0.68 0 0 Z " fill="#000000" transform="translate(475,0)"/>
    <path d="M0 0 C5.94 0 11.88 0 18 0 C18 0.33 18 0.66 18 1 C12.06 1 6.12 1 0 1 C0 0.67 0 0.34 0 0 Z " fill="#000000" transform="translate(524,2)"/>
    <path d="M0 0 C2.64 0 5.28 0 8 0 C8 0.33 8 0.66 8 1 C5.36 1 2.72 1 0 1 C0 0.67 0 0.34 0 0 Z " fill="#000000" transform="translate(452,3)"/>
    <path d="M0 0 C2.97 0 5.94 0 9 0 C9 0.33 9 0.66 9 1 C6.03 1 3.06 1 0 1 C0 0.67 0 0.34 0 0 Z " fill="#000000" transform="translate(563,3)"/>
    <path d="M0 0 C1.98 0 3.96 0 6 0 C6 0.33 6 0.66 6 1 C4.02 1 2.04 1 0 1 C0 0.67 0 0.34 0 0 Z " fill="#000000" transform="translate(446,4)"/>
    <path d="M0 0 C2.31 0 4.62 0 7 0 C7 0.33 7 0.66 7 1 C4.69 1 2.38 1 0 1 C0 0.67 0 0.34 0 0 Z " fill="#000000" transform="translate(572,4)"/>
    <path d="M0 0 C2.31 0 4.62 0 7 0 C7 0.33 7 0.66 7 1 C4.69 1 2.38 1 0 1 C0 0.67 0 0.34 0 0 Z " fill="#000000" transform="translate(439,5)"/>
    <path d="M0 0 C2.31 0 4.62 0 7 0 C7 0.33 7 0.66 7 1 C4.69 1 2.38 1 0 1 C0 0.67 0 0.34 0 0 Z " fill="#000000" transform="translate(579,5)"/>
    <path d="M0 0 C1.98 0 3.96 0 6 0 C6 0.33 6 0.66 6 1 C4.02 1 2.04 1 0 1 C0 0.67 0 0.34 0 0 Z " fill="#000000" transform="translate(433,6)"/>
    <path d="M0 0 C1.98 0 3.96 0 6 0 C6 0.33 6 0.66 6 1 C4.02 1 2.04 1 0 1 C0 0.67 0 0.34 0 0 Z " fill="#000000" transform="translate(586,6)"/>
    <path d="M0 0 C1.65 0 3.3 0 5 0 C5 0.33 5 0.66 5 1 C3.35 1 1.7 1 0 1 C0 0.67 0 0.34 0 0 Z " fill="#000000" transform="translate(428,7)"/>
    <path d="M0 0 C1.98 0 3.96 0 6 0 C6 0.33 6 0.66 6 1 C4.02 1 2.04 1 0 1 C0 0.67 0 0.34 0 0 Z " fill="#000000" transform="translate(592,7)"/>
    <path d="M0 0 C1.98 0 3.96 0 6 0 C6 0.33 6 0.66 6 1 C4.02 1 2.04 1 0 1 C0 0.67 0 0.34 0 0 Z " fill="#000000" transform="translate(422,8)"/>
    <path d="M0 0 C1.65 0 3.3 0 5 0 C5 0.33 5 0.66 5 1 C3.35 1 1.7 1 0 1 C0 0.67 0 0.34 0 0 Z " fill="#000000" transform="translate(598,8)"/>
    <path d="M0 0 C1.65 0 3.3 0 5 0 C5 0.33 5 0.66 5 1 C3.35 1 1.7 1 0 1 C0 0.67 0 0.34 0 0 Z " fill="#000000" transform="translate(417,9)"/>
    <path d="M0 0 C1.98 0 3.96 0 6 0 C6 0.33 6 0.66 6 1 C4.02 1 2.04 1 0 1 C0 0.67 0 0.34 0 0 Z " fill="#000000" transform="translate(603,9)"/>
    <path d="M0 0 C1.98 0 3.96 0 6 0 C6 0.33 6 0.66 6 1 C4.02 1 2.04 1 0 1 C0 0.67 0 0.34 0 0 Z " fill="#000000" transform="translate(411,10)"/>
    <path d="M0 0 C1.65 0 3.3 0 5 0 C5 0.33 5 0.66 5 1 C3.35 1 1.7 1 0 1 C0 0.67 0 0.34 0 0 Z " fill="#000000" transform="translate(609,10)"/>
    <path d="M0 0 C4 1 4 1 4 1 Z " fill="#000000" transform="translate(407,11)"/>
    <path d="M0 0 C4 1 4 1 4 1 Z " fill="#000000" transform="translate(614,11)"/>
    <path d="M0 0 C1.65 0 3.3 0 5 0 C5 0.33 5 0.66 5 1 C3.35 1 1.7 1 0 1 C0 0.67 0 0.34 0 0 Z " fill="#000000" transform="translate(402,12)"/>
    <path d="M0 0 C4 1 4 1 4 1 Z " fill="#000000" transform="translate(618,12)"/>
    <path d="M0 0 C4 1 4 1 4 1 Z " fill="#000000" transform="translate(398,13)"/>
    <path d="M0 0 C4 1 4 1 4 1 Z " fill="#000000" transform="translate(622,13)"/>
    <path d="M0 0 C4 1 4 1 4 1 Z " fill="#000000" transform="translate(394,14)"/>
    <path d="M0 0 C4 1 4 1 4 1 Z " fill="#000000" transform="translate(626,14)"/>
    <path d="M0 0 C4 1 4 1 4 1 Z " fill="#000000" transform="translate(390,15)"/>
    <path d="M0 0 C4 1 4 1 4 1 Z " fill="#000000" transform="translate(630,15)"/>
    <path d="M0 0 C4 1 4 1 4 1 Z " fill="#000000" transform="translate(386,16)"/>
    <path d="M0 0 C4 1 4 1 4 1 Z " fill="#000000" transform="translate(634,16)"/>
    <path d="M0 0 C4 1 4 1 4 1 Z " fill="#000000" transform="translate(382,17)"/>
    <path d="M0 0 C4 1 4 1 4 1 Z " fill="#000000" transform="translate(638,17)"/>
    <path d="M0 0 C4 1 4 1 4 1 Z " fill="#000000" transform="translate(378,18)"/>
    <path d="M0 0 C4 1 4 1 4 1 Z " fill="#000000" transform="translate(642,18)"/>
    <path d="M0 0 C4 1 4 1 4 1 Z " fill="#000000" transform="translate(371,20)"/>
    <path d="M0 0 C4 1 4 1 4 1 Z " fill="#000000" transform="translate(649,20)"/>
    <path d="M0 0 C4 1 4 1 4 1 Z " fill="#000000" transform="translate(653,21)"/>
    <path d="M0 0 C4 1 4 1 4 1 Z " fill="#000000" transform="translate(364,22)"/>
    <path d="M0 0 C4 1 4 1 4 1 Z " fill="#000000" transform="translate(663,24)"/>
    <path d="M0 0 C4 1 4 1 4 1 Z " fill="#000000" transform="translate(348,27)"/>
    <path d="M0 0 C0.99 0.33 1.98 0.66 3 1 C1.35 1.33 -0.3 1.66 -2 2 C-1.34 1.34 -0.68 0.68 0 0 Z " fill="#000000" transform="translate(345,28)"/>
    <path d="M0 0 C0.83 0.16 0.83 0.16 5 1 C4.01 1.33 3.02 1.66 2 2 C1.34 1.34 0.68 0.68 0 0 Z " fill="#000000" transform="translate(679,29)"/>
    <path d="M0 0 C0.99 0.33 1.98 0.66 3 1 C1.35 1.33 -0.3 1.66 -2 2 C-1.34 1.34 -0.68 0.68 0 0 Z " fill="#000000" transform="translate(334,32)"/>
    <path d="M0 0 C0.83 0.16 0.83 0.16 5 1 C4.01 1.33 3.02 1.66 2 2 C1.34 1.34 0.68 0.68 0 0 Z " fill="#000000" transform="translate(690,33)"/>
    <path d="M0 0 C0.99 0.33 1.98 0.66 3 1 C1.35 1.33 -0.3 1.66 -2 2 C-1.34 1.34 -0.68 0.68 0 0 Z " fill="#000000" transform="translate(326,35)"/>
    <path d="M0 0 C0.83 0.16 0.83 0.16 5 1 C4.01 1.33 3.02 1.66 2 2 C1.34 1.34 0.68 0.68 0 0 Z " fill="#000000" transform="translate(698,36)"/>
    <path d="M0 0 C0.99 0.33 1.98 0.66 3 1 C1.35 1.33 -0.3 1.66 -2 2 C-1.34 1.34 -0.68 0.68 0 0 Z " fill="#000000" transform="translate(321,37)"/>
    <path d="M0 0 C0.83 0.16 0.83 0.16 5 1 C4.01 1.33 3.02 1.66 2 2 C1.34 1.34 0.68 0.68 0 0 Z " fill="#000000" transform="translate(703,38)"/>
    <path d="M0 0 C0.66 0.33 1.32 0.66 2 1 C0.35 1.33 -1.3 1.66 -3 2 C-2.01 1.34 -1.02 0.68 0 0 Z " fill="#000000" transform="translate(317,39)"/>
    <path d="M0 0 C0.83 0.16 0.83 0.16 5 1 C4.01 1.33 3.02 1.66 2 2 C1.34 1.34 0.68 0.68 0 0 Z " fill="#000000" transform="translate(708,40)"/>
    <path d="M0 0 C0.99 0.33 1.98 0.66 3 1 C1.35 1.33 -0.3 1.66 -2 2 C-1.34 1.34 -0.68 0.68 0 0 Z " fill="#000000" transform="translate(311,41)"/>
    <path d="M0 0 C4.75 0.75 4.75 0.75 7 3 C2.25 2.25 2.25 2.25 0 0 Z " fill="#000000" transform="translate(713,42)"/>
    <path d="M0 0 C-6.45 4.09 -6.45 4.09 -9.23 3.62 C-9.82 3.42 -10.4 3.21 -11 3 C-9.74 2.3 -8.46 1.62 -7.19 0.94 C-6.48 0.55 -5.77 0.17 -5.04 -0.22 C-3 -1 -3 -1 0 0 Z " fill="#000000" transform="translate(309,44)"/>
    <path d="M0 0 C3.82 0.53 6.06 1.5 9 4 C5.18 3.47 2.94 2.5 0 0 Z " fill="#000000" transform="translate(720,45)"/>
    <path d="M0 0 C-2.41 1.37 -4.83 2.72 -7.25 4.06 C-7.93 4.45 -8.61 4.84 -9.32 5.24 C-9.65 5.43 -9.65 5.43 -11.33 6.35 C-11.63 6.52 -11.63 6.52 -13.17 7.38 C-15.46 8.16 -16.74 7.77 -19 7 C-16.4 5.63 -13.8 4.28 -11.19 2.94 C-10.45 2.55 -9.71 2.16 -8.95 1.76 C-8.24 1.39 -7.53 1.03 -6.79 0.65 C-6.14 0.31 -5.48 -0.03 -4.81 -0.38 C-3 -1 -3 -1 0 0 Z " fill="#000000" transform="translate(298,49)"/>
    <path d="M0 0 C6.1 0.99 11.15 3.81 16.62 6.56 C17.77 7.14 18.91 7.71 20.09 8.3 C57.69 27.4 93.43 51.69 124.29 80.48 C126.91 82.92 129.57 85.31 132.25 87.69 C136.66 91.64 140.86 95.77 145 100 C145.66 100.66 146.32 101.32 147 102 C144 102 144 102 142.41 100.73 C141.85 100.15 141.29 99.57 140.71 98.96 C140.08 98.32 139.45 97.68 138.81 97.02 C138.15 96.33 137.49 95.65 136.81 94.94 C135.45 93.55 134.09 92.16 132.73 90.77 C132.08 90.11 131.43 89.45 130.76 88.76 C128.24 86.23 125.59 83.89 122.86 81.59 C120.65 79.7 118.52 77.72 116.38 75.75 C99.96 60.98 81.59 47.88 63 36 C62.61 35.75 62.61 35.75 60.67 34.51 C41.11 22.04 20.82 11.19 0 1 C0 0.67 0 0.34 0 0 Z " fill="#000000" transform="translate(729,49)"/>
    <path d="M0 0 C0.99 0 1.98 0 3 0 C3.33 1.98 3.66 3.96 4 6 C3.34 4.68 2.68 3.36 2 2 C1.34 2 0.68 2 0 2 C0 3.65 0 5.3 0 7 C-0.33 7 -0.66 7 -1 7 C-1.04 5 -1.04 3 -1 1 C-0.67 0.67 -0.34 0.34 0 0 Z " fill="#000000" transform="translate(928,56)"/>
    <path d="M0 0 C-0.62 0.33 -1.23 0.65 -1.87 0.99 C-34.04 18.03 -64.06 37.63 -92 61 C-92.99 61.81 -93.98 62.63 -95 63.47 C-107.28 73.65 -118.76 84.69 -130.06 95.94 C-130.75 96.62 -131.44 97.31 -132.15 98.01 C-136.64 102.51 -140.86 107.18 -145 112 C-146.03 113.18 -147.07 114.36 -148.11 115.54 C-164.24 133.96 -178.63 153.35 -192.25 173.69 C-192.98 174.78 -193.71 175.87 -194.47 177 C-203.43 190.47 -211.39 204.34 -218.88 218.69 C-219.99 220.83 -221.11 222.97 -222.24 225.11 C-222.93 226.42 -223.62 227.74 -224.3 229.05 C-225.98 232.25 -227.73 235.19 -230 238 C-229.39 234.03 -228.14 230.94 -226.3 227.38 C-226.02 226.83 -226.02 226.83 -224.6 224.08 C-224.29 223.5 -224.29 223.5 -222.75 220.56 C-222.44 219.96 -222.12 219.36 -221.8 218.75 C-208.03 192.46 -192 167.61 -174 144 C-173.56 143.42 -173.12 142.85 -172.67 142.25 C-163.72 130.57 -154.18 119.4 -144.27 108.51 C-142.83 106.92 -141.39 105.32 -139.96 103.71 C-134.48 97.54 -128.79 91.63 -122.94 85.81 C-122.09 84.96 -121.24 84.11 -120.37 83.24 C-115.41 78.28 -110.33 73.56 -105 69 C-103.84 67.98 -102.69 66.96 -101.54 65.93 C-93 58.39 -84.18 51.34 -75.05 44.53 C-73.12 43.09 -71.21 41.65 -69.29 40.2 C-54.04 28.74 -37.89 18.67 -21.29 9.3 C-18.97 7.98 -16.66 6.63 -14.36 5.28 C-12.91 4.44 -11.45 3.59 -10 2.75 C-9.34 2.35 -8.67 1.96 -7.99 1.55 C-3.34 -1.11 -3.34 -1.11 0 0 Z " fill="#000000" transform="translate(279,58)"/>
    <path d="M0 0 C0.66 0.66 1.32 1.32 2 2 C1.67 2.99 1.34 3.98 1 5 C0.67 3.35 0.34 1.7 0 0 Z " fill="#000000" transform="translate(933,65)"/>
    <path d="M0 0 C0.33 0.99 0.66 1.98 1 3 C0.34 3.66 -0.32 4.32 -1 5 C-0.67 3.35 -0.34 1.7 0 0 Z " fill="#000000" transform="translate(924,69)"/>
    <path d="M0 0 C0.66 0.66 1.32 1.32 2 2 C1.67 2.99 1.34 3.98 1 5 C0.67 3.35 0.34 1.7 0 0 Z " fill="#000000" transform="translate(936,73)"/>
    <path d="M0 0 C0.33 0.99 0.66 1.98 1 3 C0.34 3.66 -0.32 4.32 -1 5 C-0.67 3.35 -0.34 1.7 0 0 Z " fill="#000000" transform="translate(922,74)"/>
    <path d="M0 0 C0.33 0.99 0.66 1.98 1 3 C-0.44 5.19 -0.44 5.19 -2 7 C-1.12 2.25 -1.12 2.25 0 0 Z " fill="#000000" transform="translate(920,79)"/>
    <path d="M0 0 C1 3 1 3 0.17 5.11 C-0.27 5.91 -0.72 6.71 -1.18 7.54 C-1.42 7.99 -1.42 7.99 -2.67 10.27 C-3.21 11.23 -3.75 12.2 -4.31 13.19 C-4.86 14.18 -5.41 15.17 -5.98 16.19 C-15.78 33.66 -26.93 50.03 -39 66 C-39.66 65.67 -40.32 65.34 -41 65 C-40.82 64.76 -40.82 64.76 -39.89 63.53 C-24.8 43.43 -11.1 22.61 0 0 Z " fill="#000000" transform="translate(917,86)"/>
    <path d="M0 0 C0.66 0.66 1.32 1.32 2 2 C1.67 2.99 1.34 3.98 1 5 C0.67 3.35 0.34 1.7 0 0 Z " fill="#000000" transform="translate(944,96)"/>
    <path d="M0 0 C1.03 2.79 1.05 3.87 0.06 6.75 C-0.29 7.49 -0.64 8.23 -1 9 C-2.26 5.23 -1.37 3.63 0 0 Z " fill="#000000" transform="translate(925,110)"/>
    <path d="M0 0 C0.66 0 1.32 0 2 0 C2 1.98 2 3.96 2 6 C1.67 6 1.34 6 1 6 C0.67 4.02 0.34 2.04 0 0 Z " fill="#000000" transform="translate(927,110)"/>
    <path d="M0 0 C1 4 1 4 1 4 Z " fill="#000000" transform="translate(929,116)"/>
    <path d="M0 0 C0.33 0.66 0.66 1.32 1 2 C0.06 4.12 0.06 4.12 -1 6 C-1.33 5.34 -1.66 4.68 -2 4 C-1.06 1.88 -1.06 1.88 0 0 Z " fill="#000000" transform="translate(922,119)"/>
    <path d="M0 0 C1 4 1 4 1 4 Z " fill="#000000" transform="translate(930,120)"/>
    <path d="M0 0 C1 4 1 4 1 4 Z " fill="#000000" transform="translate(931,124)"/>
    <path d="M0 0 C1 3 1 3 -0.21 5.48 C-0.78 6.37 -1.35 7.27 -1.94 8.19 C-2.5 9.09 -3.07 9.99 -3.65 10.92 C-4.1 11.61 -4.54 12.29 -5 13 C-5.33 12.34 -5.66 11.68 -6 11 C-4.79 8.4 -4.79 8.4 -3.06 5.38 C-2.78 4.87 -2.78 4.87 -1.35 2.34 C-0.9 1.57 -0.46 0.79 0 0 Z " fill="#000000" transform="translate(919,125)"/>
    <path d="M0 0 C1 4 1 4 1 4 Z " fill="#000000" transform="translate(932,128)"/>
    <path d="M0 0 C1 4 1 4 1 4 Z " fill="#000000" transform="translate(955,128)"/>
    <path d="M0 0 C0.16 0.33 0.16 0.33 1 2 C-0.33 4.51 -1.72 6.86 -3.25 9.25 C-3.7 9.97 -4.16 10.68 -4.63 11.42 C-9.3 18.66 -14.51 25.37 -20 32 C-20.49 32.6 -20.98 33.2 -21.49 33.82 C-22.97 35.62 -24.45 37.4 -25.94 39.19 C-26.39 39.73 -26.83 40.27 -27.3 40.83 C-29.65 43.61 -31.97 45.96 -35 48 C-33.56 44.73 -31.78 42.56 -29.31 40 C-18.17 27.83 -8.59 14.07 0 0 Z " fill="#000000" transform="translate(912,138)"/>
    <path d="M0 0 C1 4 1 4 1 4 Z " fill="#000000" transform="translate(958,138)"/>
    <path d="M0 0 C1 4 1 4 1 4 Z " fill="#000000" transform="translate(942,158)"/>
    <path d="M0 0 C1 4 1 4 1 4 Z " fill="#000000" transform="translate(965,160)"/>
    <path d="M0 0 C1 4 1 4 1 4 Z " fill="#000000" transform="translate(968,170)"/>
    <path d="M0 0 C1 4 1 4 1 4 Z " fill="#000000" transform="translate(948,177)"/>
    <path d="M0 0 C1 4 1 4 1 4 Z " fill="#000000" transform="translate(970,177)"/>
    <path d="M0 0 C1 4 1 4 1 4 Z " fill="#000000" transform="translate(972,184)"/>
    <path d="M0 0 C0 3 0 3 -2.19 5.48 C-3.12 6.37 -4.04 7.27 -5 8.19 C-5.93 9.09 -6.86 9.99 -7.81 10.92 C-8.53 11.61 -9.26 12.29 -10 13 C-10 10 -10 10 -7.81 7.52 C-6.88 6.63 -5.96 5.73 -5 4.81 C-4.07 3.91 -3.14 3.01 -2.19 2.08 C-1.83 1.74 -1.83 1.74 0 0 Z " fill="#000000" transform="translate(876,186)"/>
    <path d="M0 0 C1 4 1 4 1 4 Z " fill="#000000" transform="translate(951,187)"/>
    <path d="M0 0 C1 4 1 4 1 4 Z " fill="#000000" transform="translate(974,191)"/>
    <path d="M0 0 C1 4 1 4 1 4 Z " fill="#000000" transform="translate(954,197)"/>
    <path d="M0 0 C0.66 0.33 1.32 0.66 2 1 C-1 4.03 -4 7.04 -7 10.06 C-7.84 10.91 -8.68 11.76 -9.54 12.63 C-14.53 17.64 -19.61 22.43 -25 27 C-25.55 27.48 -26.11 27.95 -26.68 28.44 C-28.24 29.78 -29.81 31.11 -31.38 32.44 C-31.92 32.9 -32.47 33.37 -33.04 33.84 C-37.95 37.99 -42.95 42.02 -48 46 C-48.66 45.67 -49.32 45.34 -50 45 C-47.94 43.23 -45.88 41.46 -43.81 39.69 C-43.18 39.14 -42.55 38.6 -41.89 38.04 C-38.82 35.4 -35.74 32.77 -32.63 30.18 C-21.24 20.64 -10.4 10.61 0 0 Z " fill="#000000" transform="translate(863,199)"/>
    <path d="M0 0 C1 4 1 4 1 4 Z " fill="#000000" transform="translate(977,201)"/>
    <path d="M0 0 C1 4 1 4 1 4 Z " fill="#000000" transform="translate(956,204)"/>
    <path d="M0 0 C1 4 1 4 1 4 Z " fill="#000000" transform="translate(979,208)"/>
    <path d="M0 0 C1 4 1 4 1 4 Z " fill="#000000" transform="translate(958,211)"/>
    <path d="M0 0 C1 4 1 4 1 4 Z " fill="#000000" transform="translate(959,215)"/>
    <path d="M0 0 C1 4 1 4 1 4 Z " fill="#000000" transform="translate(981,215)"/>
    <path d="M0 0 C1 4 1 4 1 4 Z " fill="#000000" transform="translate(982,219)"/>
    <path d="M0 0 C1 4 1 4 1 4 Z " fill="#000000" transform="translate(961,222)"/>
    <path d="M0 0 C1 4 1 4 1 4 Z " fill="#000000" transform="translate(983,223)"/>
    <path d="M0 0 C1 4 1 4 1 4 Z " fill="#000000" transform="translate(962,226)"/>
    <path d="M0 0 C1 4 1 4 1 4 Z " fill="#000000" transform="translate(984,227)"/>
    <path d="M0 0 C1 4 1 4 1 4 Z " fill="#000000" transform="translate(964,233)"/>
    <path d="M0 0 C1 4 1 4 1 4 Z " fill="#000000" transform="translate(986,234)"/>
    <path d="M0 0 C1 4 1 4 1 4 Z " fill="#000000" transform="translate(965,237)"/>
    <path d="M0 0 C1 4 1 4 1 4 Z " fill="#000000" transform="translate(987,238)"/>
    <path d="M0 0 C1 4 1 4 1 4 Z " fill="#000000" transform="translate(966,241)"/>
    <path d="M0 0 C1 4 1 4 1 4 Z " fill="#000000" transform="translate(988,242)"/>
    <path d="M0 0 C0.33 0.16 0.33 0.16 2 1 C-5.24 7.13 -12.63 12.67 -20.56 17.88 C-21.09 18.22 -21.09 18.22 -23.74 19.97 C-36.85 28.59 -50.2 36.62 -63.88 44.31 C-64.9 44.89 -65.92 45.46 -66.97 46.06 C-72.13 48.93 -77.33 51.75 -82.57 54.48 C-83.06 54.73 -83.06 54.73 -85.51 56.02 C-88 57 -88 57 -91 56 C-90.75 55.88 -90.75 55.88 -89.5 55.27 C-58.07 39.98 -27.23 22.03 0 0 Z " fill="#000000" transform="translate(811,245)"/>
    <path d="M0 0 C1 4 1 4 1 4 Z " fill="#000000" transform="translate(967,245)"/>
    <path d="M0 0 C1 4 1 4 1 4 Z " fill="#000000" transform="translate(989,246)"/>
    <path d="M0 0 C1 4 1 4 1 4 Z " fill="#000000" transform="translate(968,249)"/>
    <path d="M0 0 C0.33 0 0.66 0 1 0 C1 1.65 1 3.3 1 5 C0.67 5 0.34 5 0 5 C0 3.35 0 1.7 0 0 Z " fill="#000000" transform="translate(990,250)"/>
    <path d="M0 0 C1 4 1 4 1 4 Z " fill="#000000" transform="translate(969,253)"/>
    <path d="M0 0 C1 4 1 4 1 4 Z " fill="#000000" transform="translate(991,255)"/>
    <path d="M0 0 C1 4 1 4 1 4 Z " fill="#000000" transform="translate(970,257)"/>
    <path d="M0 0 C1 4 1 4 1 4 Z " fill="#000000" transform="translate(992,259)"/>
    <path d="M0 0 C0.33 0 0.66 0 1 0 C1 1.65 1 3.3 1 5 C0.67 5 0.34 5 0 5 C0 3.35 0 1.7 0 0 Z " fill="#000000" transform="translate(971,261)"/>
    <path d="M0 0 C1 4 1 4 1 4 Z " fill="#000000" transform="translate(972,266)"/>
    <path d="M0 0 C0.33 0 0.66 0 1 0 C1 1.65 1 3.3 1 5 C0.67 5 0.34 5 0 5 C0 3.35 0 1.7 0 0 Z " fill="#000000" transform="translate(994,266)"/>
    <path d="M0 0 C1 4 1 4 1 4 Z " fill="#000000" transform="translate(973,270)"/>
    <path d="M0 0 C1 4 1 4 1 4 Z " fill="#000000" transform="translate(995,271)"/>
    <path d="M0 0 C1 4 1 4 1 4 Z " fill="#000000" transform="translate(974,274)"/>
    <path d="M0 0 C0.33 0 0.66 0 1 0 C1 1.65 1 3.3 1 5 C0.67 5 0.34 5 0 5 C0 3.35 0 1.7 0 0 Z " fill="#000000" transform="translate(996,275)"/>
    <path d="M0 0 C0.33 0 0.66 0 1 0 C1 1.65 1 3.3 1 5 C0.67 5 0.34 5 0 5 C0 3.35 0 1.7 0 0 Z " fill="#000000" transform="translate(975,278)"/>
    <path d="M0 0 C1 4 1 4 1 4 Z " fill="#000000" transform="translate(997,280)"/>
    <path d="M0 0 C1 4 1 4 1 4 Z " fill="#000000" transform="translate(976,283)"/>
    <path d="M0 0 C0.33 0 0.66 0 1 0 C1 1.65 1 3.3 1 5 C0.67 5 0.34 5 0 5 C0 3.35 0 1.7 0 0 Z " fill="#000000" transform="translate(998,284)"/>
    <path d="M0 0 C0.33 0 0.66 0 1 0 C1 1.65 1 3.3 1 5 C0.67 5 0.34 5 0 5 C0 3.35 0 1.7 0 0 Z " fill="#000000" transform="translate(977,287)"/>
    <path d="M0 0 C0.33 0 0.66 0 1 0 C1 1.65 1 3.3 1 5 C0.67 5 0.34 5 0 5 C0 3.35 0 1.7 0 0 Z " fill="#000000" transform="translate(999,289)"/>
    <path d="M0 0 C1 4 1 4 1 4 Z " fill="#000000" transform="translate(978,292)"/>
    <path d="M0 0 C0.33 0 0.66 0 1 0 C1 1.65 1 3.3 1 5 C0.67 5 0.34 5 0 5 C0 3.35 0 1.7 0 0 Z " fill="#000000" transform="translate(1000,294)"/>
    <path d="M0 0 C1 3 1 3 0.22 5.04 C-0.16 5.75 -0.54 6.46 -0.94 7.19 C-1.32 7.9 -1.7 8.62 -2.09 9.36 C-2.24 9.63 -2.24 9.63 -3 11 C-4 8 -4 8 -3.22 5.96 C-2.84 5.25 -2.46 4.54 -2.06 3.81 C-1.68 3.1 -1.3 2.38 -0.91 1.64 C-0.61 1.1 -0.31 0.56 0 0 Z " fill="#000000" transform="translate(48,296)"/>
    <path d="M0 0 C0.33 0 0.66 0 1 0 C1 1.65 1 3.3 1 5 C0.67 5 0.34 5 0 5 C0 3.35 0 1.7 0 0 Z " fill="#000000" transform="translate(979,296)"/>
    <path d="M0 0 C1 4 1 4 1 4 Z " fill="#000000" transform="translate(1001,299)"/>
    <path d="M0 0 C0.33 0 0.66 0 1 0 C1 1.65 1 3.3 1 5 C0.67 5 0.34 5 0 5 C0 3.35 0 1.7 0 0 Z " fill="#000000" transform="translate(980,301)"/>
    <path d="M0 0 C-2.1 1.03 -4.2 2.05 -6.31 3.06 C-7.48 3.63 -8.66 4.2 -9.86 4.79 C-13 6 -13 6 -16 5 C-13.9 3.97 -11.8 2.95 -9.69 1.94 C-8.52 1.37 -7.34 0.8 -6.14 0.21 C-3 -1 -3 -1 0 0 Z " fill="#000000" transform="translate(720,303)"/>
    <path d="M0 0 C0.33 0 0.66 0 1 0 C1 1.98 1 3.96 1 6 C0.67 6 0.34 6 0 6 C0 4.02 0 2.04 0 0 Z " fill="#000000" transform="translate(1002,303)"/>
    <path d="M0 0 C0.33 0 0.66 0 1 0 C1 1.65 1 3.3 1 5 C0.67 5 0.34 5 0 5 C0 3.35 0 1.7 0 0 Z " fill="#000000" transform="translate(981,306)"/>
    <path d="M0 0 C0.33 0.99 0.66 1.98 1 3 C-0.44 5.19 -0.44 5.19 -2 7 C-1.12 2.25 -1.12 2.25 0 0 Z " fill="#000000" transform="translate(43,307)"/>
    <path d="M0 0 C0.33 0 0.66 0 1 0 C1 1.65 1 3.3 1 5 C0.67 5 0.34 5 0 5 C0 3.35 0 1.7 0 0 Z " fill="#000000" transform="translate(1003,309)"/>
    <path d="M0 0 C0.33 0 0.66 0 1 0 C1 1.65 1 3.3 1 5 C0.67 5 0.34 5 0 5 C0 3.35 0 1.7 0 0 Z " fill="#000000" transform="translate(982,311)"/>
    <path d="M0 0 C0.33 0.99 0.66 1.98 1 3 C0.34 3.66 -0.32 4.32 -1 5 C-0.67 3.35 -0.34 1.7 0 0 Z " fill="#000000" transform="translate(40,314)"/>
    <path d="M0 0 C1 4 1 4 1 4 Z " fill="#000000" transform="translate(1004,314)"/>
    <path d="M0 0 C0.33 0 0.66 0 1 0 C1 1.65 1 3.3 1 5 C0.67 5 0.34 5 0 5 C0 3.35 0 1.7 0 0 Z " fill="#000000" transform="translate(983,316)"/>
    <path d="M0 0 C0.33 0 0.66 0 1 0 C1 2.31 1 4.62 1 7 C0.67 7 0.34 7 0 7 C0 4.69 0 2.38 0 0 Z " fill="#000000" transform="translate(1005,318)"/>
    <path d="M0 0 C0.33 0.99 0.66 1.98 1 3 C0.34 3.66 -0.32 4.32 -1 5 C-0.67 3.35 -0.34 1.7 0 0 Z " fill="#000000" transform="translate(38,319)"/>
    <path d="M0 0 C0.33 0 0.66 0 1 0 C1 1.65 1 3.3 1 5 C0.67 5 0.34 5 0 5 C0 3.35 0 1.7 0 0 Z " fill="#000000" transform="translate(984,321)"/>
    <path d="M0 0 C0.33 0.99 0.66 1.98 1 3 C0.34 3.66 -0.32 4.32 -1 5 C-0.67 3.35 -0.34 1.7 0 0 Z " fill="#000000" transform="translate(36,324)"/>
    <path d="M0 0 C0.33 0 0.66 0 1 0 C1 1.65 1 3.3 1 5 C0.67 5 0.34 5 0 5 C0 3.35 0 1.7 0 0 Z " fill="#000000" transform="translate(1006,325)"/>
    <path d="M0 0 C4 1 4 1 4 1 Z " fill="#000000" transform="translate(653,326)"/>
    <path d="M0 0 C0.33 0 0.66 0 1 0 C1 1.98 1 3.96 1 6 C0.67 6 0.34 6 0 6 C0 4.02 0 2.04 0 0 Z " fill="#000000" transform="translate(985,326)"/>
    <path d="M0 0 C4 1 4 1 4 1 Z " fill="#000000" transform="translate(649,327)"/>
    <path d="M0 0 C0.33 0.99 0.66 1.98 1 3 C0.34 3.66 -0.32 4.32 -1 5 C-0.67 3.35 -0.34 1.7 0 0 Z " fill="#000000" transform="translate(34,329)"/>
    <path d="M0 0 C4 1 4 1 4 1 Z " fill="#000000" transform="translate(642,329)"/>
    <path d="M0 0 C4 1 4 1 4 1 Z " fill="#000000" transform="translate(638,330)"/>
    <path d="M0 0 C0.33 0 0.66 0 1 0 C1 1.98 1 3.96 1 6 C0.67 6 0.34 6 0 6 C0 4.02 0 2.04 0 0 Z " fill="#000000" transform="translate(1007,330)"/>
    <path d="M0 0 C4 1 4 1 4 1 Z " fill="#000000" transform="translate(634,331)"/>
    <path d="M0 0 C4 1 4 1 4 1 Z " fill="#000000" transform="translate(630,332)"/>
    <path d="M0 0 C0.33 0 0.66 0 1 0 C1 1.65 1 3.3 1 5 C0.67 5 0.34 5 0 5 C0 3.35 0 1.7 0 0 Z " fill="#000000" transform="translate(986,332)"/>
    <path d="M0 0 C4 1 4 1 4 1 Z " fill="#000000" transform="translate(626,333)"/>
    <path d="M0 0 C4 1 4 1 4 1 Z " fill="#000000" transform="translate(622,334)"/>
    <path d="M0 0 C1.65 0 3.3 0 5 0 C5 0.33 5 0.66 5 1 C3.35 1 1.7 1 0 1 C0 0.67 0 0.34 0 0 Z " fill="#000000" transform="translate(617,335)"/>
    <path d="M0 0 C1.65 0 3.3 0 5 0 C5 0.33 5 0.66 5 1 C3.35 1 1.7 1 0 1 C0 0.67 0 0.34 0 0 Z " fill="#000000" transform="translate(612,336)"/>
    <path d="M0 0 C0.33 0 0.66 0 1 0 C1 1.65 1 3.3 1 5 C0.67 5 0.34 5 0 5 C0 3.35 0 1.7 0 0 Z " fill="#000000" transform="translate(1008,336)"/>
    <path d="M0 0 C1.65 0 3.3 0 5 0 C5 0.33 5 0.66 5 1 C3.35 1 1.7 1 0 1 C0 0.67 0 0.34 0 0 Z " fill="#000000" transform="translate(607,337)"/>
    <path d="M0 0 C0.33 0 0.66 0 1 0 C1 1.98 1 3.96 1 6 C0.67 6 0.34 6 0 6 C0 4.02 0 2.04 0 0 Z " fill="#000000" transform="translate(987,337)"/>
    <path d="M0 0 C1.65 0 3.3 0 5 0 C5 0.33 5 0.66 5 1 C3.35 1 1.7 1 0 1 C0 0.67 0 0.34 0 0 Z " fill="#000000" transform="translate(602,338)"/>
    <path d="M0 0 C1.98 0 3.96 0 6 0 C6 0.33 6 0.66 6 1 C4.02 1 2.04 1 0 1 C0 0.67 0 0.34 0 0 Z " fill="#000000" transform="translate(596,339)"/>
    <path d="M0 0 C1.98 0 3.96 0 6 0 C6 0.33 6 0.66 6 1 C4.02 1 2.04 1 0 1 C0 0.67 0 0.34 0 0 Z " fill="#000000" transform="translate(590,340)"/>
    <path d="M0 0 C1.98 0 3.96 0 6 0 C6 0.33 6 0.66 6 1 C4.02 1 2.04 1 0 1 C0 0.67 0 0.34 0 0 Z " fill="#000000" transform="translate(584,341)"/>
    <path d="M0 0 C0.33 0 0.66 0 1 0 C1 1.98 1 3.96 1 6 C0.67 6 0.34 6 0 6 C0 4.02 0 2.04 0 0 Z " fill="#000000" transform="translate(1009,341)"/>
    <path d="M0 0 C2.31 0 4.62 0 7 0 C7 0.33 7 0.66 7 1 C4.69 1 2.38 1 0 1 C0 0.67 0 0.34 0 0 Z " fill="#000000" transform="translate(577,342)"/>
    <path d="M0 0 C2.97 0 5.94 0 9 0 C9 0.33 9 0.66 9 1 C6.03 1 3.06 1 0 1 C0 0.67 0 0.34 0 0 Z " fill="#000000" transform="translate(568,343)"/>
    <path d="M0 0 C0.33 0 0.66 0 1 0 C1 1.65 1 3.3 1 5 C0.67 5 0.34 5 0 5 C0 3.35 0 1.7 0 0 Z " fill="#000000" transform="translate(988,343)"/>
    <path d="M0 0 C2.64 0 5.28 0 8 0 C8 0.33 8 0.66 8 1 C5.36 1 2.72 1 0 1 C0 0.67 0 0.34 0 0 Z " fill="#000000" transform="translate(560,344)"/>
    <path d="M0 0 C3.63 0 7.26 0 11 0 C11 0.33 11 0.66 11 1 C7.37 1 3.74 1 0 1 C0 0.67 0 0.34 0 0 Z " fill="#000000" transform="translate(549,345)"/>
    <path d="M0 0 C4.29 0 8.58 0 13 0 C13 0.33 13 0.66 13 1 C8.71 1 4.42 1 0 1 C0 0.67 0 0.34 0 0 Z " fill="#000000" transform="translate(536,346)"/>
    <path d="M0 0 C5.28 0 10.56 0 16 0 C16 0.33 16 0.66 16 1 C10.72 1 5.44 1 0 1 C0 0.67 0 0.34 0 0 Z " fill="#000000" transform="translate(520,347)"/>
    <path d="M0 0 C0.33 0 0.66 0 1 0 C1 1.98 1 3.96 1 6 C0.67 6 0.34 6 0 6 C0 4.02 0 2.04 0 0 Z " fill="#000000" transform="translate(1010,347)"/>
    <path d="M0 0 C6.6 0 13.2 0 20 0 C20 0.33 20 0.66 20 1 C13.4 1 6.8 1 0 1 C0 0.67 0 0.34 0 0 Z " fill="#000000" transform="translate(500,348)"/>
    <path d="M0 0 C0.33 0 0.66 0 1 0 C1 1.98 1 3.96 1 6 C0.67 6 0.34 6 0 6 C0 4.02 0 2.04 0 0 Z " fill="#000000" transform="translate(989,348)"/>
    <path d="M0 0 C6.93 0 13.86 0 21 0 C21 0.33 21 0.66 21 1 C14.07 1 7.14 1 0 1 C0 0.67 0 0.34 0 0 Z " fill="#000000" transform="translate(479,349)"/>
    <path d="M0 0 C5.61 0 11.22 0 17 0 C17 0.33 17 0.66 17 1 C11.39 1 5.78 1 0 1 C0 0.67 0 0.34 0 0 Z " fill="#000000" transform="translate(462,350)"/>
    <path d="M0 0 C4.29 0 8.58 0 13 0 C13 0.33 13 0.66 13 1 C8.71 1 4.42 1 0 1 C0 0.67 0 0.34 0 0 Z " fill="#000000" transform="translate(449,351)"/>
    <path d="M0 0 C4.29 0 8.58 0 13 0 C13 0.33 13 0.66 13 1 C8.71 1 4.42 1 0 1 C0 0.67 0 0.34 0 0 Z " fill="#000000" transform="translate(436,352)"/>
    <path d="M0 0 C3.3 0 6.6 0 10 0 C10 0.33 10 0.66 10 1 C6.7 1 3.4 1 0 1 C0 0.67 0 0.34 0 0 Z " fill="#000000" transform="translate(426,353)"/>
    <path d="M0 0 C0.33 0 0.66 0 1 0 C1 1.98 1 3.96 1 6 C0.67 6 0.34 6 0 6 C0 4.02 0 2.04 0 0 Z " fill="#000000" transform="translate(1011,353)"/>
    <path d="M0 0 C2.64 0 5.28 0 8 0 C8 0.33 8 0.66 8 1 C5.36 1 2.72 1 0 1 C0 0.67 0 0.34 0 0 Z " fill="#000000" transform="translate(418,354)"/>
    <path d="M0 0 C0.33 0 0.66 0 1 0 C1 1.98 1 3.96 1 6 C0.67 6 0.34 6 0 6 C0 4.02 0 2.04 0 0 Z " fill="#000000" transform="translate(990,354)"/>
    <path d="M0 0 C2.31 0 4.62 0 7 0 C7 0.33 7 0.66 7 1 C4.69 1 2.38 1 0 1 C0 0.67 0 0.34 0 0 Z " fill="#000000" transform="translate(411,355)"/>
    <path d="M0 0 C2.31 0 4.62 0 7 0 C7 0.33 7 0.66 7 1 C4.69 1 2.38 1 0 1 C0 0.67 0 0.34 0 0 Z " fill="#000000" transform="translate(404,356)"/>
    <path d="M0 0 C2.31 0 4.62 0 7 0 C7 0.33 7 0.66 7 1 C4.69 1 2.38 1 0 1 C0 0.67 0 0.34 0 0 Z " fill="#000000" transform="translate(397,357)"/>
    <path d="M0 0 C1.65 0 3.3 0 5 0 C5 0.33 5 0.66 5 1 C3.35 1 1.7 1 0 1 C0 0.67 0 0.34 0 0 Z " fill="#000000" transform="translate(392,358)"/>
    <path d="M0 0 C1.65 0 3.3 0 5 0 C5 0.33 5 0.66 5 1 C3.35 1 1.7 1 0 1 C0 0.67 0 0.34 0 0 Z " fill="#000000" transform="translate(387,359)"/>
    <path d="M0 0 C0.33 0 0.66 0 1 0 C1 1.98 1 3.96 1 6 C0.67 6 0.34 6 0 6 C0 4.02 0 2.04 0 0 Z " fill="#000000" transform="translate(1012,359)"/>
    <path d="M0 0 C1.65 0 3.3 0 5 0 C5 0.33 5 0.66 5 1 C3.35 1 1.7 1 0 1 C0 0.67 0 0.34 0 0 Z " fill="#000000" transform="translate(382,360)"/>
    <path d="M0 0 C0.33 0 0.66 0 1 0 C1 1.98 1 3.96 1 6 C0.67 6 0.34 6 0 6 C0 4.02 0 2.04 0 0 Z " fill="#000000" transform="translate(991,360)"/>
    <path d="M0 0 C1.65 0 3.3 0 5 0 C5 0.33 5 0.66 5 1 C3.35 1 1.7 1 0 1 C0 0.67 0 0.34 0 0 Z " fill="#000000" transform="translate(377,361)"/>
    <path d="M0 0 C4 1 4 1 4 1 Z " fill="#000000" transform="translate(373,362)"/>
    <path d="M0 0 C1.65 0 3.3 0 5 0 C5 0.33 5 0.66 5 1 C3.35 1 1.7 1 0 1 C0 0.67 0 0.34 0 0 Z " fill="#000000" transform="translate(368,363)"/>
    <path d="M0 0 C4 1 4 1 4 1 Z " fill="#000000" transform="translate(364,364)"/>
    <path d="M0 0 C4 1 4 1 4 1 Z " fill="#000000" transform="translate(360,365)"/>
    <path d="M0 0 C0.33 0 0.66 0 1 0 C1 2.31 1 4.62 1 7 C0.67 7 0.34 7 0 7 C0 4.69 0 2.38 0 0 Z " fill="#000000" transform="translate(1013,365)"/>
    <path d="M0 0 C0.33 0 0.66 0 1 0 C1 2.64 1 5.28 1 8 C0.67 8 0.34 8 0 8 C0 5.36 0 2.72 0 0 Z " fill="#000000" transform="translate(992,366)"/>
    <path d="M0 0 C1 4 1 4 1 4 Z " fill="#000000" transform="translate(21,367)"/>
    <path d="M0 0 C4 1 4 1 4 1 Z " fill="#000000" transform="translate(353,367)"/>
    <path d="M0 0 C0.33 0 0.66 0 1 0 C1 2.64 1 5.28 1 8 C0.67 8 0.34 8 0 8 C0 5.36 0 2.72 0 0 Z " fill="#000000" transform="translate(1014,372)"/>
    <path d="M0 0 C1 4 1 4 1 4 Z " fill="#000000" transform="translate(19,374)"/>
    <path d="M0 0 C0.33 0 0.66 0 1 0 C1 2.31 1 4.62 1 7 C0.67 7 0.34 7 0 7 C0 4.69 0 2.38 0 0 Z " fill="#000000" transform="translate(993,374)"/>
    <path d="M0 0 C1.32 3.66 0.65 6.08 -0.44 9.75 C-0.58 10.24 -0.58 10.24 -1.31 12.73 C-1.54 13.48 -1.76 14.23 -2 15 C-3.32 11.34 -2.65 8.92 -1.56 5.25 C-1.28 4.27 -0.99 3.28 -0.69 2.27 C-0.46 1.52 -0.24 0.77 0 0 Z " fill="#000000" transform="translate(878,377)"/>
    <path d="M0 0 C1 4 1 4 1 4 Z " fill="#000000" transform="translate(18,378)"/>
    <path d="M0 0 C0.33 0 0.66 0 1 0 C1 2.31 1 4.62 1 7 C0.67 7 0.34 7 0 7 C0 4.69 0 2.38 0 0 Z " fill="#000000" transform="translate(880,380)"/>
    <path d="M0 0 C0.33 0 0.66 0 1 0 C1 2.64 1 5.28 1 8 C0.67 8 0.34 8 0 8 C0 5.36 0 2.72 0 0 Z " fill="#000000" transform="translate(1015,380)"/>
    <path d="M0 0 C0.33 0.17 0.33 0.17 2 1 C1.08 1.45 0.15 1.9 -0.8 2.36 C-17.94 10.79 -34.58 19.68 -50 31 C-50.59 31.43 -51.18 31.86 -51.78 32.31 C-59.23 37.81 -66.24 43.68 -73 50 C-73.66 49.67 -74.32 49.34 -75 49 C-69.58 43.29 -63.89 38.36 -57.56 33.69 C-56.68 33.04 -55.81 32.39 -54.9 31.72 C-38.26 19.5 -19.69 6.64 0 0 Z " fill="#000000" transform="translate(314,381)"/>
    <path d="M0 0 C0.33 0 0.66 0 1 0 C1 2.31 1 4.62 1 7 C0.67 7 0.34 7 0 7 C0 4.69 0 2.38 0 0 Z " fill="#000000" transform="translate(994,381)"/>
    <path d="M0 0 C1 4 1 4 1 4 Z " fill="#000000" transform="translate(17,382)"/>
    <path d="M0 0 C1 4 1 4 1 4 Z " fill="#000000" transform="translate(16,386)"/>
    <path d="M0 0 C1 4 1 4 1 4 Z " fill="#000000" transform="translate(879,387)"/>
    <path d="M0 0 C0.33 0 0.66 0 1 0 C1 2.97 1 5.94 1 9 C0.67 9 0.34 9 0 9 C0 6.03 0 3.06 0 0 Z " fill="#000000" transform="translate(995,388)"/>
    <path d="M0 0 C0.33 0 0.66 0 1 0 C1 2.64 1 5.28 1 8 C0.67 8 0.34 8 0 8 C0 5.36 0 2.72 0 0 Z " fill="#000000" transform="translate(1016,388)"/>
    <path d="M0 0 C1 4 1 4 1 4 Z " fill="#000000" transform="translate(878,391)"/>
    <path d="M0 0 C1 4 1 4 1 4 Z " fill="#000000" transform="translate(14,393)"/>
    <path d="M0 0 C0.33 0 0.66 0 1 0 C1 1.65 1 3.3 1 5 C0.67 5 0.34 5 0 5 C0 3.35 0 1.7 0 0 Z " fill="#000000" transform="translate(877,395)"/>
    <path d="M0 0 C0.33 0 0.66 0 1 0 C1 2.31 1 4.62 1 7 C0.67 7 0.34 7 0 7 C0 4.69 0 2.38 0 0 Z " fill="#000000" transform="translate(1017,396)"/>
    <path d="M0 0 C0.33 0 0.66 0 1 0 C1 1.65 1 3.3 1 5 C0.67 5 0.34 5 0 5 C0 3.35 0 1.7 0 0 Z " fill="#000000" transform="translate(13,397)"/>
    <path d="M0 0 C0.33 0 0.66 0 1 0 C1 2.97 1 5.94 1 9 C0.67 9 0.34 9 0 9 C0 6.03 0 3.06 0 0 Z " fill="#000000" transform="translate(996,397)"/>
    <path d="M0 0 C1 4 1 4 1 4 Z " fill="#000000" transform="translate(876,400)"/>
    <path d="M0 0 C0.33 0.99 0.66 1.98 1 3 C-0.44 5.19 -0.44 5.19 -2 7 C-1.12 2.25 -1.12 2.25 0 0 Z " fill="#000000" transform="translate(871,401)"/>
    <path d="M0 0 C1 4 1 4 1 4 Z " fill="#000000" transform="translate(12,402)"/>
    <path d="M0 0 C0.33 0 0.66 0 1 0 C1 3.3 1 6.6 1 10 C0.67 10 0.34 10 0 10 C0 6.7 0 3.4 0 0 Z " fill="#000000" transform="translate(1018,403)"/>
    <path d="M0 0 C0.33 0 0.66 0 1 0 C1 1.65 1 3.3 1 5 C0.67 5 0.34 5 0 5 C0 3.35 0 1.7 0 0 Z " fill="#000000" transform="translate(875,404)"/>
    <path d="M0 0 C0.33 0 0.66 0 1 0 C1 1.65 1 3.3 1 5 C0.67 5 0.34 5 0 5 C0 3.35 0 1.7 0 0 Z " fill="#000000" transform="translate(11,406)"/>
    <path d="M0 0 C0.33 0 0.66 0 1 0 C1 3.3 1 6.6 1 10 C0.67 10 0.34 10 0 10 C0 6.7 0 3.4 0 0 Z " fill="#000000" transform="translate(997,406)"/>
    <path d="M0 0 C0.33 0.99 0.66 1.98 1 3 C-0.44 5.19 -0.44 5.19 -2 7 C-1.12 2.25 -1.12 2.25 0 0 Z " fill="#000000" transform="translate(868,408)"/>
    <path d="M0 0 C1 4 1 4 1 4 Z " fill="#000000" transform="translate(874,409)"/>
    <path d="M0 0 C0.33 0 0.66 0 1 0 C1 1.65 1 3.3 1 5 C0.67 5 0.34 5 0 5 C0 3.35 0 1.7 0 0 Z " fill="#000000" transform="translate(10,411)"/>
    <path d="M0 0 C1 4 1 4 1 4 Z " fill="#000000" transform="translate(873,413)"/>
    <path d="M0 0 C0.33 0 0.66 0 1 0 C1 2.97 1 5.94 1 9 C0.67 9 0.34 9 0 9 C0 6.03 0 3.06 0 0 Z " fill="#000000" transform="translate(1019,413)"/>
    <path d="M0 0 C1 3 1 3 0.22 5.04 C-0.16 5.75 -0.54 6.46 -0.94 7.19 C-1.32 7.9 -1.7 8.62 -2.09 9.36 C-2.24 9.63 -2.24 9.63 -3 11 C-4 8 -4 8 -3.22 5.96 C-2.84 5.25 -2.46 4.54 -2.06 3.81 C-1.68 3.1 -1.3 2.38 -0.91 1.64 C-0.61 1.1 -0.31 0.56 0 0 Z " fill="#000000" transform="translate(865,415)"/>
    <path d="M0 0 C0.33 0 0.66 0 1 0 C1 1.98 1 3.96 1 6 C0.67 6 0.34 6 0 6 C0 4.02 0 2.04 0 0 Z " fill="#000000" transform="translate(9,416)"/>
    <path d="M0 0 C0.33 0 0.66 0 1 0 C1 3.63 1 7.26 1 11 C0.67 11 0.34 11 0 11 C0 7.37 0 3.74 0 0 Z " fill="#000000" transform="translate(998,416)"/>
    <path d="M0 0 C1 4 1 4 1 4 Z " fill="#000000" transform="translate(871,420)"/>
    <path d="M0 0 C0.33 0 0.66 0 1 0 C1 1.98 1 3.96 1 6 C0.67 6 0.34 6 0 6 C0 4.02 0 2.04 0 0 Z " fill="#000000" transform="translate(8,422)"/>
    <path d="M0 0 C0.33 0 0.66 0 1 0 C1 1.65 1 3.3 1 5 C0.67 5 0.34 5 0 5 C0 3.35 0 1.7 0 0 Z " fill="#000000" transform="translate(1020,422)"/>
    <path d="M0 0 C1 4 1 4 1 4 Z " fill="#000000" transform="translate(870,424)"/>
    <path d="M0 0 C1 3 1 3 -0.07 5.61 C-0.63 6.65 -1.19 7.68 -1.76 8.75 C-2.38 9.91 -3 11.06 -3.64 12.25 C-4.32 13.5 -5 14.75 -5.69 16 C-6.03 16.63 -6.37 17.26 -6.72 17.91 C-12.69 28.91 -19.09 39.56 -26 50 C-27.07 51.63 -28.13 53.25 -29.2 54.88 C-33.94 62.08 -38.76 69.15 -44 76 C-44 72.31 -43.03 71.21 -40.96 68.2 C-40.3 67.23 -39.65 66.27 -38.97 65.27 C-38.26 64.23 -37.55 63.2 -36.81 62.12 C-35.33 59.93 -33.85 57.73 -32.37 55.52 C-31.99 54.97 -31.62 54.41 -31.24 53.84 C-19.61 36.52 -9.66 18.46 0 0 Z " fill="#000000" transform="translate(860,426)"/>
    <path d="M0 0 C0.33 0 0.66 0 1 0 C1 2.97 1 5.94 1 9 C0.67 9 0.34 9 0 9 C0 6.03 0 3.06 0 0 Z " fill="#000000" transform="translate(999,427)"/>
    <path d="M0 0 C0.33 0 0.66 0 1 0 C1 1.65 1 3.3 1 5 C0.67 5 0.34 5 0 5 C0 3.35 0 1.7 0 0 Z " fill="#000000" transform="translate(7,428)"/>
    <path d="M0 0 C0.33 0 0.66 0 1 0 C1 1.65 1 3.3 1 5 C0.67 5 0.34 5 0 5 C0 3.35 0 1.7 0 0 Z " fill="#000000" transform="translate(1020,428)"/>
    <path d="M0 0 C0.66 0.33 1.32 0.66 2 1 C1.21 1.77 0.43 2.55 -0.38 3.34 C-6.15 9.05 -11.76 14.79 -17 21 C-17.81 21.92 -18.61 22.84 -19.45 23.78 C-26.97 32.4 -33.53 41.57 -40 51 C-40.33 50.34 -40.66 49.68 -41 49 C-29.24 31.12 -15.16 15.07 0 0 Z " fill="#000000" transform="translate(237,431)"/>
    <path d="M0 0 C0.33 0 0.66 0 1 0 C1 1.98 1 3.96 1 6 C0.67 6 0.34 6 0 6 C0 4.02 0 2.04 0 0 Z " fill="#000000" transform="translate(6,433)"/>
    <path d="M0 0 C0.33 0 0.66 0 1 0 C1 8.91 1 17.82 1 27 C0.67 27 0.34 27 0 27 C0 18.09 0 9.18 0 0 Z " fill="#000000" transform="translate(1021,433)"/>
    <path d="M0 0 C0.33 0 0.66 0 1 0 C1 5.61 1 11.22 1 17 C0.67 17 0.34 17 0 17 C0 11.39 0 5.78 0 0 Z " fill="#000000" transform="translate(1000,436)"/>
    <path d="M0 0 C0.33 0 0.66 0 1 0 C1 2.31 1 4.62 1 7 C0.67 7 0.34 7 0 7 C0 4.69 0 2.38 0 0 Z " fill="#000000" transform="translate(5,439)"/>
    <path d="M0 0 C0.33 0 0.66 0 1 0 C1 2.97 1 5.94 1 9 C0.67 9 0.34 9 0 9 C0 6.03 0 3.06 0 0 Z " fill="#000000" transform="translate(4,446)"/>
    <path d="M0 0 C0.33 0 0.66 0 1 0 C1 7.59 1 15.18 1 23 C0.67 23 0.34 23 0 23 C0 15.41 0 7.82 0 0 Z " fill="#000000" transform="translate(1001,453)"/>
    <path d="M0 0 C0.33 0 0.66 0 1 0 C1 1.65 1 3.3 1 5 C0.67 5 0.34 5 0 5 C0 3.35 0 1.7 0 0 Z " fill="#000000" transform="translate(3,455)"/>
    <path d="M0 0 C0.33 0 0.66 0 1 0 C1 6.93 1 13.86 1 21 C0.01 21 -0.98 21 -2 21 C-1.34 20.67 -0.68 20.34 0 20 C0 13.4 0 6.8 0 0 Z " fill="#000000" transform="translate(2,460)"/>
    <path d="M0 0 C0.33 0 0.66 0 1 0 C1 9.24 1 18.48 1 28 C0.67 28 0.34 28 0 28 C0 18.76 0 9.52 0 0 Z " fill="#000000" transform="translate(1021,463)"/>
    <path d="M0 0 C1.34 4.03 -0.16 6.08 -1.95 9.67 C-2.27 10.33 -2.59 10.99 -2.92 11.68 C-3.98 13.85 -5.05 16.02 -6.12 18.19 C-6.87 19.69 -7.61 21.2 -8.35 22.71 C-18.79 43.87 -30.21 64.17 -43 84 C-43.46 84.72 -43.93 85.45 -44.41 86.19 C-50.58 95.79 -50.58 95.79 -53 97 C-51.36 92.17 -48.67 88.22 -45.88 84 C-44.87 82.46 -43.86 80.92 -42.86 79.38 C-42.36 78.62 -41.87 77.87 -41.36 77.09 C-25.45 52.68 -11.89 26.59 0 0 Z " fill="#000000" transform="translate(854,469)"/>
    <path d="M0 0 C0.33 0 0.66 0 1 0 C1 10.56 1 21.12 1 32 C0.67 32 0.34 32 0 32 C0 21.44 0 10.88 0 0 Z " fill="#000000" transform="translate(1002,476)"/>
    <path d="M0 0 C0.33 0 0.66 0 1 0 C1 5.28 1 10.56 1 16 C0.67 16 0.34 16 0 16 C0 10.72 0 5.44 0 0 Z " fill="#000000" transform="translate(2,482)"/>
    <path d="M0 0 C0.33 0.66 0.66 1.32 1 2 C-0.41 4.61 -1.88 7.11 -3.44 9.62 C-8.07 17.27 -12.19 25.07 -16.08 33.11 C-17.69 36.42 -19.35 39.71 -21 43 C-21.33 42.34 -21.66 41.68 -22 41 C-21.01 38.28 -19.94 35.7 -18.75 33.06 C-18.4 32.27 -18.04 31.48 -17.68 30.67 C-12.79 20.05 -7.14 9.29 0 0 Z " fill="#000000" transform="translate(195,482)"/>
    <path d="M0 0 C0 4.07 -1.6 5.48 -4.06 8.69 C-4.47 9.22 -4.87 9.75 -5.29 10.29 C-8.68 14.69 -12.25 18.9 -16 23 C-16 18.94 -13.92 17.21 -11.38 14.31 C-10.46 13.24 -9.54 12.17 -8.62 11.1 C-8.4 10.84 -8.4 10.84 -7.27 9.51 C-4.7 6.45 -2.34 3.23 0 0 Z " fill="#000000" transform="translate(814,502)"/>
    <path d="M0 0 C0.33 0 0.66 0 1 0 C1 7.59 1 15.18 1 23 C0.67 23 0.34 23 0 23 C0 15.41 0 7.82 0 0 Z " fill="#000000" transform="translate(1001,511)"/>
    <path d="M0 0 C0.33 0 0.66 0 1 0 C1 7.92 1 15.84 1 24 C0.67 24 0.34 24 0 24 C0 16.08 0 8.16 0 0 Z " fill="#000000" transform="translate(1021,511)"/>
    <path d="M0 0 C0.33 0 0.66 0 1 0 C1 5.61 1 11.22 1 17 C0.67 17 0.34 17 0 17 C0 11.39 0 5.78 0 0 Z " fill="#000000" transform="translate(2,520)"/>
    <path d="M0 0 C0 3.5 -0.48 3.93 -2.7 6.47 C-3.27 7.12 -3.84 7.78 -4.43 8.45 C-5.03 9.13 -5.63 9.8 -6.25 10.5 C-6.54 10.84 -6.54 10.84 -8.03 12.55 C-10.84 15.76 -13.51 18.51 -17 21 C-15.47 17.46 -13.36 15 -10.75 12.19 C-7.08 8.19 -3.51 4.14 0 0 Z " fill="#000000" transform="translate(796,525)"/>
    <path d="M0 0 C0.33 0 0.66 0 1 0 C1 4.62 1 9.24 1 14 C0.67 14 0.34 14 0 14 C0 9.38 0 4.76 0 0 Z " fill="#000000" transform="translate(1000,534)"/>
    <path d="M0 0 C0.33 0 0.66 0 1 0 C1 5.61 1 11.22 1 17 C0.67 17 0.34 17 0 17 C0 11.39 0 5.78 0 0 Z " fill="#000000" transform="translate(1021,538)"/>
    <path d="M0 0 C0.33 0 0.66 0 1 0 C1 7.59 1 15.18 1 23 C0.67 23 0.34 23 0 23 C0 15.41 0 7.82 0 0 Z " fill="#000000" transform="translate(2,540)"/>
    <path d="M0 0 C1 4 1 4 1 4 Z " fill="#000000" transform="translate(165,543)"/>
    <path d="M0 0 C0 3 0 3 -1.74 5.08 C-2.54 5.87 -3.34 6.65 -4.16 7.45 C-5.01 8.3 -5.87 9.14 -6.75 10.02 C-7.21 10.46 -7.21 10.46 -9.5 12.69 C-10.41 13.58 -11.31 14.47 -12.25 15.39 C-14.49 17.6 -16.74 19.8 -19 22 C-19 19 -19 19 -17.26 16.92 C-16.46 16.13 -15.66 15.35 -14.84 14.55 C-14.42 14.13 -14.42 14.13 -12.25 11.98 C-11.34 11.1 -10.43 10.22 -9.5 9.31 C-8.59 8.42 -7.69 7.53 -6.75 6.61 C-4.51 4.4 -2.26 2.2 0 0 Z " fill="#000000" transform="translate(778,546)"/>
    <path d="M0 0 C0.33 0 0.66 0 1 0 C1 3.3 1 6.6 1 10 C0.67 10 0.34 10 0 10 C0 6.7 0 3.4 0 0 Z " fill="#000000" transform="translate(999,548)"/>
    <path d="M0 0 C1 4 1 4 1 4 Z " fill="#000000" transform="translate(162,553)"/>
    <path d="M0 0 C1 4 1 4 1 4 Z " fill="#000000" transform="translate(1021,557)"/>
    <path d="M0 0 C0.33 0 0.66 0 1 0 C1 2.97 1 5.94 1 9 C0.67 9 0.34 9 0 9 C0 6.03 0 3.06 0 0 Z " fill="#000000" transform="translate(998,558)"/>
    <path d="M0 0 C1 4 1 4 1 4 Z " fill="#000000" transform="translate(160,560)"/>
    <path d="M0 0 C0.33 0 0.66 0 1 0 C1 2.97 1 5.94 1 9 C0.67 9 0.34 9 0 9 C0 6.03 0 3.06 0 0 Z " fill="#000000" transform="translate(1020,561)"/>
    <path d="M0 0 C0.33 0 0.66 0 1 0 C1 2.97 1 5.94 1 9 C0.67 9 0.34 9 0 9 C0 6.03 0 3.06 0 0 Z " fill="#000000" transform="translate(3,563)"/>
    <path d="M0 0 C1 4 1 4 1 4 Z " fill="#000000" transform="translate(159,564)"/>
    <path d="M0 0 C0 4.32 -2.41 6.91 -4.81 10.31 C-5.31 11.03 -5.81 11.74 -6.32 12.47 C-11.29 19.53 -16.58 26.29 -22 33 C-23.05 34.31 -24.11 35.62 -25.16 36.94 C-38.18 53.11 -51.62 68.93 -66.51 83.42 C-68 85 -68 85 -70 88 C-70.66 87.67 -71.32 87.34 -72 87 C-67.58 82 -63.13 77.06 -58.38 72.38 C-54.37 68.41 -50.66 64.29 -47 60 C-46.12 58.98 -45.24 57.97 -44.36 56.95 C-28.56 38.7 -13.92 19.71 0 0 Z " fill="#000000" transform="translate(800,566)"/>
    <path d="M0 0 C0.33 0 0.66 0 1 0 C1 2.31 1 4.62 1 7 C0.67 7 0.34 7 0 7 C0 4.69 0 2.38 0 0 Z " fill="#000000" transform="translate(997,567)"/>
    <path d="M0 0 C0.33 0 0.66 0 1 0 C1 1.65 1 3.3 1 5 C0.67 5 0.34 5 0 5 C0 3.35 0 1.7 0 0 Z " fill="#000000" transform="translate(158,568)"/>
    <path d="M0 0 C0.66 0.33 1.32 0.66 2 1 C1.67 1.66 1.34 2.32 1 3 C0.34 2.67 -0.32 2.34 -1 2 C-0.67 1.34 -0.34 0.68 0 0 Z " fill="#000000" transform="translate(756,568)"/>
    <path d="M0 0 C0.33 0 0.66 0 1 0 C1 2.31 1 4.62 1 7 C0.67 7 0.34 7 0 7 C0 4.69 0 2.38 0 0 Z " fill="#000000" transform="translate(1019,570)"/>
    <path d="M0 0 C0.66 0.33 1.32 0.66 2 1 C-0.5 3.53 -3 6.04 -5.5 8.56 C-6.2 9.27 -6.89 9.97 -7.61 10.7 C-12.24 15.35 -17.02 19.74 -22 24 C-23.35 25.18 -24.71 26.35 -26.06 27.53 C-27.37 28.66 -28.69 29.8 -30 30.94 C-30.68 31.53 -31.36 32.11 -32.06 32.72 C-33.71 34.15 -35.35 35.57 -37 37 C-37.66 36.67 -38.32 36.34 -39 36 C-27.47 25.38 -27.47 25.38 -23 21.5 C-15.07 14.61 -7.34 7.51 0 0 Z " fill="#000000" transform="translate(753,571)"/>
    <path d="M0 0 C0.33 0 0.66 0 1 0 C1 2.31 1 4.62 1 7 C0.67 7 0.34 7 0 7 C0 4.69 0 2.38 0 0 Z " fill="#000000" transform="translate(4,572)"/>
    <path d="M0 0 C0.33 0 0.66 0 1 0 C1 1.65 1 3.3 1 5 C0.67 5 0.34 5 0 5 C0 3.35 0 1.7 0 0 Z " fill="#000000" transform="translate(157,573)"/>
    <path d="M0 0 C0.33 0 0.66 0 1 0 C1 2.31 1 4.62 1 7 C0.67 7 0.34 7 0 7 C0 4.69 0 2.38 0 0 Z " fill="#000000" transform="translate(996,574)"/>
    <path d="M0 0 C0.33 0 0.66 0 1 0 C1 2.31 1 4.62 1 7 C0.67 7 0.34 7 0 7 C0 4.69 0 2.38 0 0 Z " fill="#000000" transform="translate(1018,577)"/>
    <path d="M0 0 C0.33 0 0.66 0 1 0 C1 1.65 1 3.3 1 5 C0.67 5 0.34 5 0 5 C0 3.35 0 1.7 0 0 Z " fill="#000000" transform="translate(156,578)"/>
    <path d="M0 0 C0.33 0 0.66 0 1 0 C1 2.31 1 4.62 1 7 C0.67 7 0.34 7 0 7 C0 4.69 0 2.38 0 0 Z " fill="#000000" transform="translate(5,579)"/>
    <path d="M0 0 C0.33 0 0.66 0 1 0 C1 2.31 1 4.62 1 7 C0.67 7 0.34 7 0 7 C0 4.69 0 2.38 0 0 Z " fill="#000000" transform="translate(995,581)"/>
    <path d="M0 0 C0.33 0 0.66 0 1 0 C1 1.98 1 3.96 1 6 C0.67 6 0.34 6 0 6 C0 4.02 0 2.04 0 0 Z " fill="#000000" transform="translate(155,583)"/>
    <path d="M0 0 C0.33 0 0.66 0 1 0 C1 2.31 1 4.62 1 7 C0.67 7 0.34 7 0 7 C0 4.69 0 2.38 0 0 Z " fill="#000000" transform="translate(1017,584)"/>
    <path d="M0 0 C0.33 0 0.66 0 1 0 C1 1.98 1 3.96 1 6 C0.67 6 0.34 6 0 6 C0 4.02 0 2.04 0 0 Z " fill="#000000" transform="translate(6,586)"/>
    <path d="M0 0 C0.33 0 0.66 0 1 0 C1 1.98 1 3.96 1 6 C0.67 6 0.34 6 0 6 C0 4.02 0 2.04 0 0 Z " fill="#000000" transform="translate(994,588)"/>
    <path d="M0 0 C0.33 0 0.66 0 1 0 C1 2.64 1 5.28 1 8 C0.67 8 0.34 8 0 8 C0 5.36 0 2.72 0 0 Z " fill="#000000" transform="translate(154,589)"/>
    <path d="M0 0 C0.33 0 0.66 0 1 0 C1 2.31 1 4.62 1 7 C0.67 7 0.34 7 0 7 C0 4.69 0 2.38 0 0 Z " fill="#000000" transform="translate(1016,591)"/>
    <path d="M0 0 C0.33 0 0.66 0 1 0 C1 1.98 1 3.96 1 6 C0.67 6 0.34 6 0 6 C0 4.02 0 2.04 0 0 Z " fill="#000000" transform="translate(7,592)"/>
    <path d="M0 0 C0.33 0 0.66 0 1 0 C1 1.65 1 3.3 1 5 C0.67 5 0.34 5 0 5 C0 3.35 0 1.7 0 0 Z " fill="#000000" transform="translate(993,594)"/>
    <path d="M0 0 C0.33 0 0.66 0 1 0 C1 2.64 1 5.28 1 8 C0.67 8 0.34 8 0 8 C0 5.36 0 2.72 0 0 Z " fill="#000000" transform="translate(153,597)"/>
    <path d="M0 0 C0.33 0 0.66 0 1 0 C1 1.98 1 3.96 1 6 C0.67 6 0.34 6 0 6 C0 4.02 0 2.04 0 0 Z " fill="#000000" transform="translate(8,598)"/>
    <path d="M0 0 C0.33 0 0.66 0 1 0 C1 1.65 1 3.3 1 5 C0.67 5 0.34 5 0 5 C0 3.35 0 1.7 0 0 Z " fill="#000000" transform="translate(1015,598)"/>
    <path d="M0 0 C0.33 0 0.66 0 1 0 C1 1.65 1 3.3 1 5 C0.67 5 0.34 5 0 5 C0 3.35 0 1.7 0 0 Z " fill="#000000" transform="translate(992,599)"/>
    <path d="M0 0 C0.33 0 0.66 0 1 0 C1 1.98 1 3.96 1 6 C0.67 6 0.34 6 0 6 C0 4.02 0 2.04 0 0 Z " fill="#000000" transform="translate(1014,603)"/>
    <path d="M0 0 C0.33 0 0.66 0 1 0 C1 1.65 1 3.3 1 5 C0.67 5 0.34 5 0 5 C0 3.35 0 1.7 0 0 Z " fill="#000000" transform="translate(9,604)"/>
    <path d="M0 0 C0.33 0 0.66 0 1 0 C1 1.65 1 3.3 1 5 C0.67 5 0.34 5 0 5 C0 3.35 0 1.7 0 0 Z " fill="#000000" transform="translate(991,604)"/>
    <path d="M0 0 C0.33 0 0.66 0 1 0 C1 6.27 1 12.54 1 19 C0.67 19 0.34 19 0 19 C0 12.73 0 6.46 0 0 Z " fill="#000000" transform="translate(152,605)"/>
    <path d="M0 0 C0.66 0.33 1.32 0.66 2 1 C-10.92 13.28 -25.6 23.54 -40 34 C-40.66 33.67 -41.32 33.34 -42 33 C-40.08 31.52 -38.17 30.04 -36.25 28.56 C-35.96 28.34 -35.96 28.34 -34.47 27.19 C-30.63 24.24 -26.76 21.33 -22.88 18.44 C-17.11 14.13 -11.53 9.61 -6 5 C-5.33 4.45 -4.67 3.89 -3.98 3.32 C-2.65 2.22 -1.33 1.11 0 0 Z " fill="#000000" transform="translate(712,608)"/>
    <path d="M0 0 C1 4 1 4 1 4 Z " fill="#000000" transform="translate(10,609)"/>
    <path d="M0 0 C0.33 0 0.66 0 1 0 C1 1.65 1 3.3 1 5 C0.67 5 0.34 5 0 5 C0 3.35 0 1.7 0 0 Z " fill="#000000" transform="translate(990,609)"/>
    <path d="M0 0 C0.33 0 0.66 0 1 0 C1 1.65 1 3.3 1 5 C0.67 5 0.34 5 0 5 C0 3.35 0 1.7 0 0 Z " fill="#000000" transform="translate(1013,609)"/>
    <path d="M0 0 C0.33 0 0.66 0 1 0 C1 1.65 1 3.3 1 5 C0.67 5 0.34 5 0 5 C0 3.35 0 1.7 0 0 Z " fill="#000000" transform="translate(11,613)"/>
    <path d="M0 0 C1 4 1 4 1 4 Z " fill="#000000" transform="translate(989,614)"/>
    <path d="M0 0 C0.33 0 0.66 0 1 0 C1 1.98 1 3.96 1 6 C0.67 6 0.34 6 0 6 C0 4.02 0 2.04 0 0 Z " fill="#000000" transform="translate(1012,614)"/>
    <path d="M0 0 C1 4 1 4 1 4 Z " fill="#000000" transform="translate(12,618)"/>
    <path d="M0 0 C1 4 1 4 1 4 Z " fill="#000000" transform="translate(988,618)"/>
    <path d="M0 0 C1 4 1 4 1 4 Z " fill="#000000" transform="translate(1011,620)"/>
    <path d="M0 0 C1 4 1 4 1 4 Z " fill="#000000" transform="translate(13,622)"/>
    <path d="M0 0 C1 4 1 4 1 4 Z " fill="#000000" transform="translate(987,622)"/>
    <path d="M0 0 C0.33 0 0.66 0 1 0 C1 1.65 1 3.3 1 5 C0.67 5 0.34 5 0 5 C0 3.35 0 1.7 0 0 Z " fill="#000000" transform="translate(1010,624)"/>
    <path d="M0 0 C0.33 0 0.66 0 1 0 C1 7.92 1 15.84 1 24 C0.67 24 0.34 24 0 24 C0 16.08 0 8.16 0 0 Z " fill="#000000" transform="translate(152,625)"/>
    <path d="M0 0 C1 4 1 4 1 4 Z " fill="#000000" transform="translate(14,626)"/>
    <path d="M0 0 C1 4 1 4 1 4 Z " fill="#000000" transform="translate(986,626)"/>
    <path d="M0 0 C0.33 0 0.66 0 1 0 C1 1.65 1 3.3 1 5 C0.67 5 0.34 5 0 5 C0 3.35 0 1.7 0 0 Z " fill="#000000" transform="translate(1009,629)"/>
    <path d="M0 0 C1 4 1 4 1 4 Z " fill="#000000" transform="translate(15,630)"/>
    <path d="M0 0 C1 4 1 4 1 4 Z " fill="#000000" transform="translate(985,630)"/>
    <path d="M0 0 C1 4 1 4 1 4 Z " fill="#000000" transform="translate(16,634)"/>
    <path d="M0 0 C1 4 1 4 1 4 Z " fill="#000000" transform="translate(983,637)"/>
    <path d="M0 0 C1 4 1 4 1 4 Z " fill="#000000" transform="translate(1007,637)"/>
    <path d="M0 0 C1 4 1 4 1 4 Z " fill="#000000" transform="translate(17,638)"/>
    <path d="M0 0 C0.33 0 0.66 0 1 0 C1 1.65 1 3.3 1 5 C0.67 5 0.34 5 0 5 C0 3.35 0 1.7 0 0 Z " fill="#000000" transform="translate(1006,641)"/>
    <path d="M0 0 C1 4 1 4 1 4 Z " fill="#000000" transform="translate(18,642)"/>
    <path d="M0 0 C0.66 0.33 1.32 0.66 2 1 C-8.38 8.81 -18.99 16.1 -30 23 C-30.72 23.45 -31.44 23.91 -32.18 24.37 C-34.26 25.68 -36.35 26.97 -38.44 28.25 C-39.07 28.65 -39.7 29.04 -40.36 29.45 C-41.87 30.36 -43.43 31.19 -45 32 C-45.66 31.67 -46.32 31.34 -47 31 C-46.12 30.46 -45.25 29.93 -44.34 29.38 C-35.59 23.98 -26.99 18.39 -18.44 12.69 C-17.42 12.01 -16.39 11.32 -15.34 10.62 C-10.17 7.16 -5.04 3.65 0 0 Z " fill="#000000" transform="translate(668,642)"/>
    <path d="M0 0 C1 4 1 4 1 4 Z " fill="#000000" transform="translate(1005,646)"/>
    <path d="M0 0 C1 4 1 4 1 4 Z " fill="#000000" transform="translate(20,649)"/>
    <path d="M0 0 C0.33 0 0.66 0 1 0 C1 2.64 1 5.28 1 8 C0.67 8 0.34 8 0 8 C0 5.36 0 2.72 0 0 Z " fill="#000000" transform="translate(153,649)"/>
    <path d="M0 0 C1 4 1 4 1 4 Z " fill="#000000" transform="translate(1004,650)"/>
    <path d="M0 0 C0.33 0.16 0.33 0.16 2 1 C-1.16 4.19 -4.33 7.38 -7.5 10.56 C-7.94 11.01 -7.94 11.01 -10.19 13.28 C-15.29 18.4 -20.49 23.31 -26 28 C-27.19 29.05 -28.38 30.09 -29.57 31.14 C-37.83 38.39 -46.27 45.33 -55 52 C-55.63 52.48 -56.26 52.97 -56.91 53.46 C-66.72 60.97 -76.76 68.08 -87 75 C-87.66 74.67 -88.32 74.34 -89 74 C-88.78 73.84 -88.78 73.84 -87.65 73.03 C-82.96 69.66 -78.28 66.27 -73.6 62.89 C-71.91 61.66 -70.21 60.43 -68.51 59.2 C-58.47 51.96 -48.81 44.49 -39.51 36.31 C-37.29 34.39 -34.99 32.57 -32.69 30.75 C-21.1 21.34 -10.43 10.66 0 0 Z " fill="#000000" transform="translate(726,654)"/>
    <path d="M0 0 C1 4 1 4 1 4 Z " fill="#000000" transform="translate(1003,654)"/>
    <path d="M0 0 C1 4 1 4 1 4 Z " fill="#000000" transform="translate(22,656)"/>
    <path d="M0 0 C0.33 0 0.66 0 1 0 C1 1.98 1 3.96 1 6 C0.67 6 0.34 6 0 6 C0 4.02 0 2.04 0 0 Z " fill="#000000" transform="translate(154,657)"/>
    <path d="M0 0 C1 4 1 4 1 4 Z " fill="#000000" transform="translate(1002,658)"/>
    <path d="M0 0 C0.33 0 0.66 0 1 0 C1 2.31 1 4.62 1 7 C0.67 7 0.34 7 0 7 C0 4.69 0 2.38 0 0 Z " fill="#000000" transform="translate(155,663)"/>
    <path d="M0 0 C0.33 0 0.66 0 1 0 C1 1.65 1 3.3 1 5 C0.67 5 0.34 5 0 5 C0 3.35 0 1.7 0 0 Z " fill="#000000" transform="translate(156,670)"/>
    <path d="M0 0 C0.33 0.16 0.33 0.16 2 1 C-8.92 7.79 -20.2 13.81 -31.62 19.69 C-32.32 20.05 -33.02 20.41 -33.73 20.78 C-38.47 23.22 -43.23 25.63 -48 28 C-48.7 28.35 -49.4 28.7 -50.13 29.06 C-52.19 30.08 -54.26 31.08 -56.34 32.08 C-56.96 32.39 -57.59 32.7 -58.24 33.02 C-62.65 35.12 -62.65 35.12 -66 34 C-65.47 33.74 -65.47 33.74 -62.77 32.45 C-15.31 9.6 -15.31 9.6 -2.07 1.12 C-1.39 0.75 -0.7 0.38 0 0 Z " fill="#000000" transform="translate(619,674)"/>
    <path d="M0 0 C1 4 1 4 1 4 Z " fill="#000000" transform="translate(997,674)"/>
    <path d="M0 0 C0.66 0.66 1.32 1.32 2 2 C1.62 4.12 1.62 4.12 1 6 C0.67 4.02 0.34 2.04 0 0 Z " fill="#000000" transform="translate(28,675)"/>
    <path d="M0 0 C1 4 1 4 1 4 Z " fill="#000000" transform="translate(157,675)"/>
    <path d="M0 0 C1 3 1 3 -0.44 6.19 C-0.7 6.65 -0.7 6.65 -2 9 C-3 6 -3 6 -1.56 2.81 C-1.05 1.88 -0.53 0.96 0 0 Z " fill="#000000" transform="translate(970,675)"/>
    <path d="M0 0 C1 4 1 4 1 4 Z " fill="#000000" transform="translate(158,679)"/>
    <path d="M0 0 C0.66 0.66 1.32 1.32 2 2 C1.67 2.99 1.34 3.98 1 5 C0.67 3.35 0.34 1.7 0 0 Z " fill="#000000" transform="translate(30,681)"/>
    <path d="M0 0 C1 4 1 4 1 4 Z " fill="#000000" transform="translate(159,683)"/>
    <path d="M0 0 C1 3 1 3 -0.3 6.16 C-0.96 7.47 -1.63 8.77 -2.31 10.06 C-2.67 10.76 -3.03 11.46 -3.4 12.18 C-4.59 14.46 -5.79 16.73 -7 19 C-7.41 19.76 -7.82 20.53 -8.24 21.32 C-32.3 66.15 -32.3 66.15 -44 72 C-42.7 69.22 -41.26 66.89 -39.35 64.49 C-38.82 63.82 -38.3 63.16 -37.76 62.47 C-37.2 61.76 -36.64 61.05 -36.06 60.31 C-22.03 42.21 -11.04 22.53 -1 2 C-0.67 1.34 -0.34 0.68 0 0 Z " fill="#000000" transform="translate(965,686)"/>
    <path d="M0 0 C0.33 0.99 0.66 1.98 1 3 C0.34 3.66 -0.32 4.32 -1 5 C-0.67 3.35 -0.34 1.7 0 0 Z " fill="#000000" transform="translate(993,687)"/>
    <path d="M0 0 C1 4 1 4 1 4 Z " fill="#000000" transform="translate(161,690)"/>
    <path d="M0 0 C0.66 0.66 1.32 1.32 2 2 C1.67 2.99 1.34 3.98 1 5 C0.67 3.35 0.34 1.7 0 0 Z " fill="#000000" transform="translate(34,692)"/>
    <path d="M0 0 C0.66 0.66 1.32 1.32 2 2 C1.67 2.99 1.34 3.98 1 5 C0.67 3.35 0.34 1.7 0 0 Z " fill="#000000" transform="translate(36,697)"/>
    <path d="M0 0 C1 4 1 4 1 4 Z " fill="#000000" transform="translate(164,699)"/>
    <path d="M0 0 C0.33 0.99 0.66 1.98 1 3 C0.34 3.66 -0.32 4.32 -1 5 C-0.67 3.35 -0.34 1.7 0 0 Z " fill="#000000" transform="translate(988,701)"/>
    <path d="M0 0 C0.66 0.66 1.32 1.32 2 2 C1.67 2.99 1.34 3.98 1 5 C0.67 3.35 0.34 1.7 0 0 Z " fill="#000000" transform="translate(38,702)"/>
    <path d="M0 0 C0.33 0.99 0.66 1.98 1 3 C0.34 3.66 -0.32 4.32 -1 5 C-0.67 3.35 -0.34 1.7 0 0 Z " fill="#000000" transform="translate(986,706)"/>
    <path d="M0 0 C2.5 2.94 3.47 5.18 4 9 C1.5 6.06 0.53 3.82 0 0 Z " fill="#000000" transform="translate(40,707)"/>
    <path d="M0 0 C-1.81 1.06 -1.81 1.06 -4 2 C-4.99 1.67 -5.98 1.34 -7 1 C-3.38 -1.12 -3.38 -1.12 0 0 Z " fill="#000000" transform="translate(553,710)"/>
    <path d="M0 0 C0.33 0.99 0.66 1.98 1 3 C0.34 3.66 -0.32 4.32 -1 5 C-0.67 3.35 -0.34 1.7 0 0 Z " fill="#000000" transform="translate(984,711)"/>
    <path d="M0 0 C2.54 2.27 3.88 4.45 5.25 7.56 C5.61 8.35 5.96 9.13 6.33 9.94 C7 12 7 12 6 14 C5 12.04 4 10.09 3 8.12 C2.72 7.58 2.72 7.58 1.31 4.82 C0 2 0 2 0 0 Z " fill="#000000" transform="translate(169,713)"/>
    <path d="M0 0 C-2.81 1.56 -2.81 1.56 -6 3 C-6.99 2.67 -7.98 2.34 -9 2 C-3.38 -1.12 -3.38 -1.12 0 0 Z " fill="#000000" transform="translate(541,715)"/>
    <path d="M0 0 C2.5 2.94 3.47 5.18 4 9 C1.5 6.06 0.53 3.82 0 0 Z " fill="#000000" transform="translate(44,716)"/>
    <path d="M0 0 C1 3 1 3 -0.44 6.19 C-0.7 6.65 -0.7 6.65 -2 9 C-3 6 -3 6 -1.56 2.81 C-1.05 1.88 -0.53 0.96 0 0 Z " fill="#000000" transform="translate(982,716)"/>
    <path d="M0 0 C2.35 2.95 4.05 5.91 5.68 9.3 C6.19 10.35 6.7 11.4 7.23 12.48 C7.77 13.6 8.31 14.72 8.88 15.88 C23.26 45.04 41.21 72.24 61 98 C61.42 98.54 61.83 99.08 62.26 99.64 C71.96 112.24 82.29 124.26 93 136 C93.44 136.49 93.44 136.49 95.68 138.96 C110.59 155.39 110.59 155.39 116.19 159.12 C118.67 160.78 119.88 161.93 121.69 164.19 C125.77 169.22 130.93 173.02 136 177 C135.34 177.33 134.68 177.66 134 178 C128.03 173.34 122.41 168.81 117.73 162.82 C116 161 116 161 113.3 159.25 C109.06 156.35 105.65 152.91 102.06 149.25 C101.72 148.91 101.72 148.91 100.01 147.2 C96.03 143.19 92.24 139.06 88.55 134.79 C86.61 132.55 84.62 130.37 82.62 128.19 C77.89 122.94 73.41 117.52 69 112 C68.59 111.49 68.18 110.98 67.76 110.46 C55.78 95.51 44.31 80.14 34 64 C33.51 63.23 33.01 62.46 32.51 61.67 C22.01 45.2 12.59 28.22 3.75 10.81 C3.37 10.06 2.98 9.32 2.59 8.54 C0 3.36 0 3.36 0 0 Z " fill="#000000" transform="translate(48,725)"/>
    <path d="M0 0 C1 3 1 3 -0.44 6.19 C-0.7 6.65 -0.7 6.65 -2 9 C-3 6 -3 6 -1.56 2.81 C-1.05 1.88 -0.53 0.96 0 0 Z " fill="#000000" transform="translate(978,725)"/>
    <path d="M0 0 C3.01 2.66 4.92 5.93 7 9.31 C10.31 14.58 13.84 19.6 17.69 24.5 C17.91 24.78 17.91 24.78 19.02 26.2 C22.1 30.08 25.45 33.55 29 37 C28.67 37.66 28.34 38.32 28 39 C16.68 28.71 6.76 15.75 0 2 C0 1.34 0 0.68 0 0 Z " fill="#000000" transform="translate(176,727)"/>
    <path d="M0 0 C0.66 0.33 1.32 0.66 2 1 C-9.56 9.28 -9.56 9.28 -15 12 C-15.66 11.67 -16.32 11.34 -17 11 C-16.02 10.37 -15.05 9.75 -14.04 9.1 C-12.76 8.28 -11.47 7.45 -10.19 6.62 C-9.54 6.21 -8.9 5.8 -8.24 5.38 C-5.48 3.6 -2.73 1.82 0 0 Z " fill="#000000" transform="translate(635,729)"/>
    <path d="M0 0 C1 3 1 3 0.31 5.01 C0.12 5.39 0.12 5.39 -0.85 7.33 C-1.07 7.77 -1.07 7.77 -2.16 9.97 C-2.64 10.91 -3.13 11.84 -3.62 12.81 C-4.13 13.8 -4.63 14.78 -5.14 15.79 C-13.25 31.49 -22.48 46.42 -32.25 61.12 C-32.62 61.68 -32.99 62.24 -33.37 62.81 C-38.66 70.75 -44.21 78.43 -50 86 C-50.5 86.66 -51.01 87.33 -51.53 88.01 C-61.54 101.09 -72.4 113.41 -83.6 125.48 C-85.1 127.11 -86.58 128.75 -88.07 130.39 C-92.86 135.66 -97.61 140.76 -103.09 145.34 C-105.28 147.24 -107.28 149.29 -109.31 151.38 C-113.34 155.45 -117.6 159.05 -122.07 162.63 C-124.61 164.69 -127.11 166.8 -129.59 168.94 C-142.35 179.91 -156.03 189.65 -170 199 C-170.75 199.51 -171.5 200.01 -172.28 200.53 C-182.17 207.17 -192.23 213.44 -202.56 219.38 C-203.56 219.95 -204.55 220.53 -205.57 221.13 C-206.5 221.65 -207.43 222.17 -208.38 222.71 C-209.2 223.18 -210.02 223.65 -210.87 224.13 C-213 225 -213 225 -216 224 C-215.26 223.6 -214.52 223.2 -213.76 222.78 C-187.19 208.29 -187.19 208.29 -175.72 200.21 C-173.87 198.91 -171.99 197.64 -170.11 196.37 C-156.58 187.22 -143.51 177.51 -131 167 C-130.48 166.57 -129.97 166.14 -129.43 165.69 C-119.95 157.76 -110.61 149.73 -101.93 140.9 C-100 139 -98 137.25 -95.94 135.5 C-92.68 132.69 -89.88 129.7 -87.11 126.42 C-84.91 123.89 -82.63 121.45 -80.33 119 C-75.13 113.47 -70.1 107.88 -65.36 101.95 C-63.6 99.75 -61.82 97.58 -60.02 95.43 C-52.23 86.09 -45.23 76.37 -38.5 66.25 C-37.1 64.16 -35.69 62.07 -34.28 59.99 C-21.32 40.88 -10.11 20.74 0 0 Z " fill="#000000" transform="translate(974,734)"/>
    <path d="M0 0 C4 1 4 1 4 1 Z " fill="#000000" transform="translate(473,738)"/>
    <path d="M0 0 C0.66 0.33 1.32 0.66 2 1 C0.35 1.66 -1.3 2.32 -3 3 C-2.01 2.01 -1.02 1.02 0 0 Z " fill="#000000" transform="translate(616,741)"/>
    <path d="M0 0 C4 1 4 1 4 1 Z " fill="#000000" transform="translate(460,742)"/>
    <path d="M0 0 C0.33 0.16 0.33 0.16 2 1 C-11.68 9.35 -25.59 16.99 -39.94 24.12 C-40.67 24.49 -41.4 24.85 -42.16 25.23 C-46.76 27.52 -51.37 29.77 -56 32 C-56.96 32.47 -57.91 32.93 -58.9 33.41 C-64.64 36.12 -64.64 36.12 -68 35 C-67.05 34.54 -66.1 34.09 -65.12 33.61 C-17.58 10.71 -17.58 10.71 -2.08 1.05 C-1.39 0.7 -0.71 0.36 0 0 Z " fill="#000000" transform="translate(611,744)"/>
    <path d="M0 0 C4 1 4 1 4 1 Z " fill="#000000" transform="translate(450,745)"/>
    <path d="M0 0 C4 1 4 1 4 1 Z " fill="#000000" transform="translate(446,746)"/>
    <path d="M0 0 C4 1 4 1 4 1 Z " fill="#000000" transform="translate(439,748)"/>
    <path d="M0 0 C4 1 4 1 4 1 Z " fill="#000000" transform="translate(432,750)"/>
    <path d="M0 0 C4 1 4 1 4 1 Z " fill="#000000" transform="translate(428,751)"/>
    <path d="M0 0 C1.65 0 3.3 0 5 0 C5 0.33 5 0.66 5 1 C3.35 1 1.7 1 0 1 C0 0.67 0 0.34 0 0 Z " fill="#000000" transform="translate(420,753)"/>
    <path d="M0 0 C4 1 4 1 4 1 Z " fill="#000000" transform="translate(416,754)"/>
    <path d="M0 0 C1.65 0 3.3 0 5 0 C5 0.33 5 0.66 5 1 C3.35 1 1.7 1 0 1 C0 0.67 0 0.34 0 0 Z " fill="#000000" transform="translate(408,756)"/>
    <path d="M0 0 C4 1 4 1 4 1 Z " fill="#000000" transform="translate(404,757)"/>
    <path d="M0 0 C4 1 4 1 4 1 Z " fill="#000000" transform="translate(400,758)"/>
    <path d="M0 0 C0 3.75 -0.84 4.27 -3.36 6.94 C-4.06 7.69 -4.77 8.44 -5.49 9.21 C-6.24 9.99 -6.98 10.76 -7.75 11.56 C-8.48 12.34 -9.21 13.12 -9.96 13.93 C-15.96 20.25 -15.96 20.25 -20 22 C-15.68 16.89 -11.21 11.94 -6.62 7.06 C-5.98 6.38 -5.34 5.69 -4.68 4.99 C-3.12 3.33 -1.56 1.66 0 0 Z " fill="#000000" transform="translate(920,758)"/>
    <path d="M0 0 C4 1 4 1 4 1 Z " fill="#000000" transform="translate(396,759)"/>
    <path d="M0 0 C4 1 4 1 4 1 Z " fill="#000000" transform="translate(392,760)"/>
    <path d="M0 0 C1.65 0 3.3 0 5 0 C5 0.33 5 0.66 5 1 C3.35 1 1.7 1 0 1 C0 0.67 0 0.34 0 0 Z " fill="#000000" transform="translate(387,761)"/>
    <path d="M0 0 C4 1 4 1 4 1 Z " fill="#000000" transform="translate(383,762)"/>
    <path d="M0 0 C4 1 4 1 4 1 Z " fill="#000000" transform="translate(379,763)"/>
    <path d="M0 0 C1.65 0 3.3 0 5 0 C5 0.33 5 0.66 5 1 C3.35 1 1.7 1 0 1 C0 0.67 0 0.34 0 0 Z " fill="#000000" transform="translate(374,764)"/>
    <path d="M0 0 C4 1 4 1 4 1 Z " fill="#000000" transform="translate(370,765)"/>
    <path d="M0 0 C4.27 1.58 6.27 4.51 9 8 C4.73 6.42 2.73 3.49 0 0 Z " fill="#000000" transform="translate(205,766)"/>
    <path d="M0 0 C1.65 0 3.3 0 5 0 C5 0.33 5 0.66 5 1 C3.35 1 1.7 1 0 1 C0 0.67 0 0.34 0 0 Z " fill="#000000" transform="translate(365,766)"/>
    <path d="M0 0 C4 1 4 1 4 1 Z " fill="#000000" transform="translate(361,767)"/>
    <path d="M0 0 C1.65 0 3.3 0 5 0 C5 0.33 5 0.66 5 1 C3.35 1 1.7 1 0 1 C0 0.67 0 0.34 0 0 Z " fill="#000000" transform="translate(356,768)"/>
    <path d="M0 0 C1.65 0 3.3 0 5 0 C5 0.33 5 0.66 5 1 C3.35 1 1.7 1 0 1 C0 0.67 0 0.34 0 0 Z " fill="#000000" transform="translate(351,769)"/>
    <path d="M0 0 C1.65 0 3.3 0 5 0 C5 0.33 5 0.66 5 1 C3.35 1 1.7 1 0 1 C0 0.67 0 0.34 0 0 Z " fill="#000000" transform="translate(346,770)"/>
    <path d="M0 0 C4 1 4 1 4 1 Z " fill="#000000" transform="translate(342,771)"/>
    <path d="M0 0 C1.65 0 3.3 0 5 0 C5 0.33 5 0.66 5 1 C3.35 1 1.7 1 0 1 C0 0.67 0 0.34 0 0 Z " fill="#000000" transform="translate(337,772)"/>
    <path d="M0 0 C1.65 0 3.3 0 5 0 C5 0.33 5 0.66 5 1 C3.35 1 1.7 1 0 1 C0 0.67 0 0.34 0 0 Z " fill="#000000" transform="translate(332,773)"/>
    <path d="M0 0 C3.89 1.72 7.16 4.24 10.56 6.75 C16.45 11.04 22.48 14.73 29 18 C26 19 26 19 23.5 17.88 C4.25 6.38 4.25 6.38 0 0 Z " fill="#000000" transform="translate(214,774)"/>
    <path d="M0 0 C1.65 0 3.3 0 5 0 C5 0.33 5 0.66 5 1 C3.35 1 1.7 1 0 1 C0 0.67 0 0.34 0 0 Z " fill="#000000" transform="translate(327,774)"/>
    <path d="M0 0 C1.65 0 3.3 0 5 0 C5 0.33 5 0.66 5 1 C3.35 1 1.7 1 0 1 C0 0.67 0 0.34 0 0 Z " fill="#000000" transform="translate(322,775)"/>
    <path d="M0 0 C4 1 4 1 4 1 Z " fill="#000000" transform="translate(318,776)"/>
    <path d="M0 0 C1.65 0 3.3 0 5 0 C5 0.33 5 0.66 5 1 C3.35 1 1.7 1 0 1 C0 0.67 0 0.34 0 0 Z " fill="#000000" transform="translate(313,777)"/>
    <path d="M0 0 C1.65 0 3.3 0 5 0 C5 0.33 5 0.66 5 1 C3.35 1 1.7 1 0 1 C0 0.67 0 0.34 0 0 Z " fill="#000000" transform="translate(308,778)"/>
    <path d="M0 0 C1.65 0 3.3 0 5 0 C5 0.33 5 0.66 5 1 C3.35 1 1.7 1 0 1 C0 0.67 0 0.34 0 0 Z " fill="#000000" transform="translate(303,779)"/>
    <path d="M0 0 C1.65 0 3.3 0 5 0 C5 0.33 5 0.66 5 1 C3.35 1 1.7 1 0 1 C0 0.67 0 0.34 0 0 Z " fill="#000000" transform="translate(298,780)"/>
    <path d="M0 0 C-2.81 1.56 -2.81 1.56 -6 3 C-6.99 2.67 -7.98 2.34 -9 2 C-3.38 -1.12 -3.38 -1.12 0 0 Z " fill="#000000" transform="translate(543,781)"/>
    <path d="M0 0 C0.66 0.33 1.32 0.66 2 1 C-5.3 9.19 -14.24 15.48 -23 22 C-23.66 21.67 -24.32 21.34 -25 21 C-24.56 20.64 -24.11 20.29 -23.66 19.92 C-4.24 4.24 -4.24 4.24 0 0 Z " fill="#000000" transform="translate(898,780)"/>
    <path d="M0 0 C4 1 4 1 4 1 Z " fill="#000000" transform="translate(294,781)"/>
    <path d="M0 0 C1.65 0 3.3 0 5 0 C5 0.33 5 0.66 5 1 C3.35 1 1.7 1 0 1 C0 0.67 0 0.34 0 0 Z " fill="#000000" transform="translate(289,782)"/>
    <path d="M0 0 C4 1 4 1 4 1 Z " fill="#000000" transform="translate(285,783)"/>
    <path d="M0 0 C1.65 0 3.3 0 5 0 C5 0.33 5 0.66 5 1 C3.35 1 1.7 1 0 1 C0 0.67 0 0.34 0 0 Z " fill="#000000" transform="translate(280,784)"/>
    <path d="M0 0 C1.65 0 3.3 0 5 0 C5 0.33 5 0.66 5 1 C3.35 1 1.7 1 0 1 C0 0.67 0 0.34 0 0 Z " fill="#000000" transform="translate(275,785)"/>
    <path d="M0 0 C-1.81 1.06 -1.81 1.06 -4 2 C-4.99 1.67 -5.98 1.34 -7 1 C-3.38 -1.12 -3.38 -1.12 0 0 Z " fill="#000000" transform="translate(531,786)"/>
    <path d="M0 0 C4 1 4 1 4 1 Z " fill="#000000" transform="translate(271,786)"/>
    <path d="M0 0 C4 1 4 1 4 1 Z " fill="#000000" transform="translate(267,787)"/>
    <path d="M0 0 C4 1 4 1 4 1 Z " fill="#000000" transform="translate(263,788)"/>
    <path d="M0 0 C1.65 0 3.3 0 5 0 C5 0.33 5 0.66 5 1 C3.35 1 1.7 1 0 1 C0 0.67 0 0.34 0 0 Z " fill="#000000" transform="translate(258,789)"/>
    <path d="M0 0 C0.99 0.33 1.98 0.66 3 1 C1.35 1.33 -0.3 1.66 -2 2 C-1.34 1.34 -0.68 0.68 0 0 Z " fill="#000000" transform="translate(518,789)"/>
    <path d="M0 0 C4 1 4 1 4 1 Z " fill="#000000" transform="translate(254,790)"/>
    <path d="M0 0 C1.65 0 3.3 0 5 0 C5 0.33 5 0.66 5 1 C3.35 1 1.7 1 0 1 C0 0.67 0 0.34 0 0 Z " fill="#000000" transform="translate(249,791)"/>
    <path d="M0 0 C1.65 0 3.3 0 5 0 C5 0.33 5 0.66 5 1 C3.35 1 1.7 1 0 1 C0 0.67 0 0.34 0 0 Z " fill="#000000" transform="translate(244,792)"/>
    <path d="M0 0 C0.66 0.33 1.32 0.66 2 1 C-4.08 5.64 -10.28 9.92 -16.81 13.88 C-17.43 14.26 -18.06 14.64 -18.7 15.03 C-22.36 17.22 -25.9 18.81 -30 20 C-27.34 16.93 -24.16 15.31 -20.62 13.38 C-13.41 9.37 -6.7 4.81 0 0 Z " fill="#000000" transform="translate(871,802)"/>
    <path d="M0 0 C4 1 4 1 4 1 Z " fill="#000000" transform="translate(480,803)"/>
    <path d="M0 0 C4 1 4 1 4 1 Z " fill="#000000" transform="translate(455,811)"/>
    <path d="M0 0 C4 1 4 1 4 1 Z " fill="#000000" transform="translate(448,813)"/>
    <path d="M0 0 C4 1 4 1 4 1 Z " fill="#000000" transform="translate(441,815)"/>
    <path d="M0 0 C3.3 0 6.6 0 10 0 C10 0.33 10 0.66 10 1 C6.7 1 3.4 1 0 1 C0 0.67 0 0.34 0 0 Z " fill="#000000" transform="translate(199,817)"/>
    <path d="M0 0 C4 1 4 1 4 1 Z " fill="#000000" transform="translate(434,817)"/>
    <path d="M0 0 C1.65 0 3.3 0 5 0 C5 0.33 5 0.66 5 1 C3.35 1 1.7 1 0 1 C0 0.67 0 0.34 0 0 Z " fill="#000000" transform="translate(194,818)"/>
    <path d="M0 0 C1.98 0 3.96 0 6 0 C6 0.33 6 0.66 6 1 C4.02 1 2.04 1 0 1 C0 0.67 0 0.34 0 0 Z " fill="#000000" transform="translate(209,818)"/>
    <path d="M0 0 C4 1 4 1 4 1 Z " fill="#000000" transform="translate(190,819)"/>
    <path d="M0 0 C4 1 4 1 4 1 Z " fill="#000000" transform="translate(427,819)"/>
    <path d="M0 0 C-0.63 0.34 -1.26 0.68 -1.91 1.03 C-13.93 7.84 -19.47 15.7 -25 28 C-26 25.39 -26.08 24.24 -25.14 21.55 C-21.1 14.09 -10.23 -3.41 0 0 Z " fill="#000000" transform="translate(187,822)"/>
    <path d="M0 0 C2.44 0.38 2.44 0.38 5 1 C5.33 1.66 5.66 2.32 6 3 C4.02 2.34 2.04 1.68 0 1 C0 0.67 0 0.34 0 0 Z " fill="#000000" transform="translate(221,821)"/>
    <path d="M0 0 C4 1 4 1 4 1 Z " fill="#000000" transform="translate(417,822)"/>
    <path d="M0 0 C0.66 0.33 1.32 0.66 2 1 C-0.6 2.37 -3.2 3.72 -5.81 5.06 C-6.18 5.26 -6.18 5.26 -8.05 6.24 C-8.76 6.61 -9.47 6.97 -10.21 7.35 C-10.86 7.69 -11.52 8.03 -12.19 8.38 C-14 9 -14 9 -17 8 C-14.21 6.63 -11.42 5.28 -8.62 3.94 C-7.83 3.55 -7.04 3.16 -6.22 2.76 C-5.46 2.39 -4.7 2.03 -3.91 1.65 C-3.56 1.48 -3.56 1.48 -1.79 0.62 C-1.2 0.42 -0.61 0.21 0 0 Z " fill="#000000" transform="translate(839,822)"/>
    <path d="M0 0 C7.23 2.41 12.7 8.46 16.62 14.88 C18 18 18 18 17 21 C16.66 20.37 16.32 19.74 15.97 19.09 C12.38 12.75 8.34 7.93 3 3 C2 2 0.99 1.01 0 0 Z " fill="#000000" transform="translate(227,824)"/>
    <path d="M0 0 C4 1 4 1 4 1 Z " fill="#000000" transform="translate(410,824)"/>
    <path d="M0 0 C4 1 4 1 4 1 Z " fill="#000000" transform="translate(400,827)"/>
    <path d="M0 0 C4 1 4 1 4 1 Z " fill="#000000" transform="translate(393,829)"/>
    <path d="M0 0 C0.99 0.33 1.98 0.66 3 1 C1.35 1.33 -0.3 1.66 -2 2 C-1.34 1.34 -0.68 0.68 0 0 Z " fill="#000000" transform="translate(817,832)"/>
    <path d="M0 0 C4 1 4 1 4 1 Z " fill="#000000" transform="translate(380,833)"/>
    <path d="M0 0 C4 1 4 1 4 1 Z " fill="#000000" transform="translate(361,839)"/>
    <path d="M0 0 C1 4 1 4 1 4 Z " fill="#000000" transform="translate(246,847)"/>
    <path d="M0 0 C4 1 4 1 4 1 Z " fill="#000000" transform="translate(774,847)"/>
    <path d="M0 0 C4 1 4 1 4 1 Z " fill="#000000" transform="translate(770,848)"/>
    <path d="M0 0 C4 1 4 1 4 1 Z " fill="#000000" transform="translate(766,849)"/>
    <path d="M0 0 C0.33 0 0.66 0 1 0 C1 1.65 1 3.3 1 5 C0.67 5 0.34 5 0 5 C0 3.35 0 1.7 0 0 Z " fill="#000000" transform="translate(160,850)"/>
    <path d="M0 0 C4 1 4 1 4 1 Z " fill="#000000" transform="translate(762,850)"/>
    <path d="M0 0 C1 4 1 4 1 4 Z " fill="#000000" transform="translate(247,851)"/>
    <path d="M0 0 C4 1 4 1 4 1 Z " fill="#000000" transform="translate(758,851)"/>
    <path d="M0 0 C1.65 0 3.3 0 5 0 C5 0.33 5 0.66 5 1 C3.35 1 1.7 1 0 1 C0 0.67 0 0.34 0 0 Z " fill="#000000" transform="translate(753,852)"/>
    <path d="M0 0 C4 1 4 1 4 1 Z " fill="#000000" transform="translate(749,853)"/>
    <path d="M0 0 C1.98 0 3.96 0 6 0 C6 0.33 6 0.66 6 1 C4.02 1 2.04 1 0 1 C0 0.67 0 0.34 0 0 Z " fill="#000000" transform="translate(743,854)"/>
    <path d="M0 0 C0.33 0 0.66 0 1 0 C1 4.29 1 8.58 1 13 C0.67 13 0.34 13 0 13 C0 8.71 0 4.42 0 0 Z " fill="#000000" transform="translate(159,855)"/>
    <path d="M0 0 C0.33 0 0.66 0 1 0 C1 4.29 1 8.58 1 13 C0.67 13 0.34 13 0 13 C0 8.71 0 4.42 0 0 Z " fill="#000000" transform="translate(248,855)"/>
    <path d="M0 0 C24.09 0 48.18 0 73 0 C73 0.33 73 0.66 73 1 C48.91 1 24.82 1 0 1 C0 0.67 0 0.34 0 0 Z " fill="#000000" transform="translate(384,855)"/>
    <path d="M0 0 C1.65 0 3.3 0 5 0 C5 0.33 5 0.66 5 1 C3.35 1 1.7 1 0 1 C0 0.67 0 0.34 0 0 Z " fill="#000000" transform="translate(738,855)"/>
    <path d="M0 0 C5.61 0 11.22 0 17 0 C17 0.33 17 0.66 17 1 C11.39 1 5.78 1 0 1 C0 0.67 0 0.34 0 0 Z " fill="#000000" transform="translate(367,856)"/>
    <path d="M0 0 C6.6 0 13.2 0 20 0 C20 0.33 20 0.66 20 1 C13.4 1 6.8 1 0 1 C0 0.67 0 0.34 0 0 Z " fill="#000000" transform="translate(457,856)"/>
    <path d="M0 0 C1.98 0 3.96 0 6 0 C6 0.33 6 0.66 6 1 C4.02 1 2.04 1 0 1 C0 0.67 0 0.34 0 0 Z " fill="#000000" transform="translate(732,856)"/>
    <path d="M0 0 C4.29 0 8.58 0 13 0 C13 0.33 13 0.66 13 1 C8.71 1 4.42 1 0 1 C0 0.67 0 0.34 0 0 Z " fill="#000000" transform="translate(354,857)"/>
    <path d="M0 0 C5.28 0 10.56 0 16 0 C16 0.33 16 0.66 16 1 C10.72 1 5.44 1 0 1 C0 0.67 0 0.34 0 0 Z " fill="#000000" transform="translate(477,857)"/>
    <path d="M0 0 C1.65 0 3.3 0 5 0 C5 0.33 5 0.66 5 1 C3.35 1 1.7 1 0 1 C0 0.67 0 0.34 0 0 Z " fill="#000000" transform="translate(727,857)"/>
    <path d="M0 0 C-2.29 0.86 -4.58 1.72 -6.88 2.56 C-7.53 2.81 -8.18 3.06 -8.85 3.31 C-10.54 3.93 -12.27 4.47 -14 5 C-14.66 4.67 -15.32 4.34 -16 4 C-14.4 3.35 -12.79 2.71 -11.19 2.06 C-10.74 1.88 -10.74 1.88 -8.48 0.97 C-3.24 -1.08 -3.24 -1.08 0 0 Z " fill="#000000" transform="translate(312,859)"/>
    <path d="M0 0 C3.96 0 7.92 0 12 0 C12 0.33 12 0.66 12 1 C8.04 1 4.08 1 0 1 C0 0.67 0 0.34 0 0 Z " fill="#000000" transform="translate(342,858)"/>
    <path d="M0 0 C4.62 0 9.24 0 14 0 C14 0.33 14 0.66 14 1 C9.38 1 4.76 1 0 1 C0 0.67 0 0.34 0 0 Z " fill="#000000" transform="translate(493,858)"/>
    <path d="M0 0 C2.64 0 5.28 0 8 0 C8 0.33 8 0.66 8 1 C5.36 1 2.72 1 0 1 C0 0.67 0 0.34 0 0 Z " fill="#000000" transform="translate(719,858)"/>
    <path d="M0 0 C2.97 0 5.94 0 9 0 C9 0.33 9 0.66 9 1 C6.03 1 3.06 1 0 1 C0 0.67 0 0.34 0 0 Z " fill="#000000" transform="translate(333,859)"/>
    <path d="M0 0 C4.29 0 8.58 0 13 0 C13 0.33 13 0.66 13 1 C8.71 1 4.42 1 0 1 C0 0.67 0 0.34 0 0 Z " fill="#000000" transform="translate(507,859)"/>
    <path d="M0 0 C2.31 0 4.62 0 7 0 C7 0.33 7 0.66 7 1 C4.69 1 2.38 1 0 1 C0 0.67 0 0.34 0 0 Z " fill="#000000" transform="translate(712,859)"/>
    <path d="M0 0 C3.3 0 6.6 0 10 0 C10 0.33 10 0.66 10 1 C6.7 1 3.4 1 0 1 C0 0.67 0 0.34 0 0 Z " fill="#000000" transform="translate(323,860)"/>
    <path d="M0 0 C3.96 0 7.92 0 12 0 C12 0.33 12 0.66 12 1 C8.04 1 4.08 1 0 1 C0 0.67 0 0.34 0 0 Z " fill="#000000" transform="translate(520,860)"/>
    <path d="M0 0 C3.3 0 6.6 0 10 0 C10 0.33 10 0.66 10 1 C6.7 1 3.4 1 0 1 C0 0.67 0 0.34 0 0 Z " fill="#000000" transform="translate(702,860)"/>
    <path d="M0 0 C2.31 0 4.62 0 7 0 C7 0.33 7 0.66 7 1 C4.69 1 2.38 1 0 1 C0 0.67 0 0.34 0 0 Z " fill="#000000" transform="translate(316,861)"/>
    <path d="M0 0 C5.28 0 10.56 0 16 0 C16 0.33 16 0.66 16 1 C10.72 1 5.44 1 0 1 C0 0.67 0 0.34 0 0 Z " fill="#000000" transform="translate(532,861)"/>
    <path d="M0 0 C3.63 0 7.26 0 11 0 C11 0.33 11 0.66 11 1 C7.37 1 3.74 1 0 1 C0 0.67 0 0.34 0 0 Z " fill="#000000" transform="translate(691,861)"/>
    <path d="M0 0 C1.98 0 3.96 0 6 0 C6 0.33 6 0.66 6 1 C4.02 1 2.04 1 0 1 C0 0.67 0 0.34 0 0 Z " fill="#000000" transform="translate(310,862)"/>
    <path d="M0 0 C6.93 0 13.86 0 21 0 C21 0.33 21 0.66 21 1 C14.07 1 7.14 1 0 1 C0 0.67 0 0.34 0 0 Z " fill="#000000" transform="translate(548,862)"/>
    <path d="M0 0 C4.95 0 9.9 0 15 0 C15 0.33 15 0.66 15 1 C10.05 1 5.1 1 0 1 C0 0.67 0 0.34 0 0 Z " fill="#000000" transform="translate(676,862)"/>
    <path d="M0 0 C1.65 0 3.3 0 5 0 C5 0.33 5 0.66 5 1 C3.35 1 1.7 1 0 1 C0 0.67 0 0.34 0 0 Z " fill="#000000" transform="translate(305,863)"/>
    <path d="M0 0 C7.92 0 15.84 0 24 0 C24 0.33 24 0.66 24 1 C16.08 1 8.16 1 0 1 C0 0.67 0 0.34 0 0 Z " fill="#000000" transform="translate(573,863)"/>
    <path d="M0 0 C6.93 0 13.86 0 21 0 C21 0.33 21 0.66 21 1 C14.07 1 7.14 1 0 1 C0 0.67 0 0.34 0 0 Z " fill="#000000" transform="translate(655,863)"/>
    <path d="M0 0 C19.14 0 38.28 0 58 0 C58 0.33 58 0.66 58 1 C38.86 1 19.72 1 0 1 C0 0.67 0 0.34 0 0 Z " fill="#000000" transform="translate(597,864)"/>
    <path d="M0 0 C1.98 0 3.96 0 6 0 C6 0.33 6 0.66 6 1 C4.02 1 2.04 1 0 1 C0 0.67 0 0.34 0 0 Z " fill="#000000" transform="translate(296,865)"/>
    <path d="M0 0 C0.33 0 0.66 0 1 0 C1 1.65 1 3.3 1 5 C0.67 5 0.34 5 0 5 C0 3.35 0 1.7 0 0 Z " fill="#000000" transform="translate(160,868)"/>
    <path d="M0 0 C0.33 0 0.66 0 1 0 C1 1.65 1 3.3 1 5 C0.67 5 0.34 5 0 5 C0 3.35 0 1.7 0 0 Z " fill="#000000" transform="translate(247,868)"/>
    <path d="M0 0 C1 4 1 4 1 4 Z " fill="#000000" transform="translate(161,873)"/>
    <path d="M0 0 C0.33 0.99 0.66 1.98 1 3 C-3.11 11.1 -10.13 18.95 -18.56 22.5 C-18.96 22.58 -18.96 22.58 -21 23 C-18.89 20.78 -16.69 19.01 -14.19 17.25 C-7.81 12.51 -3.7 6.97 0 0 Z " fill="#000000" transform="translate(244,879)"/>
    <path d="M0 0 C4.8 3.57 9.54 7.19 14.24 10.89 C44.52 34.71 77.35 54.21 112 71 C109 72 109 72 106.82 71.22 C105.98 70.79 105.13 70.37 104.27 69.93 C103.31 69.45 102.36 68.98 101.37 68.48 C100.34 67.95 99.31 67.42 98.25 66.88 C97.17 66.33 96.1 65.78 94.99 65.21 C91.65 63.49 88.32 61.75 85 60 C84.52 59.75 84.52 59.75 82.1 58.47 C59.18 46.26 37.14 31.68 16.84 15.46 C14.88 13.91 12.9 12.39 10.91 10.87 C9.6 9.87 8.3 8.87 7 7.88 C6.41 7.43 5.81 6.98 5.2 6.51 C1.11 3.34 1.11 3.34 0 0 Z " fill="#000000" transform="translate(184,903)"/>
    <path d="M0 0 C1.65 0 3.3 0 5 0 C5 0.33 5 0.66 5 1 C3.35 1 1.7 1 0 1 C0 0.67 0 0.34 0 0 Z " fill="#000000" transform="translate(191,904)"/>
    <path d="M0 0 C4 1 4 1 4 1 Z " fill="#000000" transform="translate(213,904)"/>
    <path d="M0 0 C5.61 0 11.22 0 17 0 C17 0.33 17 0.66 17 1 C11.39 1 5.78 1 0 1 C0 0.67 0 0.34 0 0 Z " fill="#000000" transform="translate(196,905)"/>
    <path d="M0 0 C0.66 0.33 1.32 0.66 2 1 C0.42 1.96 -1.17 2.92 -2.75 3.88 C-3.19 4.14 -3.19 4.14 -5.42 5.49 C-6.27 5.99 -7.12 6.49 -8 7 C-8.71 7.42 -9.41 7.83 -10.14 8.26 C-12 9 -12 9 -15 8 C-12.55 6.64 -10.09 5.28 -7.62 3.94 C-6.93 3.55 -6.23 3.16 -5.51 2.76 C-3.7 1.78 -1.85 0.88 0 0 Z " fill="#000000" transform="translate(756,959)"/>
    <path d="M0 0 C0.66 0.33 1.32 0.66 2 1 C0.57 1.87 -0.87 2.72 -2.31 3.56 C-2.71 3.8 -2.71 3.8 -4.74 5 C-7 6 -7 6 -10 5 C-8.38 4.14 -6.75 3.28 -5.12 2.44 C-4.22 1.96 -3.32 1.49 -2.38 1 C-1.99 0.83 -1.99 0.83 0 0 Z " fill="#000000" transform="translate(739,968)"/>
    <path d="M0 0 C0.56 0.23 1.11 0.45 1.69 0.69 C-1.12 2.25 -1.12 2.25 -4.31 3.69 C-5.3 3.36 -6.29 3.03 -7.31 2.69 C-2.88 -0.39 -2.88 -0.39 0 0 Z " fill="#000000" transform="translate(727.3125,974.3125)"/>
    <path d="M0 0 C4.13 0.61 7.33 2.04 11 4 C8 5 8 5 5.96 4.22 C5.25 3.84 4.54 3.46 3.81 3.06 C3.1 2.68 2.38 2.3 1.64 1.91 C1.1 1.61 0.56 1.31 0 1 C0 0.67 0 0.34 0 0 Z " fill="#000000" transform="translate(296,975)"/>
    <path d="M0 0 C-1.81 1.06 -1.81 1.06 -4 2 C-4.99 1.67 -5.98 1.34 -7 1 C-3.38 -1.12 -3.38 -1.12 0 0 Z " fill="#000000" transform="translate(720,979)"/>
    <path d="M0 0 C4.75 0.75 4.75 0.75 7 3 C2.25 2.25 2.25 2.25 0 0 Z " fill="#000000" transform="translate(307,980)"/>
    <path d="M0 0 C0.6 0.21 1.2 0.41 1.81 0.62 C0 1.69 0 1.69 -2.19 2.62 C-3.18 2.29 -4.17 1.97 -5.19 1.62 C-2.19 -0.38 -2.19 -0.38 0 0 Z " fill="#000000" transform="translate(711.1875,981.375)"/>
    <path d="M0 0 C4.75 0.75 4.75 0.75 7 3 C2.25 2.25 2.25 2.25 0 0 Z " fill="#000000" transform="translate(314,983)"/>
    <path d="M0 0 C0.99 0.33 1.98 0.66 3 1 C1.35 1.33 -0.3 1.66 -2 2 C-1.34 1.34 -0.68 0.68 0 0 Z " fill="#000000" transform="translate(703,984)"/>
    <path d="M0 0 C0.99 0.33 1.98 0.66 3 1 C1.35 1.33 -0.3 1.66 -2 2 C-1.34 1.34 -0.68 0.68 0 0 Z " fill="#000000" transform="translate(698,986)"/>
    <path d="M0 0 C0.82 0.16 0.82 0.16 5 1 C4.01 1.33 3.02 1.66 2 2 C1.34 1.34 0.68 0.68 0 0 Z " fill="#000000" transform="translate(324,987)"/>
    <path d="M0 0 C4 1 4 1 4 1 Z " fill="#000000" transform="translate(692,988)"/>
    <path d="M0 0 C0.82 0.16 0.82 0.16 5 1 C4.01 1.33 3.02 1.66 2 2 C1.34 1.34 0.68 0.68 0 0 Z " fill="#000000" transform="translate(332,990)"/>
    <path d="M0 0 C0.66 0.33 1.32 0.66 2 1 C0.35 1.33 -1.3 1.66 -3 2 C-2.01 1.34 -1.02 0.68 0 0 Z " fill="#000000" transform="translate(690,989)"/>
    <path d="M0 0 C0.66 0.33 1.32 0.66 2 1 C0.68 1.33 -0.64 1.66 -2 2 C-1.34 1.34 -0.68 0.68 0 0 Z " fill="#000000" transform="translate(685,991)"/>
    <path d="M0 0 C4 1 4 1 4 1 Z " fill="#000000" transform="translate(679,993)"/>
    <path d="M0 0 C0.82 0.16 0.82 0.16 5 1 C4.01 1.33 3.02 1.66 2 2 C1.34 1.34 0.68 0.68 0 0 Z " fill="#000000" transform="translate(343,994)"/>
    <path d="M0 0 C4 1 4 1 4 1 Z " fill="#000000" transform="translate(351,997)"/>
    <path d="M0 0 C4 1 4 1 4 1 Z " fill="#000000" transform="translate(655,1001)"/>
    <path d="M0 0 C4 1 4 1 4 1 Z " fill="#000000" transform="translate(367,1002)"/>
    <path d="M0 0 C4 1 4 1 4 1 Z " fill="#000000" transform="translate(371,1003)"/>
    <path d="M0 0 C4 1 4 1 4 1 Z " fill="#000000" transform="translate(645,1004)"/>
    <path d="M0 0 C4 1 4 1 4 1 Z " fill="#000000" transform="translate(378,1005)"/>
    <path d="M0 0 C4 1 4 1 4 1 Z " fill="#000000" transform="translate(641,1005)"/>
    <path d="M0 0 C4 1 4 1 4 1 Z " fill="#000000" transform="translate(382,1006)"/>
    <path d="M0 0 C4 1 4 1 4 1 Z " fill="#000000" transform="translate(637,1006)"/>
    <path d="M0 0 C4 1 4 1 4 1 Z " fill="#000000" transform="translate(386,1007)"/>
    <path d="M0 0 C4 1 4 1 4 1 Z " fill="#000000" transform="translate(633,1007)"/>
    <path d="M0 0 C4 1 4 1 4 1 Z " fill="#000000" transform="translate(390,1008)"/>
    <path d="M0 0 C4 1 4 1 4 1 Z " fill="#000000" transform="translate(629,1008)"/>
    <path d="M0 0 C4 1 4 1 4 1 Z " fill="#000000" transform="translate(394,1009)"/>
    <path d="M0 0 C4 1 4 1 4 1 Z " fill="#000000" transform="translate(625,1009)"/>
    <path d="M0 0 C4 1 4 1 4 1 Z " fill="#000000" transform="translate(398,1010)"/>
    <path d="M0 0 C4 1 4 1 4 1 Z " fill="#000000" transform="translate(621,1010)"/>
    <path d="M0 0 C4 1 4 1 4 1 Z " fill="#000000" transform="translate(402,1011)"/>
    <path d="M0 0 C4 1 4 1 4 1 Z " fill="#000000" transform="translate(617,1011)"/>
    <path d="M0 0 C1.65 0 3.3 0 5 0 C5 0.33 5 0.66 5 1 C3.35 1 1.7 1 0 1 C0 0.67 0 0.34 0 0 Z " fill="#000000" transform="translate(406,1012)"/>
    <path d="M0 0 C1.65 0 3.3 0 5 0 C5 0.33 5 0.66 5 1 C3.35 1 1.7 1 0 1 C0 0.67 0 0.34 0 0 Z " fill="#000000" transform="translate(612,1012)"/>
    <path d="M0 0 C4 1 4 1 4 1 Z " fill="#000000" transform="translate(411,1013)"/>
    <path d="M0 0 C4 1 4 1 4 1 Z " fill="#000000" transform="translate(608,1013)"/>
    <path d="M0 0 C1.65 0 3.3 0 5 0 C5 0.33 5 0.66 5 1 C3.35 1 1.7 1 0 1 C0 0.67 0 0.34 0 0 Z " fill="#000000" transform="translate(415,1014)"/>
    <path d="M0 0 C1.98 0 3.96 0 6 0 C6 0.33 6 0.66 6 1 C4.02 1 2.04 1 0 1 C0 0.67 0 0.34 0 0 Z " fill="#000000" transform="translate(602,1014)"/>
    <path d="M0 0 C1.98 0 3.96 0 6 0 C6 0.33 6 0.66 6 1 C4.02 1 2.04 1 0 1 C0 0.67 0 0.34 0 0 Z " fill="#000000" transform="translate(420,1015)"/>
    <path d="M0 0 C4 1 4 1 4 1 Z " fill="#000000" transform="translate(598,1015)"/>
    <path d="M0 0 C1.98 0 3.96 0 6 0 C6 0.33 6 0.66 6 1 C4.02 1 2.04 1 0 1 C0 0.67 0 0.34 0 0 Z " fill="#000000" transform="translate(426,1016)"/>
    <path d="M0 0 C1.98 0 3.96 0 6 0 C6 0.33 6 0.66 6 1 C4.02 1 2.04 1 0 1 C0 0.67 0 0.34 0 0 Z " fill="#000000" transform="translate(592,1016)"/>
    <path d="M0 0 C1.98 0 3.96 0 6 0 C6 0.33 6 0.66 6 1 C4.02 1 2.04 1 0 1 C0 0.67 0 0.34 0 0 Z " fill="#000000" transform="translate(432,1017)"/>
    <path d="M0 0 C1.65 0 3.3 0 5 0 C5 0.33 5 0.66 5 1 C3.35 1 1.7 1 0 1 C0 0.67 0 0.34 0 0 Z " fill="#000000" transform="translate(587,1017)"/>
    <path d="M0 0 C1.98 0 3.96 0 6 0 C6 0.33 6 0.66 6 1 C4.02 1 2.04 1 0 1 C0 0.67 0 0.34 0 0 Z " fill="#000000" transform="translate(438,1018)"/>
    <path d="M0 0 C2.64 0 5.28 0 8 0 C8 0.33 8 0.66 8 1 C5.36 1 2.72 1 0 1 C0 0.67 0 0.34 0 0 Z " fill="#000000" transform="translate(579,1018)"/>
    <path d="M0 0 C2.64 0 5.28 0 8 0 C8 0.33 8 0.66 8 1 C5.36 1 2.72 1 0 1 C0 0.67 0 0.34 0 0 Z " fill="#000000" transform="translate(444,1019)"/>
    <path d="M0 0 C1.65 0 3.3 0 5 0 C5 0.33 5 0.66 5 1 C3.35 1 1.7 1 0 1 C0 0.67 0 0.34 0 0 Z " fill="#000000" transform="translate(574,1019)"/>
    <path d="M0 0 C1.98 0 3.96 0 6 0 C6 0.33 6 0.66 6 1 C4.02 1 2.04 1 0 1 C0 0.67 0 0.34 0 0 Z " fill="#000000" transform="translate(452,1020)"/>
    <path d="M0 0 C1.65 0 3.3 0 5 0 C5 0.33 5 0.66 5 1 C3.35 1 1.7 1 0 1 C0 0.67 0 0.34 0 0 Z " fill="#000000" transform="translate(565,1020)"/>
    <path d="M0 0 C6.6 0 13.2 0 20 0 C20 0.99 20 1.98 20 3 C19.67 2.34 19.34 1.68 19 1 C12.73 1 6.46 1 0 1 C0 0.67 0 0.34 0 0 Z " fill="#000000" transform="translate(458,1021)"/>
    <path d="M0 0 C4.29 0 8.58 0 13 0 C13 0.33 13 0.66 13 1 C8.71 1 4.42 1 0 1 C0 0.67 0 0.34 0 0 Z " fill="#000000" transform="translate(479,1021)"/>
    <path d="M0 0 C4.62 0 9.24 0 14 0 C14 0.33 14 0.66 14 1 C9.38 1 4.76 1 0 1 C0 0.67 0 0.34 0 0 Z " fill="#000000" transform="translate(530,1021)"/>
    <path d="M0 0 C6.6 0 13.2 0 20 0 C20 0.33 20 0.66 20 1 C13.73 1 7.46 1 1 1 C0.67 1.66 0.34 2.32 0 3 C0 2.01 0 1.02 0 0 Z " fill="#000000" transform="translate(545,1021)"/>
  </g>
</svg>
