<svg xmlns="http://www.w3.org/2000/svg" viewBox="0 0 300 300"><style>:root {
      --background-dark-color: #1a1a1a;
      --text-white-color: #ffffff;
      --text-red-color: #d63a2a;
      --skin-light-color: #e6c0a3;      /* @ws mix=skin-mid-color:0.48 */
      --skin-mid-color: #c08a6a;
      --skin-shadow-color: #8e5a40;      /* @ws mix=skin-mid-color:-0.33 */
      --hair-brown-color: #5a4030;
      --bg-color: #000000;

      /* Real-text overlay (crisp, editable) vs traced text shapes      */
      /* (chunky, matches source). Default: overlay on, traced off.     */
      --text-overlay: inline;             /* @ws select options=inline,none */
      --traced-text: none;                /* @ws select options=inline,none */
      --title-font: Impact;
      --subtitle-font: cursive;
    }
    .background { fill: var(--bg-color); }
    .background-dark    { fill: var(--background-dark-color); }
    .skin-light         { fill: var(--skin-light-color); }
    .skin-mid           { fill: var(--skin-mid-color); }
    .skin-shadow        { fill: var(--skin-shadow-color); }
    .hair-brown         { fill: var(--hair-brown-color); }
    .text-white         { fill: var(--text-white-color); display: var(--traced-text); }
    .text-red           { fill: var(--text-red-color);   display: var(--traced-text); }</style><path d="M0 0h300v300H0z" class="background"/><path d="M0 0h300v300H0z" class="background-dark"/><path d="M0 0h224c1.2 6 1.2 11.6 1.2 17.6v9.8c-.3 4-2.5 6-5.2 8.6l-6-2 1 1 .9 2c1.1 2 1.1 2 4.1 3v3l4 1 1 6-2-1-1 4v-3l-6-1-2 4 5 1v4h2l1-2 2 2 4-2v6l2 4h-3v-2l-3 1 1 2-1 3 4-2-2 4h3v5l-4 1v4.4l-.1 2.5c.1 2.1.1 2.1 1.1 3.1.7 8.2.2 16.3-3 24l-3 3c-1.2 3.2-1.2 3.2-2 6h-3l.1 2.3c-.1 2.7-.1 2.7-1 4.4a25 25 0 0 0-1.7 10l-.1 2.2-.3 5.1c3.7 2.1 7.7 3 11.8 4.1l2 .6 5.2 1.3.6 4.8.4 2.7c0 2.5 0 2.5-2 5.5l-3-1 .6 1.8c.5 2.7-.2 3.8-1.6 6.2l2-1-2 7h-3l-3 3h-2l1 3-4 1v2h-2v3l-3 1-2-4c-4.4 1.5-7 4.7-9.8 8.3-3.4 2.6-6 2-10.2 1.7v-2l-2-1-1-1v1h-7c-.7-1.8-.7-1.8-1-4 1.3-1.8 1.3-1.8 3.3-3.6l1.8-1.7 1.9-1.7 3-3-1.6-1.2-1.4-1.8c.3-2.2.3-2.2 1-4h-3l.6-3.7c.3-2.6.4-4.2-.2-6.7-2-2.2-3.6-2.3-6.4-2.6v-2l-2.9-.3-3.8-.5-3.7-.5a19 19 0 0 1-8.6-3.7l-2-5q-2.2-3.2-4.8-6.2C149 139 149 139 149 137l6-2 1 2h3l2 3h2v2h3v2l17 2v-2l4-1 1-4h4q1.2-3.4 2-7h3l1-7h3v-3h2v-4l.2-5.2v-2.6c.2-6.5.2-6.5 3.3-10L209 98c.6-4.6 0-7.9-2-12h-3v2h-4v-3l-9-1v-2l-1.5 1c-3.5 1.4-6.7 1.6-10.5 2v-8a87 87 0 0 1 25-2l-1.4-7.6-.4-2.2A62 62 0 0 0 199 53l-2-1-.7-2.9c-1.3-3.1-1.3-3.1-4.1-5a40 40 0 0 0-15-2.2h-4L155 42l-.9 1.8a28 28 0 0 1-9.2 9.5c-5.4 5-6.2 11.8-6.4 19v5.3l-.3 14.3-.2 14.1c-2-2-2-2-2.8-5-1.4-3.6-2.7-4.4-6.2-6l.4 1.7A58 58 0 0 1 131 113h2l1 7-1 1-.6 4.6-.2 2.5-.2 1.9h-5v7h-2v-10h4v-3h-12v3h4l1 15-7 1-2 1-6-2v-1l3.4-1c3.6-1 3.6-1 4.6-2v-6l-9-2 1-4h5v3h3l-1-4h-10l-1 7h-4l-2-8-5 1-5 15h3l1-3h7v4h3v2h-3l1 5 1-2h10.3q5.4.2 10.6-.6l3.1-.4c2.5 2.5 2.3 3.4 2.4 6.8 0 4.7-1 6.8-4.4 10.2v2c-9.4 4.2-9.4 4.2-14 6v2l-3 1.5-3.9 1.9-2 1c-2.7 1.3-5 2.4-7.1 4.6l-4.5 1.6A45 45 0 0 0 72 194l-1.6 1.5c-5.6 5.3-7.3 11-9 18.2l-.6 2.6a153 153 0 0 0-4.6 40.9c-.2 4-1 7-2.2 10.8v5l2.2.6 2.7.8 2.8.7c2.3.9 2.3.9 3.3 2.9h-7l-1 22H0z" class="background-dark"/><path d="M170.3 40.5h3.6A37 37 0 0 1 196 46l.4 3 .6 3 2 .7c2 1.3 2 1.3 3 4.8l.8 4.3.3 2.2q1 5.4.9 11l-3 .1c-7.2.5-14 1-21 2.9l-1 7 12-3v2l2.8-.6c3.3-.4 4.4-.2 7.2 1.6l-1 3h4v-2h3c3.2 4 3.3 7 3 12l-2 .8c-2 1.2-2 1.2-3 4.2l-.8 7-.3 2.7-.2 2.7-.7 6.6h-2v3h-3l-1 7h-3v7h-6l-1 5h-4v2a50 50 0 0 1-17-2v-2h-3v-2l-3 1-1-4h-10l1.8 2.4c3.1 4.7 5.2 10 5.2 15.6l11 3v2h2v2l2.8-.1c4.8.2 4.8.2 7.2 2.1a46 46 0 0 1 1.1 10 15 15 0 0 1-3.1 11v2h-2l.7 7c.3 2 .3 2 1.3 3v5l1.9-.5c3-.7 6-.5 9.1-.5v-2h3l2 2 3 1v-2c6.6-3 6.6-3 10-3-1.2 3.7-2.7 4.2-6.1 5.9l-2.2 1-2.1 1-6.6 3.1-3.5 1.6A48 48 0 0 1 162 214c-2.8-2.3-2.8-2.3-5-5l-4.4-.9c-4.7-.8-6.7-2.6-9.4-6.3a27 27 0 0 1-3.2-6.8h-2l-2-3-5 1v-2h2v-3h-3v-4l-2-1v-2l-1-3-.6-4.7-.2-2.4-.2-1.9-5 2-1-2-1.6 1.3a79 79 0 0 1-7.7 4.7c-1.7 1-1.7 1-4 2.7-1.7 1.3-1.7 1.3-4.7 2.3l-1-3h-2v2l-5 1-1 3-2.7.3c-3.4.7-5.5 1.6-8.3 3.7-1.3 2.2-1.3 2.2-2 4l-4-1c4.5-4.4 8.7-7.6 14.6-10q5.6-2.5 11-5.7 3-1.7 6.4-2.3v-2c4.4-3.3 8.4-6 14-6l-1-3 2-1.4c3-4 2.3-7.8 2-12.6-2.6-.7-4.5-1.1-7.2-.5q-5.3.8-10.6 0l-2.1-.1-5.1-.4-1 3h-1v-6h3v-2h-3v-4l-7 1-1 2h-3l1.4-5.7.7-3.3q1-3.7 2.9-7h5c1.3 3 2 4.8 2 8h4v-3.4c0-3.6 0-3.6 1-4.6a92 92 0 0 1 10 0l1 5h-3v-3l-5 1-1 3 2 .2 2.4.2 2.5.3c2.1.3 2.1.3 3.1 1.3.5 5.3.5 5.3-1.2 7.8a15 15 0 0 1-6.8 2.2c5 1.2 8.2.6 13-1v-14h-4v-3h12v3h-4v10h2v-7h5v-4.4l-.1-2.4c.1-2.2.1-2.2 1.1-4.2l-1-3 1-3h-2l-.2-1.9-.2-2.5-.3-2.4c-.3-2.2-.3-2.2-1.3-4.2v-7c3 1 4.8 1.8 7 4l1 5v-3.4l.3-18.2c.1-20.3.1-20.3 4.7-27.4 2.5-2.3 2.5-2.3 5-4l2-2.4c6.5-8.2 11-8.3 21.3-8.1" class="background-dark"/><path d="M174 20c2 0 2 0 4.5.3l2.5.3 2 .4 1 2 2.3-1c2.7-1 2.7-1 5.7 0l-2 1.7c-2 2.3-2 2.3-2.2 5l.2 2.3-2 1 1 5h2l2-8 3.2.6c4 .4 5.3 0 8.8-1.6 2.2 0 2.2 0 4 1 2 4 2 4 2 6h-5v3l2.3-.7c2.7-.3 2.7-.3 4.9.8A14 14 0 0 1 215 46c-.4 3.9-.4 3.9-1 7l5 1v4h2l1-2 2 2 4-2v6l2 4h-3v-2l-3 1 1 2-1 3 4-2-2 4h3v5l-4 1v4.4l-.1 2.5c.1 2.1.1 2.1 1.1 3.1.7 8.2.2 16.3-3 24l-3 3c-1.2 3.2-1.2 3.2-2 6h-3l.1 2.3c-.1 2.7-.1 2.7-1 4.4a25 25 0 0 0-1.7 10l-.1 2.2-.3 5.1c3.7 2.1 7.7 3 11.8 4.1l2 .6 5.2 1.3 1 7.5c0 2.5 0 2.5-2 5.5l-3-1 .6 1.8c.5 2.7-.2 3.8-1.6 6.2l2-1-2 7h-3l-3 3h-2l1 3-4 1v2h-2v3l-3 1-2-4c-4.4 1.5-7 4.7-9.8 8.3-3.4 2.6-6 2-10.2 1.7v-2l-2-1-1-1v1h-7c-.7-1.8-.7-1.8-1-4 1.3-1.8 1.3-1.8 3.3-3.6l1.8-1.7 1.9-1.7 3-3-1.6-1.2-1.4-1.8c.3-2.2.3-2.2 1-4h-3l.6-3.7c.3-2.6.4-4.2-.2-6.7-2-2.2-3.6-2.3-6.4-2.6v-2l-2.9-.3-3.8-.5-3.7-.5a19 19 0 0 1-8.6-3.7l-2-5q-2.2-3.2-4.8-6.2C149 139 149 139 149 137l6-2 1 2h3l2 3h2v2h3v2l17 2v-2l4-1 1-4h4q1.2-3.4 2-7h3l1-7h3v-3h2v-4l.2-5.2v-2.6c.2-6.5.2-6.5 3.3-10L209 98c.6-4.6 0-7.9-2-12h-3v2h-4v-3l-9-1v-2l-1.5 1c-3.5 1.4-6.7 1.6-10.5 2v-8a87 87 0 0 1 25-2l-1.4-7.6-.4-2.2A62 62 0 0 0 199 53l-2-1-.7-2.9c-1.3-3.1-1.3-3.1-4.1-5-3.2-1.1-3.2-1.1-6-1.7L184 42l-1-2c-3.7-2.7-7.6-2.1-12-2v-5l-1.7.6c-2.8.5-4-.2-6.3-1.6v2l-2 .4-2 .6-1 2h-3v3h-2v2l-2 1-2 3c-1-3-1-3.9 0-7h2c-.6-2.9-.6-2.9-2-6-3.6-1.4-3.6-1.4-7-2 .7-2 .7-2 2-4 3.1-1.2 4.6-1.1 7.8 0l2.2 1v2c3.5 1.2 5.5.7 9 0l1-3c-3.1 0-5.1.2-8 1v-4l7-1v-2h4.9l2.8.1C173 21 173 21 174 20" class="background-dark"/><path d="M170.3 40.5h3.6A37 37 0 0 1 196 46l.4 3 .6 3 2 .7c2 1.3 2 1.3 3 4.8l.8 4.3.3 2.2q1 5.4.9 11h-12.5l-2.6.1h-2.5C184 75 184 75 179 74v17h2l1-3c1.9 3.8.1 8.1-1 12-1.6 2.6-1.6 2.6-4 4-2.8.3-5.2.2-8 0l-1 2h7l1 4 1.7-.5q3.5-.7 7-.6h2.5l1.8.1-1 3c-2 .8-2 .8-4.6 1.4a54 54 0 0 0-11.5 4.7 45 45 0 0 1-8.9 2.9c8.3-1.7 8.3-1.7 12-3.1 4.3-1.3 8.5-1 13-.9v3h-2v2h2v2l-5 1v2l3 .8c3 1.2 3 1.2 4 3.2 0 2 0 2-1 4h-5v2c-3 1-3.9 1-7 0v2h-2v2h-3v-2h-2v2l-5-1-2-7-7 1v-2h-7l-1 2v-3h-3v-2h-2l-.7-3-1.3-3-2-.4c-2-.6-2-.6-3.4-2.8L132 111l-1-2.5a31 31 0 0 1-2-13.5c3 1 4.8 1.8 7 4l1 5v-3.4l.3-18.2c.1-20.3.1-20.3 4.7-27.4 2.5-2.3 2.5-2.3 5-4l2-2.4c6.5-8.2 11-8.3 21.3-8.1" class="skin-mid"/><path d="M148 139c2 0 2 0 4 1.8 2.9 4.6 3.2 8.9 4 14.2l11 3v2h2v2l2.8-.1c4.8.2 4.8.2 7.2 2.1a46 46 0 0 1 1.1 10 15 15 0 0 1-3.1 11v2h-2l.4 4.4.3 2.5c.3 2.1.3 2.1 1.3 3.1v5l1.9-.5c3-.7 6-.5 9.1-.5v-2h3l2 2 3 1v-2c6.6-3 6.6-3 10-3-1.2 3.7-2.7 4.2-6.1 5.9l-2.2 1-12.2 5.7A48 48 0 0 1 162 214c-2.8-2.3-2.8-2.3-5-5l-4.4-.9c-4.7-.8-6.7-2.6-9.4-6.3a27 27 0 0 1-3.2-6.8h-2q-4-6.7-7-14l-1-2.5c-4-9-4-9-3-13.5 3.8-3.5 8.1-5.9 12.7-8.2l2-1.2c5-2.6 5-2.6 7.3-2.6z" class="skin-shadow"/><path d="m287 193 1 3c-1.3 2.3-1.3 2.3-3.2 4.9a67 67 0 0 0-9.7 17.8 15 15 0 0 1-4.1 5.3 15 15 0 0 0-2.3 8.4c-.5 5.9-2.5 11-4.6 16.5-1.1 3.1-1.1 3.1-1.1 7.1l1-2.8 1.3-3.6 1.3-3.7 1.4-2.9 3-1-1 7 2-1 1 2 5.3-6.7 1.5-1.9q3.2-4 6-8.3c1.4-2.4 2.6-3.1 5.2-4.1-.6 3.7-2.3 6-4.5 9l-2.2 3-2.3 3-2.3 3.1-2.3 3-2.3 3.1-4 5c-6.8 8.4-6.5 18.4-7.2 28.9L263 300h-51c0-16 0-16 2.9-20.5 2.6-2.5 2.6-2.5 5.1-2.5l1-4 2.8.5c3.2.5 3.2.5 6.2.5v1h10l1-2 2.3.1c2.7-.1 2.7-.1 5.7-2.1l-1-1.7c-1.2-2.8-1-3.6 0-6.3l1-2.3c1-2.8 1.1-4.4 1-7.3-.3-12.2 2.1-24.8 6-36.4q2-6 3.2-12.3c.9-3 2.2-5.2 3.8-7.7 1 3.2 1 4.8-.3 7.9-1.9 5.1-2.5 10.2-3.2 15.6q-.9 5.9-2.1 11.5c-.4 2-.4 2-.4 5l.5-2c2.8-11 7.2-21 12.5-31l1.1-2.1c2.5-4.8 2.5-4.8 5.9-5.9-1 3.3-2 5.9-4 8.7a40 40 0 0 0-4.6 11.4q-1.7 6.2-4.4 11.9v3l3-1 .3-3.6c.5-4 1.7-7 3.7-10.4h2l.4-1.9c.6-2.1.6-2.1 1.6-4.1h2l.3-1.6q1.5-4.3 4.1-8l2-3c1.6-2.4 1.6-2.4 3.6-4.4" class="background-dark"/><path d="M300 214v86h-37c0-32 0-32 6-40l1.3-1.8 7.6-10 1.6-2.2 6.8-9 3.7-5-1-1c0-3.8 1.2-5.3 3.3-8.5l1.9-3c4-5.5 4-5.5 5.8-5.5M22 106h3v5h5v-5h3v12h-3v-5h-5v2.9c0 3.1 0 3.1-1 5.1h6v2l7.6.6c2.4.4 2.4.4 4.4 2.4.7 4.9 1 9.5-1.8 13.6C38 141 38 141 35 142h5l-3 5 2.2-.1c9.7-.3 9.7-.3 13.8 3.1l.3-3.4c.7-3.6.7-3.6 2.8-5l1.9-.6v-6h3l1 2h5v-3l-3.4-.4C60 133 60 133 58 131c-.2-2.5-.2-2.5 0-5 2-2 2-2 4.6-2.5l2.4-.5 1-2h19l-2 2 3 2v4h-3v-2h-7v10h7v-3h3v5c-1.8 1.8-4.6 1.4-7 1.6l-3.4.2-2.6.2v2h-3.4c-3.6 0-3.6 0-5.6 1v2l23-1c2.2 5.5 2.9 9.4 1 15H78c-3.3.1-5.9 0-9-1l-1 1-7.9.1H37.7c-5.5 0-5.5 0-7.7-1.1-.4-2-.4-2-.6-4.6L29 152v-2l4-1v-6l-4-.4c-2.2-.2-2.2-.2-4-.6l-1-2H13v-16h12v-2h-4l1-3z" class="background-dark"/><path d="m183 73 1 2h5v1l-9 2-1 7 12-3v2l2.8-.6c3.3-.4 4.4-.2 7.2 1.6l-1 3h4v-2h3c3.2 4 3.3 7 3 12l-2 .8c-2 1.2-2 1.2-3 4.2l-.8 7-.3 2.7-.2 2.7-.7 6.6h-2v3h-3l-1 7h-3v7h-6l-1 5h-4v2a50 50 0 0 1-17-2v-2h-3v-2l-3 1-1-4h-10l-1 2v-4h-2v-2h-2l-1-4h2v2c3.4 1.1 5.6.7 9 0l2 1v2l7-1v2l2 1v4l5 1v-2h2v2h3v-2h2v-2h7v-2h5v-6l-1.9-.4c-2.1-.6-2.1-.6-4.1-1.6v-2l5-1v-2h-2v-2h2v-3c-14.6 1.6-14.6 1.6-20.2 3.7-3.8 1.3-3.8 1.3-6.8.3 2.7-1.8 4.7-2.5 7.8-3.3q5.8-2 11.3-4.6c2.9-1.1 2.9-1.1 5.7-1.6l2.2-.5 1-2-4.2.4-2.4.3c-2.4.3-2.4.3-4.6 1l-1.8.3-2-2 1-2-7-1 1-3 6 .3c2-.3 2-.3 3.7-1.5 1.7-2.4 2-4.5 2.5-7.5l.5-3q0-1.1.3-2.3l-1 2h-2c-1.4-2.9-1.1-5.3-1.1-8.5V79c.1-3 .1-3 1.1-5z" class="skin-shadow"/><path d="M179 43v2l2.3.4 2.7.6 2.2.4c1.8.6 1.8.6 3.8 2.6l-.1 7.5-.1 2c-.1 2-.1 2-.8 5.5-2 1.3-2 1.3-4 2l-4 4-1-2h-2l-1 3c-5.6 4-12 3.7-18.6 4l-6.7.5-3 .1c-2.8.4-5 1.2-7.7 2.4q-3.2-11.4 2-22h3l.9-1.8c2.5-5 2.5-5 6.2-6.4l2.9-.8v-3c7.7-1.2 15.3-1 23-1" class="skin-light"/><path d="M138 65h1v3.7l.7 30.6v2.5l.1 2.2q.3 3 1.2 6h2l3 9 2-1 3 4-1 2 4 1 2-8h2v-2l2.9-.2c3.1-.8 3.1-.8 4.5-3 .7-3.2.3-5.6-.4-8.8l4 1-1 2h7l1 4 1.7-.5q3.5-.7 7-.6h2.5l1.8.1-1 3c-2 .8-2 .8-4.6 1.4a54 54 0 0 0-11.5 4.7 45 45 0 0 1-8.9 2.9c8.3-1.7 8.3-1.7 12-3.1 4.3-1.3 8.5-1 13-.9v3h-2v2h2v2l-5 1v2l3 .8c3 1.2 3 1.2 4 3.2 0 2 0 2-1 4h-5v2c-3 1-3.9 1-7 0v2h-2v2h-3v-2h-2v2l-5-1-2-7-7 1v-2h-7l-1 2v-3h-3v-2h-2l-.7-3-1.3-3-2-.4c-2-.6-2-.6-3.4-2.8L132 111l-1-2.5a31 31 0 0 1-2-13.5c3 1 4.8 1.8 7 4l1 5z" class="skin-shadow"/><path d="M150 154v2.3l.5 17.6v3.3c.5 3.1 1.5 4.4 3.5 6.8q.8 4 1 8h2l1 5 2.4-.6c2.6-.4 2.6-.4 4.6.6v3l4 1v4h2l.4 2 .6 2 2 1v2h-9v2h-3l-2.1-2.4c-3-2.7-3.6-3-7.3-3.5-4.7-.8-6.7-2.6-9.4-6.3a27 27 0 0 1-3.2-6.8h-2q-4-6.7-7-14l-1-2.5c-4-9-4-9-3-13.5q5-4.3 11-7.2l3.2-1.5c3-1.4 5.5-2.3 8.8-2.3" class="skin-light"/><path d="M300 266v34h-37v-18c3.5-2.6 6-4 10-5.5q4.5-1.6 8.7-4.2c2.3-1.3 2.3-1.3 5.3-1.3v-2l5.4-1.5 3-.8c2.6-.7 2.6-.7 4.6-.7" class="skin-mid"/><path d="M174 20c2 0 2 0 4.5.3l2.5.3 2 .4 1 2 2.3-1c2.7-1 2.7-1 5.7 0l-2 1.7c-2 2.3-2 2.3-2.2 5l.2 2.3-2 1 1 5h2l2-8 3.2.6c4 .4 5.3 0 8.8-1.6 2.2 0 2.2 0 4 1 2 4 2 4 2 6h-5v3l2.3-.7c2.7-.3 2.7-.3 4.9.8A14 14 0 0 1 215 46c-.4 3.9-.4 3.9-1 7h2l-1 2-3-1v-5l-5 1v-2l-2.6.2a25 25 0 0 1-9.5-2.6c-3-1.4-5.5-2.5-8.7-3.1L184 42l-1-2c-3.7-2.7-7.6-2.1-12-2v-5l-1.7.6c-2.8.5-4-.2-6.3-1.6v2l-2 .4-2 .6-1 2h-3v3h-2v2l-2 1-2 3c-1-3-1-3.9 0-7h2c-.6-2.9-.6-2.9-2-6-3.6-1.4-3.6-1.4-7-2 .7-2 .7-2 2-4 3.1-1.2 4.6-1.1 7.8 0l2.2 1v2c3.5 1.2 5.5.7 9 0l1-3c-3.1 0-5.1.2-8 1v-4l7-1v-2h4.9l2.8.1C173 21 173 21 174 20" class="background-dark"/><path d="M59 279c9.7-.6 18.6 1.7 28 4v2l2.6-.2c4 .2 6.2.9 9.4 3.2a22 22 0 0 1 0 12H57c0-15 0-15 2-21" class="skin-shadow"/><path d="M226 76h2l.6 27.5q.5 23.3.4 46.5l-7.4-.6c-3.9-.6-6.4-2.2-9.6-4.4-.6-16.3-.6-16.3 3-24l3-1 2-6 1.5-1.8c4.6-6.8 4-16.4 3.5-24.2l-1-1c-.2-2-.2-2-.2-4.4V80c.2-2.1.2-2.1 2.2-4.1M22 106h3v5h5v-5h3v12h-3v-5h-5v2.9c0 3.1 0 3.1-1 5.1h6v2l7.6.6c2.4.4 2.4.4 4.4 2.4.7 4.9 1 9.5-1.8 13.6C38 141 38 141 35 142h5c-1.1 3-2.2 5.3-4 8l-3-1v-6l-4-.4c-2.2-.2-2.2-.2-4-.6l-1-2H13v-16h12v-2h-4l1-3z" class="background-dark"/><path d="M173 77h3v12h-1v7l3 1-1 4-5.2.6-3 .3c-2.7.1-5-.2-7.8-.9a55 55 0 0 0-3 6.6c-1 2.4-2 3.7-4 5.4l-10-3-.4-3q-1-6-2.6-12h2v-4c3-2 3-2 5.8-1.7q5.1 1.1 10.2 2.7v-2l7-1 1-6h2v-4h4z" class="skin-light"/><path d="m154 146 3 2v4q5.4 2.3 11.2 3c5.6.9 5.6.9 7.8 2v2q1.2 0 2.3.3c2.7.7 2.7.7 4.6 2.3 1.7 3.7.8 6.4.1 10.4l4-1-1.2 2.3-.8 2.7a29 29 0 0 0 3 4l-2.2 1.9-2.8 2.4-2.8 2.4C178 189 178 189 178 192c5.8.1 5.8.1 8-1v2l3 1-1 2 1.8-.5c2.2-.5 2.2-.5 6.2-.5l5-5 3-1c1.2-2 1.2-2 2-4 3 1 3 1 5 4h2v-3h2v-2l3-2v-2l4-1a55 55 0 0 1-11 16l-3 1v2l-3.2.4-8.8 1.6v2h-5v-3h-3v2c-6.1 2-6.1 2-9.3 2-1.7-1-1.7-1-3-3.5q-1.2-6.2-.7-12.5h2l-1-3 1.4-1.7c2.3-3.3 2-6.6 1.8-10.6v-2.2l-.2-5.5-10-2v-2h-2v-2l-1.9-.4-2.5-.5-2.4-.6c-2.2-.5-2.2-.5-4.2-1.5-.6-2-.6-2-1.1-4.6l-.5-2.5z" class="hair-brown"/><path d="M37 103h9l-.1 6.8A7 7 0 0 0 47 114l-2 7h3v2l1.7-1a14 14 0 0 1 7-1.1h2.5l1.8.1-2 1v2h-6l-2 6h-2l-1.4-2.4C46 125 46 125 43 124l1 1.5c3.7 5.1 4.6 8.3 4 14.5h4v-6h6l1 9h-5l-1 7-5.7-1.5q-5.1-1-10.3-1.5l1-4-4-1 3-1.4c3-1.6 3-1.6 4-3.6l.1-8.6C41 126 41 126 40 125l-7.7-.6-2.3-.4-1-2-5-1 1-8h5v5h3v-11h1v11h9v-2h-6v-3h6v-2h-6v-3h6v-3h-6zm112-81 3 1 4.2-.4 3.8-.6v2h-4v4l7-3 2 2c-.4 2.1-.4 2.1-1 4l-1-1-7 2v-2h-2v-2l-3 1v-2l-7 1v2l3 1.1c3 1.9 3 1.9 3.9 5l.1 2.9h-2v6l2-3h2v-2h2v-3h3l1-3h4v-2h4v2l4-1v5l9-1v2l4 1v1l-29 1-2 4q-5.1 5.4-11 10v-3h2l-1-7-7-1-1 3-4-1v3l-4-2v-5h4l.3-1.8c1-2.8 2.2-3.7 4.7-5.2h2v3h3a62 62 0 0 0-4-10l1.9-1 2.4-1.4 2.4-1.3z" class="background-dark"/><path d="M204 86h3c3.2 4 3.3 7 3 12l-2 .8c-2 1.2-2 1.2-3 4.2l-.8 7-.3 2.7-.2 2.7-.7 6.6h-2v3h-3l-1 7h-3v7h-6l-1 5h-4v2a50 50 0 0 1-17-2v-2h-3v-2l-3 1-1-4h-10l-1 2v-4h-2v-2h-2l-1-4h2v2c3.4 1.1 5.6.7 9 0l2 1v2l7-1v2l2 1v4l5 1v-2h2v2h3v-2h2v-2h7v-2h5v-6l-1.9-.4c-2.1-.6-2.1-.6-4.1-1.6v-2c3-1.5 5.7-1 9-1l-1 3 1.3-1.5c1.7-1.5 1.7-1.5 4.7-1.5 2.7-2 3.5-3.8 4.1-7l.5-2.5q.6-3.7.8-7.6a20 20 0 0 1 2.3-8.5c1.8-4.6.8-7.8-.7-12.4" class="skin-shadow"/><path d="M92 124h5c1.3 3 2 4.8 2 8h4v-3.4c0-3.6 0-3.6 1-4.6h10l1 5h-3v-3l-5 1-1 3 2 .2 2.4.2 2.5.3c2.1.3 2.1.3 3.1 1.3.5 5.3.5 5.3-1.2 7.8a15 15 0 0 1-6.8 2.2c5.5 1.1 5.5 1.1 8 .4 3-.6 5.2.5 8 1.6a27 27 0 0 1-16.8 2.6l-2.1-.2-5.1-.4-1 3h-1v-6h3v-2h-3v-4l-7 1-1 2h-3l1.4-5.7.7-3.3q1-3.7 2.9-7m-26-3h19l-2 2 3 2v4h-3v-2h-7v10h7v-3h3v5c-1.8 1.8-4.6 1.4-7 1.6l-3.4.2-2.6.2v2l-5.8-.8-3.3-.5c-3-.7-4.2-1.2-5.9-3.7v-3h3l1 2h5v-3l-3.4-.4C60 133 60 133 58 131c-.2-2.5-.2-2.5 0-5 2-2 2-2 4.6-2.5l2.4-.5z" class="background-dark"/><path d="M188 117v3h-2v2h2v2l-4 1v-2l-2 2h-3l1 3 5 1 1 3a14 14 0 0 1-11 3v2h-7l-1-3h-3l-.9-2.9C162 128 162 128 160 126c1-2.3 1.5-3.7 3.7-5a53 53 0 0 1 24.3-4m-1-75c3.4 1 6 2 9 4l.4 3 .6 3 2 .7c2 1.3 2 1.3 3 4.8l.8 4.3.3 2.2q1 5.4.9 11h-12.5l-2.6.1h-2.5C184 75 184 75 179 74v17h2l1-3c1.3 2.7.8 4.1.2 7l-.5 2.8-.7 2.2-2 1a75 75 0 0 1-2.7-22l-.3-7c2.8-1 4.4-1.1 7.2-1h3.8v2l12-1v-4l-4-1-1 1h-5l1-1.7a14 14 0 0 0 1.2-6.8v-5.2l-.1-2.7-.1-6.6-4-1z" class="skin-shadow"/><path d="M205.2 28c1.8 1 1.8 1 3 3.5.8 2.5.8 2.5.8 3.5h-5v3l2.3-.7c2.7-.3 2.7-.3 4.9.8A14 14 0 0 1 215 46c-.4 3.9-.4 3.9-1 7h2l-1 2-3-1v-5l-5 1v-2l-2.6.3c-4.4-.4-6.6-1.9-10.4-4.3v-2h-4v-2h-5l1.9-1c3.1-3 3.3-5.8 4.1-10l3.2.6c4.3.5 6.9-1.7 11-1.5M194 40l1 3h9l-2-3c-2-.3-2-.3-4.1-.2zM93 145h3l-1 9h5l-.1-2.4c.1-2.6.1-2.6 2.1-4.6 2.8 0 2.8 0 6 .3l3.3.3c2.7.4 2.7.4 4.7 1.4l5-2h3v11c-7.2 2-13.6 2.1-21 1.6l-3.3-.1-7.7-.5v-6.4l-.1-3.7c.1-2.9.1-2.9 1.1-3.9" class="background-dark"/><path d="M149 162h1l.1 3.8.3 7.4c.2 4.7.4 7.3 3.6 10.8q.8 4 1 8h2l1 5 2.4-.6c2.6-.4 2.6-.4 4.6.6v3l4 1v4h2l.4 2 .6 2 2 1v2h-9v2h-3l-2.1-2.4c-3.4-3-5.5-3.3-9.8-4-3-.8-4.4-2.2-6.1-4.6v-2h5v2l8-1a16 16 0 0 0-6-7v-3h-2l-.9-22.6-.1-3.6c0-2.8 0-2.8 1-3.8" class="skin-light"/><path fill="#50271E" d="M187 98c10.8 10.4 10.8 10.4 11.1 16.8l-.1 2.2-5-2-1 4h-3v-2c-15.6 1.6-15.6 1.6-21.3 3.7-3.7 1.3-3.7 1.3-6.7.3 2.7-1.8 4.7-2.5 7.8-3.3q5.8-2 11.3-4.6c2.9-1.1 2.9-1.1 5.7-1.6l2.2-.5 1-2-4.2.4-2.4.3c-2.4.3-2.4.3-4.6 1l-1.8.3-2-2 1-2-7-1 1-3 3.8.2c4 0 4 0 5.8-1.8l1.4-1.4c3.2.3 3.2.3 6 1z"/><path d="m170 75-1 8h-2l-1 6-7 1v2c-5.6.3-5.6.3-9-2v-2l-5-1c-.6-3.4-.6-3.4-1-7 6.5-6.5 17.5-5.3 26-5" class="skin-mid"/><path d="M55 145h7c.7 3.2 1 5.7 1 9l3 1-1-1.8c-1-2.2-1-2.2-1-5.2h3v4h2v-4h16c1 1 1 1 1 3l-.2 4.9c.2 2.1.2 2.1 2.2 4.1H77.9c-5.7.1-5.7.1-7.9-1l-4.6-.6-2.5-.2-1.9-.2-1-5h-3v4h-2z" class="background-dark"/><path d="M68 284.7a24 24 0 0 1 14 4.3v2h2l-1-3 2-2 5 1-6 11h-2v2H65v-7l-5-2c2.4-6.2 2.4-6.2 8-6.3" class="skin-mid"/><path d="M154 175h1l.4 2.3c.6 2.7.6 2.7 2.6 5.7v4l3 1 1 5 5 1v2l7-1 3 11 8-2v2h2v-2h3c-.1 1.8-.1 1.8-1 4a39 39 0 0 1-24 5v-1h9v-2l-3-1v-4h-2l-.3-2-.7-2-3-1v-3l-3.4.6-3.6.4c-1-1-1-1-1-3.6V192h-2c-1.2-3.6-1.1-6.4-1-10.2z" class="skin-shadow"/><path d="M170.7 40.6h3.7c9 .2 9 .2 12.6 1.4v2l2 .3 2 .7c1.2 3.7 1.2 7.1 1.2 11v2.2c0 3.8 0 5.6-2.2 8.8l4 1 1-2 4 2v4c-2.5 1.3-4.3 1.1-7.1 1H187v-2h-5l2-7h5v-6.8l.1-3.8C189 50 189 50 188 47l-2.2-.4L179 45v-2l-23 1v3c-3 2-3 2-6 2l-.9 1.8C148 53 148 53 146 56h-3l-1 3-1-3 2.8-2.2q2.8-2.4 5.2-5.3c6.6-8.2 11.4-8.2 21.7-7.9M140 61c.9 3 1 5.5 1 8.6 0 2.9 0 4.5 1 7.4l3-1 1-2v2l10-1a30 30 0 0 1-7.2 3.6l-2.2.8-1.6.6c.3 3.4.3 3.4 1 7 2 1.4 2 1.4 4 2l-7 2a18 18 0 0 0 .5 11.2c1.6 5.6 1.6 5.6.5 7.8l3-1v10l-2 1v-4l-2-1v-5h-2c-1.6-2.9-2.2-5-2.2-8.3V66c.2-1.9.2-1.9 1.2-4.9m8 53 3 1c.7 2 .7 2 1 4l4 1-1 7-3-1v-2h-2q-2.2-3.7-3-8z" class="skin-mid"/><path d="m140 59 1 2-2 4c-.3 2-.3 2-.3 4.2v2.5l-.1 2.7V77l-.6 29c-2-2-2-2-2.8-4.9-1.4-3.6-3-5-6.2-7.1l1-1-2-1v-3h2q2.1-3.7 3-8l4-1v-2h-2c-1.1-4.7-1.1-4.7 0-7l-6 1-1 2-3-2 1-7h2v-2c3.5-1.2 5.5-.7 9 0l1-3z" class="hair-brown"/><path d="M196 47h2v3l1.8.8A13 13 0 0 1 205 56v2h2v4h2l1 5-5 1 1 10h-4v2l-9 1v3h-2v-2l-1.5 1c-3.5 1.4-6.7 1.6-10.5 2v-8a87 87 0 0 1 25-2l-1.4-7.6-.4-2.2A62 62 0 0 0 199 53l-2-1z" class="skin-shadow"/><path d="M11 108h4v10h3v-10h4l1 12h-2v2h4v2H13v17h10l1 2H10l-1 2v-34l2 3z" class="background-dark"/><path d="M173 77h3v12h-1v7l3 1-1 4-11 1-1-4 4-1-1-6-3.4 1a35 35 0 0 1-17.6 0l-3 11a16 16 0 0 1-3-8h2v-4c3-2 3-2 5.8-1.7q5.1 1.1 10.2 2.7v-2l7-1 1-6h2v-4h4zm-10 23 2 1Z" class="skin-mid"/><path d="M300 266v34h-12c1-4 1-4 3-5.9 2.6-2.7 2.8-4.7 3.3-8.4l.4-3.2.3-2.5h-1v-9l-14 3 1-2 6-1v-2l5.4-1.5 3-.8c2.6-.7 2.6-.7 4.6-.7" class="skin-shadow"/><path d="m126 162 .7 3a60 60 0 0 0 7.3 19q1.2 3.4 2 7l-5 2v-2h2v-3h-3v-4l-2-1v-2l-1-3-.6-4.7-.2-2.4-.2-1.9-5 2-1-2-1.6 1.3a79 79 0 0 1-7.7 4.7c-1.7 1-1.7 1-4 2.7-1.7 1.3-1.7 1.3-4.7 2.3l-1-3h-2v2l-5 1-1 3-2.7.3c-3.4.7-5.5 1.6-8.3 3.7-1.3 2.2-1.3 2.2-2 4l-4-1c4.5-4.4 8.7-7.6 14.6-10q5.6-2.5 11-5.7 3-1.7 6.4-2.3v-2c4.8-3.8 11.8-8 18-8" class="hair-brown"/><path d="m195.8 88.4 2 .2 5.2.4a185 185 0 0 1-4 22l-2-1v-2h-2c-5-4.3-6.9-8.6-8-15h-4l1-4c3.9-1.4 7.7-.9 11.8-.6M165 103l4 1-1 2h7l1 4 1.7-.5q3.5-.7 7-.6h2.5l1.8.1-1 3c-2 .8-2 .8-4.6 1.4a52 52 0 0 0-11.5 4.7c-1.9.9-1.9.9-5.8 1.8-3.1 1.1-3.1 1.1-4.5 3.7l-.6 2.4 3 3-2 3c-3-1-3-1-4.1-3l-.9-2-1-2c3.1-6.3 3.1-6.3 6.2-8.6 1.8-1.4 1.8-1.4 2.5-3.8q0-1.3.3-2.6l.6-2.1c.4-1.9.4-1.9-.6-4.9" class="skin-mid"/><path d="m43 130 1 4h4v6h4v-6h6l1 9h-5l-1 7-5.7-1.5q-5.1-1-10.3-1.5l1-4-4-1 2.8-1c4.4-2.8 5-6 6.2-11M149 22l3 1 4.2-.4 3.8-.6v2h-4v4l7-3 2 2c-.4 2.1-.4 2.1-1 4l-1-1-7 2v-2h-2v-2l-3 1v-2l-7 1v2l3 1.1c3 1.9 3 1.9 3.9 5l.1 2.9h-2l-1 4-1-3-2-1v-4l-3-1 1 9c-3.3.8-4.7 1.1-8 0l-1 3-1-2 1-2h-2c.2-1.9.2-1.9 1-4 2.6-1.2 2.6-1.2 5-2v3h3a62 62 0 0 0-4-10l1.9-1 2.4-1.4 2.4-1.3z" class="background-dark"/><path d="M32.3 123.7h5.4c2.3.3 2.3.3 4.3 2.3.3 2.5.3 2.5.3 5.4v3C42 137 42 137 40 140c-2.3.4-2.3.4-5 .3h-2.7C30 140 30 140 28 138c-.3-2.7-.3-2.7-.2-6v-3.2c.3-3.5 1-4.7 4.5-5M13 124c8.4-.2 8.4-.2 11 0l2 2-1 6 1 1v6c-3.9 2-8.8 1-13 1z" class="text-white"/><path d="m174 20 4.4.4 2.5.2 2.1.4 1 2 2.3-1c2.7-1 2.7-1 5.7 0l-2 1.7c-2 2.3-2 2.3-2.2 5l.2 2.3-2 1 2 7 2 1v2h4l1 3-5.4-1.4-3.1-.7C184 42 184 42 183 40l-3-1 1-1.8c1.5-3.2 1.1-5 0-8.2-2-.7-2-.7-4-1v-2h-7l1.4-1.3C173 23 173 23 174 20m20 20 3.9-.2h2.2l1.9.2 2 3h-9zM91 137h7v4h3v2h-3l1 5 1-2h10.3q5.4.2 10.6-.6l3.1-.4c2 2 2 2 2.3 4.3v5.3c-.3 2.4-.3 2.4-2.3 5.4-2 .3-2 .3-4.1.2l-3.9-.2v-1l8-1v-11l-9 3-1-1-6-.6-3.4-.2-2.6-.2-2 6h-5c-.1-6.7-.1-6.7 1-9l-3 1-1 13h14v1H91c-1-1-1-1-1.1-3.1 0-8.7 0-8.7 1.1-12.9l5-1v-3l-5-2zm-32 3a102 102 0 0 1 11 1l-6 3v2l23-1c1.9 4.7 2.3 7 2 12l-1 2-4-1h2l-1-9-16-1v4h-2v-4h-3l2 7-4-1v-8l-7-1v12h2v-4h3l1 4-7 1c-1-1-1-1-1.1-3.7v-6.5c.1-2.8.1-2.8 1.1-4.8l4-2z" class="background-dark"/><path d="m136 192 2 1v2h2l3.2 4.9c3.3 5 3.3 5 7.4 6.5l3.4.6c5.6 2.3 5.6 2.3 7.4 5.2l.6 1.8 3-1h9v1a57 57 0 0 1-23 0l-.5-2.4c-1.5-2.6-1.5-2.6-3.4-3.4q-3-.7-6.1-1.2v-3h-3c-2.3-2-2.3-2-4-5 .8-3.8.8-3.8 2-7" class="hair-brown"/><path d="M156 135v2h3l2 3h2v2h3v2l8 1v1l-8-1v2l-6-1-1 2 2.4.3c2.6.7 2.6.7 4.6 3.7v3c-3.7-.5-5.8-.9-9-3l-.8-2.1a35 35 0 0 0-6-9.1C149 139 149 139 149 137c2.6-1.5 3.9-2 7-2" class="background-dark"/><path d="M203 90h1v5l.1 2.7c-.1 2.3-.1 2.3-1.1 3.3l-.5 10.7c-.3 7-.3 7-2.5 10.3h-2l-1 3-1-2-1.4 2-1.6 2h-2v-2l-3-1v-2h-2v-2h2l1-3v2l3-1 1-3 4 1-1-8 2 2 .3-2.3A71 71 0 0 1 203 90" class="skin-shadow"/><path d="M273 279c-1.6 18.1-1.6 18.1-3 21h-7l-.2-8.8-.2-2.5c0-6.2 0-6.2 2.2-8.8a16 16 0 0 1 8.2-.9" class="skin-mid"/><path d="M59 279c10.6-.2 10.6-.2 15 1-2.4 1.9-4 3-7 4l-1-3-6 10 5 1 1 1-1 7h-8l-.1-7.1v-2c-.1-4.4.5-7.9 2.1-11.9" class="hair-brown"/><path d="M204 86h3c3.2 4 3.3 7 3 12l-2 .8c-2 1.2-2 1.2-3 4.2l-.8 7-.3 2.7-.2 2.7-.7 6.6h-2v3h-3l-1 7h-3v7h-6l-1 5h-4v2h-8l2-2 2 1 1-2h4l1-2c1.5-2.6 2.8-4.8 5-7h3v-3h2l.6-2 .8-2.4.7-2.5c.9-2.1.9-2.1 2.9-3.1 1.6-4.5 2-9.4 2.4-14.1a20 20 0 0 1 2.3-8.5c1.8-4.6.8-7.8-.7-12.4" class="skin-shadow"/><path d="M136 45h7c1 1 1 1 1.3 4.4-.3 3.6-.3 3.6-1.7 5.4L141 56l-2 3q-4.5.9-9 1v-9h3l-3-3 1-2 4 1zm27-13h4v2l4-1v5l9-1v2l4 1v1l-29 1-2 4c0-3.4.9-5.8 2-9h3l1-3h4zm127 160 1 2-.9 1.7c-1.1 2.3-1.1 2.3-1.5 5.9-.6 3.4-.6 3.4-2 5.3-1.6 1.1-1.6 1.1-3.6 1.1l-.7 6c-.3 2-.3 2-1.3 4l-3 1-2 5-2 2-3 7c-1.6-3.2 0-5.8 1-9.2 4-11.5 10.2-22.4 18-31.8" class="background-dark"/><path d="m220 179 2 1c-8.5 13.3-8.5 13.3-12 16-3.1-.2-3.1-.2-6-1l-1.9 1.4c-3.3 2.5-6.1 1.8-10.1 1.6v-2l1.7-.2c3.2-1.1 5-3.4 7.3-5.8l3-1c1.2-2 1.2-2 2-4 3 1 3 1 5 4h2v-3h2v-2l3-2v-2z" class="hair-brown"/><path d="m287 193 1 3c-1.3 2.3-1.3 2.3-3.2 4.9a67 67 0 0 0-9.7 17.8 15 15 0 0 1-4.1 5.3c-2.4 3.8-2.4 7.3-2.6 11.7-.5 2.7-1.3 3.6-3.4 5.3v-6l-3 6a12 12 0 0 1 0-9c2.6-1.3 2.6-1.3 5-2l.3-3.6c.5-4 1.7-7 3.7-10.4h2l.4-1.9c.6-2.1.6-2.1 1.6-4.1h2l.3-1.6q1.5-4.3 4.1-8l2-3c1.6-2.4 1.6-2.4 3.6-4.4" class="background-dark"/><path d="m276 196 1 2c-1 1.8-1 1.8-2.6 4.1a69 69 0 0 0-7.3 18.2q-1.2 4.2-2.8 8.2A77 77 0 0 0 260 251c-3.8-5.8-2-13.5-.7-20q0-1 .4-2c1-5.5 2.7-10.1 5.3-15l1.2-2.5c6.9-14 6.9-14 9.8-15.5m-89-98c3.3 1.6 3.7 4.7 5 8v3l-3.7-.1c-3.6 0-6 .7-9.3 2.1-2.8-.4-2.8-.4-5-1l1-3-7-1 1-3 3.8.2c4 0 4 0 5.8-1.8l1.4-1.4c3.2.3 3.2.3 6 1z" class="background-dark"/><path d="M92 124h5l3.2 8.8c1.8 5 1.8 5 1.8 7.2l-4-1v-2l-7 1-1 2h-3l1.4-5.7.7-3.3q1-3.7 2.9-7" class="text-white"/><path d="M39 149h8v2l3 1v6H32v-7c4.8-1.1 4.8-1.1 7 0z" class="background-dark"/><path d="m175 192 1 2h4v2l12-1v3c5.2-.4 7.9-.7 12-4 2.8-.2 2.8-.2 5 0l-1 4-3.2.4-8.8 1.6v2h-5v-3h-3v2c-6.1 2-6.1 2-9.3 2-1.7-1-1.7-1-3-3.8-.7-3.2-.7-3.2-.7-7.2" class="skin-shadow"/><path d="m195 45 12 3v2l5-1c2.3 6 1.8 10 0 16h-3v-3h-2v-4h-2l-2.5-3.4c-2.3-3.5-2.3-3.5-4.5-4.6v-3l-3-1z" class="background-dark"/><path d="M129 95c3 1 4.8 1.8 7 4 .6 2 .6 2 1 4.2l.6 2.6.5 2.6.6 2.7c1.3 6.5 1.3 6.5 1.3 9.9-1.9-.2-1.9-.2-4-1-1.2-1.7-1.2-1.7-2-4l-1-2.5-1-2.5-1-2.4a31 31 0 0 1-2-13.6" class="skin-mid"/><path d="M158.3 74.8h5.4A8 8 0 0 1 168 76v6h-2l-1 3c-1.7.6-1.7.6-4 1l-2.7.6-2.3.4-1-4-1.9 1.5C151 86 151 86 149 86v-3l9-2v-2l-4-2c2-2 2-2 4.3-2.2" class="skin-shadow"/><path d="M55 145h7c.7 3.2 1 5.7 1 9l3 1-1-1.8c-1-2.2-1-2.2-1-5.2h3v4h2v-4h2c-.6 6.3-.6 6.3-2.2 9-2.6 1.5-4.8 1.2-7.8 1l-1-5h-3v4h-2z" class="text-red"/><path d="m86 123 5 2-.9 4.4-.5 2.4C89 134 89 134 87 136v-2h-4v3h-7v-10h7v2h3l-.6-2.4-.4-2.6zM194 22h6l-2 3 3 1v-2l4 1v2h-2v2c-4 2-6.6 2-11 1l-3 8h-6l4-1-2-6h3l-1-6 7-1z" class="background-dark"/><path d="m175 196 2 1v5l1.9-.5c3-.7 6-.5 9.1-.5v-2h3l2 2 3 1v-2c6.6-3 6.6-3 10-3-1.3 4-3.9 4.9-7.4 6.7l-1.9 1c-4.4 2.3-4.4 2.3-6.7 2.3v-3h-3v2l-3-1-7 1c-2-3.4-2.2-6-2-10" class="skin-shadow"/><path d="M106.3 123.9h5.5l2.2.1 1 5h-3v-3l-5 1-1 3 2 .2 2.4.2 2.5.3c2.1.3 2.1.3 3.1 1.3.2 3 .2 3 0 6-2 2-2 2-4.4 2.2H109l-2.8-.1-2.1-.1-1-5h3l1 2h5v-3l-4-.4c-3.9-.5-3.9-.5-5-1.6v-7c1-1 1-1 3.3-1.1" class="text-white"/><path fill="#7A0E0E" d="M93 145h3l-1 9h5v-5c2.4-.6 2.4-.6 5-1 2 2 2 2 2.3 5-.3 3-.3 3-2.3 5-3 .2-3 .2-6.6.1h-3.6L92 158v-6l-.1-3.3c.1-2.7.1-2.7 1.1-3.7"/><path d="m174 121-1 3-3 1-1 3h6v6l-4 1v-2l-8-1-.4-1.9c-.6-2.1-.6-2.1-2.6-4.1.6-2 .6-2 2-4q6-1.3 12-1" class="skin-mid"/><path d="M72 140h20v3h-3v2q-8.4 1.2-17 1h-8l-1-3c7.8-1.1 7.8-1.1 10 0z" class="background-dark"/><path d="M138 107c2 3 3 5.4 4.1 8.7l1.1 3 .8 2.3h2l1 5 4-1 .4 2 .6 2 2 1 1-2 3 1v5h-2v-2h-7l-1 2v-3h-3v-2h-2l-.7-3c-.3-.4-.3-.4-1.3-3-2.1-.9-2.1-.9-4-1l3-1-.4-1.8A39 39 0 0 1 138 107m49-65c3.4 1 6 2 9 4l.4 3 .6 3 2 .7c2 1.3 2 1.3 3 4.8l.8 4.3.3 2.2q1 5.4.9 11h-14v-1l10-1-1-15-5-2-.6-6.2-.4-1.8-2-1v-2l-4-1zm-37 107h2v2l2 1c1.9 3 2 4.2 2 8l2 1c-2 2.2-3 3-6 4l1 2c.5 5.4 0 10-2 15h-1v-28l-4 1 1-2h3z" class="skin-shadow"/><path d="M263 184a17 17 0 0 1 3 3v4h-2l-.4 2.3c-.6 2.7-.6 2.7-2.6 5.7l-1 6h-2l-.2 3.5q-.9 6.8-4.8 12.5l-2 1c-1.4-5.3-1.4-5.3.3-8.6l1.7-2.4 2-5 6-15h2zM208 67l2 1-1 1.5c-1.4 3.5-1.2 7-1.1 10.8v2.2l.1 5.5-1-2h-3v2h-4v-3l-7-1-1-4h10v-2h4l-1-10z" class="background-dark"/><path d="M181 123h3l-1 4 3 .8c3 1.2 3 1.2 4 3.2 0 2 0 2-1 4h-5v2c-3 1-3.9 1-7 0v2h-2v2h-3v-2h-2v2l-5-1v-3h10v-2h6l1-4 1 2 2-4h-6c0-4 0-4 2-6" class="skin-shadow"/><path d="M77 123.8h5c2.1.2 2.1.2 4.1 1.2v4h-3v-2h-7v10h7v-3h3v5c-1.7 1.7-3.7 1.2-6 1.2h-2.7C75 140 75 140 73 138c-.3-2.7-.3-2.7-.2-6v-3.2c.3-3.4.9-4.7 4.3-5" class="text-white"/><path d="m294 194 1 2-4 7.2q-6.6 11.5-12 23.8l-3.4 7.4-2.6 5.6h-1a20 20 0 0 1 3-13h2l1-9h3q0-1 .3-2c1-6 2-8.8 6.7-13z" class="background-dark"/><path d="M62.2 123.8h2.4l2.5.1 1.9.1 1 4-8-1v3l4 .4c3.9.5 3.9.5 5 1.6v7c-2.5 1.3-4.3 1.1-7.1 1H59l-1-5h3l1 2h5v-3l-3.4-.4C60 133 60 133 58 131c-.2-2.5-.2-2.5 0-5 2-2 2-2 4.2-2.2" class="text-white"/><path d="M263 197c1 3.2 1 4.8-.3 7.9-1.9 5-2.5 10-3.2 15.4q-1.3 8.5-3.5 16.7l-3-1c-.5-6.9.8-12.1 3-18.6q1.8-6.3 3.2-12.7c.9-3 2.2-5.2 3.8-7.7" class="background-dark"/><path d="m126 162 .7 3a60 60 0 0 0 7.3 19q1.2 3.4 2 7l-5 2v-2h2v-3h-3v-4l-2-1v-2l-1-3-.6-4.7-.2-2.4-.2-1.9-5 2-1-2h-3c.7-2.4.7-2.4 2-5 2.5-1.3 4.2-2 7-2m99-146h1l1 29c-3.1 0-4.4-.5-7-2v-3l-1.8-.2c-2.8-1-3.6-2.4-5.2-4.8l1-2 6 2c3.9-4 4.5-6.8 4.8-12.3l.1-3.8z" class="hair-brown"/><path d="m151 192 1 3 3 2v3l3 1-1 2c-2 .4-2 .4-4.6.6l-2.5.3-1.9.1v-2l-6-2c.8-5.5 3.5-8 9-8" class="skin-light"/><path d="m151 27 3 1v2h2q-.7 6.2-3 12l-2 1-2 3c-1-3-1-3.9 0-7h2c-.6-2.9-.6-2.9-2-6-3.6-1.4-3.6-1.4-7-2 2.3-5 3.7-5.3 9-4" class="background-dark"/><path d="m191 47 3 1v8l6 2v9h-2.4c-2.6 0-2.6 0-3.6 1h-5l1-1.5c1.5-3.7 1.2-7.3 1.1-11.2v-2.5zm-23 59h7l1 4 1.7-.5q3.5-.7 7-.6h2.5l1.8.1-1 3c-2 .8-2 .8-4.6 1.4a45 45 0 0 0-11.6 5c-2.3.8-3.5.4-5.8-.4l1.9-.8 2.5-1.1 2.4-1.1 4.2-2c-3.2 0-6 0-9 1l-1-4 3-1v-2z" class="skin-shadow"/><path d="M149 162h1l.1 3.8.3 7.4c.2 4.7.4 7.3 3.6 10.8q.8 4 1 8h2l1 6c-3-.6-4.4-1.3-7-3v-3h-2l-.9-22.6-.1-3.6c0-2.8 0-2.8 1-3.8" class="skin-mid"/><path d="M164 113v3l-1.9.8c-3.1 1.8-3.7 4-4.8 7.3l-.3 1.9 2 2v3l5 1v2h3l1 3-4 1-1-5-5 1-1-5-2.4.6-2.6.4-1-1-2 2-1-6c3.8-1.1 3.8-1.1 6 0l2-8h2v-2z" class="skin-shadow"/><path d="M116 127h5l1 15-7 1-2 1-6-2v-1l3.4-1c3.6-1 3.6-1 4.6-2v-6c0-2 0-2 1-5m174 102 1 3c-.9 1.7-.9 1.7-2.3 3.5l-1.6 2q-.7 1.2-1.7 2.2l-1.6 2L267 263l-1-2q6.8-10.7 14.6-20.5 2.7-3.5 5-7.3c1.4-2.2 1.4-2.2 4.4-4.2" class="background-dark"/><path d="M165 197h3v2h3v2h2v3h3v4l2 1v-2l7 1c-1.4 2.9-3.6 3.4-6.5 4.4-4.5 1-9 .8-13.5.6v-1h9v-2l-3-1v-4h-2l-.3-2-.7-2-3-1z" class="skin-shadow"/><path d="m205 199 2 1c0 4 0 4-1.6 5.7-8 5-15.3 5.3-24.4 5.3 4-2.7 8.5-4.4 13-6.3a65 65 0 0 0 8.9-4.5z" class="background-dark"/><path d="M170.9 40.7h3.8l9.3.3v1l-9.5 1-2.7.3q-7.9.8-15.8.7v3c-3 2-3 2-6 2l-.9 1.8C148 53 148 53 146 56h-3l-1 3-1-3 2.8-2.2q2.8-2.4 5.2-5.3c6.6-8.3 11.5-8.2 21.9-7.8" class="skin-shadow"/><path d="M13 124h11l-1 2h-7v5h7v1h-7v6l9-1-1 3H13z" class="text-white"/><path d="m44 140 1 3h9l-1 7-5.7-1.5q-5.1-1-10.3-1.5c1.5-3.8 3.4-5.1 7-7" class="background-dark"/><path d="M43 124c1.9.2 1.9.2 4 1 1.3 2.6 1.3 2.6 2 5h2l2-6 4 1-2 3a25 25 0 0 0-3 12h-4l-.2-3.6A20 20 0 0 0 43 126z" class="text-white"/><path d="M277 219h1l-1 8h-2l-.4 2c-1.4 6.6-2.4 10.5-7.6 15l-2 2c.9-5.7.9-5.7 2-8l.4-4.8c.3-4.1 1-6.9 3.6-10.2 1 3 1 3 1 7l.9-2.4c1.1-2.6 1.1-2.6 3.1-4.6z" class="background-dark"/><path d="m162 196 3 1v3l4 1v4h2l.4 2 .6 2 2 1v2h-9v2h-3l-2-4 8 1c-.2-2.9-.2-2.9-1-6-2-1.4-2-1.4-4-2v-3l-5-1c1.8-1.6 1.8-1.6 4-3" class="skin-mid"/><path d="M154 175h1l.4 2.3c.6 2.7.6 2.7 2.6 5.7a76 76 0 0 1 2 10l5 1v3l-7 1c-1-1-1-1-1-3.6V192h-2c-1.2-3.6-1.1-6.4-1-10.2z" class="skin-mid"/><path d="m64 203 1 3 2 2-.9 2.1L63 219l-1 3 1 3c-1.7 3.3-3.8 6-6 9a228 228 0 0 1 4-22.2l.6-2.3c1.3-5.4 1.3-5.4 2.4-6.5" class="hair-brown"/><path d="M22 106h3v5h5v-5h3v12h-3v-5h-5v5h-3z" class="text-white"/><path d="M265 208h1c.2 4.6-.4 7.5-2.3 11.7A82 82 0 0 0 257 244h-1a68 68 0 0 1 9-36M57 124l3 1-1 1v5c2 2 5.3 1.7 8 2l1 4c-1 1-1 1-3.6 1H62l-1-3-9-1q2-5.3 5-10m151-36 3 1 .6 4.3.4 2.4c0 2.3 0 2.3-2 5.3q-.8 2.1-1.3 4.2l-.7 2.5-.6 2.5-.7 2.5-1.7 6.3h-2l.2-7.7v-2.2c.2-4.2.4-5.6 3.3-8.9L209 98c.4-3.8.2-6.4-1-10" class="background-dark"/><path d="M143 56h3l-.5 2.4-.6 3.3-.6 3.2c-.3 3 0 5.1.7 8.1v3l-4 2q-3.2-11.4 2-22" class="skin-light"/><path d="M37 103h9c.2 5 .2 8.5-2 13h-7v-3h6v-2h-6v-3h6v-3h-6zm-6 24h8v4.4l.1 2.5C39 136 39 136 38 137h-7z" class="background-dark"/><path d="M173 77h3v12h-1v7l3 1-1 3h-5V86.6l-.1-2.8v-2.6c.1-2.2.1-2.2 1.1-4.2" class="skin-light"/><path d="M117 121h15v9h-5v7h-2v-10h4v-4h-13z" class="background-dark"/><path d="M203 90h1v5l.1 2.7c-.1 2.3-.1 2.3-1.1 3.3l-.6 8.6v2.4l-.4 6h-2l-1 2v-8l-3-1 1-3 1 2 .3-2.3A71 71 0 0 1 203 90m-44-12-1 3c-2 .7-2 .7-4.6 1.2l-2.5.5-1.9.3v3l1.9-1.5C153 83 153 83 155 83l-1 5-7-1v-9c4.8-2 7.2-2 12 0" class="skin-shadow"/><path d="m130 62 3 2h4c-.5 3.8-2 5.6-5 8h-3l-1 2-3-2 1-7h2v-2z" class="hair-brown"/><path d="M189.8 76h5.2c-2.8 2.8-5.2 2.6-9 3v2h2l-1 3-8 1v-8c3.7-.9 7-1.1 10.8-1" class="background-dark"/><path d="M172 162c4.8.9 4.8.9 7 2l.9 7.8.2 2.2c.3 3.7.3 5.5-2 8.5L176 184v-3h-2l-1 8h-1l-1-9 2.4-1.2c2.6-1.8 2.6-1.8 3.5-3.7.1-2.1.1-2.1-.9-4.6-1.1-2.8-1-3.8 0-6.5zm-24-23c2 0 2 0 4 1.8 2.8 4.5 3.3 9 4 14.2l3 1v3l-3 1-1.4-3.8-.8-2.2-1.8-5h-2l-1 4z" class="skin-shadow"/><path d="M11 124h1l1 16 7.7.6 2.3.4 1 2H10l-1 2-.1-8.2v-2.4c-.1-7.1-.1-7.1 2.1-10.4" class="background-dark"/><path d="M117 124h12v3h-5v13h-3v-13h-4z" class="text-white"/><path d="M295 285c3.4 5.2 3 9 2 15h-9c1-4 1-4 3-5.8 2.6-2.8 3.1-5.5 4-9.2" class="skin-shadow"/><path d="m126 71 2 2 1.8-1c2.2-1 2.2-1 5.2-1v7h2v2h-3l-1-2h-2v2h-5v-5h-2v-3zm-39 74a22 22 0 0 1 2 12l-1 2-4-1h2l-1-9-17-1v-2l6.1-.5 3.5-.3q4.6-.2 9.4-.2m183 94h2l2 4 2-1c-1 3.4-1.6 4.8-4.6 6.8L269 250l1-7h-2l-.2 2.5A43 43 0 0 1 263 257h-1l.4-4.3.2-2.4c.8-4.5 4.5-8 7.4-11.3m3-30c1 3 1 3.9 0 7h-2l-.4 1.7-2 7.5-.8 2.7c-.8 2.1-.8 2.1-2.8 3.1l-2 3c.4-6 1.4-10.5 4-16q1.4-2.9 2-6h2v-2z" class="background-dark"/><path d="m166 155 10 2v2q1.2 0 2.3.3c2.7.7 2.7.7 4.6 2.3 1.7 3.7.8 6.4.1 10.4l4-1-3 4-4-1 1-11-4-1-5-3c-2.3-.7-2.3-.7-4-1v-2z" class="hair-brown"/><path d="M34 106h9v2h-6v3h6v2h-6v3h6v2h-9z" class="text-white"/><path d="M146 109c1.2 3.5 1 6.4 1 10l-2 1v-4l-2-1c0-3 0-3 1.5-4.7zm2 5 3 1c.7 2 .7 2 1 4l4 1-1 7-3-1v-2h-2q-2.2-3.7-3-8z" class="skin-mid"/><path d="M264 221c1.6 4 .3 7-.9 11a79 79 0 0 0-3.1 19c-4-5.9-2-13.9-.7-20.4l.4-2.1 1.3-5.5z" class="background-dark"/><path d="m209.2 189.9 3.8.1c-.3 1.9-.3 1.9-1 4l-3 2-2.4-.6-2.6-.4-1.8 1.4c-3.4 2.4-6.2 1.8-10.2 1.6v-2l2-.8 2.8-1 2.7-1.1c7.6-3.3 7.6-3.3 9.7-3.2" class="skin-shadow"/><path d="m223 101 2 1-1.3 7.5c-.8 2.7-1.7 3.6-3.7 5.5-1.2 3.2-1.2 3.2-2 6h-3q0-4.5 1-9c2.4-2.1 2.4-2.1 5-4 1.3-3.7 1.3-3.7 2-7" class="background-dark"/><path d="m93 286 6 2c.8 4.3 1.2 7.7 0 12h-5z" class="skin-shadow"/><path d="m86 134 2 4-1 2h3v-2h4v2h2v3l-5 1-1 10a28 28 0 0 1-3-9h2v-2h3l-1-2H76v-1l9-1z" class="background-dark"/><path d="m175 192 1 2h4v2l7 1 1 4c-6.1 2-6.1 2-9.3 2-1.7-1-1.7-1-3-3.8-.7-3.2-.7-3.2-.7-7.2m20-109 6 2-1 3h5c2.4 6.1 2.4 6.1.7 10.1l-.9 1.7c-1.8 4.8-1.6 10.2-1.8 15.2l-2-1 .4-6.4.3-3.7c.3-2.9.3-2.9 1.3-3.9V90l-8-1 2-3-2-1z" class="skin-shadow"/><path d="M196 127h2l-1 5h-3v7h-6l-1 5h-4v2h-8l2-2 2 1 1-2h4l1-2c1.5-2.6 2.8-4.8 5-7h3v-3h2z" class="hair-brown"/><path d="M52 134h6l1 9H49l-1-3h4z" class="background-dark"/><path d="m132 106 6 2 2 13c-4-1-4-1-5.3-2.9-3.2-7.9-3.2-7.9-2.7-12.1" class="skin-light"/><path d="M196 47h2v3l1.8.8A13 13 0 0 1 205 56v2h2l1 6h-2l-1 2-1-2-2 3-.3-2.8-.5-3.6-.5-3.6c-.7-3-.7-3-3.7-5-.7-2.6-.7-2.6-1-5M87 290l3 1 1 5h3v4H82v-2h2z" class="skin-shadow"/><path d="M156 135v2h3l2 3h2v2h2l-1 2h-7l-1-3h-2l-1-3-2 4-2-5c2.6-1.5 3.9-2 7-2" class="hair-brown"/><path d="m47 121 1 2 1.7-1a14 14 0 0 1 7-1.1h2.5l1.8.1-2 1v2h-6l-2 6h-2l-3-5-3-2z" class="background-dark"/><path d="m85 286 5 1-6 11h-2v2h-2l-1-4 3-2-2-6 2 1v2h2l-1-3z" class="skin-mid"/><path d="m136 192 2 1v2h2l-.2 2.3c.3 3.5 1.6 4.3 4.2 6.7.8 2.3.8 2.3 1 4l-4-1v-3h-3c-2.3-2-2.3-2-4-5 .8-3.8.8-3.8 2-7" class="hair-brown"/><path d="M94 118a78 78 0 0 1 7 6l3-1-1 9h-4l-2-9h-6c0-2 0-2 1.5-3.6zm100-96h6l-2 3 3 1v-2l4 1v2h-2v2c-3.8 1.8-6 2.2-10 1 0-3 0-5 1-8" class="background-dark"/><path d="M37.6 123.7c2.4.3 2.4.3 4.4 2.3.3 2.5.3 2.5.3 5.5v3C42 137 42 137 40 139q-4-.2-8-1v-1l6-1 1-9h-7c1.8-2.3 2.6-3 5.6-3.3" class="text-white"/><path d="m22 118 3 1-1 2h6l-2 16h-2c-1.7-4.2-2-6.6-1-11l-1-2 1-2h-4z" class="background-dark"/><path d="M158.3 74.8h5.4A8 8 0 0 1 168 76v6l-3.3-.5C161 81 161 81 158 81v-2l-4-2c2-2 2-2 4.3-2.2M155 37h2l1 2 1.6-.3A80 80 0 0 1 184 40v1l-29 1-2 4c0-3.4.9-5.8 2-9" class="skin-shadow"/><path d="m207 17 2 1q.5 5 .7 10l.3 3 2 1-.1 2.4c.1 2.6.1 2.6 2.1 4.6q-5-.1-10-1v-3l4-2-1-1.6c-1.3-3.1-1-5.3-.6-8.6l.3-3.3z" class="background-dark"/><path d="M61.1 278.9c8.7 0 8.7 0 12.9 1.1-2.4 1.9-4 3-7 4l-1-3-3 5-4-1-1-5c1-1 1-1 3.1-1.1" class="hair-brown"/><path d="M280 210c1.3 3.9.4 5-1.3 8.6l-1.4 2.9C276 224 276 224 274 226l-3 7c-1.6-3.2 0-6 1-9.3 1.8-5 4.2-9.9 8-13.7" class="background-dark"/><path d="M143 129h2v2c3.4 1.1 5.6.7 9 0l2 1v2h3l1 3h-11l-1 2v-4h-2v-2h-2z" class="skin-shadow"/><path d="M216 41c5.8 1.9 5.8 1.9 8 3l1 6-2-1-1 4v-3l-6-1z" class="background-dark"/><path d="M206 197c-1 3-1 3-4.2 4.8l-3.9 1.9-2 1-4.9 2.3 1-4h-2l-2-4h3l2 2 3 1v-2c6.6-3 6.6-3 10-3m-68-90c2 3 3 5.4 4.1 8.7l1.1 3 .8 2.3h2v6l-5-2v-2l-4-1 3-1-.4-1.8A39 39 0 0 1 138 107" class="skin-shadow"/><path d="m217 54 2 1v3h2l1-2c1.6 2.5 2 3.6 1.5 6.6l-.9 2.6-.9 2.8-.7 2c-2.8-2.8-2.6-5.2-3-9v-1h-2c-.6-1.9-.6-1.9-1-4z" class="background-dark"/><path d="M66 285h3v2l2 1h-2l-2 9-2-4c-2.6-1.2-2.6-1.2-5-2 2.3-6 2.3-6 6-6" class="skin-mid"/><path d="M149.1 89.3c2.9.7 2.9.7 3.9 1.7l7 1v1h-4.2l-2.4.1C151 93 151 93 147 92l-3 11a16 16 0 0 1-3-8h2v-4c3-2 3-2 6.1-1.7" class="skin-light"/><path d="M123 147v10l-6 1c-1.3-4-.4-6.1 1-10 3-1 3-1 5-1" class="text-red"/><path d="m184 135 3 1-3 6-1.9-.6c-2.1-.4-2.1-.4-4.1.6h-6l-1 2v-2l-2-1 1-2h2v2h3v-2h2v-2h7z" class="skin-shadow"/><path d="M138 36v3l4-1 1 5c-3.3.8-4.7 1.1-8 0l-1 3-1-2 1-2h-2c.3-1.9.3-1.9 1-4 3-2 3-2 5-2" class="background-dark"/><path d="M106.3 123.9h5.5l2.2.1 1 5h-3v-3l-5 1-1 3h5v1a36 36 0 0 1-8 1v-7c1-1 1-1 3.3-1.1" class="text-white"/><path d="M160 22v2h-4v4l7-3 2 2c-.4 2.1-.4 2.1-1 4l-1-1-7 2v-2h-2v-2l-3 1v-2h4v-2l-3-1v-1c5.8-1 5.8-1 8-1m0 123 7 1v2l7-1 1 4-10 1-1-3-5-1z" class="background-dark"/><path d="m67 131 4 1v7c-2.5 1.3-4.3 1.1-7.1 1H59l-1-5h3l1 2h5z" class="text-white"/><path d="M174 20h5l-1 4 6 2v2l2 1c-3.8 1.3-5.4.4-9-1v-2h-7l1.4-1.3C173 23 173 23 174 20" class="background-dark"/><path d="M92 124h5l-2 2c.2 2.2.2 2.2.9 4.6l.6 2.5.5 1.9h-5v-3l-3 1z" class="text-white"/><path d="m183 88 2 1-2 4h4c.6 2.3.6 2.3 1 5l-2 3-5-1c-.2-4.5 0-7.9 2-12m4-46c3.4 1 6 2 9 4 1 1.8 1 1.8 1.7 4l.7 2c.6 2 .6 2 .6 5l-5-1-.6-6.2-.4-1.8-2-1v-2l-4-1z" class="skin-shadow"/><path d="m131 40 1 2h2v3l1-2 7 1v1h-6l-1 3-4-1v3l-4-2v-5h4zm20-13 3 1-1 4c-4 1.6-7 .3-11-1 2.3-5 3.7-5.3 9-4m136 166 1 3c-1.2 2.1-1.2 2.1-3 4.6q-4.8 6.4-8.7 13.6L275 216h-2q.6-3.1 2-6h2l.3-1.6q1.5-4.3 4.1-8l2-3c1.6-2.4 1.6-2.4 3.6-4.4" class="background-dark"/><path d="M183 119v3l-9 1v-2l-10 1a19 19 0 0 1 19-3" class="skin-mid"/><path d="M189 82h2v2l6 1v3q-5.9 1.4-12 1l-3-2 1.8-.8c2.2-1.2 2.2-1.2 3.8-2.8zm8-15 4 1v5c-2 2-6 1.5-8.7 1.6l-2.2.2c-3.9.2-7.3.2-11.1-.8 1.2-1.5 1.2-1.5 3-3 2.7-.2 2.7-.2 5 0v2l12-1v-4z" class="skin-shadow"/><path d="m213 267 8 5-1 5-4 1-1-3c-2-1.2-2-1.2-4-2l3-1-3-1c1-3 1-3 2-4m-29-54-1 3v-2l-2.3 1.4c-4.6 2.4-9.7 2.3-14.7 2.6l1-3a39 39 0 0 1 17-2" class="background-dark"/><path d="m194 66 5 2v4c-2.5 1.3-4.3 1.1-7.1 1H187l2-4 4-1z" class="skin-mid"/><path d="m163 21 4 1-1 2h3v2h-2l-1 3-3-3-1.8 1c-2.2 1-2.2 1-5.2 1v-4l7-1zm136 222h1v12c-5.7 1.1-5.7 1.1-8 0v-2l1.8-1.7c2.5-2.6 3.7-5.1 5.2-8.3" class="background-dark"/><path d="m154 146 3 2v4l1.9.6 2.5.8 2.4.8c2.2.8 2.2.8 4.2 1.8v3h3v3h-2v-2h-2v-2l-1.9-.4-2.5-.5-2.4-.6c-2.2-.5-2.2-.5-4.2-1.5-.6-2-.6-2-1.1-4.6l-.5-2.5z" class="skin-shadow"/><path d="M18 108h4l1 12h-2v2h4v2l-8-1 1.6-1.7L20 119c-.8-2.4-.8-2.4-2-5z" class="background-dark"/><path d="M128 176c3.7 1.8 5.4 6.3 6.7 10l1.3 5-5 2v-2h2v-3h-3v-4l-2-1v-2l-1-3z" class="hair-brown"/><path d="M64 148h3v4h2v-4h2c-.6 6.3-.6 6.3-2.2 9-2.6 1.5-4.8 1.2-7.8 1l2-1v-2h3l-1-1.8c-1-2.2-1-2.2-1-5.2" class="text-red"/><path d="M173 42h14v2h2l1 5-2 1v-3l-2.2-.4L179 45v-2h-6z" class="skin-mid"/><path d="M257 222c1.2 3.5.8 6.1 0 9.8l-.5 3-.5 2.2-3-1v-4.3l-.1-2.4c.1-2.3.1-2.3 1.1-5.3z" class="background-dark"/><path d="m73 148 5 1v9l-6-1 1-5h3v-2l-4 1z" class="text-red"/><path d="M175 129h2l1 6h-3v2h-7l-1-3h-3v-2l4-1v2h3v2l4-1-1-3z" class="skin-mid"/><path d="M12 106h9v2h-3v10h-3v-10h-3z" class="text-white"/><path d="M22 103h9l-1 8h-5v-6h-3z" class="background-dark"/><path d="M165 197h3v2h3v2h2v3h3l-1 4-4-1v-2h-2l-.3-2-.7-2-3-1z" class="skin-shadow"/><path d="M263 282h1l.6 6.2.4 1.8 2 1v9h-4z" class="hair-brown"/><path d="M300 265c-2.5 2.5-4.1 2.6-7.6 3.1l-3 .5-2.4.4v2l-5 1 1-2h2v-2l-2-1h5v-2c4.3-1.2 7.7-.8 12 0M184 40h6v2h4l1 3-11-3zm10 0 3.9-.2h2.2l1.9.2 2 3h-9zm-13-13h1l2 9-4 1v-6h-2v3l-6-1c2.4-3.8 2.4-3.8 5-4.8 2-.2 2-.2 4 .8z" class="background-dark"/><path d="M89 286h4c1.6 3.2 1 6.4 1 10h-4c-2.1-6.6-2.1-6.6-1-10" class="skin-shadow"/><path fill="#967871" d="M270 279v2l-1.5 1.3c-1.5 1.7-1.5 1.7-1.7 4.4l.2 2.3 2 1-1 10h-1v-9l-3-1-.3-6.8.3-2.2c3-2 3-2 6-2"/><path d="M140 112h2l1 3 2 1 1 3 2-1 3 4-4 6h-1v-7l-3 1z" class="skin-shadow"/><path d="M25 113h5v6h2l-1 2h-7zm146-80v5l9-1v2l3 1q-9 .1-18-1l1-5c3-1 3-1 5-1" class="background-dark"/><path d="M300 266v14l-2 1v-12l-11 1c2.7-1.8 4-2.4 7-3.1l2.2-.5c1.8-.4 1.8-.4 3.8-.4" class="skin-shadow"/><path d="m296 270 1 8-3 2v-9l-14 3c1-2 1-2 3.5-3.1 4.3-1 8.1-1 12.5-.9" class="skin-shadow"/><path d="M291 269h7c.9 3 1 5.3.9 8.3l-.2 2.4-.1 2.6-.2 2.5-.4 6.2c-3.4-5-3-9-2.3-14.8.3-2.2.3-2.2.3-6.2h-5z" class="skin-shadow"/><path d="m174 121-1 3a68 68 0 0 1-13 3c.9-3.9.9-3.9 2-5q6-1.1 12-1" class="skin-mid"/><path d="M164 113v3l-1.9.8c-2.5 1.5-3 2.5-4.1 5.2l-1.1 2.8-.9 2.2h-1l1-10h2v-2z" class="skin-shadow"/><path d="M193 113v5l-4 1-1-2c-1.8-.4-1.8-.4-4-.6l-4-.4c3.8-4 8-3.3 13-3" class="background-dark"/><path d="M168 106h7l1 5h-3l-2 3-4-1 1-4h2v-2z" class="skin-shadow"/><path d="m96 177 2 1-2 .8c-2 1.2-2 1.2-3 4.2l-2.7.3c-3.4.7-5.5 1.6-8.3 3.7-1.3 2.2-1.3 2.2-2 4l-4-1a45 45 0 0 1 15-10.2c2-.8 2-.8 5-2.8" class="hair-brown"/><path d="M175 128c7.5-.4 7.5-.4 10 1.5l1 1.5c-4.6 4-4.6 4-8 4l-.4-3-.6-3z" class="skin-shadow"/><path d="M140 158v4l-3.4.9C133 164 133 164 131 166h-3v5h-1c-.3-2.7-.3-2.7 0-6 3.3-3.3 8.2-7 13-7" class="skin-mid"/><path d="m140 59 1 2-.9 1.7c-1.4 3-1.5 5.4-1.7 8.5l-.3 3.3-.1 2.5h-1l-.6-6.2-.4-1.8-2-1 2-1v-2l-4-1 5-1 1-3z" class="skin-shadow"/><path d="m149 22 6 3v2l-1.8-.1c-5.1-.2-7.9.2-12.2 3.1l-3-1c2.4-2.4 5-3.5 8-5z" class="hair-brown"/><path d="m80 282 7 1v2h6v1l-8 1-1 4h-2a14 14 0 0 1-2-9" class="skin-shadow"/><path d="M280 253c-1.5 4.2-4.3 5.7-8 8l-1 2h-2v2l-3 1c1.4-4.5 3.3-6.5 7-9.3l2.7-2.1c2.3-1.6 2.3-1.6 4.3-1.6" class="background-dark"/><path d="M80 148h5c1 1 1 1 1.1 3v5.1L86 158h-2v-8h-2v7h-2z" class="text-red"/><path d="M72 140h20v3c-12.3 1.4-12.3 1.4-18 0z" class="background-dark"/><path d="M72 127h1l.2 2.3.2 3 .3 3.1c.3 2.6.3 2.6 1.3 4.6l-2 1v2l-12-2v-1l10-1z" class="hair-brown"/><path d="M189 101c5.8 4.4 5.8 4.4 6.9 7.3l.1 1.7h-3v2h-5l1-3h-5v-1c5.8-.1 5.8-.1 8 1l-1.5-2.9C189 103 189 103 189 101" class="skin-shadow"/><path d="m163 104 4 2c-.2 1.9-.2 1.9-1 4-1.8 1-1.8 1-4 1.8-.4 0-.4 0-2.3.7l-1.7.5 2-6h2z" class="skin-light"/><path d="M166 75h4l-1 8h-2l-.4 2c-.6 2-.6 2-1.6 3h-5l2-5 1 2c3.3-2.8 4.5-4.7 5-9z" class="skin-shadow"/><path d="M277 219h1l-1 8h-2l-.4 2-2.6 10h-2c.6-6 1.6-11.6 6-16z" class="background-dark"/><path d="M168 158c5.3.5 8.6 2.3 13 5v9h-2v-8l-8-2v-3z" class="skin-shadow"/><path d="M93 145h3l-2 10h5v2h-7v-5.4l-.1-3.1c.1-2.5.1-2.5 1.1-3.5" class="text-red"/><path d="M64.4 125.8c2.6.2 2.6.2 5.6 2.2l1-2-1 5h-8l-1-4c1-1 1-1 3.4-1.2" class="hair-brown"/><path d="m165 111-1 3-6 1v2h-2l-1 3-3-1v-2h2l1-3c3.4-2.6 5.7-3.4 10-3" class="skin-mid"/><path d="M150.4 110.8c3.6.2 3.6.2 5.5 1.7l1.1 1.5c-1.3 1.5-1.3 1.5-3 3-3 0-3 0-4.7-1.5L148 114l-2 4v-6c1-1 1-1 4.4-1.2" class="skin-mid"/><path fill="#592B1B" d="M180 100v3l-2 2-1 6-3-2 1-2-7-1 1-3 3.8.2c4 0 4 0 6.2-1.7z"/><path d="M211 34c3.2 1.4 4 2 6 5l3 1v2l-4-1v5h-2l-.4-3.4C213 39 213 39 211 37z" class="background-dark"/><path d="M255 208h1a22 22 0 0 1-3 13l-2 1c-1-3.1-1.4-5.2 0-8.2q1.9-3 4-5.8m-57-5v3c-5 4.7-10.3 4.8-17 5 3.2-2.2 6.6-3.6 10.2-5.1l2-.9z" class="hair-brown"/><path d="M150 160h1v6l2 1a33 33 0 0 1-2 15h-1z" class="skin-mid"/><path d="m116.4 166.3 1.6.7-1 2 2 1-7 3-4-3c5.4-4 5.4-4 8.4-3.7" class="hair-brown"/><path d="m175 135 3 1h-2l-1 5h-3v-2h-2v2l-5-1v-3h10z" class="skin-shadow"/><path d="M124 127h1v10h2v6h-9l3-3h3z" class="background-dark"/><path d="M171 89h1v11h5v1l-11 1 1-4h3z" class="skin-light"/><path d="M194 89h9q-1 7.6-3 15c-2.3-3.5-2.4-4.9-2-9 1.5-2.9 1.5-2.9 3-5h-7z" class="skin-shadow"/><path d="M215 63h3c-1.6 6.8-1.6 6.8-4.6 8.7L211 73l-1-7h3zm50 145h1c.4 5.4-1 9-3 14h-3c.5-5.3 2.5-9.4 5-14m25-16 1 2c-.9 2.3-.9 2.3-2.2 5l-1.3 2.7a9 9 0 0 1-5.5 4.3 21 21 0 0 1 4-8.7l1.6-2.4c1.4-1.9 1.4-1.9 2.4-2.9" class="background-dark"/><path d="M108 148h6a59 59 0 0 1 1 7l-2 2v-7l-2 1-1 6h-2z" class="text-red"/><path d="m165 103 4 1-1 3h2v2l-2 1 1 5c-2.4 1.6-2.4 1.6-5 3l-2-1c2-4 2-4 3.2-5.9 1.1-3 .5-5-.2-8.1" class="skin-mid"/><path d="M209 49h3c2.3 6 1.8 10 0 16h-3l1-13-3-1zm49 156h1a79 79 0 0 1-4 19h-2c.8-7.6.8-7.6 3-11l1.1-4.2z" class="background-dark"/><path fill="#8B2223" d="M47 149v2h2v6l-1-4h-2l-1 4h-3v-7c3-1 3-1 5-1"/><path d="m116 124 1 3-2 4-9-1 1-4h5v3h3z" class="background-dark"/><path d="M203 104h1c.2 12.7.2 12.7-1 18h-2v3h-3l-1 2 1-5 2-1c1.8-5.4 2.4-11.3 3-17" class="skin-shadow"/><path d="M30 106h3v12h-3c-.8-4.3-1.2-7.7 0-12" class="text-white"/><path d="M130 62c3 2 3 2 4 5h-2l-1 3-5-1v-4h2v-2z" class="hair-brown"/><path d="M117 121h15v5l-1-2q-3.7-.4-7.6-.6l-2.1-.1-5.3-.3z" class="background-dark"/><path fill="#492918" d="M189 76c-4.7 4-4.7 4-7 4l-1 5h-2v-8q5-1.2 10-1"/><path d="M68 209h3v2h3c1.1 4.8 1.1 4.8 0 7h-2l-.9-2.4C70 213 70 213 68 212l-1 2zm8-18c-1.6 4.2-4.6 6.2-8 9l-1 3h-2c.7-4.8 3.6-7.8 7.1-10.8C74 191 74 191 76 191" class="hair-brown"/><path d="M40 124h3c1.4 1.7 1.4 1.7 2.7 3.9L47 130c1 1.9 1 1.9 1 3.9l-6 1-.2-1.9-.2-2.5-.3-2.4C41 126 41 126 40 124" class="background-dark"/><path d="M139 92h1l.4 2.6.5 3.3.6 3.4c.5 2.7.5 2.7 1.5 3.7v5h-2c-2.4-3.7-2.2-7-2.1-11.2v-3.9z" class="skin-mid"/><path d="M214 54c2.4 2.4 2.5 3.8 3 7h-3v5l-2 1-2-1z" class="background-dark"/><path d="m166 155 10 2v2l5 1v2q-6.6-1.8-13-4v-2z" class="hair-brown"/><path d="M55 145h7c.6 2.3.6 2.3 1 5l-2 3v-2h-4l1-4z" class="text-red"/><path d="M156 87h10v2l-7 1v2h-6l-1-2 4-2z" class="skin-mid"/><path d="m203 61 1.4 1.5C206 64 206 64 208 64l1-2 1 5-5 1-1 4c-1.2-2.4-1.1-4-1-6.6z" class="hair-brown"/><path d="M285 268c0 2 0 2-2 4.1-3.6 2.3-5.8 2.2-10 1.9 2.1-3.2 2.6-3.5 6-4.7l2.1-.7c1.9-.6 1.9-.6 3.9-.6m-15-26c1.6 3.2.2 5.6-.7 9l-1.1 3.8C267 258 267 258 264 260l1.9-8.4.5-2.5 1.6-6.1z" class="background-dark"/><path d="M148 139h2l4 5-1 2h-2l-1 7h-1z" class="skin-shadow"/><path d="M266 221h2l-.4 4.4-.2 2.5-.4 2.1-2 1-2 3 .4-4.2.2-2.4c.4-2.5 1.2-4.2 2.4-6.4" class="background-dark"/><path d="M177 197h6l1 4c-3 2-3 2-5.2 1.6l-1.8-.6z" class="skin-shadow"/><path d="m115 138 1 2h2l1-2 1 3c-6.2 3.2-6.2 3.2-10.4 2.2L107 142v-1l3.4-1c3.6-1 3.6-1 4.6-2" class="background-dark"/><path d="M188 124c4 5.1 4 5.1 4 9h-2l-1-4-1.9-.4c-2.1-.6-2.1-.6-4.1-1.6v-2c2-1 2-1 5-1" class="skin-shadow"/><path d="m134 112 4 2 1-2 1 9-4-1c-1.5-2.9-2-4.7-2-8m55-20h3v2h3l-1 6c-3-1-3-1-5-4z" class="skin-mid"/><path d="M128 90h5c1.4 2.4 2 3.5 1.6 6.3L134 98l-5-4 1-1-2-1z" class="skin-shadow"/><path d="M172 88c2 4 2 4 2.4 6.2l.6 1.8 3 1-1 3h-5z" class="skin-light"/><path d="m215 46 1 3 5 1v4l-5 1v-2h-2zm-62-6 1 3c-1.1 1.8-1.1 1.8-2.8 3.7l-1.7 1.9C148 50 148 50 146 50l1-6h-2v-2c3 1 3 1 4 3l2-3h2zm35-13 3 1h-2l.3 2 .3 2.4q0 1.3.3 2.5l.1 2.1c-1 1-1 1-4 1h-3l4-1-2-6h3z" class="background-dark"/><path d="M293 292c1 3 1 5 1 8h-6c.5-3.8 2.2-5.5 5-8" class="skin-mid"/><path d="m59 221 3 1 1 3c-1.7 3.3-3.8 6-6 9z" class="hair-brown"/><path d="M162 196c3 1 3 1 4.2 3.4.8 2.6.8 2.6.8 5.6l-4-2v-3l-5-1c1.8-1.6 1.8-1.6 4-3" class="skin-mid"/><path d="M67 146c2 2 2 2 2 6h-2v-4h-3l2 7-4-1 1-7c1.9-.6 1.9-.6 4-1m24-9h7v4h3v2l-6 1 1-4-5-2z" class="background-dark"/><path d="M163 133v2l2 1v3l-5 2c-1-4.7-1-4.7-1-7 2-1 2-1 4-1" class="skin-shadow"/><path d="M225 77h2v11l-3-1-.1-7c.1-2 .1-2 1.1-3m50 173c0 3.5-.7 4.3-2.8 7l-1.6 2.2C269 261 269 261 266 263c2-5.5 4-9.7 9-13m15-21c1 3 1 3 .1 4.8l-1.3 1.8-1.3 1.9c-1.8 1.8-3 2.1-5.5 2.5 4-8.3 4-8.3 8-11M31 131h3l1 3 3-2v5h-7z" class="background-dark"/><path d="m53 124 4 1-2.4 4-1.3 2.3L52 133h-2l-1-3h2z" class="text-white"/><path d="m192 89-1 2h-3l-1 4v-2h-4l1-4c3-1 5-1 8 0" class="skin-shadow"/><path d="M227 68v3l1 1h1v5l-6-2-1-5zm0-12h1v6l2 4h-3v-2l-4-1v-4h2l1-2zm-44 233h1c1.3 7.6 1.3 7.6-1 11h-3c.8-7.6.8-7.6 3-11" class="background-dark"/><path fill="#9D7D73" d="M85 286c2.6.4 2.6.4 5 1l-3 6-5-1 2-1-1-3z"/><path d="m278 256 2 1Zm-1 1 1 2-2-1zm-1 2c-1.5 4.6-5.2 6.5-9 9v-3h2v-2h2l1-3c2-1 2-1 4-1" class="background-dark"/><path d="M150 207c4.5.3 6.5.6 10 3.6l2 2.4c-5-.5-8-2-12-5zm27-33h1v6l-3 1c-.7 1.8-.7 1.8-1.2 4l-.5 2.3q0 .8-.3 1.7h-1l-1-9 2.4-1.3c2.6-1.7 2.6-1.7 3.6-4.7" class="skin-shadow"/><path d="m11 137 2 3c2.3.4 2.3.4 5 .6 2.8 0 2.8 0 5 .4l1 2-9.3.1C12 143 12 143 11 142z" class="background-dark"/><path d="m168 126 1 2h6v6l-4 1v-2l-3-1 3-1 2 1v-3h-5z" class="skin-mid"/><path d="m93 125 5 1 2 8-3 1-.4-2-.5-2.4-.5-2.5-.6-2.1z" class="text-white"/><path d="M198 112h1l.4 2.8a29 29 0 0 0 1.6 6.2l-4 1-.9-2c-1.1-2-1.1-2-3.1-3v-2l4 1zm-20 5h10v3h-2v2h2v2h-3v-4l-7-2zm10-22c3.8 3.4 5.7 6 7 11-3.8-1.5-5.3-3.3-7-7z" class="skin-shadow"/><path d="M187 102c-.9 3.9-.9 3.9-2 5h-6v-3c3-1.8 4.2-2 8-2" class="background-dark"/><path d="M161 81v2h-2v2h-2l-1-3-1 3v-2l-1.9 1.5C151 86 151 86 149 86v-3c4.2-1.6 7.5-2.2 12-2" class="hair-brown"/><path d="m147 82 4 1h-2v3l1.9-1.5C153 83 153 83 155 83l-1 5-7-1z" class="skin-shadow"/><path d="m207 17 2 1a62 62 0 0 1 .9 11l.1 3-3-1c-1-5-1-9 0-14" class="background-dark"/><path d="m64 292 2 1-1 7h-4v-5h3z" class="skin-shadow"/><path d="M140 197a62 62 0 0 1 6 6.6 28 28 0 0 0 6 5.4c-4.3-.5-6.2-1.7-9-5l-1-2-3-2z" class="hair-brown"/><path d="M144 201h5v2l3 1v2l2 1c-3.7.3-5.4.5-8.4-1.9-1.6-2.1-1.6-2.1-1.6-4.1" class="skin-mid"/><path d="M54 146h1v11h2v-4h3l1 4-7 1zm-16 1h10l1 4h-2v-2c-.5 0-.5 0-2.9.6-3.1.4-3.1.4-5.1-.6v2h-2z" class="background-dark"/><path d="m184 135 3 1-3 6-5-1 2-4h3z" class="skin-shadow"/><path d="M83 134h3v5c-1 1-1 1-3.4 1.3-2.6-.3-2.6-.3-4.4-1.8L77 137h6z" class="text-white"/><path d="M16 133h7v4h-7z" class="background-dark"/><path d="M183 120h2v5l-1-2-2 2c-2.2 0-2.2 0-4.6-.4l-2.5-.3-1.9-.3c3.5-2 6-2.2 10-2z" class="skin-shadow"/><path d="M135 71v7h2v2h-3v-3h-2v-4l-3 1v-2c3-1 3-1 6-1" class="background-dark"/><path d="m150 34 1 5h-2l-1 4-1-3-2-1 1-4c2-1 2-1 4-1" class="hair-brown"/><path d="M213 33c3.4 1.3 3.4 1.3 7 3 1 2.2 1 2.2 1 4-3.2-.3-4.6-.6-6.8-3-1.2-2-1.2-2-1.2-4m54 158 2 1-4 6h-2l-2 4-1-3c1-1.8 1-1.8 2.3-3.6l1.4-1.9c1.3-1.5 1.3-1.5 3.3-2.5" class="background-dark"/><path d="M40 152v5h-7c.3-2 .3-2 1-4 3-1 3-1 6-1" class="text-red"/><path d="M135 117c2 3 2 3 3 5l3 1c1.2 3 1.2 3 2 6l-3-1v-3l-5-2zm-59 10h7v2h-2l-1 6h-2l-.4-2.9C77 129 77 129 76 127" class="background-dark"/><path d="m30 124 7 1v1l-5 1-1 9h-1c-1-7.6-1-7.6-1-11z" class="text-white"/><path d="m128 92 3 1-2 1 .4 2 .6 2.7.6 2.6q.6 3.8.4 7.7l-2-1c-1.1-3.4-1.1-6-1-9.7z" class="hair-brown"/><path d="m175 90 1 3h2l1 8h-2l1-4-4-1v-5z" class="skin-mid"/><path d="m201 68 1 3h2v4h-14v-1l10-1z" class="skin-shadow"/><path d="m178 68 4 1v2l-2.4.9C177 73 177 73 176 75h-5v-2l3-1.4c3-1.6 3-1.6 4-3.6" class="skin-mid"/><path d="M178 31h2v6h-7v-3l3-1 2 1zm5 3h4l1 5c-3.3.8-4.7 1.1-8 0 1.9-3.9 1.9-3.9 3-5m11-12h6l-3 5-4-2zm-1 5h3l-1 4-2-2z" class="background-dark"/><path d="m209 194-1 4-10 1c3.8-4 5.5-5.1 11-5" class="skin-shadow"/><path d="m160 122 2 1-1 3 3 3-2 3-3-1c-1.3-2.7-1-3.9 0-6.7z" class="skin-mid"/><path d="m142 125 1.8 1c2.2 1 2.2 1 5.2 0v5h-4v-2h-2zm52-2h2l1 4-6 2-3-3v-2l4 1-1 2 3-3z" class="skin-shadow"/><path d="M106 124h8l1 5h-3v-3h-6z" class="text-white"/><path d="m183 113-5.7 2.4-3.2 1.4q-3.9 1.5-8.1 2.2c2.5-2.9 5-4 8.5-5.2l3-1.1c2.5-.7 2.5-.7 5.5.3" class="skin-shadow"/><path d="m223 101 2 1-.9 5-.5 2.7-.6 2.3-2 1-1-3 1-1 .5-3.5c.5-3.5.5-3.5 1.5-4.5m-192 2h6v2h6v1l-4.8.6-2.7.4c-2.5 0-2.5 0-5.5-2zm118-77v4l-4 2-3-1c1.8-4 2.5-5 7-5m48 232c1 2 1 2 .2 4.6-1.2 2.4-1.2 2.4-3.2 3.4-.4-4.6-.4-4.6 1.5-6.8zm-4 8 1 4-2 1z" class="background-dark"/><path d="m150 209 5 1 1 4h-5z" class="hair-brown"/><path d="m205 199 2 1v4l-5 2v-2l-2-2c2.4-1.6 2.4-1.6 5-3" class="background-dark"/><path d="m201 195-1 3h-8v-2c3.4-1.6 5.4-2.3 9-1" class="hair-brown"/><path d="m287 193 1 3c-1.2 2.3-1.2 2.3-3 4.7l-1.7 2.4-1.3 1.9-2-2 4.6-7c1.4-2 1.4-2 2.4-3" class="background-dark"/><path d="m105 172 3 1v2c-5.6 2-5.6 2-9 2v2l-2-1c2.4-2.6 4.8-4.4 8-6" class="hair-brown"/><path d="M140 157c-2.4 1.9-4 3-7 4-2.2-1.4-2.2-1.4-4-3 4-2 6.6-2 11-1m25-15 1 2c1.8.4 1.8.4 4 .6l4 .4v1l-8-1v2l-5-1v-2z" class="background-dark"/><path d="M94 127c2.6 2.6 2.5 4.5 3 8h-5c.9-5.7.9-5.7 2-8" class="hair-brown"/><path d="M105 131h10v5l-3-2-7-2zm-46-4h2l1 3c3 1.2 3 1.2 6 2v1h-8c-1-1-1-1-1-3.6z" class="text-white"/><path d="m160 118 4 2-1.9 1.3c-2.2 1.8-3 3.1-4.1 5.7h-2c1-3.4 2-6 4-9" class="skin-mid"/><path d="M178 117v1l-6.8 2-2 .7c-4.9 1.4-4.9 1.4-8.2.3a30 30 0 0 1 10-4c2.7-1.3 4.2-.7 7 0" class="skin-shadow"/><path d="M181 100h7v6h-3l1-3-7 1z" class="background-dark"/><path d="M203 90h1v8l-3 1v6l-2-1q1.6-7.2 4-14" class="skin-shadow"/><path d="m133 77 2 4h-2l-1 5-2-1 1-7zm62-32 12 3c-4 3-4 3-7 3l-2-1v-3l-3-1z" class="background-dark"/><path d="m194 42 9 2v3l2 1c-4.1-.6-7.3-2-11-4zm-57-11 3 1 1 7h-3v-3l-2-1z" class="background-dark"/><path d="m98 288 2 2c0 2.4 0 2.4-.4 5.1q0 1.4-.3 2.8L99 300l-3-1v-3h2z" class="hair-brown"/><path d="m264 245 2 1-1.4 7.7-.6 2.3-2 1 .4-4.3.3-2.4c.3-2.3.3-2.3 1.3-5.3" class="background-dark"/><path d="m178 207 7 1-1 2c-3.3 1-5.7 1.1-9 0l1-2 2 1z" class="skin-shadow"/><path d="m206 185 3 1-3 3h-2zm-4 4 2 1Zm-1 1 1 3-5 1zM16 127h6v4h-6zm162-23 1 3h5v2l-7 2v-6z" class="background-dark"/><path d="m191 47 3 1 1 9-3 1c-1.3-3.8-1-7-1-11" class="skin-shadow"/><path d="M211 51c.2 4.6.1 6.8-2 11l-2-9c3-2 3-2 4-2m9-7c1.5 1.1 1.5 1.1 3 3 .2 3.2.2 3.2 0 6l-1-3-6-1v-2l4-1zm79 196c1 3 1 3 .2 4.8L296 250l-3-1z" class="background-dark"/><path d="M150 154v2h-2l-1 3-7-1c3.3-2.7 5.8-4 10-4" class="skin-mid"/><path d="M98 143h6v3h-4l-1 3h-1zm90-4 4 1-1 2h-2l-1 3-5 1v-2l4-1zm-126-5h6l-1 4h-5zm-10 0h6c-.8 2.4-.8 2.4-2 5l-3 1c-1-1-1-1-1-3.6zm151-13 2 1v2h-2v3l-4 1-1-3h3v-3zm-151 0h9l-2 1v2h-7zm22 0h11c-3 3-5.8 2.6-10 3z" class="background-dark"/><path d="M191 78c2 3 2 3 2 6h-2v-2l-3 1v-2h-2v-2c3-1 3-1 5-1" class="hair-brown"/><path d="m208 67 2 1-1 1.6a29 29 0 0 0-2 8.4h-1l-1-10zm-27-40h1l2 9-4 1-1-8h2zm-3-1v3l-6 2c0-2 0-2 1-3h-2v-2c3.1-1 4-1 7 0" class="background-dark"/><path d="m93 286 4 2-1 7-2 1zm-4 0h4l-1 9c-2-1-2-1-3.2-3.4-.8-2.6-.8-2.6.2-5.6" class="skin-shadow"/><path d="M289 205c.7 1.7.7 1.7 1 4-1 2.1-1 2.1-2.4 4.3l-1.5 2-1.1 1.7c-1-3-1-3 0-5.3l1.4-2.4 1.5-2.4z" class="background-dark"/><path d="m136 192 2 1v2h2c-1.2 2.5-2.8 3.4-5 5 0-3.1.2-5.1 1-8" class="hair-brown"/><path d="M33 149h3l-2 1-2 6-3-1v-5c1-1 1-1 4-1m138.6-2.1 2.4.1 1 4h-6l-2-2c2-2 2-2 4.6-2.1M46 134h2v7l3 1-5 1z" class="background-dark"/><path d="M75 128h1v1.9l.3 2.5v2.4c.7 2.2.7 2.2 2.7 3.5l2 .7-1 1h-5zm-37.4-4.3c2.4.3 2.4.3 4.4 2.3-.4 2.1-.4 2.1-1 4v-3h-9c3-3 3-3 5.6-3.3" class="text-white"/><path d="m111 121 2 3h-9l-1-2c2.8-1.4 5-1.3 8-1" class="background-dark"/><path d="M35 106h8v2h-6v3h-2z" class="text-white"/><path d="M37 103h8v5h-2v-3h-6z" class="background-dark"/><path d="m207 90 3 1c.2 3.4.2 3.4 0 7l-3 2z" class="hair-brown"/><path d="m195 83 6 2v4h-6l2-3-2-1z" class="skin-shadow"/><path d="M126 71c2.6 3 3 3.7 3 8l-3-1v-3h-2v-3z" class="background-dark"/><path d="M141 38c2 2 2 2 2 5l-7-1 1-3c2-.8 2-.8 4-1" class="hair-brown"/><path d="M159 34h6l-2 4h-6zm-17 0 4 1-1 5h-3z" class="background-dark"/><path fill="#9F8076" d="M265 284h1l.4 2.4.6 2.6 2 1-1 10h-1v-9h-2z"/><path d="m160 210 14 1v1h-9v2h-3z" class="skin-mid"/><path d="M187 204h3l-1 4c-3.7 1.1-3.7 1.1-6 0v-2h4z" class="skin-shadow"/><path d="M263 197c.7 1.6.7 1.6 1 4-2.3 5.7-2.3 5.7-5 7a22 22 0 0 1 4-11" class="background-dark"/><path d="M165 204h3v7h-5l2-1z" class="skin-light"/><path d="m157 150 9 2v3c-3.7-.5-5.8-.9-9-3zm-50-8 7 2v2h-7zm-37 1h-2v2l4 1h-8l-1-3c3.1-1 4-1 7 0" class="background-dark"/><path d="m59 140 11 1a18 18 0 0 1-11 2z" class="background-dark"/><path d="M107 133h5l1 4c-1 1-1 1-3.6 1H107l2-4z" class="hair-brown"/><path d="m152 119 4 1-1 7-3-1z" class="skin-mid"/><path d="m206 113 2 1c-.3 2.9-.3 2.9-1 6l-3 2-1-3h2v-2.4c0-2.6 0-2.6 1-3.6" class="background-dark"/><path d="m167 90 2 1v6l-4-1v-5z" class="skin-light"/><path d="M136 87h1v12h-2l-1-7h2z" class="hair-brown"/><path d="M176 82c.4 6.5.4 6.5-1.5 9l-1.5 1c-.7-3.3-.7-3.3-1-7 2.1-3 2.1-3 4-3" class="skin-light"/><path d="m202 78 4 1c-2.5 2.5-3.6 2.4-7 2.8l-2.7.2c-2.3 0-2.3 0-4.3-2h10z" class="background-dark"/><path d="M159 78h8l1 4-3.3-.5C161 81 161 81 158 81z" class="skin-shadow"/><path d="M141 71h2v2h2v3l-4 2-1-6zm43-7h4c-.7 3-.7 3-2 6-2.1.9-2.1.9-4 1z" class="skin-mid"/><path d="M221 50c1.4 2.6 2.4 5 3 8h-5l-1-3 3-1z" class="background-dark"/><path d="M150 49h2l-1 6-5 1q1.8-3.7 4-7" class="skin-light"/><path d="M199 21v1h-5v2l2 1h-7l1-3c3-1.5 5.7-1 9-1" class="background-dark"/><path d="M296 279c2.1 3.2 2.2 4 2.1 7.7v2.4l-.1 1.9c-2.3-3.5-3.4-6.1-2.6-10.3zm-231 0 9 1c-2.4 1.9-4 3-7 4z" class="skin-shadow"/><path d="m173 215-1 3h-6l1-3c2.5-1.2 3.4-.8 6 0" class="background-dark"/><path d="M154 175h1l.4 2.3c.6 2.7.6 2.7 2.6 5.7l-1 3-3-2c-.3-2.2-.3-2.2-.2-4.6v-2.5z" class="skin-shadow"/><path d="M121 147h2v6l-5 1v-2h3l-.6-2-.4-2z" class="text-red"/><path d="m152 137 2 1c.6 2 .6 2 1.1 4.6l.5 2.5.4 1.9c-2-1.6-2-1.6-4-4-.2-3.2-.2-3.2 0-6m-95-2c2.2 3.2 2.2 4.3 2 8l-4-1q.9-3.6 2-7" class="background-dark"/><path d="m67 131 4 1v7l-4-2z" class="text-white"/><path d="M26 129h2v8h-2l-2-6z" class="hair-brown"/><path d="M62 126h5l-1 4h-5zm29-5v2h6v1l-3.4.4c-3.6.6-3.6.6-5.6 1.6l-2-4c3-1 3-1 5-1" class="background-dark"/><path d="m173 100.8 6 .2-2 3-8-1c2-2 2-2 4-2.2" class="skin-shadow"/><path d="M129 95c4.9 1.8 4.9 1.8 6 4l-1.9.4c-2.1.6-2.1.6-4.1 2.6z" class="skin-mid"/><path d="m148 89 2 1q5 1.5 10 2v1h-4.3l-2.4.1C151 93 151 93 148 92z" class="skin-light"/><path d="m187 83 2 2-1 2-7 1 1-4c2.4-.6 2.4-.6 5-1" class="skin-shadow"/><path d="m194 81 7 1-1 3-7-1zM94 262c3 1.1 5.3 2.2 8 4-2.9 1.4-5 .6-8 0l-1-3zm94-6h3v5l-4 2zm11-10c1.3 4.2.5 6.9-1 11l-3 2q1-4.5 2.6-8.7l.8-2.5z" class="background-dark"/><path d="M130 172h1c2.4 7.4 2.4 7.4 1 11-3-5.3-3-5.3-2.7-8.9z" class="skin-mid"/><path d="m123 165 3 2v2l-5 2-1-4z" class="hair-brown"/><path d="m66 121 1 3h-8v-2c2.5-1.2 4.3-1 7-1m28-3 4 3v2h-7c0-2 0-2 1.5-3.6z" class="background-dark"/><path d="m193 117 3 1-1 4h-4c.9-3.9.9-3.9 2-5" class="skin-shadow"/><path d="M193 110c3.9.9 3.9.9 5 2v5l-5-5z" class="background-dark"/><path d="m198 104 2 2c-.4 2.6-.4 2.6-1 5l-2-1v-2h-2v-3z" class="skin-shadow"/><path d="M130 99h5v4h-5z" class="skin-light"/><path d="m162 83 1 2 4 1c-2 2-2 2-4.6 2.1L160 88zm42-24h3l1 5h-2l-1 2z" class="skin-shadow"/><path d="M268 292h2c1.1 5.8 1.1 5.8 0 8h-2z" class="skin-mid"/><path d="m58 284 4 3-1 6h-2z" class="skin-shadow"/><path d="M259 196c1 3 1 5.8 1 9h-2c-.8-3-1.2-4.5 0-7.3z" class="background-dark"/><path d="M159 187c1.5 1.3 1.5 1.3 3 3v3l3 1-2 1-4-2z" class="skin-shadow"/><path d="m181 169 1.3 1.5c1.7 1.5 1.7 1.5 4.7 1.5-1.2 1.6-1.2 1.6-3 3-2.2-.3-2.2-.3-4-1z" class="background-dark"/><path d="M93 145h3c-.5 3.8-1.5 6-4 9v-8z" class="text-red"/><path d="M154 140c3.3.6 6 1.4 9 3-3 1-3.9 1-7 0v-2z" class="hair-brown"/><path d="M154 132h2v2h3l1 3h-6zm29-4 6 1 1 4-2 1v-2l-3-1v-2z" class="skin-shadow"/><path d="m149 116 1 3 3 1-1 4h-2c-1.4-2.4-2-3.5-1.6-6.2zm22-2v2c-4.2 3.1-4.2 3.1-7.3 2.7l-1.7-.7c6.8-4 6.8-4 9-4" class="skin-mid"/><path d="M11 108h4v7h-2z" class="background-dark"/><path d="M146 78h1l1 10-3-1c-.6-3.4-.6-3.4-1-7z" class="skin-mid"/><path d="M189 82h2v3h2v2l-7-1z" class="skin-shadow"/><path d="m182 72-2 1-2 7h-1l-1-8c3-1 3-1 6 0" class="skin-mid"/><path d="M138 66v11h-1l-.6-6.2-.4-1.8-2-1c3-2 3-2 4-2m61-8c1 3.2 1 5.7 1 9l-3-1-1-3h2z" class="skin-shadow"/><path d="M156 44h8a16 16 0 0 1-8 4z" class="skin-light"/><path d="M69 285c7.8.8 7.8.8 10 3l-10-1z" class="skin-mid"/><path d="M97 282v2h-2v2l-7-2v-1c6.8-1 6.8-1 9-1" class="background-dark"/><path d="m183 196 4 1 1 4h-4z" class="skin-shadow"/><path d="M114 166h2c-.6 2-.6 2-2 4-3.1.8-3.1.8-6 1l2.4-2c2.6-2 2.6-2 3.6-3" class="hair-brown"/><path d="m135 162 2 1-8 6-1-3c5.3-3.2 5.3-3.2 7-4" class="skin-light"/><path d="M100 154h6l-1 4c-2-.3-2-.3-4-1zm-26-1h3l1 5h-4zm-32-3h3l-1 7h-2z" class="text-red"/><path d="M150 149h2v2l2 1-6 3-2-1 4-1z" class="skin-shadow"/><path d="M187 145v2h-2l-1 2h-5v-2c3-1.3 4.8-2 8-2m-112-2v2c-3.1 1-4 1-7 0v-2c2.7-1.3 4.2-.7 7 0" class="background-dark"/><path d="M115 132h1v6l-2 2-3-1zm-57 3h3l2 5h-4z" class="text-white"/><path d="M184 132h4l1 3-7 1z" class="skin-shadow"/><path d="m180 128 5 1 1 3-4 2z" class="skin-shadow"/><path d="M39 127h2c.6 2.3.6 2.3 1 5l-2 3c-1-1-1-1-1-4.6z" class="text-white"/><path d="M168 109h2l2 4-4 1-1-4z" class="skin-shadow"/><path d="M159 87h7v2l-3.4.4-3.6.6-1 2z" class="skin-mid"/><path d="m156 82 2 1-1 2 5-1-2 3-5-1z" class="skin-shadow"/><path d="M133 81h3l1 6h-2l-2-2z" class="background-dark"/><path d="M208 62c2 3 2 3 2 5h-6l1-3h3z" class="hair-brown"/><g id="text-overlay" style="display:var(--text-overlay)"><text x="12" y="118" fill="var(--text-white-color)" font-family="var(--title-font)" font-size="17" font-weight="bold">THE</text><text x="13" y="140" fill="var(--text-white-color)" font-family="var(--title-font)" font-size="23" font-weight="bold">BOYSCAST</text><text x="33" y="158" fill="var(--text-red-color)" font-family="var(--subtitle-font)" font-size="18" font-style="italic">with Ryan Long</text></g></svg>