<svg xmlns="http://www.w3.org/2000/svg" viewBox="0 0 1024 1024">
  <style>
    :root {
      --bg-color: #ffffff;
      --gold-light: #f5d97a;
      --gold-mid: #d4a13a;
      --gold-dark: #8a6517;
      --gold-deep: #4d3a0c;
      --leaf-interior: #ffffff;
      --dot-color: #ffffff;
    }
    .background { fill: var(--bg-color); }
    .gold       { fill: url(#gold-grad); }
    .leaf-fill  { fill: var(--leaf-interior); }
    .dot        { fill: var(--dot-color); }
  </style>

  <defs>
    <linearGradient id="gold-grad" x1="0.15" y1="0.1" x2="0.85" y2="0.9">
      <stop offset="0"    stop-color="var(--gold-light)"/>
      <stop offset="0.40" stop-color="var(--gold-mid)"/>
      <stop offset="0.80" stop-color="var(--gold-dark)"/>
      <stop offset="1"    stop-color="var(--gold-deep)"/>
    </linearGradient>
  </defs>

  <rect class="background" x="0" y="0" width="1024" height="1024"/>

  <!-- Geometry traced from the source PNG via vtracer color mode.       -->
  <!-- Tracer output preserved verbatim (paths + transforms); only the   -->
  <!-- fills are re-routed through CSS classes for parametric tuning.    -->
  <path class="gold"      d="M0 0 C0.64984863281245 0.4195898437500034 1.2996972656250136 0.8391796875000068 1.96923828125 1.271484375 C22.668592812981274 14.637015089016273 42.278492626544335 29.668234923401343 60.296875 46.48046875 C62.894273646841725 48.901454482966614 65.5326325584806 51.267379986748864 68.1875 53.625 C72.96926823109686 57.91076634002681 77.50943648770226 62.411815541782744 82 67 C85.32998493838738 65.89000502053756 85.78356054195842 65.3077820523782 87.75 62.5625 C88.27005615234373 61.841833496093756 88.79011230468745 61.12116699218751 89.325927734375 60.378662109375 C89.87837158203126 59.593703613281264 90.43081542968753 58.8087451171875 91 58 C91.5788696289062 57.184748535156245 92.15773925781252 56.36949707031249 92.754150390625 55.529541015625 C111.13689705696288 29.461067504553654 126.09916651925482 2.425418442416756 136 -28 C137.77368958020838 -25.339465629687425 138.78340720352924 -23.20463753768142 139.890625 -20.2421875 C140.26324462890625 -19.245258789062504 140.6358642578125 -18.248330078124994 141.019775390625 -17.22119140625 C141.42574951171878 -16.116948242187505 141.83172363281255 -15.012705078124995 142.25 -13.875 C142.68111083984377 -12.705014648437498 143.11222167968754 -11.535029296874995 143.556396484375 -10.32958984375 C147.5309083879837 0.5233032653628413 151.31268723236747 11.442806046113873 155.0625 22.375 C155.20194030761718 22.779614562988286 155.20194030761718 22.779614562988286 155.9075927734375 24.82720947265625 C179.9117762746855 94.59543768494183 199.43633069119016 166.47950146032548 213 239 C213.09110046386718 239.4857952880859 213.09110046386718 239.4857952880859 213.5521240234375 241.9442138671875 C222.1350025229939 287.9150509675266 228.27421561649828 334.45949773204455 230.00537109375 381.218505859375 C230.12585168062822 384.4604171613952 230.2556850769514 387.7018590876313 230.38671875 390.943359375 C231.10971963754696 409.286243744929 231.0484781508285 427.4757033248551 230.1875 445.8125 C230.14331939697263 446.7577554321289 230.09913879394526 447.70301086425786 230.05361938476563 448.6769104003906 C229.31165185859265 464.21272503676903 228.17452928002263 479.5895962180216 226 495 C225.82597656250005 496.24716796875 225.65195312499998 497.49433593749995 225.47265625 498.779296875 C222.8011597907879 517.7009108433305 219.2912028551658 536.3736303791616 215 555 C214.7829541015625 555.977109375 214.565908203125 556.95421875 214.34228515625 557.9609375 C208.3267055936393 584.9640002560697 199.20427029082543 611.7162770799642 188 637 C187.78947998046874 637.4786450195313 187.78947998046874 637.4786450195313 186.72412109375 639.90087890625 C171.63980109210615 674.0182072779855 153.094479340475 706.6108927729866 130 736 C129.15679422517212 737.0970741801524 128.3143909812344 738.1947655002807 127.47265625 739.29296875 C118.06680114690619 751.4947898606777 107.91884061363555 763.0292544328807 97.44921875 774.32421875 C94.6606342052911 777.3707584838526 91.97981600137223 780.496162658496 89.33984375 783.671875 C88 785 88 785 86 785 C85.74347656249995 785.5942578125 85.48695312500001 786.188515625 85.22265625 786.80078125 C83.88290434739986 789.2106225316737 82.56267570093485 790.4487198810533 80.4375 792.1875 C77.356048544136 794.7867818935255 74.49483213737017 797.4818321677822 71.6875 800.375 C67.6642067919604 804.4464351780504 63.399947137189656 808.0545846072699 58.93359375 811.62890625 C56.38522352749908 813.6886409038723 53.890752758043845 815.7978223599956 51.409912109375 817.93798828125 C38.65258511856109 828.9151777903868 24.97106719211274 838.6394167120752 11 848 C10.258305664062505 848.501123046875 9.516611328125009 849.00224609375 8.75244140625 849.5185546875 C-5.060411403283183 858.8237503892002 -19.349950604560263 867.0880132398175 -34 875 C-35.07668945312503 875.584267578125 -36.153378906250055 876.16853515625 -37.2626953125 876.7705078125 C-63.24916116393047 890.7977774568936 -90.11269450233453 902.2966897439941 -118 912 C-118.544306640625 912.1905395507813 -118.544306640625 912.1905395507813 -121.298828125 913.15478515625 C-162.26728341875423 927.336638338321 -204.83261753374916 935.6413474894516 -248 939 C-249.50528258048416 939.1319683287134 -251.0105045007474 939.2646332787589 -252.515625 939.3984375 C-256.67780466902934 939.7153112608108 -260.8282177214493 939.8994093618817 -265 940 C-266.119873046875 940.0272314453125 -267.23974609375 940.054462890625 -268.3935546875 940.08251953125 C-361.41218355450854 941.9589420115665 -451.4720508841216 917.253013830169 -594 832 C-595.9323343594714 830.4765125192937 -597.8666128354466 828.9555288812397 -599.801513671875 827.435302734375 C-600.9614638546658 826.5222826346793 -602.1194122204554 825.6067092370952 -603.274658203125 824.687744140625 C-606.0611618182523 822.478472579537 -608.8812566431458 820.410294546663 -611.8359375 818.4375 C-615.2242199636728 815.827267583541 -615.13284575772 815.7161716870531 -616 812 C-617.6484597834535 811.2895054084945 -619.3185407284132 810.6284241722092 -621 810 C-623.1757812500002 808.0820312499998 -623.1757812500002 808.0820312499998 -625.3125 805.8125 C-628.0575914303696 802.9680796033999 -630.7944491249432 800.2402680318188 -633.8125 797.6875 C-641.5177236541929 791.0610076573942 -648.714184018742 783.7153347479664 -655.30078125 775.98046875 C-657.2803043218006 773.6733004801083 -659.3264212008185 771.4335321774159 -661.375 769.1875 C-666.1051327548953 763.9380114527598 -670.5854895067557 758.5163139386656 -675 753 C-675.4094384765625 752.49017578125 -675.818876953125 751.9803515625 -676.24072265625 751.455078125 C-688.2163676228911 736.5118143789201 -699.685675119242 721.1416702224969 -710 705 C-710.4932275390624 704.2299462890625 -710.986455078125 703.459892578125 -711.49462890625 702.66650390625 C-743.4281336340475 652.5610570848119 -766.0917295110357 597.7125872892555 -780 540 C-780.24298828125 538.9921142578125 -780.4859765625 537.984228515625 -780.736328125 536.94580078125 C-787.0524815497301 510.1291408347995 -790.4564783477729 482.47838246749234 -792 455 C-792.056396484375 454.059951171875 -792.11279296875 453.11990234375 -792.1708984375 452.1513671875 C-792.5294304711834 446.10299542400094 -792.8074491321792 440.055913568326 -793 434 C-793.0116821289063 433.650986328125 -793.0116821289063 433.650986328125 -793.07080078125 431.884765625 C-795.1507743829013 359.38282865315443 -777.1185228818039 283.6868523411868 -747 218 C-746.55591796875 217.025146484375 -746.1118359375 216.05029296875 -745.654296875 215.0458984375 C-723.35229913237 166.41470767641255 -693.0775651815519 121.86169111105079 -657.10546875 82.32421875 C-655.7605431894499 80.83956066367838 -654.4283817477839 79.34317157354047 -653.11328125 77.83203125 C-647.7902929264117 71.7560858354523 -642.1390865591884 66.03213994207593 -636.4375 60.3125 C-635.6339306640625 59.504338378906255 -634.830361328125 58.69617675781251 -634.00244140625 57.863525390625 C-629.1619183957436 53.035408887732075 -624.188405881344 48.449420456268854 -619 44 C-617.8433624703573 42.97847240289798 -616.6883705669986 41.95507803325471 -615.53515625 40.9296875 C-606.9961184274373 33.394523975227074 -598.1753919550433 26.3407775783905 -589.04931640625 19.5302734375 C-587.1245620873435 18.093013481471203 -585.2083152483626 16.645069801204897 -583.29296875 15.1953125 C-568.0359246424463 3.7339434154137336 -551.8883795170623 -6.353438357542174 -535.27197265625 -15.71337890625 C-533.1022319703114 -16.942105901188356 -530.946648870196 -18.192610368058908 -528.79296875 -19.44921875 C-468.0240648358071 -54.54819456448319 -397.3711623633554 -74.02522758802554 -328 -82 C-326.997109375 -82.1171435546875 -325.99421875 -82.234287109375 -324.9609375 -82.35498046875 C-248.22197475301266 -90.96253412353708 -167.52943929628714 -76.04646903075391 0 0 Z " transform="translate(793,84)"/>
  <path class="leaf-fill" d="M0 0 C0.6599999999999682 0 1.32000000000005 0 2 0 C2.2217187500000364 1.1820703125000023 2.443437499999959 2.3641406250000045 2.671875 3.58203125 C5.150463342841704 15.888283421182877 8.733409811592992 27.611425732150252 12.875 39.4375 C13.140214538574241 40.19525726318358 13.405429077148483 40.953014526367184 13.678680419921875 41.733734130859375 C14.211972226159673 43.25651932151467 14.745332409661842 44.779280567711226 15.278762817382813 46.30201721191406 C15.538685150146534 47.04410934448242 15.798607482910143 47.78620147705078 16.06640625 48.55078125 C16.323629608154306 49.28453475952148 16.580852966308612 50.018288269042955 16.845870971679688 50.77427673339844 C23.065181515874883 68.58610001219029 27.994714351321136 86.81855826612627 33 105 C33.128181152343814 105.46317626953126 33.128181152343814 105.46317626953126 33.77685546875 107.80712890625 C35.280584920333354 113.24188303998153 36.76452906413613 118.68158169192424 38.2275390625 124.12744140625 C38.752860999442305 126.08096160538486 39.28095999535742 128.03373668568622 39.8115234375 129.98583984375 C48.65129364322945 162.6063454162349 55.129326113466504 195.80506561181403 61.6015625 228.96148681640625 C61.95646482608254 230.7772623661661 62.31398695702558 232.5925254164834 62.671875 234.40771484375 C65.59306195690397 249.30231421776102 67.63961629890832 264.28828909836363 69.53857421875 279.3447265625 C69.96701569022491 282.73870842013065 70.40655640088085 286.13108281621925 70.84765625 289.5234375 C75.17017078714764 323.37205133704873 76.07351735149268 357.27933975406694 76.23016357421875 391.3622741699219 C76.2431411399831 393.8648479864254 76.26089306474819 396.3674027449225 76.28399658203125 398.8699035644531 C76.43724777850412 416.79077202773635 75.25413689422851 434.2254978426081 73 452 C72.7928021106917 453.71252814602667 72.58649313341834 455.4251642345207 72.38134765625 457.137939453125 C71.85615750909346 461.4518147414601 71.28496987406697 465.7580833963059 70.6875 470.0625 C70.58528137207031 470.8050704956055 70.48306274414063 471.547640991211 70.37774658203125 472.3127136230469 C67.84633863362262 490.5055517293282 63.95446269226727 508.31091670104183 59 526 C58.889462890625055 526.3982800292969 58.889462890625055 526.3982800292969 58.330078125 528.413818359375 C54.963948912104 540.4125617813136 50.89693023807695 551.9608514453157 46.07080078125 563.4482421875 C44.98063232736399 566.0461538792501 43.90996514861547 568.6515879151577 42.83984375 571.2578125 C32.25004038942211 596.7937754681105 18.675762916342933 620.6786109821613 1 642 C0.2781250000000455 642.91265625 -0.44375000000002274 643.8253125 -1.1875 644.765625 C-14.373693164780093 661.3453237586573 -29.37814809559859 676.1713338306973 -46.3828125 688.7900390625 C-48.05057763561558 690.0378416005602 -49.69843808072471 691.3087064598617 -51.34375 692.5859375 C-52.4165554557751 693.4116028522692 -53.48946802964406 694.2371290467477 -54.5625 695.0625 C-55.51253906249997 695.7959765625 -56.46257812500005 696.529453125 -57.44140625 697.28515625 C-59.749508662618496 698.832113439526 -61.28832234183403 699.585272828751 -64 700 C-64 700.66 -64 701.32 -64 702 C-88.75234943256328 716.2873381282411 -113.70923454744116 728.2689507235872 -141 737 C-141.79792968749996 737.2565234375 -142.59585937500003 737.513046875 -143.41796875 737.77734375 C-144.24941406250002 738.0364453125 -145.08085937500005 738.295546875 -145.9375 738.5625 C-146.66839843749995 738.7906640625 -147.399296875 739.018828125 -148.15234375 739.25390625 C-151.49867532105304 740.1306543022238 -154.86427036926432 740.7942189192388 -158.258544921875 741.457763671875 C-160.98409699599495 741.9968545220505 -163.70111307205968 742.5672075447818 -166.41796875 743.1484375 C-209.26853891652377 752.2820435653891 -251.3276627536261 755.399963298768 -295.064754486084 755.2577476501465 C-297.6710697158412 755.2498605867919 -300.2773732770776 755.2453710586651 -302.8836975097656 755.2416076660156 C-396.61350976201857 755.0845769232075 -396.61350976201857 755.0845769232075 -434.551513671875 749.474853515625 C-437.7341437679608 749.0366081678808 -440.8108360215835 748.8170367133104 -444.01953125 748.71875 C-444.572216796875 748.70005859375 -444.572216796875 748.70005859375 -447.369140625 748.60546875 C-447.93729492187504 748.5880664062499 -447.93729492187504 748.5880664062499 -450.8125 748.5 C-453.06910798396365 748.4301680050808 -455.32562405707006 748.3572939379372 -457.58203125 748.28125 C-458.07819946289067 748.266103515625 -458.07819946289067 748.266103515625 -460.589111328125 748.189453125 C-463.29489595400435 748.0391640354801 -465.9385888320164 747.7960429970329 -468.629150390625 747.497314453125 C-474.53714409157374 746.8882286908596 -480.41587978724095 746.802375778548 -486.3515625 746.76171875 C-487.5396601867676 746.7520155334473 -488.72775787353515 746.7423123168945 -489.9518585205078 746.7323150634766 C-493.8429402566237 746.707256775836 -497.7338453106089 746.6947449369641 -501.625 746.6875 C-502.2920961380005 746.6860548400879 -502.959192276001 746.6846096801758 -503.6465034484863 746.6831207275391 C-542.0133474903985 746.6161286380778 -580.4903378203734 748.6690026463293 -618.4296875 754.60693359375 C-621.9455321297811 755.1445960038894 -625.4683764628041 755.5797707569923 -629 756 C-625.3795418205891 752.3795418205891 -620.1918049638441 751.0240007654677 -615.5 749.125 C-614.30310546875 748.6403125 -613.1062109375 748.155625 -611.873046875 747.65625 C-580.193372795589 734.9406290190888 -547.529255302632 724.5065117201859 -514.66796875 715.31640625 C-509.05657396194533 713.7454028728148 -503.47941596074554 712.0651840378796 -497.902587890625 710.376220703125 C-493.2787873702871 708.9777269684711 -488.64928498523483 707.6044260415864 -484.0078125 706.265625 C-444.63248675431157 694.8663959924806 -406.2687346741934 681.1140227411566 -369 664 C-368.51458740234375 663.7772338867187 -368.51458740234375 663.7772338867187 -366.05810546875 662.64990234375 C-351.70886441081564 656.0203859846478 -337.75025968855266 648.7936293661439 -324 641 C-323.56026855468747 640.7515332031251 -323.56026855468747 640.7515332031251 -321.3349609375 639.494140625 C-294.8892554124618 624.4573400579867 -268.8429182745617 607.4115419306811 -245.84375 587.4453125 C-243.25809053304317 585.22192949682 -240.62373552482916 583.0996840969392 -237.9375 581 C-233.0010761584956 577.0909944539632 -228.4060682397909 572.8613183964364 -223.796875 568.578125 C-221.60830364931064 566.5607268275768 -219.39615681449288 564.6092480738017 -217.125 562.6875 C-211.30178486363468 557.6488864820082 -205.97900907048097 552.0551334490204 -200.5673828125 546.583740234375 C-197.22424696956432 543.2057149675333 -193.85432667783118 539.8550478898737 -190.4765625 536.51171875 C-184.09475412233235 530.184223635121 -177.77559900369852 523.8926379318864 -172 517 C-171.12772649034673 515.9896539126414 -170.25387358694888 514.9806703625779 -169.37890625 513.97265625 C-149.38092144485427 490.8947359216161 -131.69309665499054 466.542974345065 -115 441 C-114.41412109375005 440.1071630859375 -113.8282421875 439.214326171875 -113.224609375 438.29443359375 C-105.66361461972463 426.73123151789207 -98.8848754630244 414.8338486924076 -92.4052734375 402.63427734375 C-91.10176027574119 400.1907563195357 -89.7775788689031 397.7599593048044 -88.4453125 395.33203125 C-68.57985678797843 358.82925637916026 -49.334136864404286 314.12611930905587 -47 272 C-47.146228027343795 272.5435009765625 -47.29245605468748 273.087001953125 -47.443115234375 273.64697265625 C-49.74885487931033 281.7822398658561 -52.869984404685056 289.55869535498215 -56.0625 297.375 C-56.35034362792965 298.08175872802735 -56.63818725585941 298.7885174560547 -56.93475341796875 299.5166931152344 C-74.73188925522527 343.08209885522126 -100.93041645185212 383.8489684327331 -131.6572265625 419.43505859375 C-133.03129489422008 421.03647277671826 -134.38882734721847 422.65058977554065 -135.7421875 424.26953125 C-136.20415527343755 424.820927734375 -136.666123046875 425.37232421875 -137.14208984375 425.9404296875 C-138.3975578718747 427.4401293600747 -139.65195179469367 428.9407280400799 -140.90625 430.44140625 C-149.69226471830916 440.662249375084 -159.09481682859848 450.25488324335447 -168.635009765625 459.765380859375 C-170.69860061425334 461.82357156542344 -172.75673675319206 463.88710979975633 -174.814453125 465.951171875 C-176.15072089547323 467.2867793402072 -177.48729856792784 468.6220768379353 -178.82421875 469.95703125 C-179.4265080261231 470.56134475708006 -180.02879730224606 471.16565826416013 -180.6493377685547 471.7882843017578 C-184.39079893545306 475.50956926423294 -188.25500722285437 479.0405204257529 -192.2501220703125 482.4882354736328 C-194.4748475931858 484.4102330423342 -196.64269272877584 486.39139335275127 -198.8125 488.375 C-203.05440850054708 492.1991447845842 -207.40551096799732 495.84889455479174 -211.84765625 499.4375 C-214.18859880643686 501.3302091253852 -216.5024921169745 503.25250175399003 -218.80859375 505.1875 C-268.7136736316527 546.9507330808373 -326.06477707292174 580.8540238470212 -386 606 C-387.01288085937495 606.425712890625 -388.02576171875 606.85142578125 -389.0693359375 607.2900390625 C-419.6838709416169 620.0193937692546 -451.5045862759385 630.9997831843766 -483.5908203125 639.35595703125 C-486.6354556607082 640.169875560696 -489.6481276103544 641.0736752360903 -492.6630859375 641.990478515625 C-501.85947091408207 644.7866184962213 -511.15031960163225 647.0386440831035 -520.51513671875 649.1943359375 C-523.834431716753 649.9617223388879 -527.1512733313064 650.738872477647 -530.4676971435547 651.5185394287109 C-550.4299675377596 656.208197767024 -570.4258798650095 660.618935235851 -590.5241851806641 664.6837921142578 C-598.9824684516996 666.3966262002897 -607.429739965937 668.1616943579986 -615.875 669.9375 C-616.6591830444336 670.1023690795898 -617.4433660888672 670.2672381591797 -618.2513122558594 670.4371032714844 C-630.4751912507883 673.0111726706637 -642.680458617512 675.665468145727 -654.875 678.375 C-655.6376214599609 678.5442599487304 -656.4002429199219 678.713519897461 -657.1859741210938 678.8879089355469 C-669.9353974997954 681.7215188413758 -669.9353974997954 681.7215188413758 -675.2607421875 683.084716796875 C-680.0049136408702 684.2459794489176 -683.2544610825814 684.7603117693518 -687.7890625 682.78515625 C-701.1434019925217 674.6732227566088 -713.0969802791202 665.1976959295522 -724 654 C-724.4833984375 653.56171875 -724.966796875 653.1234375 -725.46484375 652.671875 C-757.5089697504944 622.8142893618923 -771.8569451432209 572.6006220494977 -774.2041015625 530.32373046875 C-774.8892328827826 509.0472364006439 -773.485094917442 487.8176103715233 -769 467 C-768.7426791004399 465.6566529448603 -768.4875254988558 464.3128891969702 -768.234375 462.96875 C-764.0858754983489 441.7949849711947 -756.5004793681626 421.32603929639924 -747 402 C-746.633583984375 401.23880859375 -746.2671679687501 400.4776171875 -745.8896484375 399.693359375 C-735.7255559733835 378.72491665375185 -722.3972880058261 359.4546639085354 -707 342 C-706.5012939453125 341.4336181640625 -706.002587890625 340.867236328125 -705.48876953125 340.28369140625 C-702.3919277740863 336.79155241437945 -699.2216935048139 333.3778968262593 -696 330 C-695.1698437499999 329.12859375 -694.3396875 328.2571875 -693.484375 327.359375 C-688.1786733136462 321.9201965416624 -682.6230466749987 316.96793756544946 -676.64013671875 312.28515625 C-675.4764788281461 311.3733528656388 -674.3170668490643 310.45611907278817 -673.16064453125 309.53515625 C-606.9327829326219 256.85502235255416 -526.3707810665392 245.0598944499843 -444.25115966796875 240.65106201171875 C-399.58250726776225 238.25285565820764 -399.58250726776225 238.25285565820764 -378.68359375 236.453125 C-377.9809734916687 236.39304763793945 -377.2783532333374 236.3329702758789 -376.55444145202637 236.2710723876953 C-294.1096803288624 229.150211023802 -215.57493090871571 204.11589439810496 -146 159 C-145.46697265624994 158.65646484374997 -145.46697265624994 158.65646484374997 -142.76953125 156.91796875 C-127.85446081593182 147.14602605181733 -113.65654367990328 136.45410342295796 -100 125 C-99.3917236328125 124.4908203125 -98.783447265625 123.98164062500001 -98.15673828125 123.45703125 C-90.14286290195173 116.72580852925068 -82.37001976454212 109.7636178754089 -74.72998046875 102.6123046875 C-72.86087946336124 100.87034264409226 -70.98005796465054 99.1416386378256 -69.09765625 97.4140625 C-57.24752002364528 86.50653424164429 -57.24752002364528 86.50653424164429 -52.5859375 80.8984375 C-50.71154200441856 78.65470299051094 -48.73214518047257 76.52406266935452 -46.75 74.375 C-41.6810660142628 68.74762413447814 -37.00599982773008 62.85289075609208 -32.4072265625 56.83984375 C-31.48075095931597 55.62854601481695 -30.550501128655355 54.42012425065775 -29.6162109375 53.21484375 C-17.879970459464516 38.033637161496415 -4.344092183868952 18.97231658080389 0 0 Z " transform="translate(926,109)"/>
  <path class="dot"       d="M0 0 C0.3541296386718784 -0.0027795410155704303 0.3541296386718784 -0.0027795410155704303 2.146240234375 -0.016845703125 C13.817920947324211 0.14133646337734262 24.814893449946823 4.466129509645839 33.3125 12.5625 C43.509526109535216 23.592314085813086 46.23831816110112 34.27713556842707 45.8125 49.015625 C45.06775377039449 60.98476083294565 38.63761085036447 70.71538824180743 30 78.625 C20.012233717352217 86.65960309848549 8.058849063114963 89.41259402905825 -4.5625 88.3125 C-11.373609281855181 87.19486256730556 -17.145229523775072 85.67641232807011 -22.5625 81.3125 C-22.892499999999984 81.47749999999996 -22.892499999999984 81.47749999999996 -24.5625 82.3125 C-24.593437499999993 82.00312499999995 -24.593437499999993 82.00312499999995 -24.75 80.4375 C-25.018124999999998 79.73625000000004 -25.286249999999995 79.03499999999997 -25.5625 78.3125 C-27.210103802677793 77.60002267992309 -28.88013529040245 76.93849617101307 -30.5625 76.3125 C-34.075361820589194 73.33526265502542 -35.80043658640287 70.23182335360207 -37.6875 66.0625 C-38.18507812499999 64.98484374999998 -38.68265625000001 63.907187499999964 -39.1953125 62.796875 C-43.31560330027756 52.29601958900696 -45.19213540724428 39.696696249411616 -41.08984375 28.90234375 C-36.157922872035726 17.804878592410546 -28.546263515102567 8.793634435129434 -17.5625 3.3125 C-17.248613281250016 3.153300781249982 -17.248613281250016 3.153300781249982 -15.66015625 2.34765625 C-10.52301105557973 0.2080007659516241 -5.488589652730184 0.0362067663909329 0 0 Z " transform="translate(202.5625,817.6875)"/>
</svg>
