<?xml version='1.0' encoding='UTF-8'?>
<svg width="53mm" height="53mm" version="1.1" viewBox="0 0 53 53" xmlns="http://www.w3.org/2000/svg"><path d="M2,2H3V3H2zM3,2H4V3H3zM4,2H5V3H4zM5,2H6V3H5zM6,2H7V3H6zM7,2H8V3H7zM8,2H9V3H8zM10,2H11V3H10zM11,2H12V3H11zM13,2H14V3H13zM14,2H15V3H14zM18,2H19V3H18zM25,2H26V3H25zM32,2H33V3H32zM33,2H34V3H33zM35,2H36V3H35zM37,2H38V3H37zM38,2H39V3H38zM39,2H40V3H39zM42,2H43V3H42zM44,2H45V3H44zM45,2H46V3H45zM46,2H47V3H46zM47,2H48V3H47zM48,2H49V3H48zM49,2H50V3H49zM50,2H51V3H50zM2,3H3V4H2zM8,3H9V4H8zM10,3H11V4H10zM12,3H13V4H12zM14,3H15V4H14zM16,3H17V4H16zM17,3H18V4H17zM18,3H19V4H18zM21,3H22V4H21zM23,3H24V4H23zM24,3H25V4H24zM26,3H27V4H26zM27,3H28V4H27zM28,3H29V4H28zM34,3H35V4H34zM35,3H36V4H35zM37,3H38V4H37zM40,3H41V4H40zM41,3H42V4H41zM42,3H43V4H42zM44,3H45V4H44zM50,3H51V4H50zM2,4H3V5H2zM4,4H5V5H4zM5,4H6V5H5zM6,4H7V5H6zM8,4H9V5H8zM11,4H12V5H11zM12,4H13V5H12zM13,4H14V5H13zM14,4H15V5H14zM15,4H16V5H15zM21,4H22V5H21zM23,4H24V5H23zM24,4H25V5H24zM25,4H26V5H25zM28,4H29V5H28zM29,4H30V5H29zM31,4H32V5H31zM33,4H34V5H33zM34,4H35V5H34zM38,4H39V5H38zM39,4H40V5H39zM41,4H42V5H41zM42,4H43V5H42zM44,4H45V5H44zM46,4H47V5H46zM47,4H48V5H47zM48,4H49V5H48zM50,4H51V5H50zM2,5H3V6H2zM4,5H5V6H4zM5,5H6V6H5zM6,5H7V6H6zM8,5H9V6H8zM10,5H11V6H10zM12,5H13V6H12zM13,5H14V6H13zM14,5H15V6H14zM15,5H16V6H15zM16,5H17V6H16zM17,5H18V6H17zM19,5H20V6H19zM21,5H22V6H21zM23,5H24V6H23zM24,5H25V6H24zM26,5H27V6H26zM27,5H28V6H27zM28,5H29V6H28zM31,5H32V6H31zM32,5H33V6H32zM33,5H34V6H33zM35,5H36V6H35zM37,5H38V6H37zM38,5H39V6H38zM39,5H40V6H39zM41,5H42V6H41zM44,5H45V6H44zM46,5H47V6H46zM47,5H48V6H47zM48,5H49V6H48zM50,5H51V6H50zM2,6H3V7H2zM4,6H5V7H4zM5,6H6V7H5zM6,6H7V7H6zM8,6H9V7H8zM11,6H12V7H11zM12,6H13V7H12zM13,6H14V7H13zM15,6H16V7H15zM16,6H17V7H16zM17,6H18V7H17zM19,6H20V7H19zM22,6H23V7H22zM24,6H25V7H24zM25,6H26V7H25zM26,6H27V7H26zM27,6H28V7H27zM28,6H29V7H28zM29,6H30V7H29zM30,6H31V7H30zM33,6H34V7H33zM34,6H35V7H34zM39,6H40V7H39zM44,6H45V7H44zM46,6H47V7H46zM47,6H48V7H47zM48,6H49V7H48zM50,6H51V7H50zM2,7H3V8H2zM8,7H9V8H8zM11,7H12V8H11zM15,7H16V8H15zM16,7H17V8H16zM17,7H18V8H17zM18,7H19V8H18zM20,7H21V8H20zM23,7H24V8H23zM24,7H25V8H24zM28,7H29V8H28zM30,7H31V8H30zM31,7H32V8H31zM32,7H33V8H32zM33,7H34V8H33zM34,7H35V8H34zM38,7H39V8H38zM39,7H40V8H39zM40,7H41V8H40zM44,7H45V8H44zM50,7H51V8H50zM2,8H3V9H2zM3,8H4V9H3zM4,8H5V9H4zM5,8H6V9H5zM6,8H7V9H6zM7,8H8V9H7zM8,8H9V9H8zM10,8H11V9H10zM12,8H13V9H12zM14,8H15V9H14zM16,8H17V9H16zM18,8H19V9H18zM20,8H21V9H20zM22,8H23V9H22zM24,8H25V9H24zM26,8H27V9H26zM28,8H29V9H28zM30,8H31V9H30zM32,8H33V9H32zM34,8H35V9H34zM36,8H37V9H36zM38,8H39V9H38zM40,8H41V9H40zM42,8H43V9H42zM44,8H45V9H44zM45,8H46V9H45zM46,8H47V9H46zM47,8H48V9H47zM48,8H49V9H48zM49,8H50V9H49zM50,8H51V9H50zM10,9H11V10H10zM12,9H13V10H12zM16,9H17V10H16zM22,9H23V10H22zM23,9H24V10H23zM24,9H25V10H24zM28,9H29V10H28zM29,9H30V10H29zM30,9H31V10H30zM32,9H33V10H32zM38,9H39V10H38zM41,9H42V10H41zM42,9H43V10H42zM2,10H3V11H2zM4,10H5V11H4zM5,10H6V11H5zM7,10H8V11H7zM8,10H9V11H8zM9,10H10V11H9zM11,10H12V11H11zM12,10H13V11H12zM13,10H14V11H13zM15,10H16V11H15zM19,10H20V11H19zM20,10H21V11H20zM21,10H22V11H21zM22,10H23V11H22zM24,10H25V11H24zM25,10H26V11H25zM26,10H27V11H26zM27,10H28V11H27zM28,10H29V11H28zM29,10H30V11H29zM30,10H31V11H30zM31,10H32V11H31zM33,10H34V11H33zM35,10H36V11H35zM37,10H38V11H37zM39,10H40V11H39zM42,10H43V11H42zM44,10H45V11H44zM47,10H48V11H47zM49,10H50V11H49zM50,10H51V11H50zM2,11H3V12H2zM4,11H5V12H4zM5,11H6V12H5zM9,11H10V12H9zM10,11H11V12H10zM11,11H12V12H11zM12,11H13V12H12zM16,11H17V12H16zM17,11H18V12H17zM18,11H19V12H18zM19,11H20V12H19zM21,11H22V12H21zM24,11H25V12H24zM25,11H26V12H25zM26,11H27V12H26zM27,11H28V12H27zM29,11H30V12H29zM30,11H31V12H30zM31,11H32V12H31zM32,11H33V12H32zM37,11H38V12H37zM41,11H42V12H41zM44,11H45V12H44zM45,11H46V12H45zM49,11H50V12H49zM2,12H3V13H2zM4,12H5V13H4zM5,12H6V13H5zM7,12H8V13H7zM8,12H9V13H8zM9,12H10V13H9zM13,12H14V13H13zM14,12H15V13H14zM15,12H16V13H15zM16,12H17V13H16zM21,12H22V13H21zM23,12H24V13H23zM25,12H26V13H25zM29,12H30V13H29zM30,12H31V13H30zM31,12H32V13H31zM32,12H33V13H32zM33,12H34V13H33zM34,12H35V13H34zM35,12H36V13H35zM36,12H37V13H36zM38,12H39V13H38zM39,12H40V13H39zM42,12H43V13H42zM43,12H44V13H43zM44,12H45V13H44zM45,12H46V13H45zM46,12H47V13H46zM47,12H48V13H47zM49,12H50V13H49zM3,13H4V14H3zM6,13H7V14H6zM11,13H12V14H11zM12,13H13V14H12zM13,13H14V14H13zM14,13H15V14H14zM15,13H16V14H15zM16,13H17V14H16zM18,13H19V14H18zM19,13H20V14H19zM20,13H21V14H20zM21,13H22V14H21zM23,13H24V14H23zM24,13H25V14H24zM26,13H27V14H26zM27,13H28V14H27zM31,13H32V14H31zM32,13H33V14H32zM33,13H34V14H33zM34,13H35V14H34zM35,13H36V14H35zM37,13H38V14H37zM38,13H39V14H38zM39,13H40V14H39zM42,13H43V14H42zM44,13H45V14H44zM45,13H46V14H45zM46,13H47V14H46zM47,13H48V14H47zM48,13H49V14H48zM50,13H51V14H50zM2,14H3V15H2zM4,14H5V15H4zM5,14H6V15H5zM8,14H9V15H8zM11,14H12V15H11zM15,14H16V15H15zM16,14H17V15H16zM18,14H19V15H18zM19,14H20V15H19zM20,14H21V15H20zM24,14H25V15H24zM26,14H27V15H26zM28,14H29V15H28zM29,14H30V15H29zM33,14H34V15H33zM37,14H38V15H37zM38,14H39V15H38zM39,14H40V15H39zM40,14H41V15H40zM42,14H43V15H42zM45,14H46V15H45zM47,14H48V15H47zM48,14H49V15H48zM50,14H51V15H50zM2,15H3V16H2zM7,15H8V16H7zM9,15H10V16H9zM10,15H11V16H10zM12,15H13V16H12zM16,15H17V16H16zM17,15H18V16H17zM18,15H19V16H18zM20,15H21V16H20zM21,15H22V16H21zM23,15H24V16H23zM24,15H25V16H24zM27,15H28V16H27zM28,15H29V16H28zM29,15H30V16H29zM30,15H31V16H30zM33,15H34V16H33zM35,15H36V16H35zM37,15H38V16H37zM39,15H40V16H39zM40,15H41V16H40zM41,15H42V16H41zM43,15H44V16H43zM47,15H48V16H47zM48,15H49V16H48zM50,15H51V16H50zM2,16H3V17H2zM3,16H4V17H3zM5,16H6V17H5zM7,16H8V17H7zM8,16H9V17H8zM10,16H11V17H10zM11,16H12V17H11zM12,16H13V17H12zM16,16H17V17H16zM17,16H18V17H17zM18,16H19V17H18zM21,16H22V17H21zM22,16H23V17H22zM25,16H26V17H25zM27,16H28V17H27zM28,16H29V17H28zM30,16H31V17H30zM31,16H32V17H31zM32,16H33V17H32zM34,16H35V17H34zM38,16H39V17H38zM39,16H40V17H39zM40,16H41V17H40zM44,16H45V17H44zM45,16H46V17H45zM47,16H48V17H47zM48,16H49V17H48zM49,16H50V17H49zM2,17H3V18H2zM3,17H4V18H3zM5,17H6V18H5zM9,17H10V18H9zM13,17H14V18H13zM15,17H16V18H15zM16,17H17V18H16zM17,17H18V18H17zM18,17H19V18H18zM21,17H22V18H21zM22,17H23V18H22zM24,17H25V18H24zM25,17H26V18H25zM27,17H28V18H27zM29,17H30V18H29zM31,17H32V18H31zM36,17H37V18H36zM38,17H39V18H38zM39,17H40V18H39zM40,17H41V18H40zM42,17H43V18H42zM43,17H44V18H43zM46,17H47V18H46zM50,17H51V18H50zM4,18H5V19H4zM5,18H6V19H5zM8,18H9V19H8zM9,18H10V19H9zM10,18H11V19H10zM14,18H15V19H14zM15,18H16V19H15zM18,18H19V19H18zM20,18H21V19H20zM21,18H22V19H21zM28,18H29V19H28zM29,18H30V19H29zM30,18H31V19H30zM31,18H32V19H31zM32,18H33V19H32zM33,18H34V19H33zM36,18H37V19H36zM38,18H39V19H38zM41,18H42V19H41zM42,18H43V19H42zM43,18H44V19H43zM45,18H46V19H45zM46,18H47V19H46zM47,18H48V19H47zM48,18H49V19H48zM49,18H50V19H49zM50,18H51V19H50zM2,19H3V20H2zM3,19H4V20H3zM4,19H5V20H4zM7,19H8V20H7zM10,19H11V20H10zM13,19H14V20H13zM14,19H15V20H14zM15,19H16V20H15zM16,19H17V20H16zM17,19H18V20H17zM18,19H19V20H18zM20,19H21V20H20zM25,19H26V20H25zM31,19H32V20H31zM32,19H33V20H32zM33,19H34V20H33zM34,19H35V20H34zM35,19H36V20H35zM38,19H39V20H38zM40,19H41V20H40zM42,19H43V20H42zM43,19H44V20H43zM47,19H48V20H47zM48,19H49V20H48zM50,19H51V20H50zM2,20H3V21H2zM3,20H4V21H3zM5,20H6V21H5zM6,20H7V21H6zM8,20H9V21H8zM10,20H11V21H10zM11,20H12V21H11zM12,20H13V21H12zM17,20H18V21H17zM21,20H22V21H21zM23,20H24V21H23zM28,20H29V21H28zM30,20H31V21H30zM32,20H33V21H32zM33,20H34V21H33zM34,20H35V21H34zM35,20H36V21H35zM37,20H38V21H37zM42,20H43V21H42zM47,20H48V21H47zM50,20H51V21H50zM2,21H3V22H2zM12,21H13V22H12zM15,21H16V22H15zM16,21H17V22H16zM21,21H22V22H21zM23,21H24V22H23zM25,21H26V22H25zM26,21H27V22H26zM27,21H28V22H27zM30,21H31V22H30zM35,21H36V22H35zM36,21H37V22H36zM37,21H38V22H37zM38,21H39V22H38zM39,21H40V22H39zM40,21H41V22H40zM41,21H42V22H41zM42,21H43V22H42zM45,21H46V22H45zM47,21H48V22H47zM49,21H50V22H49zM50,21H51V22H50zM3,22H4V23H3zM7,22H8V23H7zM8,22H9V23H8zM9,22H10V23H9zM10,22H11V23H10zM11,22H12V23H11zM12,22H13V23H12zM13,22H14V23H13zM15,22H16V23H15zM18,22H19V23H18zM20,22H21V23H20zM21,22H22V23H21zM22,22H23V23H22zM23,22H24V23H23zM25,22H26V23H25zM27,22H28V23H27zM28,22H29V23H28zM29,22H30V23H29zM30,22H31V23H30zM32,22H33V23H32zM37,22H38V23H37zM39,22H40V23H39zM43,22H44V23H43zM45,22H46V23H45zM47,22H48V23H47zM49,22H50V23H49zM50,22H51V23H50zM2,23H3V24H2zM3,23H4V24H3zM6,23H7V24H6zM7,23H8V24H7zM10,23H11V24H10zM12,23H13V24H12zM13,23H14V24H13zM14,23H15V24H14zM19,23H20V24H19zM20,23H21V24H20zM21,23H22V24H21zM27,23H28V24H27zM28,23H29V24H28zM31,23H32V24H31zM32,23H33V24H32zM33,23H34V24H33zM38,23H39V24H38zM39,23H40V24H39zM41,23H42V24H41zM43,23H44V24H43zM44,23H45V24H44zM45,23H46V24H45zM46,23H47V24H46zM3,24H4V25H3zM5,24H6V25H5zM6,24H7V25H6zM7,24H8V25H7zM8,24H9V25H8zM9,24H10V25H9zM10,24H11V25H10zM13,24H14V25H13zM14,24H15V25H14zM17,24H18V25H17zM18,24H19V25H18zM19,24H20V25H19zM20,24H21V25H20zM21,24H22V25H21zM24,24H25V25H24zM25,24H26V25H25zM26,24H27V25H26zM27,24H28V25H27zM28,24H29V25H28zM31,24H32V25H31zM32,24H33V25H32zM33,24H34V25H33zM36,24H37V25H36zM38,24H39V25H38zM41,24H42V25H41zM42,24H43V25H42zM43,24H44V25H43zM44,24H45V25H44zM45,24H46V25H45zM46,24H47V25H46zM48,24H49V25H48zM2,25H3V26H2zM3,25H4V26H3zM5,25H6V26H5zM6,25H7V26H6zM10,25H11V26H10zM11,25H12V26H11zM13,25H14V26H13zM14,25H15V26H14zM16,25H17V26H16zM18,25H19V26H18zM19,25H20V26H19zM22,25H23V26H22zM23,25H24V26H23zM24,25H25V26H24zM28,25H29V26H28zM32,25H33V26H32zM34,25H35V26H34zM35,25H36V26H35zM36,25H37V26H36zM38,25H39V26H38zM42,25H43V26H42zM46,25H47V26H46zM48,25H49V26H48zM49,25H50V26H49zM4,26H5V27H4zM6,26H7V27H6zM8,26H9V27H8zM10,26H11V27H10zM11,26H12V27H11zM12,26H13V27H12zM13,26H14V27H13zM14,26H15V27H14zM16,26H17V27H16zM18,26H19V27H18zM20,26H21V27H20zM21,26H22V27H21zM22,26H23V27H22zM23,26H24V27H23zM24,26H25V27H24zM26,26H27V27H26zM28,26H29V27H28zM31,26H32V27H31zM32,26H33V27H32zM33,26H34V27H33zM35,26H36V27H35zM36,26H37V27H36zM38,26H39V27H38zM39,26H40V27H39zM42,26H43V27H42zM44,26H45V27H44zM46,26H47V27H46zM47,26H48V27H47zM48,26H49V27H48zM49,26H50V27H49zM2,27H3V28H2zM6,27H7V28H6zM10,27H11V28H10zM11,27H12V28H11zM12,27H13V28H12zM13,27H14V28H13zM14,27H15V28H14zM15,27H16V28H15zM18,27H19V28H18zM20,27H21V28H20zM22,27H23V28H22zM24,27H25V28H24zM28,27H29V28H28zM29,27H30V28H29zM30,27H31V28H30zM33,27H34V28H33zM34,27H35V28H34zM35,27H36V28H35zM37,27H38V28H37zM38,27H39V28H38zM40,27H41V28H40zM41,27H42V28H41zM42,27H43V28H42zM46,27H47V28H46zM47,27H48V28H47zM48,27H49V28H48zM50,27H51V28H50zM3,28H4V29H3zM5,28H6V29H5zM6,28H7V29H6zM7,28H8V29H7zM8,28H9V29H8zM9,28H10V29H9zM10,28H11V29H10zM12,28H13V29H12zM15,28H16V29H15zM17,28H18V29H17zM18,28H19V29H18zM20,28H21V29H20zM21,28H22V29H21zM22,28H23V29H22zM23,28H24V29H23zM24,28H25V29H24zM25,28H26V29H25zM26,28H27V29H26zM27,28H28V29H27zM28,28H29V29H28zM29,28H30V29H29zM30,28H31V29H30zM32,28H33V29H32zM40,28H41V29H40zM42,28H43V29H42zM43,28H44V29H43zM44,28H45V29H44zM45,28H46V29H45zM46,28H47V29H46zM2,29H3V30H2zM3,29H4V30H3zM5,29H6V30H5zM6,29H7V30H6zM9,29H10V30H9zM12,29H13V30H12zM16,29H17V30H16zM18,29H19V30H18zM23,29H24V30H23zM25,29H26V30H25zM26,29H27V30H26zM30,29H31V30H30zM31,29H32V30H31zM32,29H33V30H32zM34,29H35V30H34zM35,29H36V30H35zM37,29H38V30H37zM39,29H40V30H39zM42,29H43V30H42zM43,29H44V30H43zM50,29H51V30H50zM5,30H6V31H5zM7,30H8V31H7zM8,30H9V31H8zM9,30H10V31H9zM10,30H11V31H10zM11,30H12V31H11zM14,30H15V31H14zM15,30H16V31H15zM16,30H17V31H16zM19,30H20V31H19zM20,30H21V31H20zM21,30H22V31H21zM22,30H23V31H22zM23,30H24V31H23zM25,30H26V31H25zM27,30H28V31H27zM28,30H29V31H28zM29,30H30V31H29zM31,30H32V31H31zM34,30H35V31H34zM35,30H36V31H35zM39,30H40V31H39zM40,30H41V31H40zM42,30H43V31H42zM44,30H45V31H44zM47,30H48V31H47zM48,30H49V31H48zM49,30H50V31H49zM3,31H4V32H3zM4,31H5V32H4zM6,31H7V32H6zM7,31H8V32H7zM10,31H11V32H10zM12,31H13V32H12zM20,31H21V32H20zM21,31H22V32H21zM25,31H26V32H25zM26,31H27V32H26zM27,31H28V32H27zM30,31H31V32H30zM31,31H32V32H31zM35,31H36V32H35zM36,31H37V32H36zM37,31H38V32H37zM38,31H39V32H38zM43,31H44V32H43zM48,31H49V32H48zM50,31H51V32H50zM2,32H3V33H2zM7,32H8V33H7zM8,32H9V33H8zM10,32H11V33H10zM11,32H12V33H11zM16,32H17V33H16zM18,32H19V33H18zM21,32H22V33H21zM24,32H25V33H24zM27,32H28V33H27zM33,32H34V33H33zM34,32H35V33H34zM35,32H36V33H35zM36,32H37V33H36zM37,32H38V33H37zM39,32H40V33H39zM40,32H41V33H40zM41,32H42V33H41zM43,32H44V33H43zM44,32H45V33H44zM48,32H49V33H48zM49,32H50V33H49zM50,32H51V33H50zM3,33H4V34H3zM4,33H5V34H4zM9,33H10V34H9zM10,33H11V34H10zM12,33H13V34H12zM15,33H16V34H15zM16,33H17V34H16zM17,33H18V34H17zM18,33H19V34H18zM19,33H20V34H19zM22,33H23V34H22zM24,33H25V34H24zM26,33H27V34H26zM29,33H30V34H29zM31,33H32V34H31zM33,33H34V34H33zM34,33H35V34H34zM40,33H41V34H40zM41,33H42V34H41zM42,33H43V34H42zM44,33H45V34H44zM45,33H46V34H45zM46,33H47V34H46zM47,33H48V34H47zM49,33H50V34H49zM2,34H3V35H2zM7,34H8V35H7zM8,34H9V35H8zM9,34H10V35H9zM12,34H13V35H12zM16,34H17V35H16zM19,34H20V35H19zM20,34H21V35H20zM21,34H22V35H21zM22,34H23V35H22zM24,34H25V35H24zM26,34H27V35H26zM27,34H28V35H27zM30,34H31V35H30zM31,34H32V35H31zM33,34H34V35H33zM35,34H36V35H35zM36,34H37V35H36zM43,34H44V35H43zM44,34H45V35H44zM46,34H47V35H46zM49,34H50V35H49zM50,34H51V35H50zM3,35H4V36H3zM4,35H5V36H4zM6,35H7V36H6zM7,35H8V36H7zM10,35H11V36H10zM12,35H13V36H12zM15,35H16V36H15zM17,35H18V36H17zM18,35H19V36H18zM19,35H20V36H19zM20,35H21V36H20zM23,35H24V36H23zM24,35H25V36H24zM25,35H26V36H25zM26,35H27V36H26zM27,35H28V36H27zM32,35H33V36H32zM33,35H34V36H33zM35,35H36V36H35zM37,35H38V36H37zM38,35H39V36H38zM41,35H42V36H41zM42,35H43V36H42zM43,35H44V36H43zM45,35H46V36H45zM2,36H3V37H2zM4,36H5V37H4zM8,36H9V37H8zM9,36H10V37H9zM10,36H11V37H10zM11,36H12V37H11zM13,36H14V37H13zM14,36H15V37H14zM15,36H16V37H15zM18,36H19V37H18zM25,36H26V37H25zM26,36H27V37H26zM27,36H28V37H27zM28,36H29V37H28zM34,36H35V37H34zM35,36H36V37H35zM37,36H38V37H37zM39,36H40V37H39zM40,36H41V37H40zM43,36H44V37H43zM45,36H46V37H45zM46,36H47V37H46zM2,37H3V38H2zM3,37H4V38H3zM4,37H5V38H4zM10,37H11V38H10zM13,37H14V38H13zM18,37H19V38H18zM21,37H22V38H21zM23,37H24V38H23zM25,37H26V38H25zM28,37H29V38H28zM31,37H32V38H31zM33,37H34V38H33zM34,37H35V38H34zM36,37H37V38H36zM38,37H39V38H38zM41,37H42V38H41zM42,37H43V38H42zM44,37H45V38H44zM46,37H47V38H46zM47,37H48V38H47zM48,37H49V38H48zM49,37H50V38H49zM50,37H51V38H50zM3,38H4V39H3zM4,38H5V39H4zM5,38H6V39H5zM6,38H7V39H6zM7,38H8V39H7zM8,38H9V39H8zM9,38H10V39H9zM12,38H13V39H12zM14,38H15V39H14zM15,38H16V39H15zM18,38H19V39H18zM20,38H21V39H20zM22,38H23V39H22zM23,38H24V39H23zM28,38H29V39H28zM31,38H32V39H31zM32,38H33V39H32zM36,38H37V39H36zM37,38H38V39H37zM38,38H39V39H38zM39,38H40V39H39zM41,38H42V39H41zM42,38H43V39H42zM46,38H47V39H46zM48,38H49V39H48zM49,38H50V39H49zM2,39H3V40H2zM3,39H4V40H3zM5,39H6V40H5zM6,39H7V40H6zM10,39H11V40H10zM12,39H13V40H12zM13,39H14V40H13zM15,39H16V40H15zM18,39H19V40H18zM21,39H22V40H21zM22,39H23V40H22zM27,39H28V40H27zM28,39H29V40H28zM30,39H31V40H30zM33,39H34V40H33zM34,39H35V40H34zM35,39H36V40H35zM39,39H40V40H39zM40,39H41V40H40zM41,39H42V40H41zM44,39H45V40H44zM45,39H46V40H45zM46,39H47V40H46zM47,39H48V40H47zM48,39H49V40H48zM49,39H50V40H49zM50,39H51V40H50zM3,40H4V41H3zM7,40H8V41H7zM8,40H9V41H8zM13,40H14V41H13zM16,40H17V41H16zM18,40H19V41H18zM22,40H23V41H22zM23,40H24V41H23zM30,40H31V41H30zM32,40H33V41H32zM37,40H38V41H37zM38,40H39V41H38zM40,40H41V41H40zM42,40H43V41H42zM43,40H44V41H43zM45,40H46V41H45zM47,40H48V41H47zM49,40H50V41H49zM3,41H4V42H3zM4,41H5V42H4zM5,41H6V42H5zM11,41H12V42H11zM12,41H13V42H12zM13,41H14V42H13zM15,41H16V42H15zM16,41H17V42H16zM17,41H18V42H17zM20,41H21V42H20zM25,41H26V42H25zM26,41H27V42H26zM27,41H28V42H27zM28,41H29V42H28zM29,41H30V42H29zM30,41H31V42H30zM32,41H33V42H32zM34,41H35V42H34zM37,41H38V42H37zM42,41H43V42H42zM43,41H44V42H43zM45,41H46V42H45zM49,41H50V42H49zM50,41H51V42H50zM2,42H3V43H2zM3,42H4V43H3zM4,42H5V43H4zM8,42H9V43H8zM9,42H10V43H9zM10,42H11V43H10zM12,42H13V43H12zM13,42H14V43H13zM14,42H15V43H14zM15,42H16V43H15zM16,42H17V43H16zM18,42H19V43H18zM19,42H20V43H19zM20,42H21V43H20zM21,42H22V43H21zM23,42H24V43H23zM24,42H25V43H24zM25,42H26V43H25zM26,42H27V43H26zM27,42H28V43H27zM28,42H29V43H28zM29,42H30V43H29zM33,42H34V43H33zM34,42H35V43H34zM35,42H36V43H35zM36,42H37V43H36zM37,42H38V43H37zM40,42H41V43H40zM42,42H43V43H42zM43,42H44V43H43zM44,42H45V43H44zM45,42H46V43H45zM46,42H47V43H46zM47,42H48V43H47zM48,42H49V43H48zM50,42H51V43H50zM10,43H11V44H10zM11,43H12V44H11zM15,43H16V44H15zM16,43H17V44H16zM17,43H18V44H17zM19,43H20V44H19zM20,43H21V44H20zM24,43H25V44H24zM28,43H29V44H28zM29,43H30V44H29zM30,43H31V44H30zM36,43H37V44H36zM37,43H38V44H37zM39,43H40V44H39zM41,43H42V44H41zM42,43H43V44H42zM46,43H47V44H46zM47,43H48V44H47zM48,43H49V44H48zM49,43H50V44H49zM50,43H51V44H50zM2,44H3V45H2zM3,44H4V45H3zM4,44H5V45H4zM5,44H6V45H5zM6,44H7V45H6zM7,44H8V45H7zM8,44H9V45H8zM10,44H11V45H10zM11,44H12V45H11zM12,44H13V45H12zM13,44H14V45H13zM15,44H16V45H15zM16,44H17V45H16zM17,44H18V45H17zM18,44H19V45H18zM19,44H20V45H19zM20,44H21V45H20zM22,44H23V45H22zM24,44H25V45H24zM26,44H27V45H26zM28,44H29V45H28zM30,44H31V45H30zM33,44H34V45H33zM34,44H35V45H34zM35,44H36V45H35zM36,44H37V45H36zM39,44H40V45H39zM40,44H41V45H40zM42,44H43V45H42zM44,44H45V45H44zM46,44H47V45H46zM47,44H48V45H47zM50,44H51V45H50zM2,45H3V46H2zM8,45H9V46H8zM10,45H11V46H10zM11,45H12V46H11zM13,45H14V46H13zM14,45H15V46H14zM15,45H16V46H15zM18,45H19V46H18zM21,45H22V46H21zM22,45H23V46H22zM24,45H25V46H24zM28,45H29V46H28zM29,45H30V46H29zM30,45H31V46H30zM35,45H36V46H35zM37,45H38V46H37zM38,45H39V46H38zM40,45H41V46H40zM41,45H42V46H41zM42,45H43V46H42zM46,45H47V46H46zM49,45H50V46H49zM50,45H51V46H50zM2,46H3V47H2zM4,46H5V47H4zM5,46H6V47H5zM6,46H7V47H6zM8,46H9V47H8zM11,46H12V47H11zM13,46H14V47H13zM14,46H15V47H14zM16,46H17V47H16zM18,46H19V47H18zM19,46H20V47H19zM21,46H22V47H21zM23,46H24V47H23zM24,46H25V47H24zM25,46H26V47H25zM26,46H27V47H26zM27,46H28V47H27zM28,46H29V47H28zM29,46H30V47H29zM30,46H31V47H30zM31,46H32V47H31zM35,46H36V47H35zM37,46H38V47H37zM39,46H40V47H39zM40,46H41V47H40zM41,46H42V47H41zM42,46H43V47H42zM43,46H44V47H43zM44,46H45V47H44zM45,46H46V47H45zM46,46H47V47H46zM2,47H3V48H2zM4,47H5V48H4zM5,47H6V48H5zM6,47H7V48H6zM8,47H9V48H8zM10,47H11V48H10zM13,47H14V48H13zM16,47H17V48H16zM18,47H19V48H18zM19,47H20V48H19zM21,47H22V48H21zM22,47H23V48H22zM23,47H24V48H23zM24,47H25V48H24zM25,47H26V48H25zM29,47H30V48H29zM30,47H31V48H30zM31,47H32V48H31zM32,47H33V48H32zM33,47H34V48H33zM34,47H35V48H34zM41,47H42V48H41zM42,47H43V48H42zM44,47H45V48H44zM45,47H46V48H45zM46,47H47V48H46zM47,47H48V48H47zM48,47H49V48H48zM49,47H50V48H49zM2,48H3V49H2zM4,48H5V49H4zM5,48H6V49H5zM6,48H7V49H6zM8,48H9V49H8zM10,48H11V49H10zM13,48H14V49H13zM16,48H17V49H16zM17,48H18V49H17zM18,48H19V49H18zM19,48H20V49H19zM23,48H24V49H23zM27,48H28V49H27zM28,48H29V49H28zM29,48H30V49H29zM30,48H31V49H30zM32,48H33V49H32zM33,48H34V49H33zM36,48H37V49H36zM41,48H42V49H41zM43,48H44V49H43zM45,48H46V49H45zM46,48H47V49H46zM47,48H48V49H47zM2,49H3V50H2zM8,49H9V50H8zM11,49H12V50H11zM12,49H13V50H12zM13,49H14V50H13zM14,49H15V50H14zM15,49H16V50H15zM17,49H18V50H17zM18,49H19V50H18zM19,49H20V50H19zM22,49H23V50H22zM23,49H24V50H23zM24,49H25V50H24zM25,49H26V50H25zM27,49H28V50H27zM30,49H31V50H30zM31,49H32V50H31zM32,49H33V50H32zM33,49H34V50H33zM35,49H36V50H35zM40,49H41V50H40zM41,49H42V50H41zM43,49H44V50H43zM45,49H46V50H45zM47,49H48V50H47zM48,49H49V50H48zM2,50H3V51H2zM3,50H4V51H3zM4,50H5V51H4zM5,50H6V51H5zM6,50H7V51H6zM7,50H8V51H7zM8,50H9V51H8zM10,50H11V51H10zM11,50H12V51H11zM13,50H14V51H13zM19,50H20V51H19zM20,50H21V51H20zM21,50H22V51H21zM22,50H23V51H22zM25,50H26V51H25zM26,50H27V51H26zM27,50H28V51H27zM30,50H31V51H30zM33,50H34V51H33zM34,50H35V51H34zM35,50H36V51H35zM36,50H37V51H36zM37,50H38V51H37zM40,50H41V51H40zM48,50H49V51H48zM49,50H50V51H49zM50,50H51V51H50z" id="qr-path" fill="#000000" fill-opacity="1" fill-rule="nonzero" stroke="none"/></svg>