<svg xmlns="http://www.w3.org/2000/svg" viewBox="0 0 1024 1024"><style>:root {
      --bg-color: #ffffff;
      --gold-light: #f5d97a;
      --gold-mid: #d4a13a;
      --gold-dark: #8a6517;
      --gold-deep: #4d3a0c;
      --leaf-interior: #ffffff;
      --dot-color: #ffffff;
    }
    .background { fill: var(--bg-color); }
    .gold       { fill: url(#gold-grad); }
    .leaf-fill  { fill: var(--leaf-interior); }
    .dot        { fill: var(--dot-color); }</style><defs><linearGradient id="gold-grad" x1=".1" x2=".8" y1=".1" y2=".9"><stop offset="0" stop-color="var(--gold-light)"/><stop offset=".4" stop-color="var(--gold-mid)"/><stop offset=".8" stop-color="var(--gold-dark)"/><stop offset="1" stop-color="var(--gold-deep)"/></linearGradient></defs><path d="M0 0h1024v1024H0z" class="background"/><path d="m793 84 2 1.3a417 417 0 0 1 58.3 45.2l7.9 7.1q7.1 6.5 13.8 13.4c3.3-1.1 3.8-1.7 5.8-4.4l1.5-2.2 1.7-2.4 1.8-2.5A311 311 0 0 0 929 56c1.8 2.7 2.8 4.8 3.9 7.8l1.1 3 1.3 3.3 1.3 3.6a1682 1682 0 0 1 12.3 35.1c24 69.8 43.5 141.7 57.1 214.2l.6 3a952 952 0 0 1 16.8 149 634 634 0 0 1-4.4 104l-.5 3.8q-4 28.3-10.5 56.2l-.7 3c-6 27-15.1 53.7-26.3 79l-1.3 2.9a448 448 0 0 1-59.2 99.4 508 508 0 0 1-30 35q-4.2 4.6-8.2 9.4C881 869 881 869 879 869l-.8 1.8a17 17 0 0 1-4.8 5.4q-4.6 3.9-8.7 8.2-6 6-12.8 11.2l-7.5 6.3a419 419 0 0 1-42.6 31.6A508 508 0 0 1 759 959l-3.3 1.8q-39 20.8-80.7 35.2l-3.3 1.2A507 507 0 0 1 528 1024h-3.4c-93 2-183-22.7-325.6-108l-9.3-7.3q-4.2-3.3-8.5-6.3c-3.4-2.6-3.3-2.7-4.2-6.4l-5-2c-2.2-2-2.2-2-4.3-4.2q-4.1-4.3-8.5-8.1-11.6-10-21.5-21.7l-6-6.8q-7.1-8-13.7-16.2l-1.2-1.5A537 537 0 0 1 83 789l-1.5-2.3C49.5 736.6 27 681.7 13 624l-.7-3A474 474 0 0 1 1 539l-.2-2.8L0 518v-2.1C-2.3 443.4 15.8 367.7 46 302l1.3-3A520 520 0 0 1 140 161.8q8-9 16.7-17.5l2.4-2.4a271 271 0 0 1 18.5-17 415 415 0 0 1 32.2-25.7 435 435 0 0 1 54.5-34.6C325 29.5 395.6 10 465 2l3-.4C544.8-7 625.5 8 793 84" class="gold"/><path d="M926 109h2l.7 3.6a268 268 0 0 0 12.6 42.7l.8 2.3.7 2.2c6.3 17.8 11.2 36 16.2 54.2l.8 2.8 6 22.2c8.9 32.6 15.3 65.8 21.8 99l1 5.4a666 666 0 0 1 8.2 55.1 832 832 0 0 1 5.5 109.4 392 392 0 0 1-4 58.2l-1.6 13-.3 2.2q-3.9 27.2-11.4 53.7l-.7 2.4a297 297 0 0 1-15.5 42.9A275 275 0 0 1 927 751l-2.2 2.8a242 242 0 0 1-50.1 47.8l-3.3 2.5-2.8 2.2a14 14 0 0 1-6.6 2.7v2a392 392 0 0 1-77 35l-2.4.8-2.5.8-2.3.7-10 2.2-8.2 1.6A599 599 0 0 1 623 864.2c-93.7-.1-93.7-.1-131.7-5.7q-4.6-.7-9.4-.8h-3.4l-3.4-.2-6.8-.2-3-.1-8-.7q-8.9-.8-17.8-.7H436l-11.6-.1h-2c-38.4 0-76.9 2-114.8 8L297 865c3.6-3.6 8.8-5 13.5-6.9l3.6-1.4a942 942 0 0 1 97.2-32.4l16.8-5 13.9-4A823 823 0 0 0 557 773l3-1.4a570 570 0 0 0 42-21.6l2.7-1.5c26.4-15 52.5-32 75.5-52q3.8-3.4 7.9-6.5 7.3-6 14.1-12.4l6.7-6q8.5-7.6 16.5-16l10.1-10a291 291 0 0 0 21.1-22.6c20-23.1 37.7-47.5 54.4-73l1.8-2.7a453 453 0 0 0 24.8-43c19.8-36.5 39-81.2 41.4-123.3l-.4 1.6c-2.3 8.2-5.5 16-8.7 23.8l-.8 2.1a441 441 0 0 1-78.8 124.8l-1.4 1.6-3.8 4.5a524 524 0 0 1-34 35.6l-4 4-1.7 1.8q-5.7 5.5-11.7 10.7l-6.5 5.9q-6.4 5.6-13 11l-7 5.8A658 658 0 0 1 540 715l-3 1.3a721 721 0 0 1-94.6 32l-9 2.7a417 417 0 0 1-37.9 9.5q-30 7-60 13.2l-25.4 5.2-2.4.5-36.6 8-2.3.5c-12.7 2.8-12.7 2.8-18 4.2-4.8 1.1-8 1.7-12.6-.3A182 182 0 0 1 202 763l-1.5-1.3c-32-29.9-46.4-80.1-48.7-122.4a260 260 0 0 1 6-67.3 246 246 0 0 1 22.3-63.3c10.2-21 23.5-40.2 38.9-57.7l1.5-1.7q4.7-5.3 9.5-10.3l2.5-2.6a168 168 0 0 1 20.3-17.9c66.3-52.6 146.8-64.4 229-68.8 44.6-2.4 44.6-2.4 65.5-4.2l2.1-.2C632 338.2 710.4 313 780 268l3.2-2q22.4-14.8 42.8-32l1.8-1.5a583 583 0 0 0 29.1-26c11.9-11 11.9-11 16.5-16.6l5.9-6.5a281 281 0 0 0 17-21.2C908.2 147 921.8 128 926 109" class="leaf-fill"/><path d="M202.6 817.7h2.1c11.7.1 22.7 4.5 31.2 12.5a46 46 0 0 1 12.5 36.5A44 44 0 0 1 198 906a36 36 0 0 1-18-7l-2 1-.2-1.9-.8-2.1-5-2c-3.5-3-5.2-6-7.1-10.2l-1.5-3.3a48 48 0 0 1-2-34A50 50 0 0 1 185 821l1.9-1a40 40 0 0 1 15.7-2.3" class="dot"/></svg>